%TF.GenerationSoftware,KiCad,Pcbnew,(6.0.0)*%
%TF.CreationDate,2022-12-17T21:28:13-05:00*%
%TF.ProjectId,TPA3255PBTL,54504133-3235-4355-9042-544c2e6b6963,rev?*%
%TF.SameCoordinates,Original*%
%TF.FileFunction,Legend,Top*%
%TF.FilePolarity,Positive*%
%FSLAX46Y46*%
G04 Gerber Fmt 4.6, Leading zero omitted, Abs format (unit mm)*
G04 Created by KiCad (PCBNEW (6.0.0)) date 2022-12-17 21:28:13*
%MOMM*%
%LPD*%
G01*
G04 APERTURE LIST*
%ADD10C,0.150000*%
%ADD11C,0.120000*%
G04 APERTURE END LIST*
D10*
%TO.C,U3*%
X94238095Y-74552380D02*
X94238095Y-75361904D01*
X94285714Y-75457142D01*
X94333333Y-75504761D01*
X94428571Y-75552380D01*
X94619047Y-75552380D01*
X94714285Y-75504761D01*
X94761904Y-75457142D01*
X94809523Y-75361904D01*
X94809523Y-74552380D01*
X95190476Y-74552380D02*
X95809523Y-74552380D01*
X95476190Y-74933333D01*
X95619047Y-74933333D01*
X95714285Y-74980952D01*
X95761904Y-75028571D01*
X95809523Y-75123809D01*
X95809523Y-75361904D01*
X95761904Y-75457142D01*
X95714285Y-75504761D01*
X95619047Y-75552380D01*
X95333333Y-75552380D01*
X95238095Y-75504761D01*
X95190476Y-75457142D01*
%TO.C,C3*%
X134333333Y-81007142D02*
X134285714Y-81054761D01*
X134142857Y-81102380D01*
X134047619Y-81102380D01*
X133904761Y-81054761D01*
X133809523Y-80959523D01*
X133761904Y-80864285D01*
X133714285Y-80673809D01*
X133714285Y-80530952D01*
X133761904Y-80340476D01*
X133809523Y-80245238D01*
X133904761Y-80150000D01*
X134047619Y-80102380D01*
X134142857Y-80102380D01*
X134285714Y-80150000D01*
X134333333Y-80197619D01*
X134666666Y-80102380D02*
X135285714Y-80102380D01*
X134952380Y-80483333D01*
X135095238Y-80483333D01*
X135190476Y-80530952D01*
X135238095Y-80578571D01*
X135285714Y-80673809D01*
X135285714Y-80911904D01*
X135238095Y-81007142D01*
X135190476Y-81054761D01*
X135095238Y-81102380D01*
X134809523Y-81102380D01*
X134714285Y-81054761D01*
X134666666Y-81007142D01*
%TO.C,R8*%
X99302380Y-95926666D02*
X98826190Y-96260000D01*
X99302380Y-96498095D02*
X98302380Y-96498095D01*
X98302380Y-96117142D01*
X98350000Y-96021904D01*
X98397619Y-95974285D01*
X98492857Y-95926666D01*
X98635714Y-95926666D01*
X98730952Y-95974285D01*
X98778571Y-96021904D01*
X98826190Y-96117142D01*
X98826190Y-96498095D01*
X98730952Y-95355238D02*
X98683333Y-95450476D01*
X98635714Y-95498095D01*
X98540476Y-95545714D01*
X98492857Y-95545714D01*
X98397619Y-95498095D01*
X98350000Y-95450476D01*
X98302380Y-95355238D01*
X98302380Y-95164761D01*
X98350000Y-95069523D01*
X98397619Y-95021904D01*
X98492857Y-94974285D01*
X98540476Y-94974285D01*
X98635714Y-95021904D01*
X98683333Y-95069523D01*
X98730952Y-95164761D01*
X98730952Y-95355238D01*
X98778571Y-95450476D01*
X98826190Y-95498095D01*
X98921428Y-95545714D01*
X99111904Y-95545714D01*
X99207142Y-95498095D01*
X99254761Y-95450476D01*
X99302380Y-95355238D01*
X99302380Y-95164761D01*
X99254761Y-95069523D01*
X99207142Y-95021904D01*
X99111904Y-94974285D01*
X98921428Y-94974285D01*
X98826190Y-95021904D01*
X98778571Y-95069523D01*
X98730952Y-95164761D01*
%TO.C,R3*%
X79920833Y-63802380D02*
X79587500Y-63326190D01*
X79349404Y-63802380D02*
X79349404Y-62802380D01*
X79730357Y-62802380D01*
X79825595Y-62850000D01*
X79873214Y-62897619D01*
X79920833Y-62992857D01*
X79920833Y-63135714D01*
X79873214Y-63230952D01*
X79825595Y-63278571D01*
X79730357Y-63326190D01*
X79349404Y-63326190D01*
X80254166Y-62802380D02*
X80873214Y-62802380D01*
X80539880Y-63183333D01*
X80682738Y-63183333D01*
X80777976Y-63230952D01*
X80825595Y-63278571D01*
X80873214Y-63373809D01*
X80873214Y-63611904D01*
X80825595Y-63707142D01*
X80777976Y-63754761D01*
X80682738Y-63802380D01*
X80397023Y-63802380D01*
X80301785Y-63754761D01*
X80254166Y-63707142D01*
%TO.C,C18*%
X88857142Y-105357142D02*
X88809523Y-105404761D01*
X88666666Y-105452380D01*
X88571428Y-105452380D01*
X88428571Y-105404761D01*
X88333333Y-105309523D01*
X88285714Y-105214285D01*
X88238095Y-105023809D01*
X88238095Y-104880952D01*
X88285714Y-104690476D01*
X88333333Y-104595238D01*
X88428571Y-104500000D01*
X88571428Y-104452380D01*
X88666666Y-104452380D01*
X88809523Y-104500000D01*
X88857142Y-104547619D01*
X89809523Y-105452380D02*
X89238095Y-105452380D01*
X89523809Y-105452380D02*
X89523809Y-104452380D01*
X89428571Y-104595238D01*
X89333333Y-104690476D01*
X89238095Y-104738095D01*
X90380952Y-104880952D02*
X90285714Y-104833333D01*
X90238095Y-104785714D01*
X90190476Y-104690476D01*
X90190476Y-104642857D01*
X90238095Y-104547619D01*
X90285714Y-104500000D01*
X90380952Y-104452380D01*
X90571428Y-104452380D01*
X90666666Y-104500000D01*
X90714285Y-104547619D01*
X90761904Y-104642857D01*
X90761904Y-104690476D01*
X90714285Y-104785714D01*
X90666666Y-104833333D01*
X90571428Y-104880952D01*
X90380952Y-104880952D01*
X90285714Y-104928571D01*
X90238095Y-104976190D01*
X90190476Y-105071428D01*
X90190476Y-105261904D01*
X90238095Y-105357142D01*
X90285714Y-105404761D01*
X90380952Y-105452380D01*
X90571428Y-105452380D01*
X90666666Y-105404761D01*
X90714285Y-105357142D01*
X90761904Y-105261904D01*
X90761904Y-105071428D01*
X90714285Y-104976190D01*
X90666666Y-104928571D01*
X90571428Y-104880952D01*
%TO.C,C22*%
X115177142Y-97942857D02*
X115224761Y-97990476D01*
X115272380Y-98133333D01*
X115272380Y-98228571D01*
X115224761Y-98371428D01*
X115129523Y-98466666D01*
X115034285Y-98514285D01*
X114843809Y-98561904D01*
X114700952Y-98561904D01*
X114510476Y-98514285D01*
X114415238Y-98466666D01*
X114320000Y-98371428D01*
X114272380Y-98228571D01*
X114272380Y-98133333D01*
X114320000Y-97990476D01*
X114367619Y-97942857D01*
X114367619Y-97561904D02*
X114320000Y-97514285D01*
X114272380Y-97419047D01*
X114272380Y-97180952D01*
X114320000Y-97085714D01*
X114367619Y-97038095D01*
X114462857Y-96990476D01*
X114558095Y-96990476D01*
X114700952Y-97038095D01*
X115272380Y-97609523D01*
X115272380Y-96990476D01*
X114367619Y-96609523D02*
X114320000Y-96561904D01*
X114272380Y-96466666D01*
X114272380Y-96228571D01*
X114320000Y-96133333D01*
X114367619Y-96085714D01*
X114462857Y-96038095D01*
X114558095Y-96038095D01*
X114700952Y-96085714D01*
X115272380Y-96657142D01*
X115272380Y-96038095D01*
%TO.C,R30*%
X110194642Y-88552380D02*
X109861309Y-88076190D01*
X109623214Y-88552380D02*
X109623214Y-87552380D01*
X110004166Y-87552380D01*
X110099404Y-87600000D01*
X110147023Y-87647619D01*
X110194642Y-87742857D01*
X110194642Y-87885714D01*
X110147023Y-87980952D01*
X110099404Y-88028571D01*
X110004166Y-88076190D01*
X109623214Y-88076190D01*
X110527976Y-87552380D02*
X111147023Y-87552380D01*
X110813690Y-87933333D01*
X110956547Y-87933333D01*
X111051785Y-87980952D01*
X111099404Y-88028571D01*
X111147023Y-88123809D01*
X111147023Y-88361904D01*
X111099404Y-88457142D01*
X111051785Y-88504761D01*
X110956547Y-88552380D01*
X110670833Y-88552380D01*
X110575595Y-88504761D01*
X110527976Y-88457142D01*
X111766071Y-87552380D02*
X111861309Y-87552380D01*
X111956547Y-87600000D01*
X112004166Y-87647619D01*
X112051785Y-87742857D01*
X112099404Y-87933333D01*
X112099404Y-88171428D01*
X112051785Y-88361904D01*
X112004166Y-88457142D01*
X111956547Y-88504761D01*
X111861309Y-88552380D01*
X111766071Y-88552380D01*
X111670833Y-88504761D01*
X111623214Y-88457142D01*
X111575595Y-88361904D01*
X111527976Y-88171428D01*
X111527976Y-87933333D01*
X111575595Y-87742857D01*
X111623214Y-87647619D01*
X111670833Y-87600000D01*
X111766071Y-87552380D01*
%TO.C,C9*%
X79757142Y-70121779D02*
X79804761Y-70169398D01*
X79852380Y-70312255D01*
X79852380Y-70407493D01*
X79804761Y-70550351D01*
X79709523Y-70645589D01*
X79614285Y-70693208D01*
X79423809Y-70740827D01*
X79280952Y-70740827D01*
X79090476Y-70693208D01*
X78995238Y-70645589D01*
X78900000Y-70550351D01*
X78852380Y-70407493D01*
X78852380Y-70312255D01*
X78900000Y-70169398D01*
X78947619Y-70121779D01*
X79852380Y-69645589D02*
X79852380Y-69455113D01*
X79804761Y-69359874D01*
X79757142Y-69312255D01*
X79614285Y-69217017D01*
X79423809Y-69169398D01*
X79042857Y-69169398D01*
X78947619Y-69217017D01*
X78900000Y-69264636D01*
X78852380Y-69359874D01*
X78852380Y-69550351D01*
X78900000Y-69645589D01*
X78947619Y-69693208D01*
X79042857Y-69740827D01*
X79280952Y-69740827D01*
X79376190Y-69693208D01*
X79423809Y-69645589D01*
X79471428Y-69550351D01*
X79471428Y-69359874D01*
X79423809Y-69264636D01*
X79376190Y-69217017D01*
X79280952Y-69169398D01*
%TO.C,C20*%
X102857142Y-103107142D02*
X102809523Y-103154761D01*
X102666666Y-103202380D01*
X102571428Y-103202380D01*
X102428571Y-103154761D01*
X102333333Y-103059523D01*
X102285714Y-102964285D01*
X102238095Y-102773809D01*
X102238095Y-102630952D01*
X102285714Y-102440476D01*
X102333333Y-102345238D01*
X102428571Y-102250000D01*
X102571428Y-102202380D01*
X102666666Y-102202380D01*
X102809523Y-102250000D01*
X102857142Y-102297619D01*
X103238095Y-102297619D02*
X103285714Y-102250000D01*
X103380952Y-102202380D01*
X103619047Y-102202380D01*
X103714285Y-102250000D01*
X103761904Y-102297619D01*
X103809523Y-102392857D01*
X103809523Y-102488095D01*
X103761904Y-102630952D01*
X103190476Y-103202380D01*
X103809523Y-103202380D01*
X104428571Y-102202380D02*
X104523809Y-102202380D01*
X104619047Y-102250000D01*
X104666666Y-102297619D01*
X104714285Y-102392857D01*
X104761904Y-102583333D01*
X104761904Y-102821428D01*
X104714285Y-103011904D01*
X104666666Y-103107142D01*
X104619047Y-103154761D01*
X104523809Y-103202380D01*
X104428571Y-103202380D01*
X104333333Y-103154761D01*
X104285714Y-103107142D01*
X104238095Y-103011904D01*
X104190476Y-102821428D01*
X104190476Y-102583333D01*
X104238095Y-102392857D01*
X104285714Y-102297619D01*
X104333333Y-102250000D01*
X104428571Y-102202380D01*
%TO.C,R19*%
X112357142Y-72702380D02*
X112023809Y-72226190D01*
X111785714Y-72702380D02*
X111785714Y-71702380D01*
X112166666Y-71702380D01*
X112261904Y-71750000D01*
X112309523Y-71797619D01*
X112357142Y-71892857D01*
X112357142Y-72035714D01*
X112309523Y-72130952D01*
X112261904Y-72178571D01*
X112166666Y-72226190D01*
X111785714Y-72226190D01*
X113309523Y-72702380D02*
X112738095Y-72702380D01*
X113023809Y-72702380D02*
X113023809Y-71702380D01*
X112928571Y-71845238D01*
X112833333Y-71940476D01*
X112738095Y-71988095D01*
X113785714Y-72702380D02*
X113976190Y-72702380D01*
X114071428Y-72654761D01*
X114119047Y-72607142D01*
X114214285Y-72464285D01*
X114261904Y-72273809D01*
X114261904Y-71892857D01*
X114214285Y-71797619D01*
X114166666Y-71750000D01*
X114071428Y-71702380D01*
X113880952Y-71702380D01*
X113785714Y-71750000D01*
X113738095Y-71797619D01*
X113690476Y-71892857D01*
X113690476Y-72130952D01*
X113738095Y-72226190D01*
X113785714Y-72273809D01*
X113880952Y-72321428D01*
X114071428Y-72321428D01*
X114166666Y-72273809D01*
X114214285Y-72226190D01*
X114261904Y-72130952D01*
%TO.C,R20*%
X107452380Y-112642857D02*
X106976190Y-112976190D01*
X107452380Y-113214285D02*
X106452380Y-113214285D01*
X106452380Y-112833333D01*
X106500000Y-112738095D01*
X106547619Y-112690476D01*
X106642857Y-112642857D01*
X106785714Y-112642857D01*
X106880952Y-112690476D01*
X106928571Y-112738095D01*
X106976190Y-112833333D01*
X106976190Y-113214285D01*
X106547619Y-112261904D02*
X106500000Y-112214285D01*
X106452380Y-112119047D01*
X106452380Y-111880952D01*
X106500000Y-111785714D01*
X106547619Y-111738095D01*
X106642857Y-111690476D01*
X106738095Y-111690476D01*
X106880952Y-111738095D01*
X107452380Y-112309523D01*
X107452380Y-111690476D01*
X106452380Y-111071428D02*
X106452380Y-110976190D01*
X106500000Y-110880952D01*
X106547619Y-110833333D01*
X106642857Y-110785714D01*
X106833333Y-110738095D01*
X107071428Y-110738095D01*
X107261904Y-110785714D01*
X107357142Y-110833333D01*
X107404761Y-110880952D01*
X107452380Y-110976190D01*
X107452380Y-111071428D01*
X107404761Y-111166666D01*
X107357142Y-111214285D01*
X107261904Y-111261904D01*
X107071428Y-111309523D01*
X106833333Y-111309523D01*
X106642857Y-111261904D01*
X106547619Y-111214285D01*
X106500000Y-111166666D01*
X106452380Y-111071428D01*
%TO.C,C11*%
X107607142Y-78892857D02*
X107654761Y-78940476D01*
X107702380Y-79083333D01*
X107702380Y-79178571D01*
X107654761Y-79321428D01*
X107559523Y-79416666D01*
X107464285Y-79464285D01*
X107273809Y-79511904D01*
X107130952Y-79511904D01*
X106940476Y-79464285D01*
X106845238Y-79416666D01*
X106750000Y-79321428D01*
X106702380Y-79178571D01*
X106702380Y-79083333D01*
X106750000Y-78940476D01*
X106797619Y-78892857D01*
X107702380Y-77940476D02*
X107702380Y-78511904D01*
X107702380Y-78226190D02*
X106702380Y-78226190D01*
X106845238Y-78321428D01*
X106940476Y-78416666D01*
X106988095Y-78511904D01*
X107702380Y-76988095D02*
X107702380Y-77559523D01*
X107702380Y-77273809D02*
X106702380Y-77273809D01*
X106845238Y-77369047D01*
X106940476Y-77464285D01*
X106988095Y-77559523D01*
%TO.C,R23*%
X86452380Y-83642857D02*
X85976190Y-83976190D01*
X86452380Y-84214285D02*
X85452380Y-84214285D01*
X85452380Y-83833333D01*
X85500000Y-83738095D01*
X85547619Y-83690476D01*
X85642857Y-83642857D01*
X85785714Y-83642857D01*
X85880952Y-83690476D01*
X85928571Y-83738095D01*
X85976190Y-83833333D01*
X85976190Y-84214285D01*
X85547619Y-83261904D02*
X85500000Y-83214285D01*
X85452380Y-83119047D01*
X85452380Y-82880952D01*
X85500000Y-82785714D01*
X85547619Y-82738095D01*
X85642857Y-82690476D01*
X85738095Y-82690476D01*
X85880952Y-82738095D01*
X86452380Y-83309523D01*
X86452380Y-82690476D01*
X85452380Y-82357142D02*
X85452380Y-81738095D01*
X85833333Y-82071428D01*
X85833333Y-81928571D01*
X85880952Y-81833333D01*
X85928571Y-81785714D01*
X86023809Y-81738095D01*
X86261904Y-81738095D01*
X86357142Y-81785714D01*
X86404761Y-81833333D01*
X86452380Y-81928571D01*
X86452380Y-82214285D01*
X86404761Y-82309523D01*
X86357142Y-82357142D01*
%TO.C,SW1*%
X97666666Y-84104761D02*
X97809523Y-84152380D01*
X98047619Y-84152380D01*
X98142857Y-84104761D01*
X98190476Y-84057142D01*
X98238095Y-83961904D01*
X98238095Y-83866666D01*
X98190476Y-83771428D01*
X98142857Y-83723809D01*
X98047619Y-83676190D01*
X97857142Y-83628571D01*
X97761904Y-83580952D01*
X97714285Y-83533333D01*
X97666666Y-83438095D01*
X97666666Y-83342857D01*
X97714285Y-83247619D01*
X97761904Y-83200000D01*
X97857142Y-83152380D01*
X98095238Y-83152380D01*
X98238095Y-83200000D01*
X98571428Y-83152380D02*
X98809523Y-84152380D01*
X99000000Y-83438095D01*
X99190476Y-84152380D01*
X99428571Y-83152380D01*
X100333333Y-84152380D02*
X99761904Y-84152380D01*
X100047619Y-84152380D02*
X100047619Y-83152380D01*
X99952380Y-83295238D01*
X99857142Y-83390476D01*
X99761904Y-83438095D01*
%TO.C,R29*%
X110194642Y-85302380D02*
X109861309Y-84826190D01*
X109623214Y-85302380D02*
X109623214Y-84302380D01*
X110004166Y-84302380D01*
X110099404Y-84350000D01*
X110147023Y-84397619D01*
X110194642Y-84492857D01*
X110194642Y-84635714D01*
X110147023Y-84730952D01*
X110099404Y-84778571D01*
X110004166Y-84826190D01*
X109623214Y-84826190D01*
X110575595Y-84397619D02*
X110623214Y-84350000D01*
X110718452Y-84302380D01*
X110956547Y-84302380D01*
X111051785Y-84350000D01*
X111099404Y-84397619D01*
X111147023Y-84492857D01*
X111147023Y-84588095D01*
X111099404Y-84730952D01*
X110527976Y-85302380D01*
X111147023Y-85302380D01*
X111623214Y-85302380D02*
X111813690Y-85302380D01*
X111908928Y-85254761D01*
X111956547Y-85207142D01*
X112051785Y-85064285D01*
X112099404Y-84873809D01*
X112099404Y-84492857D01*
X112051785Y-84397619D01*
X112004166Y-84350000D01*
X111908928Y-84302380D01*
X111718452Y-84302380D01*
X111623214Y-84350000D01*
X111575595Y-84397619D01*
X111527976Y-84492857D01*
X111527976Y-84730952D01*
X111575595Y-84826190D01*
X111623214Y-84873809D01*
X111718452Y-84921428D01*
X111908928Y-84921428D01*
X112004166Y-84873809D01*
X112051785Y-84826190D01*
X112099404Y-84730952D01*
%TO.C,C33*%
X132607142Y-97357142D02*
X132559523Y-97404761D01*
X132416666Y-97452380D01*
X132321428Y-97452380D01*
X132178571Y-97404761D01*
X132083333Y-97309523D01*
X132035714Y-97214285D01*
X131988095Y-97023809D01*
X131988095Y-96880952D01*
X132035714Y-96690476D01*
X132083333Y-96595238D01*
X132178571Y-96500000D01*
X132321428Y-96452380D01*
X132416666Y-96452380D01*
X132559523Y-96500000D01*
X132607142Y-96547619D01*
X132940476Y-96452380D02*
X133559523Y-96452380D01*
X133226190Y-96833333D01*
X133369047Y-96833333D01*
X133464285Y-96880952D01*
X133511904Y-96928571D01*
X133559523Y-97023809D01*
X133559523Y-97261904D01*
X133511904Y-97357142D01*
X133464285Y-97404761D01*
X133369047Y-97452380D01*
X133083333Y-97452380D01*
X132988095Y-97404761D01*
X132940476Y-97357142D01*
X133892857Y-96452380D02*
X134511904Y-96452380D01*
X134178571Y-96833333D01*
X134321428Y-96833333D01*
X134416666Y-96880952D01*
X134464285Y-96928571D01*
X134511904Y-97023809D01*
X134511904Y-97261904D01*
X134464285Y-97357142D01*
X134416666Y-97404761D01*
X134321428Y-97452380D01*
X134035714Y-97452380D01*
X133940476Y-97404761D01*
X133892857Y-97357142D01*
%TO.C,C39*%
X146607142Y-92357142D02*
X146559523Y-92404761D01*
X146416666Y-92452380D01*
X146321428Y-92452380D01*
X146178571Y-92404761D01*
X146083333Y-92309523D01*
X146035714Y-92214285D01*
X145988095Y-92023809D01*
X145988095Y-91880952D01*
X146035714Y-91690476D01*
X146083333Y-91595238D01*
X146178571Y-91500000D01*
X146321428Y-91452380D01*
X146416666Y-91452380D01*
X146559523Y-91500000D01*
X146607142Y-91547619D01*
X146940476Y-91452380D02*
X147559523Y-91452380D01*
X147226190Y-91833333D01*
X147369047Y-91833333D01*
X147464285Y-91880952D01*
X147511904Y-91928571D01*
X147559523Y-92023809D01*
X147559523Y-92261904D01*
X147511904Y-92357142D01*
X147464285Y-92404761D01*
X147369047Y-92452380D01*
X147083333Y-92452380D01*
X146988095Y-92404761D01*
X146940476Y-92357142D01*
X148035714Y-92452380D02*
X148226190Y-92452380D01*
X148321428Y-92404761D01*
X148369047Y-92357142D01*
X148464285Y-92214285D01*
X148511904Y-92023809D01*
X148511904Y-91642857D01*
X148464285Y-91547619D01*
X148416666Y-91500000D01*
X148321428Y-91452380D01*
X148130952Y-91452380D01*
X148035714Y-91500000D01*
X147988095Y-91547619D01*
X147940476Y-91642857D01*
X147940476Y-91880952D01*
X147988095Y-91976190D01*
X148035714Y-92023809D01*
X148130952Y-92071428D01*
X148321428Y-92071428D01*
X148416666Y-92023809D01*
X148464285Y-91976190D01*
X148511904Y-91880952D01*
%TO.C,R28*%
X88857142Y-87302380D02*
X88523809Y-86826190D01*
X88285714Y-87302380D02*
X88285714Y-86302380D01*
X88666666Y-86302380D01*
X88761904Y-86350000D01*
X88809523Y-86397619D01*
X88857142Y-86492857D01*
X88857142Y-86635714D01*
X88809523Y-86730952D01*
X88761904Y-86778571D01*
X88666666Y-86826190D01*
X88285714Y-86826190D01*
X89238095Y-86397619D02*
X89285714Y-86350000D01*
X89380952Y-86302380D01*
X89619047Y-86302380D01*
X89714285Y-86350000D01*
X89761904Y-86397619D01*
X89809523Y-86492857D01*
X89809523Y-86588095D01*
X89761904Y-86730952D01*
X89190476Y-87302380D01*
X89809523Y-87302380D01*
X90380952Y-86730952D02*
X90285714Y-86683333D01*
X90238095Y-86635714D01*
X90190476Y-86540476D01*
X90190476Y-86492857D01*
X90238095Y-86397619D01*
X90285714Y-86350000D01*
X90380952Y-86302380D01*
X90571428Y-86302380D01*
X90666666Y-86350000D01*
X90714285Y-86397619D01*
X90761904Y-86492857D01*
X90761904Y-86540476D01*
X90714285Y-86635714D01*
X90666666Y-86683333D01*
X90571428Y-86730952D01*
X90380952Y-86730952D01*
X90285714Y-86778571D01*
X90238095Y-86826190D01*
X90190476Y-86921428D01*
X90190476Y-87111904D01*
X90238095Y-87207142D01*
X90285714Y-87254761D01*
X90380952Y-87302380D01*
X90571428Y-87302380D01*
X90666666Y-87254761D01*
X90714285Y-87207142D01*
X90761904Y-87111904D01*
X90761904Y-86921428D01*
X90714285Y-86826190D01*
X90666666Y-86778571D01*
X90571428Y-86730952D01*
%TO.C,R14*%
X116857142Y-82702380D02*
X116523809Y-82226190D01*
X116285714Y-82702380D02*
X116285714Y-81702380D01*
X116666666Y-81702380D01*
X116761904Y-81750000D01*
X116809523Y-81797619D01*
X116857142Y-81892857D01*
X116857142Y-82035714D01*
X116809523Y-82130952D01*
X116761904Y-82178571D01*
X116666666Y-82226190D01*
X116285714Y-82226190D01*
X117809523Y-82702380D02*
X117238095Y-82702380D01*
X117523809Y-82702380D02*
X117523809Y-81702380D01*
X117428571Y-81845238D01*
X117333333Y-81940476D01*
X117238095Y-81988095D01*
X118666666Y-82035714D02*
X118666666Y-82702380D01*
X118428571Y-81654761D02*
X118190476Y-82369047D01*
X118809523Y-82369047D01*
%TO.C,C31*%
X88357142Y-74357142D02*
X88309523Y-74404761D01*
X88166666Y-74452380D01*
X88071428Y-74452380D01*
X87928571Y-74404761D01*
X87833333Y-74309523D01*
X87785714Y-74214285D01*
X87738095Y-74023809D01*
X87738095Y-73880952D01*
X87785714Y-73690476D01*
X87833333Y-73595238D01*
X87928571Y-73500000D01*
X88071428Y-73452380D01*
X88166666Y-73452380D01*
X88309523Y-73500000D01*
X88357142Y-73547619D01*
X88690476Y-73452380D02*
X89309523Y-73452380D01*
X88976190Y-73833333D01*
X89119047Y-73833333D01*
X89214285Y-73880952D01*
X89261904Y-73928571D01*
X89309523Y-74023809D01*
X89309523Y-74261904D01*
X89261904Y-74357142D01*
X89214285Y-74404761D01*
X89119047Y-74452380D01*
X88833333Y-74452380D01*
X88738095Y-74404761D01*
X88690476Y-74357142D01*
X90261904Y-74452380D02*
X89690476Y-74452380D01*
X89976190Y-74452380D02*
X89976190Y-73452380D01*
X89880952Y-73595238D01*
X89785714Y-73690476D01*
X89690476Y-73738095D01*
%TO.C,R12*%
X112857142Y-109302380D02*
X112523809Y-108826190D01*
X112285714Y-109302380D02*
X112285714Y-108302380D01*
X112666666Y-108302380D01*
X112761904Y-108350000D01*
X112809523Y-108397619D01*
X112857142Y-108492857D01*
X112857142Y-108635714D01*
X112809523Y-108730952D01*
X112761904Y-108778571D01*
X112666666Y-108826190D01*
X112285714Y-108826190D01*
X113809523Y-109302380D02*
X113238095Y-109302380D01*
X113523809Y-109302380D02*
X113523809Y-108302380D01*
X113428571Y-108445238D01*
X113333333Y-108540476D01*
X113238095Y-108588095D01*
X114190476Y-108397619D02*
X114238095Y-108350000D01*
X114333333Y-108302380D01*
X114571428Y-108302380D01*
X114666666Y-108350000D01*
X114714285Y-108397619D01*
X114761904Y-108492857D01*
X114761904Y-108588095D01*
X114714285Y-108730952D01*
X114142857Y-109302380D01*
X114761904Y-109302380D01*
%TO.C,C32*%
X132607142Y-95107142D02*
X132559523Y-95154761D01*
X132416666Y-95202380D01*
X132321428Y-95202380D01*
X132178571Y-95154761D01*
X132083333Y-95059523D01*
X132035714Y-94964285D01*
X131988095Y-94773809D01*
X131988095Y-94630952D01*
X132035714Y-94440476D01*
X132083333Y-94345238D01*
X132178571Y-94250000D01*
X132321428Y-94202380D01*
X132416666Y-94202380D01*
X132559523Y-94250000D01*
X132607142Y-94297619D01*
X132940476Y-94202380D02*
X133559523Y-94202380D01*
X133226190Y-94583333D01*
X133369047Y-94583333D01*
X133464285Y-94630952D01*
X133511904Y-94678571D01*
X133559523Y-94773809D01*
X133559523Y-95011904D01*
X133511904Y-95107142D01*
X133464285Y-95154761D01*
X133369047Y-95202380D01*
X133083333Y-95202380D01*
X132988095Y-95154761D01*
X132940476Y-95107142D01*
X133940476Y-94297619D02*
X133988095Y-94250000D01*
X134083333Y-94202380D01*
X134321428Y-94202380D01*
X134416666Y-94250000D01*
X134464285Y-94297619D01*
X134511904Y-94392857D01*
X134511904Y-94488095D01*
X134464285Y-94630952D01*
X133892857Y-95202380D01*
X134511904Y-95202380D01*
%TO.C,C12*%
X95857142Y-71642857D02*
X95904761Y-71690476D01*
X95952380Y-71833333D01*
X95952380Y-71928571D01*
X95904761Y-72071428D01*
X95809523Y-72166666D01*
X95714285Y-72214285D01*
X95523809Y-72261904D01*
X95380952Y-72261904D01*
X95190476Y-72214285D01*
X95095238Y-72166666D01*
X95000000Y-72071428D01*
X94952380Y-71928571D01*
X94952380Y-71833333D01*
X95000000Y-71690476D01*
X95047619Y-71642857D01*
X95952380Y-70690476D02*
X95952380Y-71261904D01*
X95952380Y-70976190D02*
X94952380Y-70976190D01*
X95095238Y-71071428D01*
X95190476Y-71166666D01*
X95238095Y-71261904D01*
X95047619Y-70309523D02*
X95000000Y-70261904D01*
X94952380Y-70166666D01*
X94952380Y-69928571D01*
X95000000Y-69833333D01*
X95047619Y-69785714D01*
X95142857Y-69738095D01*
X95238095Y-69738095D01*
X95380952Y-69785714D01*
X95952380Y-70357142D01*
X95952380Y-69738095D01*
%TO.C,R11*%
X123682142Y-110952380D02*
X123348809Y-110476190D01*
X123110714Y-110952380D02*
X123110714Y-109952380D01*
X123491666Y-109952380D01*
X123586904Y-110000000D01*
X123634523Y-110047619D01*
X123682142Y-110142857D01*
X123682142Y-110285714D01*
X123634523Y-110380952D01*
X123586904Y-110428571D01*
X123491666Y-110476190D01*
X123110714Y-110476190D01*
X124634523Y-110952380D02*
X124063095Y-110952380D01*
X124348809Y-110952380D02*
X124348809Y-109952380D01*
X124253571Y-110095238D01*
X124158333Y-110190476D01*
X124063095Y-110238095D01*
X125586904Y-110952380D02*
X125015476Y-110952380D01*
X125301190Y-110952380D02*
X125301190Y-109952380D01*
X125205952Y-110095238D01*
X125110714Y-110190476D01*
X125015476Y-110238095D01*
%TO.C,C23*%
X105107142Y-73857142D02*
X105059523Y-73904761D01*
X104916666Y-73952380D01*
X104821428Y-73952380D01*
X104678571Y-73904761D01*
X104583333Y-73809523D01*
X104535714Y-73714285D01*
X104488095Y-73523809D01*
X104488095Y-73380952D01*
X104535714Y-73190476D01*
X104583333Y-73095238D01*
X104678571Y-73000000D01*
X104821428Y-72952380D01*
X104916666Y-72952380D01*
X105059523Y-73000000D01*
X105107142Y-73047619D01*
X105488095Y-73047619D02*
X105535714Y-73000000D01*
X105630952Y-72952380D01*
X105869047Y-72952380D01*
X105964285Y-73000000D01*
X106011904Y-73047619D01*
X106059523Y-73142857D01*
X106059523Y-73238095D01*
X106011904Y-73380952D01*
X105440476Y-73952380D01*
X106059523Y-73952380D01*
X106392857Y-72952380D02*
X107011904Y-72952380D01*
X106678571Y-73333333D01*
X106821428Y-73333333D01*
X106916666Y-73380952D01*
X106964285Y-73428571D01*
X107011904Y-73523809D01*
X107011904Y-73761904D01*
X106964285Y-73857142D01*
X106916666Y-73904761D01*
X106821428Y-73952380D01*
X106535714Y-73952380D01*
X106440476Y-73904761D01*
X106392857Y-73857142D01*
%TO.C,R21*%
X106444642Y-103302380D02*
X106111309Y-102826190D01*
X105873214Y-103302380D02*
X105873214Y-102302380D01*
X106254166Y-102302380D01*
X106349404Y-102350000D01*
X106397023Y-102397619D01*
X106444642Y-102492857D01*
X106444642Y-102635714D01*
X106397023Y-102730952D01*
X106349404Y-102778571D01*
X106254166Y-102826190D01*
X105873214Y-102826190D01*
X106825595Y-102397619D02*
X106873214Y-102350000D01*
X106968452Y-102302380D01*
X107206547Y-102302380D01*
X107301785Y-102350000D01*
X107349404Y-102397619D01*
X107397023Y-102492857D01*
X107397023Y-102588095D01*
X107349404Y-102730952D01*
X106777976Y-103302380D01*
X107397023Y-103302380D01*
X108349404Y-103302380D02*
X107777976Y-103302380D01*
X108063690Y-103302380D02*
X108063690Y-102302380D01*
X107968452Y-102445238D01*
X107873214Y-102540476D01*
X107777976Y-102588095D01*
%TO.C,C29*%
X97807142Y-73177142D02*
X97759523Y-73224761D01*
X97616666Y-73272380D01*
X97521428Y-73272380D01*
X97378571Y-73224761D01*
X97283333Y-73129523D01*
X97235714Y-73034285D01*
X97188095Y-72843809D01*
X97188095Y-72700952D01*
X97235714Y-72510476D01*
X97283333Y-72415238D01*
X97378571Y-72320000D01*
X97521428Y-72272380D01*
X97616666Y-72272380D01*
X97759523Y-72320000D01*
X97807142Y-72367619D01*
X98188095Y-72367619D02*
X98235714Y-72320000D01*
X98330952Y-72272380D01*
X98569047Y-72272380D01*
X98664285Y-72320000D01*
X98711904Y-72367619D01*
X98759523Y-72462857D01*
X98759523Y-72558095D01*
X98711904Y-72700952D01*
X98140476Y-73272380D01*
X98759523Y-73272380D01*
X99235714Y-73272380D02*
X99426190Y-73272380D01*
X99521428Y-73224761D01*
X99569047Y-73177142D01*
X99664285Y-73034285D01*
X99711904Y-72843809D01*
X99711904Y-72462857D01*
X99664285Y-72367619D01*
X99616666Y-72320000D01*
X99521428Y-72272380D01*
X99330952Y-72272380D01*
X99235714Y-72320000D01*
X99188095Y-72367619D01*
X99140476Y-72462857D01*
X99140476Y-72700952D01*
X99188095Y-72796190D01*
X99235714Y-72843809D01*
X99330952Y-72891428D01*
X99521428Y-72891428D01*
X99616666Y-72843809D01*
X99664285Y-72796190D01*
X99711904Y-72700952D01*
%TO.C,J3*%
X98161666Y-97082380D02*
X98161666Y-97796666D01*
X98114047Y-97939523D01*
X98018809Y-98034761D01*
X97875952Y-98082380D01*
X97780714Y-98082380D01*
X98542619Y-97082380D02*
X99161666Y-97082380D01*
X98828333Y-97463333D01*
X98971190Y-97463333D01*
X99066428Y-97510952D01*
X99114047Y-97558571D01*
X99161666Y-97653809D01*
X99161666Y-97891904D01*
X99114047Y-97987142D01*
X99066428Y-98034761D01*
X98971190Y-98082380D01*
X98685476Y-98082380D01*
X98590238Y-98034761D01*
X98542619Y-97987142D01*
%TO.C,C38*%
X148357142Y-69107142D02*
X148309523Y-69154761D01*
X148166666Y-69202380D01*
X148071428Y-69202380D01*
X147928571Y-69154761D01*
X147833333Y-69059523D01*
X147785714Y-68964285D01*
X147738095Y-68773809D01*
X147738095Y-68630952D01*
X147785714Y-68440476D01*
X147833333Y-68345238D01*
X147928571Y-68250000D01*
X148071428Y-68202380D01*
X148166666Y-68202380D01*
X148309523Y-68250000D01*
X148357142Y-68297619D01*
X148690476Y-68202380D02*
X149309523Y-68202380D01*
X148976190Y-68583333D01*
X149119047Y-68583333D01*
X149214285Y-68630952D01*
X149261904Y-68678571D01*
X149309523Y-68773809D01*
X149309523Y-69011904D01*
X149261904Y-69107142D01*
X149214285Y-69154761D01*
X149119047Y-69202380D01*
X148833333Y-69202380D01*
X148738095Y-69154761D01*
X148690476Y-69107142D01*
X149880952Y-68630952D02*
X149785714Y-68583333D01*
X149738095Y-68535714D01*
X149690476Y-68440476D01*
X149690476Y-68392857D01*
X149738095Y-68297619D01*
X149785714Y-68250000D01*
X149880952Y-68202380D01*
X150071428Y-68202380D01*
X150166666Y-68250000D01*
X150214285Y-68297619D01*
X150261904Y-68392857D01*
X150261904Y-68440476D01*
X150214285Y-68535714D01*
X150166666Y-68583333D01*
X150071428Y-68630952D01*
X149880952Y-68630952D01*
X149785714Y-68678571D01*
X149738095Y-68726190D01*
X149690476Y-68821428D01*
X149690476Y-69011904D01*
X149738095Y-69107142D01*
X149785714Y-69154761D01*
X149880952Y-69202380D01*
X150071428Y-69202380D01*
X150166666Y-69154761D01*
X150214285Y-69107142D01*
X150261904Y-69011904D01*
X150261904Y-68821428D01*
X150214285Y-68726190D01*
X150166666Y-68678571D01*
X150071428Y-68630952D01*
%TO.C,R9*%
X109952380Y-111666666D02*
X109476190Y-112000000D01*
X109952380Y-112238095D02*
X108952380Y-112238095D01*
X108952380Y-111857142D01*
X109000000Y-111761904D01*
X109047619Y-111714285D01*
X109142857Y-111666666D01*
X109285714Y-111666666D01*
X109380952Y-111714285D01*
X109428571Y-111761904D01*
X109476190Y-111857142D01*
X109476190Y-112238095D01*
X109952380Y-111190476D02*
X109952380Y-111000000D01*
X109904761Y-110904761D01*
X109857142Y-110857142D01*
X109714285Y-110761904D01*
X109523809Y-110714285D01*
X109142857Y-110714285D01*
X109047619Y-110761904D01*
X109000000Y-110809523D01*
X108952380Y-110904761D01*
X108952380Y-111095238D01*
X109000000Y-111190476D01*
X109047619Y-111238095D01*
X109142857Y-111285714D01*
X109380952Y-111285714D01*
X109476190Y-111238095D01*
X109523809Y-111190476D01*
X109571428Y-111095238D01*
X109571428Y-110904761D01*
X109523809Y-110809523D01*
X109476190Y-110761904D01*
X109380952Y-110714285D01*
%TO.C,R24*%
X80302380Y-83555357D02*
X79826190Y-83888690D01*
X80302380Y-84126785D02*
X79302380Y-84126785D01*
X79302380Y-83745833D01*
X79350000Y-83650595D01*
X79397619Y-83602976D01*
X79492857Y-83555357D01*
X79635714Y-83555357D01*
X79730952Y-83602976D01*
X79778571Y-83650595D01*
X79826190Y-83745833D01*
X79826190Y-84126785D01*
X79397619Y-83174404D02*
X79350000Y-83126785D01*
X79302380Y-83031547D01*
X79302380Y-82793452D01*
X79350000Y-82698214D01*
X79397619Y-82650595D01*
X79492857Y-82602976D01*
X79588095Y-82602976D01*
X79730952Y-82650595D01*
X80302380Y-83222023D01*
X80302380Y-82602976D01*
X79635714Y-81745833D02*
X80302380Y-81745833D01*
X79254761Y-81983928D02*
X79969047Y-82222023D01*
X79969047Y-81602976D01*
%TO.C,J2*%
X79666666Y-95452380D02*
X79666666Y-96166666D01*
X79619047Y-96309523D01*
X79523809Y-96404761D01*
X79380952Y-96452380D01*
X79285714Y-96452380D01*
X80095238Y-95547619D02*
X80142857Y-95500000D01*
X80238095Y-95452380D01*
X80476190Y-95452380D01*
X80571428Y-95500000D01*
X80619047Y-95547619D01*
X80666666Y-95642857D01*
X80666666Y-95738095D01*
X80619047Y-95880952D01*
X80047619Y-96452380D01*
X80666666Y-96452380D01*
%TO.C,R5*%
X75920833Y-73102380D02*
X75587500Y-72626190D01*
X75349404Y-73102380D02*
X75349404Y-72102380D01*
X75730357Y-72102380D01*
X75825595Y-72150000D01*
X75873214Y-72197619D01*
X75920833Y-72292857D01*
X75920833Y-72435714D01*
X75873214Y-72530952D01*
X75825595Y-72578571D01*
X75730357Y-72626190D01*
X75349404Y-72626190D01*
X76825595Y-72102380D02*
X76349404Y-72102380D01*
X76301785Y-72578571D01*
X76349404Y-72530952D01*
X76444642Y-72483333D01*
X76682738Y-72483333D01*
X76777976Y-72530952D01*
X76825595Y-72578571D01*
X76873214Y-72673809D01*
X76873214Y-72911904D01*
X76825595Y-73007142D01*
X76777976Y-73054761D01*
X76682738Y-73102380D01*
X76444642Y-73102380D01*
X76349404Y-73054761D01*
X76301785Y-73007142D01*
%TO.C,R6*%
X122333333Y-76202380D02*
X122000000Y-75726190D01*
X121761904Y-76202380D02*
X121761904Y-75202380D01*
X122142857Y-75202380D01*
X122238095Y-75250000D01*
X122285714Y-75297619D01*
X122333333Y-75392857D01*
X122333333Y-75535714D01*
X122285714Y-75630952D01*
X122238095Y-75678571D01*
X122142857Y-75726190D01*
X121761904Y-75726190D01*
X123190476Y-75202380D02*
X123000000Y-75202380D01*
X122904761Y-75250000D01*
X122857142Y-75297619D01*
X122761904Y-75440476D01*
X122714285Y-75630952D01*
X122714285Y-76011904D01*
X122761904Y-76107142D01*
X122809523Y-76154761D01*
X122904761Y-76202380D01*
X123095238Y-76202380D01*
X123190476Y-76154761D01*
X123238095Y-76107142D01*
X123285714Y-76011904D01*
X123285714Y-75773809D01*
X123238095Y-75678571D01*
X123190476Y-75630952D01*
X123095238Y-75583333D01*
X122904761Y-75583333D01*
X122809523Y-75630952D01*
X122761904Y-75678571D01*
X122714285Y-75773809D01*
%TO.C,C15*%
X119357142Y-100177142D02*
X119309523Y-100224761D01*
X119166666Y-100272380D01*
X119071428Y-100272380D01*
X118928571Y-100224761D01*
X118833333Y-100129523D01*
X118785714Y-100034285D01*
X118738095Y-99843809D01*
X118738095Y-99700952D01*
X118785714Y-99510476D01*
X118833333Y-99415238D01*
X118928571Y-99320000D01*
X119071428Y-99272380D01*
X119166666Y-99272380D01*
X119309523Y-99320000D01*
X119357142Y-99367619D01*
X120309523Y-100272380D02*
X119738095Y-100272380D01*
X120023809Y-100272380D02*
X120023809Y-99272380D01*
X119928571Y-99415238D01*
X119833333Y-99510476D01*
X119738095Y-99558095D01*
X121214285Y-99272380D02*
X120738095Y-99272380D01*
X120690476Y-99748571D01*
X120738095Y-99700952D01*
X120833333Y-99653333D01*
X121071428Y-99653333D01*
X121166666Y-99700952D01*
X121214285Y-99748571D01*
X121261904Y-99843809D01*
X121261904Y-100081904D01*
X121214285Y-100177142D01*
X121166666Y-100224761D01*
X121071428Y-100272380D01*
X120833333Y-100272380D01*
X120738095Y-100224761D01*
X120690476Y-100177142D01*
%TO.C,C13*%
X117857142Y-78607142D02*
X117809523Y-78654761D01*
X117666666Y-78702380D01*
X117571428Y-78702380D01*
X117428571Y-78654761D01*
X117333333Y-78559523D01*
X117285714Y-78464285D01*
X117238095Y-78273809D01*
X117238095Y-78130952D01*
X117285714Y-77940476D01*
X117333333Y-77845238D01*
X117428571Y-77750000D01*
X117571428Y-77702380D01*
X117666666Y-77702380D01*
X117809523Y-77750000D01*
X117857142Y-77797619D01*
X118809523Y-78702380D02*
X118238095Y-78702380D01*
X118523809Y-78702380D02*
X118523809Y-77702380D01*
X118428571Y-77845238D01*
X118333333Y-77940476D01*
X118238095Y-77988095D01*
X119142857Y-77702380D02*
X119761904Y-77702380D01*
X119428571Y-78083333D01*
X119571428Y-78083333D01*
X119666666Y-78130952D01*
X119714285Y-78178571D01*
X119761904Y-78273809D01*
X119761904Y-78511904D01*
X119714285Y-78607142D01*
X119666666Y-78654761D01*
X119571428Y-78702380D01*
X119285714Y-78702380D01*
X119190476Y-78654761D01*
X119142857Y-78607142D01*
%TO.C,L3*%
X161833333Y-82452380D02*
X161357142Y-82452380D01*
X161357142Y-81452380D01*
X162071428Y-81452380D02*
X162690476Y-81452380D01*
X162357142Y-81833333D01*
X162500000Y-81833333D01*
X162595238Y-81880952D01*
X162642857Y-81928571D01*
X162690476Y-82023809D01*
X162690476Y-82261904D01*
X162642857Y-82357142D01*
X162595238Y-82404761D01*
X162500000Y-82452380D01*
X162214285Y-82452380D01*
X162119047Y-82404761D01*
X162071428Y-82357142D01*
%TO.C,C21*%
X110927142Y-97892857D02*
X110974761Y-97940476D01*
X111022380Y-98083333D01*
X111022380Y-98178571D01*
X110974761Y-98321428D01*
X110879523Y-98416666D01*
X110784285Y-98464285D01*
X110593809Y-98511904D01*
X110450952Y-98511904D01*
X110260476Y-98464285D01*
X110165238Y-98416666D01*
X110070000Y-98321428D01*
X110022380Y-98178571D01*
X110022380Y-98083333D01*
X110070000Y-97940476D01*
X110117619Y-97892857D01*
X110117619Y-97511904D02*
X110070000Y-97464285D01*
X110022380Y-97369047D01*
X110022380Y-97130952D01*
X110070000Y-97035714D01*
X110117619Y-96988095D01*
X110212857Y-96940476D01*
X110308095Y-96940476D01*
X110450952Y-96988095D01*
X111022380Y-97559523D01*
X111022380Y-96940476D01*
X111022380Y-95988095D02*
X111022380Y-96559523D01*
X111022380Y-96273809D02*
X110022380Y-96273809D01*
X110165238Y-96369047D01*
X110260476Y-96464285D01*
X110308095Y-96559523D01*
%TO.C,R7*%
X122833333Y-96452380D02*
X122500000Y-95976190D01*
X122261904Y-96452380D02*
X122261904Y-95452380D01*
X122642857Y-95452380D01*
X122738095Y-95500000D01*
X122785714Y-95547619D01*
X122833333Y-95642857D01*
X122833333Y-95785714D01*
X122785714Y-95880952D01*
X122738095Y-95928571D01*
X122642857Y-95976190D01*
X122261904Y-95976190D01*
X123166666Y-95452380D02*
X123833333Y-95452380D01*
X123404761Y-96452380D01*
%TO.C,C30*%
X88107142Y-82357142D02*
X88059523Y-82404761D01*
X87916666Y-82452380D01*
X87821428Y-82452380D01*
X87678571Y-82404761D01*
X87583333Y-82309523D01*
X87535714Y-82214285D01*
X87488095Y-82023809D01*
X87488095Y-81880952D01*
X87535714Y-81690476D01*
X87583333Y-81595238D01*
X87678571Y-81500000D01*
X87821428Y-81452380D01*
X87916666Y-81452380D01*
X88059523Y-81500000D01*
X88107142Y-81547619D01*
X88440476Y-81452380D02*
X89059523Y-81452380D01*
X88726190Y-81833333D01*
X88869047Y-81833333D01*
X88964285Y-81880952D01*
X89011904Y-81928571D01*
X89059523Y-82023809D01*
X89059523Y-82261904D01*
X89011904Y-82357142D01*
X88964285Y-82404761D01*
X88869047Y-82452380D01*
X88583333Y-82452380D01*
X88488095Y-82404761D01*
X88440476Y-82357142D01*
X89678571Y-81452380D02*
X89773809Y-81452380D01*
X89869047Y-81500000D01*
X89916666Y-81547619D01*
X89964285Y-81642857D01*
X90011904Y-81833333D01*
X90011904Y-82071428D01*
X89964285Y-82261904D01*
X89916666Y-82357142D01*
X89869047Y-82404761D01*
X89773809Y-82452380D01*
X89678571Y-82452380D01*
X89583333Y-82404761D01*
X89535714Y-82357142D01*
X89488095Y-82261904D01*
X89440476Y-82071428D01*
X89440476Y-81833333D01*
X89488095Y-81642857D01*
X89535714Y-81547619D01*
X89583333Y-81500000D01*
X89678571Y-81452380D01*
%TO.C,C10*%
X86007142Y-67357142D02*
X85959523Y-67404761D01*
X85816666Y-67452380D01*
X85721428Y-67452380D01*
X85578571Y-67404761D01*
X85483333Y-67309523D01*
X85435714Y-67214285D01*
X85388095Y-67023809D01*
X85388095Y-66880952D01*
X85435714Y-66690476D01*
X85483333Y-66595238D01*
X85578571Y-66500000D01*
X85721428Y-66452380D01*
X85816666Y-66452380D01*
X85959523Y-66500000D01*
X86007142Y-66547619D01*
X86959523Y-67452380D02*
X86388095Y-67452380D01*
X86673809Y-67452380D02*
X86673809Y-66452380D01*
X86578571Y-66595238D01*
X86483333Y-66690476D01*
X86388095Y-66738095D01*
X87578571Y-66452380D02*
X87673809Y-66452380D01*
X87769047Y-66500000D01*
X87816666Y-66547619D01*
X87864285Y-66642857D01*
X87911904Y-66833333D01*
X87911904Y-67071428D01*
X87864285Y-67261904D01*
X87816666Y-67357142D01*
X87769047Y-67404761D01*
X87673809Y-67452380D01*
X87578571Y-67452380D01*
X87483333Y-67404761D01*
X87435714Y-67357142D01*
X87388095Y-67261904D01*
X87340476Y-67071428D01*
X87340476Y-66833333D01*
X87388095Y-66642857D01*
X87435714Y-66547619D01*
X87483333Y-66500000D01*
X87578571Y-66452380D01*
%TO.C,C28*%
X106107142Y-78892857D02*
X106154761Y-78940476D01*
X106202380Y-79083333D01*
X106202380Y-79178571D01*
X106154761Y-79321428D01*
X106059523Y-79416666D01*
X105964285Y-79464285D01*
X105773809Y-79511904D01*
X105630952Y-79511904D01*
X105440476Y-79464285D01*
X105345238Y-79416666D01*
X105250000Y-79321428D01*
X105202380Y-79178571D01*
X105202380Y-79083333D01*
X105250000Y-78940476D01*
X105297619Y-78892857D01*
X105297619Y-78511904D02*
X105250000Y-78464285D01*
X105202380Y-78369047D01*
X105202380Y-78130952D01*
X105250000Y-78035714D01*
X105297619Y-77988095D01*
X105392857Y-77940476D01*
X105488095Y-77940476D01*
X105630952Y-77988095D01*
X106202380Y-78559523D01*
X106202380Y-77940476D01*
X105630952Y-77369047D02*
X105583333Y-77464285D01*
X105535714Y-77511904D01*
X105440476Y-77559523D01*
X105392857Y-77559523D01*
X105297619Y-77511904D01*
X105250000Y-77464285D01*
X105202380Y-77369047D01*
X105202380Y-77178571D01*
X105250000Y-77083333D01*
X105297619Y-77035714D01*
X105392857Y-76988095D01*
X105440476Y-76988095D01*
X105535714Y-77035714D01*
X105583333Y-77083333D01*
X105630952Y-77178571D01*
X105630952Y-77369047D01*
X105678571Y-77464285D01*
X105726190Y-77511904D01*
X105821428Y-77559523D01*
X106011904Y-77559523D01*
X106107142Y-77511904D01*
X106154761Y-77464285D01*
X106202380Y-77369047D01*
X106202380Y-77178571D01*
X106154761Y-77083333D01*
X106107142Y-77035714D01*
X106011904Y-76988095D01*
X105821428Y-76988095D01*
X105726190Y-77035714D01*
X105678571Y-77083333D01*
X105630952Y-77178571D01*
%TO.C,C34*%
X126107142Y-77357142D02*
X126059523Y-77404761D01*
X125916666Y-77452380D01*
X125821428Y-77452380D01*
X125678571Y-77404761D01*
X125583333Y-77309523D01*
X125535714Y-77214285D01*
X125488095Y-77023809D01*
X125488095Y-76880952D01*
X125535714Y-76690476D01*
X125583333Y-76595238D01*
X125678571Y-76500000D01*
X125821428Y-76452380D01*
X125916666Y-76452380D01*
X126059523Y-76500000D01*
X126107142Y-76547619D01*
X126440476Y-76452380D02*
X127059523Y-76452380D01*
X126726190Y-76833333D01*
X126869047Y-76833333D01*
X126964285Y-76880952D01*
X127011904Y-76928571D01*
X127059523Y-77023809D01*
X127059523Y-77261904D01*
X127011904Y-77357142D01*
X126964285Y-77404761D01*
X126869047Y-77452380D01*
X126583333Y-77452380D01*
X126488095Y-77404761D01*
X126440476Y-77357142D01*
X127916666Y-76785714D02*
X127916666Y-77452380D01*
X127678571Y-76404761D02*
X127440476Y-77119047D01*
X128059523Y-77119047D01*
%TO.C,R25*%
X81944642Y-74802380D02*
X81611309Y-74326190D01*
X81373214Y-74802380D02*
X81373214Y-73802380D01*
X81754166Y-73802380D01*
X81849404Y-73850000D01*
X81897023Y-73897619D01*
X81944642Y-73992857D01*
X81944642Y-74135714D01*
X81897023Y-74230952D01*
X81849404Y-74278571D01*
X81754166Y-74326190D01*
X81373214Y-74326190D01*
X82325595Y-73897619D02*
X82373214Y-73850000D01*
X82468452Y-73802380D01*
X82706547Y-73802380D01*
X82801785Y-73850000D01*
X82849404Y-73897619D01*
X82897023Y-73992857D01*
X82897023Y-74088095D01*
X82849404Y-74230952D01*
X82277976Y-74802380D01*
X82897023Y-74802380D01*
X83801785Y-73802380D02*
X83325595Y-73802380D01*
X83277976Y-74278571D01*
X83325595Y-74230952D01*
X83420833Y-74183333D01*
X83658928Y-74183333D01*
X83754166Y-74230952D01*
X83801785Y-74278571D01*
X83849404Y-74373809D01*
X83849404Y-74611904D01*
X83801785Y-74707142D01*
X83754166Y-74754761D01*
X83658928Y-74802380D01*
X83420833Y-74802380D01*
X83325595Y-74754761D01*
X83277976Y-74707142D01*
%TO.C,D1*%
X87452380Y-48738095D02*
X86452380Y-48738095D01*
X86452380Y-48500000D01*
X86500000Y-48357142D01*
X86595238Y-48261904D01*
X86690476Y-48214285D01*
X86880952Y-48166666D01*
X87023809Y-48166666D01*
X87214285Y-48214285D01*
X87309523Y-48261904D01*
X87404761Y-48357142D01*
X87452380Y-48500000D01*
X87452380Y-48738095D01*
X87452380Y-47214285D02*
X87452380Y-47785714D01*
X87452380Y-47500000D02*
X86452380Y-47500000D01*
X86595238Y-47595238D01*
X86690476Y-47690476D01*
X86738095Y-47785714D01*
%TO.C,C41*%
X124382142Y-82927142D02*
X124334523Y-82974761D01*
X124191666Y-83022380D01*
X124096428Y-83022380D01*
X123953571Y-82974761D01*
X123858333Y-82879523D01*
X123810714Y-82784285D01*
X123763095Y-82593809D01*
X123763095Y-82450952D01*
X123810714Y-82260476D01*
X123858333Y-82165238D01*
X123953571Y-82070000D01*
X124096428Y-82022380D01*
X124191666Y-82022380D01*
X124334523Y-82070000D01*
X124382142Y-82117619D01*
X125239285Y-82355714D02*
X125239285Y-83022380D01*
X125001190Y-81974761D02*
X124763095Y-82689047D01*
X125382142Y-82689047D01*
X126286904Y-83022380D02*
X125715476Y-83022380D01*
X126001190Y-83022380D02*
X126001190Y-82022380D01*
X125905952Y-82165238D01*
X125810714Y-82260476D01*
X125715476Y-82308095D01*
%TO.C,C40*%
X121107142Y-86642857D02*
X121154761Y-86690476D01*
X121202380Y-86833333D01*
X121202380Y-86928571D01*
X121154761Y-87071428D01*
X121059523Y-87166666D01*
X120964285Y-87214285D01*
X120773809Y-87261904D01*
X120630952Y-87261904D01*
X120440476Y-87214285D01*
X120345238Y-87166666D01*
X120250000Y-87071428D01*
X120202380Y-86928571D01*
X120202380Y-86833333D01*
X120250000Y-86690476D01*
X120297619Y-86642857D01*
X120535714Y-85785714D02*
X121202380Y-85785714D01*
X120154761Y-86023809D02*
X120869047Y-86261904D01*
X120869047Y-85642857D01*
X120202380Y-85071428D02*
X120202380Y-84976190D01*
X120250000Y-84880952D01*
X120297619Y-84833333D01*
X120392857Y-84785714D01*
X120583333Y-84738095D01*
X120821428Y-84738095D01*
X121011904Y-84785714D01*
X121107142Y-84833333D01*
X121154761Y-84880952D01*
X121202380Y-84976190D01*
X121202380Y-85071428D01*
X121154761Y-85166666D01*
X121107142Y-85214285D01*
X121011904Y-85261904D01*
X120821428Y-85309523D01*
X120583333Y-85309523D01*
X120392857Y-85261904D01*
X120297619Y-85214285D01*
X120250000Y-85166666D01*
X120202380Y-85071428D01*
%TO.C,C35*%
X126107142Y-74857142D02*
X126059523Y-74904761D01*
X125916666Y-74952380D01*
X125821428Y-74952380D01*
X125678571Y-74904761D01*
X125583333Y-74809523D01*
X125535714Y-74714285D01*
X125488095Y-74523809D01*
X125488095Y-74380952D01*
X125535714Y-74190476D01*
X125583333Y-74095238D01*
X125678571Y-74000000D01*
X125821428Y-73952380D01*
X125916666Y-73952380D01*
X126059523Y-74000000D01*
X126107142Y-74047619D01*
X126440476Y-73952380D02*
X127059523Y-73952380D01*
X126726190Y-74333333D01*
X126869047Y-74333333D01*
X126964285Y-74380952D01*
X127011904Y-74428571D01*
X127059523Y-74523809D01*
X127059523Y-74761904D01*
X127011904Y-74857142D01*
X126964285Y-74904761D01*
X126869047Y-74952380D01*
X126583333Y-74952380D01*
X126488095Y-74904761D01*
X126440476Y-74857142D01*
X127964285Y-73952380D02*
X127488095Y-73952380D01*
X127440476Y-74428571D01*
X127488095Y-74380952D01*
X127583333Y-74333333D01*
X127821428Y-74333333D01*
X127916666Y-74380952D01*
X127964285Y-74428571D01*
X128011904Y-74523809D01*
X128011904Y-74761904D01*
X127964285Y-74857142D01*
X127916666Y-74904761D01*
X127821428Y-74952380D01*
X127583333Y-74952380D01*
X127488095Y-74904761D01*
X127440476Y-74857142D01*
%TO.C,J1*%
X84952380Y-55333333D02*
X85666666Y-55333333D01*
X85809523Y-55380952D01*
X85904761Y-55476190D01*
X85952380Y-55619047D01*
X85952380Y-55714285D01*
X85952380Y-54333333D02*
X85952380Y-54904761D01*
X85952380Y-54619047D02*
X84952380Y-54619047D01*
X85095238Y-54714285D01*
X85190476Y-54809523D01*
X85238095Y-54904761D01*
%TO.C,R22*%
X106357142Y-99802380D02*
X106023809Y-99326190D01*
X105785714Y-99802380D02*
X105785714Y-98802380D01*
X106166666Y-98802380D01*
X106261904Y-98850000D01*
X106309523Y-98897619D01*
X106357142Y-98992857D01*
X106357142Y-99135714D01*
X106309523Y-99230952D01*
X106261904Y-99278571D01*
X106166666Y-99326190D01*
X105785714Y-99326190D01*
X106738095Y-98897619D02*
X106785714Y-98850000D01*
X106880952Y-98802380D01*
X107119047Y-98802380D01*
X107214285Y-98850000D01*
X107261904Y-98897619D01*
X107309523Y-98992857D01*
X107309523Y-99088095D01*
X107261904Y-99230952D01*
X106690476Y-99802380D01*
X107309523Y-99802380D01*
X107690476Y-98897619D02*
X107738095Y-98850000D01*
X107833333Y-98802380D01*
X108071428Y-98802380D01*
X108166666Y-98850000D01*
X108214285Y-98897619D01*
X108261904Y-98992857D01*
X108261904Y-99088095D01*
X108214285Y-99230952D01*
X107642857Y-99802380D01*
X108261904Y-99802380D01*
%TO.C,C4*%
X131009374Y-59857142D02*
X130961755Y-59904761D01*
X130818898Y-59952380D01*
X130723660Y-59952380D01*
X130580802Y-59904761D01*
X130485564Y-59809523D01*
X130437945Y-59714285D01*
X130390326Y-59523809D01*
X130390326Y-59380952D01*
X130437945Y-59190476D01*
X130485564Y-59095238D01*
X130580802Y-59000000D01*
X130723660Y-58952380D01*
X130818898Y-58952380D01*
X130961755Y-59000000D01*
X131009374Y-59047619D01*
X131866517Y-59285714D02*
X131866517Y-59952380D01*
X131628421Y-58904761D02*
X131390326Y-59619047D01*
X132009374Y-59619047D01*
%TO.C,R15*%
X113607142Y-92452380D02*
X113273809Y-91976190D01*
X113035714Y-92452380D02*
X113035714Y-91452380D01*
X113416666Y-91452380D01*
X113511904Y-91500000D01*
X113559523Y-91547619D01*
X113607142Y-91642857D01*
X113607142Y-91785714D01*
X113559523Y-91880952D01*
X113511904Y-91928571D01*
X113416666Y-91976190D01*
X113035714Y-91976190D01*
X114559523Y-92452380D02*
X113988095Y-92452380D01*
X114273809Y-92452380D02*
X114273809Y-91452380D01*
X114178571Y-91595238D01*
X114083333Y-91690476D01*
X113988095Y-91738095D01*
X115464285Y-91452380D02*
X114988095Y-91452380D01*
X114940476Y-91928571D01*
X114988095Y-91880952D01*
X115083333Y-91833333D01*
X115321428Y-91833333D01*
X115416666Y-91880952D01*
X115464285Y-91928571D01*
X115511904Y-92023809D01*
X115511904Y-92261904D01*
X115464285Y-92357142D01*
X115416666Y-92404761D01*
X115321428Y-92452380D01*
X115083333Y-92452380D01*
X114988095Y-92404761D01*
X114940476Y-92357142D01*
%TO.C,Q3*%
X85317261Y-86647619D02*
X85222023Y-86600000D01*
X85126785Y-86504761D01*
X84983928Y-86361904D01*
X84888690Y-86314285D01*
X84793452Y-86314285D01*
X84841071Y-86552380D02*
X84745833Y-86504761D01*
X84650595Y-86409523D01*
X84602976Y-86219047D01*
X84602976Y-85885714D01*
X84650595Y-85695238D01*
X84745833Y-85600000D01*
X84841071Y-85552380D01*
X85031547Y-85552380D01*
X85126785Y-85600000D01*
X85222023Y-85695238D01*
X85269642Y-85885714D01*
X85269642Y-86219047D01*
X85222023Y-86409523D01*
X85126785Y-86504761D01*
X85031547Y-86552380D01*
X84841071Y-86552380D01*
X85602976Y-85552380D02*
X86222023Y-85552380D01*
X85888690Y-85933333D01*
X86031547Y-85933333D01*
X86126785Y-85980952D01*
X86174404Y-86028571D01*
X86222023Y-86123809D01*
X86222023Y-86361904D01*
X86174404Y-86457142D01*
X86126785Y-86504761D01*
X86031547Y-86552380D01*
X85745833Y-86552380D01*
X85650595Y-86504761D01*
X85602976Y-86457142D01*
%TO.C,R17*%
X118607142Y-73452380D02*
X118273809Y-72976190D01*
X118035714Y-73452380D02*
X118035714Y-72452380D01*
X118416666Y-72452380D01*
X118511904Y-72500000D01*
X118559523Y-72547619D01*
X118607142Y-72642857D01*
X118607142Y-72785714D01*
X118559523Y-72880952D01*
X118511904Y-72928571D01*
X118416666Y-72976190D01*
X118035714Y-72976190D01*
X119559523Y-73452380D02*
X118988095Y-73452380D01*
X119273809Y-73452380D02*
X119273809Y-72452380D01*
X119178571Y-72595238D01*
X119083333Y-72690476D01*
X118988095Y-72738095D01*
X119892857Y-72452380D02*
X120559523Y-72452380D01*
X120130952Y-73452380D01*
%TO.C,U4*%
X113238095Y-100052380D02*
X113238095Y-100861904D01*
X113285714Y-100957142D01*
X113333333Y-101004761D01*
X113428571Y-101052380D01*
X113619047Y-101052380D01*
X113714285Y-101004761D01*
X113761904Y-100957142D01*
X113809523Y-100861904D01*
X113809523Y-100052380D01*
X114714285Y-100385714D02*
X114714285Y-101052380D01*
X114476190Y-100004761D02*
X114238095Y-100719047D01*
X114857142Y-100719047D01*
%TO.C,R16*%
X113607142Y-89702380D02*
X113273809Y-89226190D01*
X113035714Y-89702380D02*
X113035714Y-88702380D01*
X113416666Y-88702380D01*
X113511904Y-88750000D01*
X113559523Y-88797619D01*
X113607142Y-88892857D01*
X113607142Y-89035714D01*
X113559523Y-89130952D01*
X113511904Y-89178571D01*
X113416666Y-89226190D01*
X113035714Y-89226190D01*
X114559523Y-89702380D02*
X113988095Y-89702380D01*
X114273809Y-89702380D02*
X114273809Y-88702380D01*
X114178571Y-88845238D01*
X114083333Y-88940476D01*
X113988095Y-88988095D01*
X115416666Y-88702380D02*
X115226190Y-88702380D01*
X115130952Y-88750000D01*
X115083333Y-88797619D01*
X114988095Y-88940476D01*
X114940476Y-89130952D01*
X114940476Y-89511904D01*
X114988095Y-89607142D01*
X115035714Y-89654761D01*
X115130952Y-89702380D01*
X115321428Y-89702380D01*
X115416666Y-89654761D01*
X115464285Y-89607142D01*
X115511904Y-89511904D01*
X115511904Y-89273809D01*
X115464285Y-89178571D01*
X115416666Y-89130952D01*
X115321428Y-89083333D01*
X115130952Y-89083333D01*
X115035714Y-89130952D01*
X114988095Y-89178571D01*
X114940476Y-89273809D01*
%TO.C,D4*%
X111539880Y-62738095D02*
X110539880Y-62738095D01*
X110539880Y-62500000D01*
X110587500Y-62357142D01*
X110682738Y-62261904D01*
X110777976Y-62214285D01*
X110968452Y-62166666D01*
X111111309Y-62166666D01*
X111301785Y-62214285D01*
X111397023Y-62261904D01*
X111492261Y-62357142D01*
X111539880Y-62500000D01*
X111539880Y-62738095D01*
X110873214Y-61309523D02*
X111539880Y-61309523D01*
X110492261Y-61547619D02*
X111206547Y-61785714D01*
X111206547Y-61166666D01*
%TO.C,C5*%
X137009374Y-47357142D02*
X136961755Y-47404761D01*
X136818898Y-47452380D01*
X136723660Y-47452380D01*
X136580802Y-47404761D01*
X136485564Y-47309523D01*
X136437945Y-47214285D01*
X136390326Y-47023809D01*
X136390326Y-46880952D01*
X136437945Y-46690476D01*
X136485564Y-46595238D01*
X136580802Y-46500000D01*
X136723660Y-46452380D01*
X136818898Y-46452380D01*
X136961755Y-46500000D01*
X137009374Y-46547619D01*
X137914136Y-46452380D02*
X137437945Y-46452380D01*
X137390326Y-46928571D01*
X137437945Y-46880952D01*
X137533183Y-46833333D01*
X137771279Y-46833333D01*
X137866517Y-46880952D01*
X137914136Y-46928571D01*
X137961755Y-47023809D01*
X137961755Y-47261904D01*
X137914136Y-47357142D01*
X137866517Y-47404761D01*
X137771279Y-47452380D01*
X137533183Y-47452380D01*
X137437945Y-47404761D01*
X137390326Y-47357142D01*
%TO.C,L2*%
X161583333Y-79202380D02*
X161107142Y-79202380D01*
X161107142Y-78202380D01*
X161869047Y-78297619D02*
X161916666Y-78250000D01*
X162011904Y-78202380D01*
X162250000Y-78202380D01*
X162345238Y-78250000D01*
X162392857Y-78297619D01*
X162440476Y-78392857D01*
X162440476Y-78488095D01*
X162392857Y-78630952D01*
X161821428Y-79202380D01*
X162440476Y-79202380D01*
%TO.C,C16*%
X88857142Y-99357142D02*
X88809523Y-99404761D01*
X88666666Y-99452380D01*
X88571428Y-99452380D01*
X88428571Y-99404761D01*
X88333333Y-99309523D01*
X88285714Y-99214285D01*
X88238095Y-99023809D01*
X88238095Y-98880952D01*
X88285714Y-98690476D01*
X88333333Y-98595238D01*
X88428571Y-98500000D01*
X88571428Y-98452380D01*
X88666666Y-98452380D01*
X88809523Y-98500000D01*
X88857142Y-98547619D01*
X89809523Y-99452380D02*
X89238095Y-99452380D01*
X89523809Y-99452380D02*
X89523809Y-98452380D01*
X89428571Y-98595238D01*
X89333333Y-98690476D01*
X89238095Y-98738095D01*
X90666666Y-98452380D02*
X90476190Y-98452380D01*
X90380952Y-98500000D01*
X90333333Y-98547619D01*
X90238095Y-98690476D01*
X90190476Y-98880952D01*
X90190476Y-99261904D01*
X90238095Y-99357142D01*
X90285714Y-99404761D01*
X90380952Y-99452380D01*
X90571428Y-99452380D01*
X90666666Y-99404761D01*
X90714285Y-99357142D01*
X90761904Y-99261904D01*
X90761904Y-99023809D01*
X90714285Y-98928571D01*
X90666666Y-98880952D01*
X90571428Y-98833333D01*
X90380952Y-98833333D01*
X90285714Y-98880952D01*
X90238095Y-98928571D01*
X90190476Y-99023809D01*
%TO.C,D3*%
X76261904Y-63452380D02*
X76261904Y-62452380D01*
X76500000Y-62452380D01*
X76642857Y-62500000D01*
X76738095Y-62595238D01*
X76785714Y-62690476D01*
X76833333Y-62880952D01*
X76833333Y-63023809D01*
X76785714Y-63214285D01*
X76738095Y-63309523D01*
X76642857Y-63404761D01*
X76500000Y-63452380D01*
X76261904Y-63452380D01*
X77166666Y-62452380D02*
X77785714Y-62452380D01*
X77452380Y-62833333D01*
X77595238Y-62833333D01*
X77690476Y-62880952D01*
X77738095Y-62928571D01*
X77785714Y-63023809D01*
X77785714Y-63261904D01*
X77738095Y-63357142D01*
X77690476Y-63404761D01*
X77595238Y-63452380D01*
X77309523Y-63452380D01*
X77214285Y-63404761D01*
X77166666Y-63357142D01*
%TO.C,C27*%
X120857142Y-115037142D02*
X120809523Y-115084761D01*
X120666666Y-115132380D01*
X120571428Y-115132380D01*
X120428571Y-115084761D01*
X120333333Y-114989523D01*
X120285714Y-114894285D01*
X120238095Y-114703809D01*
X120238095Y-114560952D01*
X120285714Y-114370476D01*
X120333333Y-114275238D01*
X120428571Y-114180000D01*
X120571428Y-114132380D01*
X120666666Y-114132380D01*
X120809523Y-114180000D01*
X120857142Y-114227619D01*
X121238095Y-114227619D02*
X121285714Y-114180000D01*
X121380952Y-114132380D01*
X121619047Y-114132380D01*
X121714285Y-114180000D01*
X121761904Y-114227619D01*
X121809523Y-114322857D01*
X121809523Y-114418095D01*
X121761904Y-114560952D01*
X121190476Y-115132380D01*
X121809523Y-115132380D01*
X122142857Y-114132380D02*
X122809523Y-114132380D01*
X122380952Y-115132380D01*
%TO.C,L1*%
X103920833Y-64636380D02*
X103444642Y-64636380D01*
X103444642Y-63636380D01*
X104777976Y-64636380D02*
X104206547Y-64636380D01*
X104492261Y-64636380D02*
X104492261Y-63636380D01*
X104397023Y-63779238D01*
X104301785Y-63874476D01*
X104206547Y-63922095D01*
%TO.C,R2*%
X91833333Y-65202380D02*
X91500000Y-64726190D01*
X91261904Y-65202380D02*
X91261904Y-64202380D01*
X91642857Y-64202380D01*
X91738095Y-64250000D01*
X91785714Y-64297619D01*
X91833333Y-64392857D01*
X91833333Y-64535714D01*
X91785714Y-64630952D01*
X91738095Y-64678571D01*
X91642857Y-64726190D01*
X91261904Y-64726190D01*
X92214285Y-64297619D02*
X92261904Y-64250000D01*
X92357142Y-64202380D01*
X92595238Y-64202380D01*
X92690476Y-64250000D01*
X92738095Y-64297619D01*
X92785714Y-64392857D01*
X92785714Y-64488095D01*
X92738095Y-64630952D01*
X92166666Y-65202380D01*
X92785714Y-65202380D01*
%TO.C,C26*%
X104857142Y-112642857D02*
X104904761Y-112690476D01*
X104952380Y-112833333D01*
X104952380Y-112928571D01*
X104904761Y-113071428D01*
X104809523Y-113166666D01*
X104714285Y-113214285D01*
X104523809Y-113261904D01*
X104380952Y-113261904D01*
X104190476Y-113214285D01*
X104095238Y-113166666D01*
X104000000Y-113071428D01*
X103952380Y-112928571D01*
X103952380Y-112833333D01*
X104000000Y-112690476D01*
X104047619Y-112642857D01*
X104047619Y-112261904D02*
X104000000Y-112214285D01*
X103952380Y-112119047D01*
X103952380Y-111880952D01*
X104000000Y-111785714D01*
X104047619Y-111738095D01*
X104142857Y-111690476D01*
X104238095Y-111690476D01*
X104380952Y-111738095D01*
X104952380Y-112309523D01*
X104952380Y-111690476D01*
X103952380Y-110833333D02*
X103952380Y-111023809D01*
X104000000Y-111119047D01*
X104047619Y-111166666D01*
X104190476Y-111261904D01*
X104380952Y-111309523D01*
X104761904Y-111309523D01*
X104857142Y-111261904D01*
X104904761Y-111214285D01*
X104952380Y-111119047D01*
X104952380Y-110928571D01*
X104904761Y-110833333D01*
X104857142Y-110785714D01*
X104761904Y-110738095D01*
X104523809Y-110738095D01*
X104428571Y-110785714D01*
X104380952Y-110833333D01*
X104333333Y-110928571D01*
X104333333Y-111119047D01*
X104380952Y-111214285D01*
X104428571Y-111261904D01*
X104523809Y-111309523D01*
%TO.C,R4*%
X114508333Y-86952380D02*
X114175000Y-86476190D01*
X113936904Y-86952380D02*
X113936904Y-85952380D01*
X114317857Y-85952380D01*
X114413095Y-86000000D01*
X114460714Y-86047619D01*
X114508333Y-86142857D01*
X114508333Y-86285714D01*
X114460714Y-86380952D01*
X114413095Y-86428571D01*
X114317857Y-86476190D01*
X113936904Y-86476190D01*
X115365476Y-86285714D02*
X115365476Y-86952380D01*
X115127380Y-85904761D02*
X114889285Y-86619047D01*
X115508333Y-86619047D01*
%TO.C,R10*%
X123769642Y-108452380D02*
X123436309Y-107976190D01*
X123198214Y-108452380D02*
X123198214Y-107452380D01*
X123579166Y-107452380D01*
X123674404Y-107500000D01*
X123722023Y-107547619D01*
X123769642Y-107642857D01*
X123769642Y-107785714D01*
X123722023Y-107880952D01*
X123674404Y-107928571D01*
X123579166Y-107976190D01*
X123198214Y-107976190D01*
X124722023Y-108452380D02*
X124150595Y-108452380D01*
X124436309Y-108452380D02*
X124436309Y-107452380D01*
X124341071Y-107595238D01*
X124245833Y-107690476D01*
X124150595Y-107738095D01*
X125341071Y-107452380D02*
X125436309Y-107452380D01*
X125531547Y-107500000D01*
X125579166Y-107547619D01*
X125626785Y-107642857D01*
X125674404Y-107833333D01*
X125674404Y-108071428D01*
X125626785Y-108261904D01*
X125579166Y-108357142D01*
X125531547Y-108404761D01*
X125436309Y-108452380D01*
X125341071Y-108452380D01*
X125245833Y-108404761D01*
X125198214Y-108357142D01*
X125150595Y-108261904D01*
X125102976Y-108071428D01*
X125102976Y-107833333D01*
X125150595Y-107642857D01*
X125198214Y-107547619D01*
X125245833Y-107500000D01*
X125341071Y-107452380D01*
%TO.C,D6*%
X79237380Y-91468095D02*
X78237380Y-91468095D01*
X78237380Y-91230000D01*
X78285000Y-91087142D01*
X78380238Y-90991904D01*
X78475476Y-90944285D01*
X78665952Y-90896666D01*
X78808809Y-90896666D01*
X78999285Y-90944285D01*
X79094523Y-90991904D01*
X79189761Y-91087142D01*
X79237380Y-91230000D01*
X79237380Y-91468095D01*
X78237380Y-90039523D02*
X78237380Y-90230000D01*
X78285000Y-90325238D01*
X78332619Y-90372857D01*
X78475476Y-90468095D01*
X78665952Y-90515714D01*
X79046904Y-90515714D01*
X79142142Y-90468095D01*
X79189761Y-90420476D01*
X79237380Y-90325238D01*
X79237380Y-90134761D01*
X79189761Y-90039523D01*
X79142142Y-89991904D01*
X79046904Y-89944285D01*
X78808809Y-89944285D01*
X78713571Y-89991904D01*
X78665952Y-90039523D01*
X78618333Y-90134761D01*
X78618333Y-90325238D01*
X78665952Y-90420476D01*
X78713571Y-90468095D01*
X78808809Y-90515714D01*
%TO.C,R1*%
X98833333Y-63552380D02*
X98500000Y-63076190D01*
X98261904Y-63552380D02*
X98261904Y-62552380D01*
X98642857Y-62552380D01*
X98738095Y-62600000D01*
X98785714Y-62647619D01*
X98833333Y-62742857D01*
X98833333Y-62885714D01*
X98785714Y-62980952D01*
X98738095Y-63028571D01*
X98642857Y-63076190D01*
X98261904Y-63076190D01*
X99785714Y-63552380D02*
X99214285Y-63552380D01*
X99500000Y-63552380D02*
X99500000Y-62552380D01*
X99404761Y-62695238D01*
X99309523Y-62790476D01*
X99214285Y-62838095D01*
%TO.C,U5*%
X122488095Y-68952380D02*
X122488095Y-69761904D01*
X122535714Y-69857142D01*
X122583333Y-69904761D01*
X122678571Y-69952380D01*
X122869047Y-69952380D01*
X122964285Y-69904761D01*
X123011904Y-69857142D01*
X123059523Y-69761904D01*
X123059523Y-68952380D01*
X124011904Y-68952380D02*
X123535714Y-68952380D01*
X123488095Y-69428571D01*
X123535714Y-69380952D01*
X123630952Y-69333333D01*
X123869047Y-69333333D01*
X123964285Y-69380952D01*
X124011904Y-69428571D01*
X124059523Y-69523809D01*
X124059523Y-69761904D01*
X124011904Y-69857142D01*
X123964285Y-69904761D01*
X123869047Y-69952380D01*
X123630952Y-69952380D01*
X123535714Y-69904761D01*
X123488095Y-69857142D01*
%TO.C,Q1*%
X90047619Y-55195238D02*
X90000000Y-55290476D01*
X89904761Y-55385714D01*
X89761904Y-55528571D01*
X89714285Y-55623809D01*
X89714285Y-55719047D01*
X89952380Y-55671428D02*
X89904761Y-55766666D01*
X89809523Y-55861904D01*
X89619047Y-55909523D01*
X89285714Y-55909523D01*
X89095238Y-55861904D01*
X89000000Y-55766666D01*
X88952380Y-55671428D01*
X88952380Y-55480952D01*
X89000000Y-55385714D01*
X89095238Y-55290476D01*
X89285714Y-55242857D01*
X89619047Y-55242857D01*
X89809523Y-55290476D01*
X89904761Y-55385714D01*
X89952380Y-55480952D01*
X89952380Y-55671428D01*
X89952380Y-54290476D02*
X89952380Y-54861904D01*
X89952380Y-54576190D02*
X88952380Y-54576190D01*
X89095238Y-54671428D01*
X89190476Y-54766666D01*
X89238095Y-54861904D01*
%TO.C,R18*%
X104857142Y-70952380D02*
X104523809Y-70476190D01*
X104285714Y-70952380D02*
X104285714Y-69952380D01*
X104666666Y-69952380D01*
X104761904Y-70000000D01*
X104809523Y-70047619D01*
X104857142Y-70142857D01*
X104857142Y-70285714D01*
X104809523Y-70380952D01*
X104761904Y-70428571D01*
X104666666Y-70476190D01*
X104285714Y-70476190D01*
X105809523Y-70952380D02*
X105238095Y-70952380D01*
X105523809Y-70952380D02*
X105523809Y-69952380D01*
X105428571Y-70095238D01*
X105333333Y-70190476D01*
X105238095Y-70238095D01*
X106380952Y-70380952D02*
X106285714Y-70333333D01*
X106238095Y-70285714D01*
X106190476Y-70190476D01*
X106190476Y-70142857D01*
X106238095Y-70047619D01*
X106285714Y-70000000D01*
X106380952Y-69952380D01*
X106571428Y-69952380D01*
X106666666Y-70000000D01*
X106714285Y-70047619D01*
X106761904Y-70142857D01*
X106761904Y-70190476D01*
X106714285Y-70285714D01*
X106666666Y-70333333D01*
X106571428Y-70380952D01*
X106380952Y-70380952D01*
X106285714Y-70428571D01*
X106238095Y-70476190D01*
X106190476Y-70571428D01*
X106190476Y-70761904D01*
X106238095Y-70857142D01*
X106285714Y-70904761D01*
X106380952Y-70952380D01*
X106571428Y-70952380D01*
X106666666Y-70904761D01*
X106714285Y-70857142D01*
X106761904Y-70761904D01*
X106761904Y-70571428D01*
X106714285Y-70476190D01*
X106666666Y-70428571D01*
X106571428Y-70380952D01*
%TO.C,C19*%
X88857142Y-108357142D02*
X88809523Y-108404761D01*
X88666666Y-108452380D01*
X88571428Y-108452380D01*
X88428571Y-108404761D01*
X88333333Y-108309523D01*
X88285714Y-108214285D01*
X88238095Y-108023809D01*
X88238095Y-107880952D01*
X88285714Y-107690476D01*
X88333333Y-107595238D01*
X88428571Y-107500000D01*
X88571428Y-107452380D01*
X88666666Y-107452380D01*
X88809523Y-107500000D01*
X88857142Y-107547619D01*
X89809523Y-108452380D02*
X89238095Y-108452380D01*
X89523809Y-108452380D02*
X89523809Y-107452380D01*
X89428571Y-107595238D01*
X89333333Y-107690476D01*
X89238095Y-107738095D01*
X90285714Y-108452380D02*
X90476190Y-108452380D01*
X90571428Y-108404761D01*
X90619047Y-108357142D01*
X90714285Y-108214285D01*
X90761904Y-108023809D01*
X90761904Y-107642857D01*
X90714285Y-107547619D01*
X90666666Y-107500000D01*
X90571428Y-107452380D01*
X90380952Y-107452380D01*
X90285714Y-107500000D01*
X90238095Y-107547619D01*
X90190476Y-107642857D01*
X90190476Y-107880952D01*
X90238095Y-107976190D01*
X90285714Y-108023809D01*
X90380952Y-108071428D01*
X90571428Y-108071428D01*
X90666666Y-108023809D01*
X90714285Y-107976190D01*
X90761904Y-107880952D01*
%TO.C,R26*%
X80944642Y-85952380D02*
X80611309Y-85476190D01*
X80373214Y-85952380D02*
X80373214Y-84952380D01*
X80754166Y-84952380D01*
X80849404Y-85000000D01*
X80897023Y-85047619D01*
X80944642Y-85142857D01*
X80944642Y-85285714D01*
X80897023Y-85380952D01*
X80849404Y-85428571D01*
X80754166Y-85476190D01*
X80373214Y-85476190D01*
X81325595Y-85047619D02*
X81373214Y-85000000D01*
X81468452Y-84952380D01*
X81706547Y-84952380D01*
X81801785Y-85000000D01*
X81849404Y-85047619D01*
X81897023Y-85142857D01*
X81897023Y-85238095D01*
X81849404Y-85380952D01*
X81277976Y-85952380D01*
X81897023Y-85952380D01*
X82754166Y-84952380D02*
X82563690Y-84952380D01*
X82468452Y-85000000D01*
X82420833Y-85047619D01*
X82325595Y-85190476D01*
X82277976Y-85380952D01*
X82277976Y-85761904D01*
X82325595Y-85857142D01*
X82373214Y-85904761D01*
X82468452Y-85952380D01*
X82658928Y-85952380D01*
X82754166Y-85904761D01*
X82801785Y-85857142D01*
X82849404Y-85761904D01*
X82849404Y-85523809D01*
X82801785Y-85428571D01*
X82754166Y-85380952D01*
X82658928Y-85333333D01*
X82468452Y-85333333D01*
X82373214Y-85380952D01*
X82325595Y-85428571D01*
X82277976Y-85523809D01*
%TO.C,D7*%
X79412380Y-76468095D02*
X78412380Y-76468095D01*
X78412380Y-76230000D01*
X78460000Y-76087142D01*
X78555238Y-75991904D01*
X78650476Y-75944285D01*
X78840952Y-75896666D01*
X78983809Y-75896666D01*
X79174285Y-75944285D01*
X79269523Y-75991904D01*
X79364761Y-76087142D01*
X79412380Y-76230000D01*
X79412380Y-76468095D01*
X78412380Y-75563333D02*
X78412380Y-74896666D01*
X79412380Y-75325238D01*
%TO.C,U2*%
X85238095Y-71952380D02*
X85238095Y-72761904D01*
X85285714Y-72857142D01*
X85333333Y-72904761D01*
X85428571Y-72952380D01*
X85619047Y-72952380D01*
X85714285Y-72904761D01*
X85761904Y-72857142D01*
X85809523Y-72761904D01*
X85809523Y-71952380D01*
X86238095Y-72047619D02*
X86285714Y-72000000D01*
X86380952Y-71952380D01*
X86619047Y-71952380D01*
X86714285Y-72000000D01*
X86761904Y-72047619D01*
X86809523Y-72142857D01*
X86809523Y-72238095D01*
X86761904Y-72380952D01*
X86190476Y-72952380D01*
X86809523Y-72952380D01*
%TO.C,D2*%
X95611904Y-68452380D02*
X95611904Y-67452380D01*
X95850000Y-67452380D01*
X95992857Y-67500000D01*
X96088095Y-67595238D01*
X96135714Y-67690476D01*
X96183333Y-67880952D01*
X96183333Y-68023809D01*
X96135714Y-68214285D01*
X96088095Y-68309523D01*
X95992857Y-68404761D01*
X95850000Y-68452380D01*
X95611904Y-68452380D01*
X96564285Y-67547619D02*
X96611904Y-67500000D01*
X96707142Y-67452380D01*
X96945238Y-67452380D01*
X97040476Y-67500000D01*
X97088095Y-67547619D01*
X97135714Y-67642857D01*
X97135714Y-67738095D01*
X97088095Y-67880952D01*
X96516666Y-68452380D01*
X97135714Y-68452380D01*
%TO.C,R27*%
X80944642Y-92452380D02*
X80611309Y-91976190D01*
X80373214Y-92452380D02*
X80373214Y-91452380D01*
X80754166Y-91452380D01*
X80849404Y-91500000D01*
X80897023Y-91547619D01*
X80944642Y-91642857D01*
X80944642Y-91785714D01*
X80897023Y-91880952D01*
X80849404Y-91928571D01*
X80754166Y-91976190D01*
X80373214Y-91976190D01*
X81325595Y-91547619D02*
X81373214Y-91500000D01*
X81468452Y-91452380D01*
X81706547Y-91452380D01*
X81801785Y-91500000D01*
X81849404Y-91547619D01*
X81897023Y-91642857D01*
X81897023Y-91738095D01*
X81849404Y-91880952D01*
X81277976Y-92452380D01*
X81897023Y-92452380D01*
X82230357Y-91452380D02*
X82897023Y-91452380D01*
X82468452Y-92452380D01*
%TO.C,C2*%
X121333333Y-47357142D02*
X121285714Y-47404761D01*
X121142857Y-47452380D01*
X121047619Y-47452380D01*
X120904761Y-47404761D01*
X120809523Y-47309523D01*
X120761904Y-47214285D01*
X120714285Y-47023809D01*
X120714285Y-46880952D01*
X120761904Y-46690476D01*
X120809523Y-46595238D01*
X120904761Y-46500000D01*
X121047619Y-46452380D01*
X121142857Y-46452380D01*
X121285714Y-46500000D01*
X121333333Y-46547619D01*
X121714285Y-46547619D02*
X121761904Y-46500000D01*
X121857142Y-46452380D01*
X122095238Y-46452380D01*
X122190476Y-46500000D01*
X122238095Y-46547619D01*
X122285714Y-46642857D01*
X122285714Y-46738095D01*
X122238095Y-46880952D01*
X121666666Y-47452380D01*
X122285714Y-47452380D01*
%TO.C,R13*%
X116857142Y-109302380D02*
X116523809Y-108826190D01*
X116285714Y-109302380D02*
X116285714Y-108302380D01*
X116666666Y-108302380D01*
X116761904Y-108350000D01*
X116809523Y-108397619D01*
X116857142Y-108492857D01*
X116857142Y-108635714D01*
X116809523Y-108730952D01*
X116761904Y-108778571D01*
X116666666Y-108826190D01*
X116285714Y-108826190D01*
X117809523Y-109302380D02*
X117238095Y-109302380D01*
X117523809Y-109302380D02*
X117523809Y-108302380D01*
X117428571Y-108445238D01*
X117333333Y-108540476D01*
X117238095Y-108588095D01*
X118142857Y-108302380D02*
X118761904Y-108302380D01*
X118428571Y-108683333D01*
X118571428Y-108683333D01*
X118666666Y-108730952D01*
X118714285Y-108778571D01*
X118761904Y-108873809D01*
X118761904Y-109111904D01*
X118714285Y-109207142D01*
X118666666Y-109254761D01*
X118571428Y-109302380D01*
X118285714Y-109302380D01*
X118190476Y-109254761D01*
X118142857Y-109207142D01*
%TO.C,Q2*%
X80647619Y-79095238D02*
X80600000Y-79190476D01*
X80504761Y-79285714D01*
X80361904Y-79428571D01*
X80314285Y-79523809D01*
X80314285Y-79619047D01*
X80552380Y-79571428D02*
X80504761Y-79666666D01*
X80409523Y-79761904D01*
X80219047Y-79809523D01*
X79885714Y-79809523D01*
X79695238Y-79761904D01*
X79600000Y-79666666D01*
X79552380Y-79571428D01*
X79552380Y-79380952D01*
X79600000Y-79285714D01*
X79695238Y-79190476D01*
X79885714Y-79142857D01*
X80219047Y-79142857D01*
X80409523Y-79190476D01*
X80504761Y-79285714D01*
X80552380Y-79380952D01*
X80552380Y-79571428D01*
X79647619Y-78761904D02*
X79600000Y-78714285D01*
X79552380Y-78619047D01*
X79552380Y-78380952D01*
X79600000Y-78285714D01*
X79647619Y-78238095D01*
X79742857Y-78190476D01*
X79838095Y-78190476D01*
X79980952Y-78238095D01*
X80552380Y-78809523D01*
X80552380Y-78190476D01*
%TO.C,D5*%
X79237380Y-83968095D02*
X78237380Y-83968095D01*
X78237380Y-83730000D01*
X78285000Y-83587142D01*
X78380238Y-83491904D01*
X78475476Y-83444285D01*
X78665952Y-83396666D01*
X78808809Y-83396666D01*
X78999285Y-83444285D01*
X79094523Y-83491904D01*
X79189761Y-83587142D01*
X79237380Y-83730000D01*
X79237380Y-83968095D01*
X78237380Y-82491904D02*
X78237380Y-82968095D01*
X78713571Y-83015714D01*
X78665952Y-82968095D01*
X78618333Y-82872857D01*
X78618333Y-82634761D01*
X78665952Y-82539523D01*
X78713571Y-82491904D01*
X78808809Y-82444285D01*
X79046904Y-82444285D01*
X79142142Y-82491904D01*
X79189761Y-82539523D01*
X79237380Y-82634761D01*
X79237380Y-82872857D01*
X79189761Y-82968095D01*
X79142142Y-83015714D01*
%TO.C,C8*%
X124583333Y-89457142D02*
X124535714Y-89504761D01*
X124392857Y-89552380D01*
X124297619Y-89552380D01*
X124154761Y-89504761D01*
X124059523Y-89409523D01*
X124011904Y-89314285D01*
X123964285Y-89123809D01*
X123964285Y-88980952D01*
X124011904Y-88790476D01*
X124059523Y-88695238D01*
X124154761Y-88600000D01*
X124297619Y-88552380D01*
X124392857Y-88552380D01*
X124535714Y-88600000D01*
X124583333Y-88647619D01*
X125154761Y-88980952D02*
X125059523Y-88933333D01*
X125011904Y-88885714D01*
X124964285Y-88790476D01*
X124964285Y-88742857D01*
X125011904Y-88647619D01*
X125059523Y-88600000D01*
X125154761Y-88552380D01*
X125345238Y-88552380D01*
X125440476Y-88600000D01*
X125488095Y-88647619D01*
X125535714Y-88742857D01*
X125535714Y-88790476D01*
X125488095Y-88885714D01*
X125440476Y-88933333D01*
X125345238Y-88980952D01*
X125154761Y-88980952D01*
X125059523Y-89028571D01*
X125011904Y-89076190D01*
X124964285Y-89171428D01*
X124964285Y-89361904D01*
X125011904Y-89457142D01*
X125059523Y-89504761D01*
X125154761Y-89552380D01*
X125345238Y-89552380D01*
X125440476Y-89504761D01*
X125488095Y-89457142D01*
X125535714Y-89361904D01*
X125535714Y-89171428D01*
X125488095Y-89076190D01*
X125440476Y-89028571D01*
X125345238Y-88980952D01*
%TO.C,C17*%
X88807142Y-102357142D02*
X88759523Y-102404761D01*
X88616666Y-102452380D01*
X88521428Y-102452380D01*
X88378571Y-102404761D01*
X88283333Y-102309523D01*
X88235714Y-102214285D01*
X88188095Y-102023809D01*
X88188095Y-101880952D01*
X88235714Y-101690476D01*
X88283333Y-101595238D01*
X88378571Y-101500000D01*
X88521428Y-101452380D01*
X88616666Y-101452380D01*
X88759523Y-101500000D01*
X88807142Y-101547619D01*
X89759523Y-102452380D02*
X89188095Y-102452380D01*
X89473809Y-102452380D02*
X89473809Y-101452380D01*
X89378571Y-101595238D01*
X89283333Y-101690476D01*
X89188095Y-101738095D01*
X90092857Y-101452380D02*
X90759523Y-101452380D01*
X90330952Y-102452380D01*
%TO.C,C1*%
X106333333Y-46857142D02*
X106285714Y-46904761D01*
X106142857Y-46952380D01*
X106047619Y-46952380D01*
X105904761Y-46904761D01*
X105809523Y-46809523D01*
X105761904Y-46714285D01*
X105714285Y-46523809D01*
X105714285Y-46380952D01*
X105761904Y-46190476D01*
X105809523Y-46095238D01*
X105904761Y-46000000D01*
X106047619Y-45952380D01*
X106142857Y-45952380D01*
X106285714Y-46000000D01*
X106333333Y-46047619D01*
X107285714Y-46952380D02*
X106714285Y-46952380D01*
X107000000Y-46952380D02*
X107000000Y-45952380D01*
X106904761Y-46095238D01*
X106809523Y-46190476D01*
X106714285Y-46238095D01*
D11*
%TO.C,U3*%
X95000000Y-81060000D02*
X93050000Y-81060000D01*
X95000000Y-81060000D02*
X96950000Y-81060000D01*
X95000000Y-75940000D02*
X96950000Y-75940000D01*
X95000000Y-75940000D02*
X91550000Y-75940000D01*
%TO.C,C3*%
X133788748Y-81590000D02*
X135211252Y-81590000D01*
X133788748Y-83410000D02*
X135211252Y-83410000D01*
%TO.C,R8*%
X99765000Y-95987064D02*
X99765000Y-95532936D01*
X101235000Y-95987064D02*
X101235000Y-95532936D01*
%TO.C,R3*%
X79860436Y-65735000D02*
X80314564Y-65735000D01*
X79860436Y-64265000D02*
X80314564Y-64265000D01*
%TO.C,C18*%
X92738748Y-104265000D02*
X93261252Y-104265000D01*
X92738748Y-105735000D02*
X93261252Y-105735000D01*
%TO.C,C22*%
X115765000Y-97561252D02*
X115765000Y-97038748D01*
X117235000Y-97561252D02*
X117235000Y-97038748D01*
%TO.C,R30*%
X110610436Y-90485000D02*
X111064564Y-90485000D01*
X110610436Y-89015000D02*
X111064564Y-89015000D01*
%TO.C,C9*%
X80594000Y-69595113D02*
X82110000Y-69595113D01*
X84190000Y-67794113D02*
X84593000Y-67794113D01*
X81249000Y-68194113D02*
X82110000Y-68194113D01*
X84190000Y-68434113D02*
X85245000Y-68434113D01*
X84190000Y-68154113D02*
X85014000Y-68154113D01*
X81675000Y-72759888D02*
X81675000Y-72259888D01*
X80670000Y-69234113D02*
X82110000Y-69234113D01*
X80802000Y-68874113D02*
X82110000Y-68874113D01*
X84190000Y-67714113D02*
X84469000Y-67714113D01*
X81001000Y-68514113D02*
X82110000Y-68514113D01*
X80570000Y-69955113D02*
X85730000Y-69955113D01*
X84190000Y-68994113D02*
X85548000Y-68994113D01*
X84190000Y-68834113D02*
X85479000Y-68834113D01*
X81972000Y-67634113D02*
X84328000Y-67634113D01*
X84190000Y-68594113D02*
X85350000Y-68594113D01*
X80768000Y-68954113D02*
X82110000Y-68954113D01*
X81286000Y-68154113D02*
X82110000Y-68154113D01*
X84190000Y-67874113D02*
X84704000Y-67874113D01*
X81596000Y-67874113D02*
X82110000Y-67874113D01*
X80926000Y-68634113D02*
X82110000Y-68634113D01*
X84190000Y-69194113D02*
X85618000Y-69194113D01*
X80639000Y-69355113D02*
X82110000Y-69355113D01*
X84190000Y-68234113D02*
X85087000Y-68234113D01*
X80607000Y-69515113D02*
X82110000Y-69515113D01*
X84190000Y-69515113D02*
X85693000Y-69515113D01*
X82473000Y-67434113D02*
X83827000Y-67434113D01*
X84190000Y-68314113D02*
X85154000Y-68314113D01*
X81831000Y-67714113D02*
X82110000Y-67714113D01*
X81767000Y-67754113D02*
X82110000Y-67754113D01*
X80860000Y-68754113D02*
X82110000Y-68754113D01*
X82139000Y-67554113D02*
X84161000Y-67554113D01*
X84190000Y-67674113D02*
X84401000Y-67674113D01*
X80574000Y-69795113D02*
X85726000Y-69795113D01*
X84190000Y-68394113D02*
X85215000Y-68394113D01*
X80571000Y-69875113D02*
X85729000Y-69875113D01*
X84190000Y-68794113D02*
X85460000Y-68794113D01*
X80570000Y-69915113D02*
X85730000Y-69915113D01*
X84190000Y-68674113D02*
X85397000Y-68674113D01*
X80577000Y-69755113D02*
X85723000Y-69755113D01*
X84190000Y-68954113D02*
X85532000Y-68954113D01*
X82235000Y-67514113D02*
X84065000Y-67514113D01*
X84190000Y-67754113D02*
X84533000Y-67754113D01*
X84190000Y-68354113D02*
X85185000Y-68354113D01*
X80695000Y-69154113D02*
X82110000Y-69154113D01*
X84190000Y-68634113D02*
X85374000Y-68634113D01*
X80589000Y-69635113D02*
X82110000Y-69635113D01*
X81425000Y-72509888D02*
X81925000Y-72509888D01*
X84190000Y-69074113D02*
X85578000Y-69074113D01*
X80903000Y-68674113D02*
X82110000Y-68674113D01*
X81055000Y-68434113D02*
X82110000Y-68434113D01*
X84190000Y-69234113D02*
X85630000Y-69234113D01*
X80975000Y-68554113D02*
X82110000Y-68554113D01*
X84190000Y-69395113D02*
X85670000Y-69395113D01*
X84190000Y-69154113D02*
X85605000Y-69154113D01*
X80840000Y-68794113D02*
X82110000Y-68794113D01*
X84190000Y-67954113D02*
X84803000Y-67954113D01*
X81650000Y-67834113D02*
X82110000Y-67834113D01*
X81028000Y-68474113D02*
X82110000Y-68474113D01*
X81407000Y-68034113D02*
X82110000Y-68034113D01*
X80682000Y-69194113D02*
X82110000Y-69194113D01*
X80614000Y-69475113D02*
X82110000Y-69475113D01*
X84190000Y-68914113D02*
X85515000Y-68914113D01*
X84190000Y-69114113D02*
X85592000Y-69114113D01*
X84190000Y-69475113D02*
X85686000Y-69475113D01*
X80622000Y-69435113D02*
X82110000Y-69435113D01*
X84190000Y-68874113D02*
X85498000Y-68874113D01*
X80708000Y-69114113D02*
X82110000Y-69114113D01*
X84190000Y-68714113D02*
X85418000Y-68714113D01*
X80581000Y-69715113D02*
X82110000Y-69715113D01*
X84190000Y-69435113D02*
X85678000Y-69435113D01*
X81545000Y-67914113D02*
X82110000Y-67914113D01*
X82632000Y-67394113D02*
X83668000Y-67394113D01*
X80950000Y-68594113D02*
X82110000Y-68594113D01*
X84190000Y-68194113D02*
X85051000Y-68194113D01*
X81365000Y-68074113D02*
X82110000Y-68074113D01*
X82052000Y-67594113D02*
X84248000Y-67594113D01*
X80659000Y-69275113D02*
X82110000Y-69275113D01*
X81085000Y-68394113D02*
X82110000Y-68394113D01*
X84190000Y-69635113D02*
X85711000Y-69635113D01*
X84190000Y-68514113D02*
X85299000Y-68514113D01*
X84190000Y-69715113D02*
X85719000Y-69715113D01*
X81324000Y-68114113D02*
X82110000Y-68114113D01*
X84190000Y-68074113D02*
X84935000Y-68074113D01*
X84190000Y-68754113D02*
X85440000Y-68754113D01*
X80722000Y-69074113D02*
X82110000Y-69074113D01*
X81497000Y-67954113D02*
X82110000Y-67954113D01*
X84190000Y-68274113D02*
X85121000Y-68274113D01*
X84190000Y-69275113D02*
X85641000Y-69275113D01*
X80736000Y-69034113D02*
X82110000Y-69034113D01*
X84190000Y-67914113D02*
X84755000Y-67914113D01*
X84190000Y-69315113D02*
X85651000Y-69315113D01*
X80572000Y-69835113D02*
X85728000Y-69835113D01*
X84190000Y-68114113D02*
X84976000Y-68114113D01*
X80785000Y-68914113D02*
X82110000Y-68914113D01*
X84190000Y-67834113D02*
X84650000Y-67834113D01*
X81451000Y-67994113D02*
X82110000Y-67994113D01*
X80752000Y-68994113D02*
X82110000Y-68994113D01*
X80882000Y-68714113D02*
X82110000Y-68714113D01*
X82345000Y-67474113D02*
X83955000Y-67474113D01*
X81899000Y-67674113D02*
X82110000Y-67674113D01*
X81115000Y-68354113D02*
X82110000Y-68354113D01*
X84190000Y-69675113D02*
X85715000Y-69675113D01*
X84190000Y-69034113D02*
X85564000Y-69034113D01*
X82866000Y-67354113D02*
X83434000Y-67354113D01*
X80585000Y-69675113D02*
X82110000Y-69675113D01*
X84190000Y-67994113D02*
X84849000Y-67994113D01*
X80600000Y-69555113D02*
X82110000Y-69555113D01*
X84190000Y-68034113D02*
X84893000Y-68034113D01*
X84190000Y-68474113D02*
X85272000Y-68474113D01*
X81146000Y-68314113D02*
X82110000Y-68314113D01*
X84190000Y-69355113D02*
X85661000Y-69355113D01*
X84190000Y-68554113D02*
X85325000Y-68554113D01*
X81213000Y-68234113D02*
X82110000Y-68234113D01*
X80821000Y-68834113D02*
X82110000Y-68834113D01*
X84190000Y-69595113D02*
X85706000Y-69595113D01*
X81707000Y-67794113D02*
X82110000Y-67794113D01*
X81179000Y-68274113D02*
X82110000Y-68274113D01*
X84190000Y-69555113D02*
X85700000Y-69555113D01*
X80630000Y-69395113D02*
X82110000Y-69395113D01*
X80649000Y-69315113D02*
X82110000Y-69315113D01*
X85770000Y-69955113D02*
G75*
G03*
X85770000Y-69955113I-2620000J0D01*
G01*
%TO.C,C20*%
X103238748Y-103765000D02*
X103761252Y-103765000D01*
X103238748Y-105235000D02*
X103761252Y-105235000D01*
%TO.C,R19*%
X112772936Y-69765000D02*
X113227064Y-69765000D01*
X112772936Y-71235000D02*
X113227064Y-71235000D01*
%TO.C,R20*%
X107735000Y-108272936D02*
X107735000Y-108727064D01*
X106265000Y-108272936D02*
X106265000Y-108727064D01*
%TO.C,C11*%
X112040000Y-76409000D02*
X112826000Y-76409000D01*
X112040000Y-77610000D02*
X113501000Y-77610000D01*
X112040000Y-77289000D02*
X113398000Y-77289000D01*
X112040000Y-77409000D02*
X113442000Y-77409000D01*
X112040000Y-77249000D02*
X113382000Y-77249000D01*
X108489000Y-77650000D02*
X109960000Y-77650000D01*
X112040000Y-77169000D02*
X113348000Y-77169000D01*
X109681000Y-76009000D02*
X109960000Y-76009000D01*
X112040000Y-77329000D02*
X113414000Y-77329000D01*
X112040000Y-77570000D02*
X113491000Y-77570000D01*
X112040000Y-76369000D02*
X112785000Y-76369000D01*
X112040000Y-76169000D02*
X112554000Y-76169000D01*
X108586000Y-77329000D02*
X109960000Y-77329000D01*
X109347000Y-76249000D02*
X109960000Y-76249000D01*
X112040000Y-76729000D02*
X113095000Y-76729000D01*
X108935000Y-76689000D02*
X109960000Y-76689000D01*
X108545000Y-77449000D02*
X109960000Y-77449000D01*
X109215000Y-76369000D02*
X109960000Y-76369000D01*
X112040000Y-77449000D02*
X113455000Y-77449000D01*
X108420000Y-78250000D02*
X113580000Y-78250000D01*
X112040000Y-78010000D02*
X113569000Y-78010000D01*
X108800000Y-76889000D02*
X109960000Y-76889000D01*
X112040000Y-76089000D02*
X112443000Y-76089000D01*
X112040000Y-77089000D02*
X113310000Y-77089000D01*
X108457000Y-77810000D02*
X109960000Y-77810000D01*
X112040000Y-77650000D02*
X113511000Y-77650000D01*
X108732000Y-77009000D02*
X109960000Y-77009000D01*
X110085000Y-75809000D02*
X111915000Y-75809000D01*
X108635000Y-77209000D02*
X109960000Y-77209000D01*
X112040000Y-77930000D02*
X113561000Y-77930000D01*
X109989000Y-75849000D02*
X112011000Y-75849000D01*
X112040000Y-76449000D02*
X112864000Y-76449000D01*
X109136000Y-76449000D02*
X109960000Y-76449000D01*
X108558000Y-77409000D02*
X109960000Y-77409000D01*
X108532000Y-77489000D02*
X109960000Y-77489000D01*
X112040000Y-76129000D02*
X112500000Y-76129000D01*
X112040000Y-77009000D02*
X113268000Y-77009000D01*
X112040000Y-77970000D02*
X113565000Y-77970000D01*
X109275000Y-80804775D02*
X109775000Y-80804775D01*
X109749000Y-75969000D02*
X109960000Y-75969000D01*
X109525000Y-81054775D02*
X109525000Y-80554775D01*
X112040000Y-76249000D02*
X112653000Y-76249000D01*
X108420000Y-78210000D02*
X113580000Y-78210000D01*
X108431000Y-78010000D02*
X109960000Y-78010000D01*
X109822000Y-75929000D02*
X112178000Y-75929000D01*
X110323000Y-75729000D02*
X111677000Y-75729000D01*
X108464000Y-77770000D02*
X109960000Y-77770000D01*
X112040000Y-77890000D02*
X113556000Y-77890000D01*
X108965000Y-76649000D02*
X109960000Y-76649000D01*
X112040000Y-77850000D02*
X113550000Y-77850000D01*
X112040000Y-76209000D02*
X112605000Y-76209000D01*
X112040000Y-76289000D02*
X112699000Y-76289000D01*
X112040000Y-76849000D02*
X113175000Y-76849000D01*
X108427000Y-78050000D02*
X113573000Y-78050000D01*
X108710000Y-77049000D02*
X109960000Y-77049000D01*
X108520000Y-77529000D02*
X109960000Y-77529000D01*
X112040000Y-77690000D02*
X113520000Y-77690000D01*
X112040000Y-76569000D02*
X112971000Y-76569000D01*
X109301000Y-76289000D02*
X109960000Y-76289000D01*
X112040000Y-76609000D02*
X113004000Y-76609000D01*
X109446000Y-76169000D02*
X109960000Y-76169000D01*
X108439000Y-77930000D02*
X109960000Y-77930000D01*
X112040000Y-77810000D02*
X113543000Y-77810000D01*
X108421000Y-78170000D02*
X113579000Y-78170000D01*
X108435000Y-77970000D02*
X109960000Y-77970000D01*
X112040000Y-75969000D02*
X112251000Y-75969000D01*
X112040000Y-76889000D02*
X113200000Y-76889000D01*
X112040000Y-77770000D02*
X113536000Y-77770000D01*
X108878000Y-76769000D02*
X109960000Y-76769000D01*
X112040000Y-77049000D02*
X113290000Y-77049000D01*
X108652000Y-77169000D02*
X109960000Y-77169000D01*
X108618000Y-77249000D02*
X109960000Y-77249000D01*
X108422000Y-78130000D02*
X113578000Y-78130000D01*
X109500000Y-76129000D02*
X109960000Y-76129000D01*
X112040000Y-76809000D02*
X113149000Y-76809000D01*
X112040000Y-76689000D02*
X113065000Y-76689000D01*
X112040000Y-76969000D02*
X113247000Y-76969000D01*
X108905000Y-76729000D02*
X109960000Y-76729000D01*
X108424000Y-78090000D02*
X113576000Y-78090000D01*
X108996000Y-76609000D02*
X109960000Y-76609000D01*
X109099000Y-76489000D02*
X109960000Y-76489000D01*
X108499000Y-77610000D02*
X109960000Y-77610000D01*
X108690000Y-77089000D02*
X109960000Y-77089000D01*
X112040000Y-77730000D02*
X113528000Y-77730000D01*
X112040000Y-76329000D02*
X112743000Y-76329000D01*
X112040000Y-77209000D02*
X113365000Y-77209000D01*
X112040000Y-76489000D02*
X112901000Y-76489000D01*
X108450000Y-77850000D02*
X109960000Y-77850000D01*
X112040000Y-77129000D02*
X113329000Y-77129000D01*
X112040000Y-76769000D02*
X113122000Y-76769000D01*
X110482000Y-75689000D02*
X111518000Y-75689000D01*
X108572000Y-77369000D02*
X109960000Y-77369000D01*
X112040000Y-77369000D02*
X113428000Y-77369000D01*
X110716000Y-75649000D02*
X111284000Y-75649000D01*
X112040000Y-77529000D02*
X113480000Y-77529000D01*
X108776000Y-76929000D02*
X109960000Y-76929000D01*
X108671000Y-77129000D02*
X109960000Y-77129000D01*
X112040000Y-77489000D02*
X113468000Y-77489000D01*
X110195000Y-75769000D02*
X111805000Y-75769000D01*
X108509000Y-77570000D02*
X109960000Y-77570000D01*
X112040000Y-76009000D02*
X112319000Y-76009000D01*
X109395000Y-76209000D02*
X109960000Y-76209000D01*
X108851000Y-76809000D02*
X109960000Y-76809000D01*
X112040000Y-76649000D02*
X113035000Y-76649000D01*
X108472000Y-77730000D02*
X109960000Y-77730000D01*
X109174000Y-76409000D02*
X109960000Y-76409000D01*
X112040000Y-76529000D02*
X112937000Y-76529000D01*
X109617000Y-76049000D02*
X109960000Y-76049000D01*
X108753000Y-76969000D02*
X109960000Y-76969000D01*
X109029000Y-76569000D02*
X109960000Y-76569000D01*
X108480000Y-77690000D02*
X109960000Y-77690000D01*
X108444000Y-77890000D02*
X109960000Y-77890000D01*
X112040000Y-76929000D02*
X113224000Y-76929000D01*
X109902000Y-75889000D02*
X112098000Y-75889000D01*
X109063000Y-76529000D02*
X109960000Y-76529000D01*
X108825000Y-76849000D02*
X109960000Y-76849000D01*
X112040000Y-76049000D02*
X112383000Y-76049000D01*
X109557000Y-76089000D02*
X109960000Y-76089000D01*
X109257000Y-76329000D02*
X109960000Y-76329000D01*
X108602000Y-77289000D02*
X109960000Y-77289000D01*
X113620000Y-78250000D02*
G75*
G03*
X113620000Y-78250000I-2620000J0D01*
G01*
%TO.C,R23*%
X84735000Y-83227064D02*
X84735000Y-82772936D01*
X83265000Y-83227064D02*
X83265000Y-82772936D01*
%TO.C,SW1*%
X93900000Y-85700000D02*
X93900000Y-84700000D01*
X95900000Y-86700000D02*
X95900000Y-89300000D01*
X101900000Y-84750000D02*
X96100000Y-84750000D01*
X93900000Y-84700000D02*
X94900000Y-84700000D01*
X102000000Y-91250000D02*
X96000000Y-91250000D01*
X102100000Y-86700000D02*
X102100000Y-89300000D01*
%TO.C,R29*%
X110610436Y-87235000D02*
X111064564Y-87235000D01*
X110610436Y-85765000D02*
X111064564Y-85765000D01*
%TO.C,C33*%
X130236252Y-96265000D02*
X129713748Y-96265000D01*
X130236252Y-97735000D02*
X129713748Y-97735000D01*
%TO.C,C39*%
X138130000Y-99370000D02*
X156370000Y-99370000D01*
X138130000Y-93130000D02*
X156370000Y-93130000D01*
X156370000Y-93130000D02*
X156370000Y-99370000D01*
X138130000Y-93130000D02*
X138130000Y-99370000D01*
%TO.C,R28*%
X89272936Y-87765000D02*
X89727064Y-87765000D01*
X89272936Y-89235000D02*
X89727064Y-89235000D01*
%TO.C,R14*%
X117360436Y-84735000D02*
X117814564Y-84735000D01*
X117360436Y-83265000D02*
X117814564Y-83265000D01*
%TO.C,C31*%
X92311252Y-73765000D02*
X91788748Y-73765000D01*
X92311252Y-75235000D02*
X91788748Y-75235000D01*
%TO.C,R12*%
X113272936Y-109765000D02*
X113727064Y-109765000D01*
X113272936Y-111235000D02*
X113727064Y-111235000D01*
%TO.C,C32*%
X130261252Y-93765000D02*
X129738748Y-93765000D01*
X130261252Y-95235000D02*
X129738748Y-95235000D01*
%TO.C,C12*%
X94235000Y-71261252D02*
X94235000Y-70738748D01*
X92765000Y-71261252D02*
X92765000Y-70738748D01*
%TO.C,R11*%
X121185436Y-109765000D02*
X121639564Y-109765000D01*
X121185436Y-111235000D02*
X121639564Y-111235000D01*
%TO.C,C23*%
X108826248Y-72765000D02*
X109348752Y-72765000D01*
X108826248Y-74235000D02*
X109348752Y-74235000D01*
%TO.C,R21*%
X106860436Y-105235000D02*
X107314564Y-105235000D01*
X106860436Y-103765000D02*
X107314564Y-103765000D01*
%TO.C,C29*%
X98188748Y-73765000D02*
X98711252Y-73765000D01*
X98188748Y-75235000D02*
X98711252Y-75235000D01*
%TO.C,J3*%
X98495000Y-98630000D02*
X101095000Y-98630000D01*
X95895000Y-101230000D02*
X95895000Y-108910000D01*
X98495000Y-101230000D02*
X98495000Y-98630000D01*
X95895000Y-101230000D02*
X98495000Y-101230000D01*
X95895000Y-99960000D02*
X95895000Y-98630000D01*
X95895000Y-98630000D02*
X97225000Y-98630000D01*
X95895000Y-108910000D02*
X101095000Y-108910000D01*
X101095000Y-98630000D02*
X101095000Y-108910000D01*
%TO.C,C38*%
X158120000Y-67620000D02*
X158120000Y-61380000D01*
X139880000Y-67620000D02*
X139880000Y-61380000D01*
X158120000Y-61380000D02*
X139880000Y-61380000D01*
X158120000Y-67620000D02*
X139880000Y-67620000D01*
%TO.C,R9*%
X108765000Y-108727064D02*
X108765000Y-108272936D01*
X110235000Y-108727064D02*
X110235000Y-108272936D01*
%TO.C,R24*%
X80765000Y-83139564D02*
X80765000Y-82685436D01*
X82235000Y-83139564D02*
X82235000Y-82685436D01*
%TO.C,J2*%
X74700000Y-103000000D02*
X75400000Y-102500000D01*
X85730000Y-105825000D02*
X85730000Y-100175000D01*
X74500000Y-100175000D02*
X74500000Y-105825000D01*
X77175000Y-108730000D02*
X82825000Y-108730000D01*
X74700000Y-103000000D02*
X75400000Y-103500000D01*
X82825000Y-97270000D02*
X77175000Y-97270000D01*
%TO.C,R5*%
X76314564Y-71735000D02*
X75860436Y-71735000D01*
X76314564Y-70265000D02*
X75860436Y-70265000D01*
%TO.C,R6*%
X122185436Y-76515000D02*
X122639564Y-76515000D01*
X122185436Y-77985000D02*
X122639564Y-77985000D01*
%TO.C,C15*%
X119738748Y-100765000D02*
X120261252Y-100765000D01*
X119738748Y-102235000D02*
X120261252Y-102235000D01*
%TO.C,C13*%
X118786252Y-79265000D02*
X118263748Y-79265000D01*
X118786252Y-80735000D02*
X118263748Y-80735000D01*
%TO.C,L3*%
X150779000Y-91720000D02*
X160820000Y-91720000D01*
X150779000Y-81280000D02*
X160820000Y-81280000D01*
X160820000Y-81280000D02*
X160820000Y-91720000D01*
X138180000Y-91720000D02*
X148221000Y-91720000D01*
X138180000Y-81280000D02*
X148221000Y-81280000D01*
X138180000Y-81280000D02*
X138180000Y-91720000D01*
%TO.C,C21*%
X111515000Y-97511252D02*
X111515000Y-96988748D01*
X112985000Y-97511252D02*
X112985000Y-96988748D01*
%TO.C,R7*%
X122860436Y-94985000D02*
X123314564Y-94985000D01*
X122860436Y-93515000D02*
X123314564Y-93515000D01*
%TO.C,C30*%
X86960000Y-79611000D02*
X85800000Y-79611000D01*
X88677000Y-80771000D02*
X87323000Y-80771000D01*
X89319000Y-80491000D02*
X89040000Y-80491000D01*
X89251000Y-80531000D02*
X89040000Y-80531000D01*
X90580000Y-78250000D02*
X85420000Y-78250000D01*
X90520000Y-78810000D02*
X89040000Y-78810000D01*
X88518000Y-80811000D02*
X87482000Y-80811000D01*
X86960000Y-78610000D02*
X85444000Y-78610000D01*
X90290000Y-79451000D02*
X89040000Y-79451000D01*
X86960000Y-80291000D02*
X86395000Y-80291000D01*
X90035000Y-79851000D02*
X89040000Y-79851000D01*
X86960000Y-78850000D02*
X85489000Y-78850000D01*
X86960000Y-80211000D02*
X86301000Y-80211000D01*
X86960000Y-79691000D02*
X85851000Y-79691000D01*
X89864000Y-80051000D02*
X89040000Y-80051000D01*
X86960000Y-80091000D02*
X86174000Y-80091000D01*
X86960000Y-79251000D02*
X85618000Y-79251000D01*
X90565000Y-78530000D02*
X89040000Y-78530000D01*
X86960000Y-79851000D02*
X85965000Y-79851000D01*
X90398000Y-79211000D02*
X89040000Y-79211000D01*
X89653000Y-80251000D02*
X89040000Y-80251000D01*
X86960000Y-79731000D02*
X85878000Y-79731000D01*
X90200000Y-79611000D02*
X89040000Y-79611000D01*
X89383000Y-80451000D02*
X89040000Y-80451000D01*
X89605000Y-80291000D02*
X89040000Y-80291000D01*
X88284000Y-80851000D02*
X87716000Y-80851000D01*
X86960000Y-80131000D02*
X86215000Y-80131000D01*
X90579000Y-78330000D02*
X85421000Y-78330000D01*
X90348000Y-79331000D02*
X89040000Y-79331000D01*
X90455000Y-79051000D02*
X89040000Y-79051000D01*
X90414000Y-79171000D02*
X89040000Y-79171000D01*
X90580000Y-78290000D02*
X85420000Y-78290000D01*
X86960000Y-78810000D02*
X85480000Y-78810000D01*
X90004000Y-79891000D02*
X89040000Y-79891000D01*
X86960000Y-79571000D02*
X85776000Y-79571000D01*
X90573000Y-78450000D02*
X85427000Y-78450000D01*
X89178000Y-80571000D02*
X86822000Y-80571000D01*
X90468000Y-79011000D02*
X89040000Y-79011000D01*
X90561000Y-78570000D02*
X89040000Y-78570000D01*
X86960000Y-78570000D02*
X85439000Y-78570000D01*
X89725000Y-75695225D02*
X89225000Y-75695225D01*
X90543000Y-78690000D02*
X89040000Y-78690000D01*
X86960000Y-79491000D02*
X85732000Y-79491000D01*
X89785000Y-80131000D02*
X89040000Y-80131000D01*
X86960000Y-79291000D02*
X85635000Y-79291000D01*
X90556000Y-78610000D02*
X89040000Y-78610000D01*
X89937000Y-79971000D02*
X89040000Y-79971000D01*
X90428000Y-79131000D02*
X89040000Y-79131000D01*
X86960000Y-78930000D02*
X85509000Y-78930000D01*
X89554000Y-80331000D02*
X89040000Y-80331000D01*
X90569000Y-78490000D02*
X89040000Y-78490000D01*
X86960000Y-78530000D02*
X85435000Y-78530000D01*
X89098000Y-80611000D02*
X86902000Y-80611000D01*
X86960000Y-78890000D02*
X85499000Y-78890000D01*
X86960000Y-80171000D02*
X86257000Y-80171000D01*
X86960000Y-78690000D02*
X85457000Y-78690000D01*
X89971000Y-79931000D02*
X89040000Y-79931000D01*
X90224000Y-79571000D02*
X89040000Y-79571000D01*
X86960000Y-80051000D02*
X86136000Y-80051000D01*
X90550000Y-78650000D02*
X89040000Y-78650000D01*
X89743000Y-80171000D02*
X89040000Y-80171000D01*
X90442000Y-79091000D02*
X89040000Y-79091000D01*
X86960000Y-79131000D02*
X85572000Y-79131000D01*
X89826000Y-80091000D02*
X89040000Y-80091000D01*
X86960000Y-80251000D02*
X86347000Y-80251000D01*
X86960000Y-79771000D02*
X85905000Y-79771000D01*
X86960000Y-79971000D02*
X86063000Y-79971000D01*
X86960000Y-78650000D02*
X85450000Y-78650000D01*
X86960000Y-78490000D02*
X85431000Y-78490000D01*
X86960000Y-79931000D02*
X86029000Y-79931000D01*
X90536000Y-78730000D02*
X89040000Y-78730000D01*
X86960000Y-79811000D02*
X85935000Y-79811000D01*
X89443000Y-80411000D02*
X89040000Y-80411000D01*
X90329000Y-79371000D02*
X89040000Y-79371000D01*
X90268000Y-79491000D02*
X89040000Y-79491000D01*
X90310000Y-79411000D02*
X89040000Y-79411000D01*
X90175000Y-79651000D02*
X89040000Y-79651000D01*
X90501000Y-78890000D02*
X89040000Y-78890000D01*
X86960000Y-80011000D02*
X86099000Y-80011000D01*
X86960000Y-80331000D02*
X86446000Y-80331000D01*
X89901000Y-80011000D02*
X89040000Y-80011000D01*
X89699000Y-80211000D02*
X89040000Y-80211000D01*
X88915000Y-80691000D02*
X87085000Y-80691000D01*
X90365000Y-79291000D02*
X89040000Y-79291000D01*
X86960000Y-79651000D02*
X85825000Y-79651000D01*
X90578000Y-78370000D02*
X85422000Y-78370000D01*
X86960000Y-79371000D02*
X85671000Y-79371000D01*
X90528000Y-78770000D02*
X89040000Y-78770000D01*
X89500000Y-80371000D02*
X89040000Y-80371000D01*
X86960000Y-78730000D02*
X85464000Y-78730000D01*
X90247000Y-79531000D02*
X89040000Y-79531000D01*
X86960000Y-79891000D02*
X85996000Y-79891000D01*
X86960000Y-79171000D02*
X85586000Y-79171000D01*
X86960000Y-78971000D02*
X85520000Y-78971000D01*
X86960000Y-80411000D02*
X86557000Y-80411000D01*
X90576000Y-78410000D02*
X85424000Y-78410000D01*
X86960000Y-80531000D02*
X86749000Y-80531000D01*
X86960000Y-79331000D02*
X85652000Y-79331000D01*
X90491000Y-78930000D02*
X89040000Y-78930000D01*
X86960000Y-79051000D02*
X85545000Y-79051000D01*
X90095000Y-79771000D02*
X89040000Y-79771000D01*
X90382000Y-79251000D02*
X89040000Y-79251000D01*
X89011000Y-80651000D02*
X86989000Y-80651000D01*
X86960000Y-78770000D02*
X85472000Y-78770000D01*
X90122000Y-79731000D02*
X89040000Y-79731000D01*
X86960000Y-79531000D02*
X85753000Y-79531000D01*
X89475000Y-75445225D02*
X89475000Y-75945225D01*
X90065000Y-79811000D02*
X89040000Y-79811000D01*
X90511000Y-78850000D02*
X89040000Y-78850000D01*
X86960000Y-80371000D02*
X86500000Y-80371000D01*
X86960000Y-79011000D02*
X85532000Y-79011000D01*
X86960000Y-80451000D02*
X86617000Y-80451000D01*
X86960000Y-80491000D02*
X86681000Y-80491000D01*
X90149000Y-79691000D02*
X89040000Y-79691000D01*
X86960000Y-79451000D02*
X85710000Y-79451000D01*
X86960000Y-79411000D02*
X85690000Y-79411000D01*
X86960000Y-79091000D02*
X85558000Y-79091000D01*
X86960000Y-79211000D02*
X85602000Y-79211000D01*
X88805000Y-80731000D02*
X87195000Y-80731000D01*
X90480000Y-78971000D02*
X89040000Y-78971000D01*
X90620000Y-78250000D02*
G75*
G03*
X90620000Y-78250000I-2620000J0D01*
G01*
%TO.C,C10*%
X90461252Y-67735000D02*
X89938748Y-67735000D01*
X90461252Y-66265000D02*
X89938748Y-66265000D01*
%TO.C,C28*%
X104095000Y-79771000D02*
X103040000Y-79771000D01*
X100960000Y-79251000D02*
X99618000Y-79251000D01*
X104004000Y-79891000D02*
X103040000Y-79891000D01*
X103251000Y-80531000D02*
X103040000Y-80531000D01*
X100960000Y-78490000D02*
X99431000Y-78490000D01*
X100960000Y-78890000D02*
X99499000Y-78890000D01*
X104573000Y-78450000D02*
X99427000Y-78450000D01*
X100960000Y-78650000D02*
X99450000Y-78650000D01*
X100960000Y-79931000D02*
X100029000Y-79931000D01*
X100960000Y-79091000D02*
X99558000Y-79091000D01*
X100960000Y-80531000D02*
X100749000Y-80531000D01*
X100960000Y-80251000D02*
X100347000Y-80251000D01*
X104200000Y-79611000D02*
X103040000Y-79611000D01*
X103605000Y-80291000D02*
X103040000Y-80291000D01*
X103971000Y-79931000D02*
X103040000Y-79931000D01*
X104442000Y-79091000D02*
X103040000Y-79091000D01*
X100960000Y-79971000D02*
X100063000Y-79971000D01*
X100960000Y-79211000D02*
X99602000Y-79211000D01*
X103937000Y-79971000D02*
X103040000Y-79971000D01*
X104065000Y-79811000D02*
X103040000Y-79811000D01*
X103383000Y-80451000D02*
X103040000Y-80451000D01*
X104536000Y-78730000D02*
X103040000Y-78730000D01*
X103743000Y-80171000D02*
X103040000Y-80171000D01*
X104480000Y-78971000D02*
X103040000Y-78971000D01*
X100960000Y-78730000D02*
X99464000Y-78730000D01*
X104565000Y-78530000D02*
X103040000Y-78530000D01*
X100960000Y-79851000D02*
X99965000Y-79851000D01*
X100960000Y-80411000D02*
X100557000Y-80411000D01*
X104468000Y-79011000D02*
X103040000Y-79011000D01*
X103475000Y-75445225D02*
X103475000Y-75945225D01*
X104414000Y-79171000D02*
X103040000Y-79171000D01*
X104491000Y-78930000D02*
X103040000Y-78930000D01*
X100960000Y-79291000D02*
X99635000Y-79291000D01*
X102677000Y-80771000D02*
X101323000Y-80771000D01*
X100960000Y-79131000D02*
X99572000Y-79131000D01*
X100960000Y-78690000D02*
X99457000Y-78690000D01*
X103785000Y-80131000D02*
X103040000Y-80131000D01*
X104579000Y-78330000D02*
X99421000Y-78330000D01*
X103098000Y-80611000D02*
X100902000Y-80611000D01*
X104528000Y-78770000D02*
X103040000Y-78770000D01*
X100960000Y-79891000D02*
X99996000Y-79891000D01*
X102518000Y-80811000D02*
X101482000Y-80811000D01*
X102284000Y-80851000D02*
X101716000Y-80851000D01*
X100960000Y-79371000D02*
X99671000Y-79371000D01*
X103653000Y-80251000D02*
X103040000Y-80251000D01*
X103901000Y-80011000D02*
X103040000Y-80011000D01*
X100960000Y-80211000D02*
X100301000Y-80211000D01*
X104382000Y-79251000D02*
X103040000Y-79251000D01*
X104365000Y-79291000D02*
X103040000Y-79291000D01*
X100960000Y-78610000D02*
X99444000Y-78610000D01*
X100960000Y-78930000D02*
X99509000Y-78930000D01*
X100960000Y-80331000D02*
X100446000Y-80331000D01*
X100960000Y-80051000D02*
X100136000Y-80051000D01*
X100960000Y-80131000D02*
X100215000Y-80131000D01*
X100960000Y-80491000D02*
X100681000Y-80491000D01*
X104310000Y-79411000D02*
X103040000Y-79411000D01*
X103864000Y-80051000D02*
X103040000Y-80051000D01*
X100960000Y-80171000D02*
X100257000Y-80171000D01*
X104455000Y-79051000D02*
X103040000Y-79051000D01*
X104290000Y-79451000D02*
X103040000Y-79451000D01*
X102805000Y-80731000D02*
X101195000Y-80731000D01*
X104543000Y-78690000D02*
X103040000Y-78690000D01*
X103500000Y-80371000D02*
X103040000Y-80371000D01*
X104035000Y-79851000D02*
X103040000Y-79851000D01*
X104268000Y-79491000D02*
X103040000Y-79491000D01*
X104224000Y-79571000D02*
X103040000Y-79571000D01*
X104149000Y-79691000D02*
X103040000Y-79691000D01*
X100960000Y-78810000D02*
X99480000Y-78810000D01*
X100960000Y-79451000D02*
X99710000Y-79451000D01*
X100960000Y-79491000D02*
X99732000Y-79491000D01*
X104247000Y-79531000D02*
X103040000Y-79531000D01*
X104122000Y-79731000D02*
X103040000Y-79731000D01*
X100960000Y-80451000D02*
X100617000Y-80451000D01*
X100960000Y-79691000D02*
X99851000Y-79691000D01*
X104511000Y-78850000D02*
X103040000Y-78850000D01*
X104175000Y-79651000D02*
X103040000Y-79651000D01*
X104348000Y-79331000D02*
X103040000Y-79331000D01*
X100960000Y-78770000D02*
X99472000Y-78770000D01*
X104501000Y-78890000D02*
X103040000Y-78890000D01*
X103443000Y-80411000D02*
X103040000Y-80411000D01*
X100960000Y-79611000D02*
X99800000Y-79611000D01*
X100960000Y-79771000D02*
X99905000Y-79771000D01*
X103011000Y-80651000D02*
X100989000Y-80651000D01*
X100960000Y-79811000D02*
X99935000Y-79811000D01*
X100960000Y-79171000D02*
X99586000Y-79171000D01*
X104520000Y-78810000D02*
X103040000Y-78810000D01*
X100960000Y-78570000D02*
X99439000Y-78570000D01*
X103725000Y-75695225D02*
X103225000Y-75695225D01*
X100960000Y-80371000D02*
X100500000Y-80371000D01*
X103554000Y-80331000D02*
X103040000Y-80331000D01*
X100960000Y-79571000D02*
X99776000Y-79571000D01*
X104428000Y-79131000D02*
X103040000Y-79131000D01*
X104398000Y-79211000D02*
X103040000Y-79211000D01*
X103178000Y-80571000D02*
X100822000Y-80571000D01*
X104569000Y-78490000D02*
X103040000Y-78490000D01*
X104561000Y-78570000D02*
X103040000Y-78570000D01*
X103826000Y-80091000D02*
X103040000Y-80091000D01*
X100960000Y-79411000D02*
X99690000Y-79411000D01*
X104580000Y-78290000D02*
X99420000Y-78290000D01*
X104329000Y-79371000D02*
X103040000Y-79371000D01*
X100960000Y-78530000D02*
X99435000Y-78530000D01*
X103319000Y-80491000D02*
X103040000Y-80491000D01*
X100960000Y-80291000D02*
X100395000Y-80291000D01*
X104578000Y-78370000D02*
X99422000Y-78370000D01*
X104576000Y-78410000D02*
X99424000Y-78410000D01*
X100960000Y-79331000D02*
X99652000Y-79331000D01*
X102915000Y-80691000D02*
X101085000Y-80691000D01*
X100960000Y-79731000D02*
X99878000Y-79731000D01*
X104556000Y-78610000D02*
X103040000Y-78610000D01*
X100960000Y-80091000D02*
X100174000Y-80091000D01*
X104580000Y-78250000D02*
X99420000Y-78250000D01*
X100960000Y-80011000D02*
X100099000Y-80011000D01*
X100960000Y-79011000D02*
X99532000Y-79011000D01*
X100960000Y-78971000D02*
X99520000Y-78971000D01*
X103699000Y-80211000D02*
X103040000Y-80211000D01*
X100960000Y-78850000D02*
X99489000Y-78850000D01*
X100960000Y-79531000D02*
X99753000Y-79531000D01*
X100960000Y-79051000D02*
X99545000Y-79051000D01*
X104550000Y-78650000D02*
X103040000Y-78650000D01*
X100960000Y-79651000D02*
X99825000Y-79651000D01*
X104620000Y-78250000D02*
G75*
G03*
X104620000Y-78250000I-2620000J0D01*
G01*
%TO.C,C34*%
X130261252Y-77735000D02*
X129738748Y-77735000D01*
X130261252Y-76265000D02*
X129738748Y-76265000D01*
%TO.C,R25*%
X82360436Y-76735000D02*
X82814564Y-76735000D01*
X82360436Y-75265000D02*
X82814564Y-75265000D01*
%TO.C,D1*%
X88000000Y-49750000D02*
X86000000Y-49750000D01*
X88000000Y-49750000D02*
X88000000Y-53650000D01*
X86000000Y-49750000D02*
X86000000Y-53650000D01*
%TO.C,C41*%
X124763748Y-83515000D02*
X125286252Y-83515000D01*
X124763748Y-84985000D02*
X125286252Y-84985000D01*
%TO.C,C40*%
X120015000Y-88988748D02*
X120015000Y-89511252D01*
X121485000Y-88988748D02*
X121485000Y-89511252D01*
%TO.C,C35*%
X130261252Y-73765000D02*
X129738748Y-73765000D01*
X130261252Y-75235000D02*
X129738748Y-75235000D01*
%TO.C,J1*%
X69200000Y-59600000D02*
X69200000Y-50400000D01*
X83700000Y-57600000D02*
X83700000Y-59600000D01*
X84000000Y-51800000D02*
X84000000Y-50100000D01*
X84000000Y-50100000D02*
X82700000Y-50100000D01*
X83700000Y-59600000D02*
X82400000Y-59600000D01*
X83700000Y-50400000D02*
X83700000Y-52400000D01*
X77800000Y-59600000D02*
X69200000Y-59600000D01*
X69200000Y-50400000D02*
X83700000Y-50400000D01*
%TO.C,R22*%
X106772936Y-101735000D02*
X107227064Y-101735000D01*
X106772936Y-100265000D02*
X107227064Y-100265000D01*
%TO.C,C4*%
X134577041Y-61653000D02*
X134577041Y-65560000D01*
X133097041Y-60966000D02*
X133097041Y-65560000D01*
X136337041Y-63304000D02*
X136337041Y-70696000D01*
X133297041Y-68440000D02*
X133297041Y-72967000D01*
X136897041Y-64236000D02*
X136897041Y-69764000D01*
X136377041Y-63360000D02*
X136377041Y-70640000D01*
X132257041Y-68440000D02*
X132257041Y-73238000D01*
X134177041Y-61420000D02*
X134177041Y-65560000D01*
X132177041Y-60748000D02*
X132177041Y-73252000D01*
X131696041Y-60691000D02*
X131696041Y-73309000D01*
X132097041Y-60736000D02*
X132097041Y-73264000D01*
X135697041Y-62551000D02*
X135697041Y-71449000D01*
X135977041Y-62852000D02*
X135977041Y-71148000D01*
X135097041Y-68440000D02*
X135097041Y-71982000D01*
X133817041Y-61242000D02*
X133817041Y-65560000D01*
X133697041Y-68440000D02*
X133697041Y-72811000D01*
X135617041Y-62472000D02*
X135617041Y-71528000D01*
X133897041Y-68440000D02*
X133897041Y-72721000D01*
X135657041Y-62511000D02*
X135657041Y-71489000D01*
X131536041Y-60680000D02*
X131536041Y-73320000D01*
X135217041Y-62115000D02*
X135217041Y-71885000D01*
X134817041Y-61812000D02*
X134817041Y-65560000D01*
X134057041Y-61358000D02*
X134057041Y-65560000D01*
X136297041Y-63250000D02*
X136297041Y-70750000D01*
X132337041Y-68440000D02*
X132337041Y-73224000D01*
X135297041Y-62181000D02*
X135297041Y-71819000D01*
X131736041Y-60694000D02*
X131736041Y-73306000D01*
X134257041Y-68440000D02*
X134257041Y-72536000D01*
X132697041Y-60854000D02*
X132697041Y-65560000D01*
X132497041Y-60808000D02*
X132497041Y-65560000D01*
X131376041Y-60673000D02*
X131376041Y-73327000D01*
X132977041Y-68440000D02*
X132977041Y-73071000D01*
X132457041Y-68440000D02*
X132457041Y-73201000D01*
X135537041Y-62395000D02*
X135537041Y-71605000D01*
X136857041Y-64156000D02*
X136857041Y-69844000D01*
X135137041Y-62050000D02*
X135137041Y-71950000D01*
X134857041Y-68440000D02*
X134857041Y-72160000D01*
X136097041Y-62993000D02*
X136097041Y-71007000D01*
X131897041Y-60710000D02*
X131897041Y-73290000D01*
X134297041Y-61486000D02*
X134297041Y-65560000D01*
X137057041Y-64590000D02*
X137057041Y-69410000D01*
X133217041Y-61005000D02*
X133217041Y-65560000D01*
X132897041Y-60906000D02*
X132897041Y-65560000D01*
X137377041Y-65578000D02*
X137377041Y-68422000D01*
X134977041Y-61927000D02*
X134977041Y-65560000D01*
X133697041Y-61189000D02*
X133697041Y-65560000D01*
X135177041Y-62082000D02*
X135177041Y-71918000D01*
X135057041Y-68440000D02*
X135057041Y-72012000D01*
X135817041Y-62675000D02*
X135817041Y-71325000D01*
X131816041Y-60702000D02*
X131816041Y-73298000D01*
X136537041Y-63598000D02*
X136537041Y-70402000D01*
X137257041Y-65139000D02*
X137257041Y-68861000D01*
X134497041Y-68440000D02*
X134497041Y-72397000D01*
X131576041Y-60682000D02*
X131576041Y-73318000D01*
X136817041Y-64079000D02*
X136817041Y-69921000D01*
X133377041Y-61061000D02*
X133377041Y-65560000D01*
X134657041Y-68440000D02*
X134657041Y-72296000D01*
X137137041Y-64791000D02*
X137137041Y-69209000D01*
X136977041Y-64406000D02*
X136977041Y-69594000D01*
X132017041Y-60725000D02*
X132017041Y-73275000D01*
X137497041Y-66243000D02*
X137497041Y-67757000D01*
X134417041Y-61555000D02*
X134417041Y-65560000D01*
X134337041Y-68440000D02*
X134337041Y-72491000D01*
X133137041Y-68440000D02*
X133137041Y-73021000D01*
X133937041Y-61298000D02*
X133937041Y-65560000D01*
X134217041Y-61442000D02*
X134217041Y-65560000D01*
X134657041Y-61704000D02*
X134657041Y-65560000D01*
X136457041Y-63476000D02*
X136457041Y-70524000D01*
X134577041Y-68440000D02*
X134577041Y-72347000D01*
X135457041Y-62322000D02*
X135457041Y-71678000D01*
X132777041Y-60874000D02*
X132777041Y-65560000D01*
X132657041Y-60844000D02*
X132657041Y-65560000D01*
X134857041Y-61840000D02*
X134857041Y-65560000D01*
X132337041Y-60776000D02*
X132337041Y-65560000D01*
X133417041Y-68440000D02*
X133417041Y-72924000D01*
X136217041Y-63144000D02*
X136217041Y-70856000D01*
X134897041Y-61869000D02*
X134897041Y-65560000D01*
X133457041Y-61092000D02*
X133457041Y-65560000D01*
X137217041Y-65016000D02*
X137217041Y-68984000D01*
X132977041Y-60929000D02*
X132977041Y-65560000D01*
X134697041Y-68440000D02*
X134697041Y-72270000D01*
X135097041Y-62018000D02*
X135097041Y-65560000D01*
X133217041Y-68440000D02*
X133217041Y-72995000D01*
X136257041Y-63196000D02*
X136257041Y-70804000D01*
X133617041Y-61155000D02*
X133617041Y-65560000D01*
X132937041Y-60917000D02*
X132937041Y-65560000D01*
X136737041Y-63931000D02*
X136737041Y-70069000D01*
X132377041Y-68440000D02*
X132377041Y-73216000D01*
X134897041Y-68440000D02*
X134897041Y-72131000D01*
X132417041Y-68440000D02*
X132417041Y-73209000D01*
X137297041Y-65272000D02*
X137297041Y-68728000D01*
X136177041Y-63093000D02*
X136177041Y-70907000D01*
X131256041Y-60670000D02*
X131256041Y-73330000D01*
X135737041Y-62592000D02*
X135737041Y-71408000D01*
X133777041Y-61224000D02*
X133777041Y-65560000D01*
X133177041Y-60992000D02*
X133177041Y-65560000D01*
X136657041Y-63792000D02*
X136657041Y-70208000D01*
X132417041Y-60791000D02*
X132417041Y-65560000D01*
X132057041Y-60731000D02*
X132057041Y-73269000D01*
X133297041Y-61033000D02*
X133297041Y-65560000D01*
X134377041Y-61532000D02*
X134377041Y-65560000D01*
X133457041Y-68440000D02*
X133457041Y-72908000D01*
X134097041Y-68440000D02*
X134097041Y-72622000D01*
X135577041Y-62433000D02*
X135577041Y-71567000D01*
X136057041Y-62945000D02*
X136057041Y-71055000D01*
X132577041Y-68440000D02*
X132577041Y-73175000D01*
X135017041Y-61957000D02*
X135017041Y-65560000D01*
X131216041Y-60670000D02*
X131216041Y-73330000D01*
X134537041Y-68440000D02*
X134537041Y-72372000D01*
X133857041Y-61261000D02*
X133857041Y-65560000D01*
X137457041Y-65972000D02*
X137457041Y-68028000D01*
X133617041Y-68440000D02*
X133617041Y-72845000D01*
X133257041Y-68440000D02*
X133257041Y-72981000D01*
X132537041Y-68440000D02*
X132537041Y-73184000D01*
X134497041Y-61603000D02*
X134497041Y-65560000D01*
X133977041Y-68440000D02*
X133977041Y-72682000D01*
X133657041Y-61172000D02*
X133657041Y-65560000D01*
X131616041Y-60685000D02*
X131616041Y-73315000D01*
X135377041Y-62250000D02*
X135377041Y-71750000D01*
X132817041Y-60884000D02*
X132817041Y-65560000D01*
X135857041Y-62718000D02*
X135857041Y-71282000D01*
X136017041Y-62898000D02*
X136017041Y-71102000D01*
X134937041Y-68440000D02*
X134937041Y-72102000D01*
X133657041Y-68440000D02*
X133657041Y-72828000D01*
X132257041Y-60762000D02*
X132257041Y-65560000D01*
X134737041Y-61757000D02*
X134737041Y-65560000D01*
X133817041Y-68440000D02*
X133817041Y-72758000D01*
X134097041Y-61378000D02*
X134097041Y-65560000D01*
X134137041Y-61399000D02*
X134137041Y-65560000D01*
X132937041Y-68440000D02*
X132937041Y-73083000D01*
X131296041Y-60671000D02*
X131296041Y-73329000D01*
X132537041Y-60816000D02*
X132537041Y-65560000D01*
X134777041Y-68440000D02*
X134777041Y-72216000D01*
X133937041Y-68440000D02*
X133937041Y-72702000D01*
X136777041Y-64004000D02*
X136777041Y-69996000D01*
X134617041Y-68440000D02*
X134617041Y-72322000D01*
X133337041Y-68440000D02*
X133337041Y-72953000D01*
X135497041Y-62358000D02*
X135497041Y-71642000D01*
X134457041Y-61579000D02*
X134457041Y-65560000D01*
X132137041Y-60742000D02*
X132137041Y-73258000D01*
X135057041Y-61988000D02*
X135057041Y-65560000D01*
X131456041Y-60676000D02*
X131456041Y-73324000D01*
X133057041Y-68440000D02*
X133057041Y-73047000D01*
X136417041Y-63417000D02*
X136417041Y-70583000D01*
X135257041Y-62148000D02*
X135257041Y-71852000D01*
X132897041Y-68440000D02*
X132897041Y-73094000D01*
X135777041Y-62633000D02*
X135777041Y-71367000D01*
X137177041Y-64900000D02*
X137177041Y-69100000D01*
X132497041Y-68440000D02*
X132497041Y-73192000D01*
X133097041Y-68440000D02*
X133097041Y-73034000D01*
X133777041Y-68440000D02*
X133777041Y-72776000D01*
X134777041Y-61784000D02*
X134777041Y-65560000D01*
X134737041Y-68440000D02*
X134737041Y-72243000D01*
X131416041Y-60674000D02*
X131416041Y-73326000D01*
X136697041Y-63860000D02*
X136697041Y-70140000D01*
X134057041Y-68440000D02*
X134057041Y-72642000D01*
X131336041Y-60672000D02*
X131336041Y-73328000D01*
X132577041Y-60825000D02*
X132577041Y-65560000D01*
X134977041Y-68440000D02*
X134977041Y-72073000D01*
X133577041Y-61139000D02*
X133577041Y-65560000D01*
X134817041Y-68440000D02*
X134817041Y-72188000D01*
X133977041Y-61318000D02*
X133977041Y-65560000D01*
X134377041Y-68440000D02*
X134377041Y-72468000D01*
X132857041Y-60895000D02*
X132857041Y-65560000D01*
X137537041Y-66683000D02*
X137537041Y-67317000D01*
X134137041Y-68440000D02*
X134137041Y-72601000D01*
X132817041Y-68440000D02*
X132817041Y-73116000D01*
X136497041Y-63536000D02*
X136497041Y-70464000D01*
X132217041Y-60755000D02*
X132217041Y-73245000D01*
X133497041Y-68440000D02*
X133497041Y-72893000D01*
X134217041Y-68440000D02*
X134217041Y-72558000D01*
X131656041Y-60688000D02*
X131656041Y-73312000D01*
X131496041Y-60678000D02*
X131496041Y-73322000D01*
X133857041Y-68440000D02*
X133857041Y-72739000D01*
X135417041Y-62286000D02*
X135417041Y-71714000D01*
X132377041Y-60784000D02*
X132377041Y-65560000D01*
X133737041Y-61207000D02*
X133737041Y-65560000D01*
X134337041Y-61509000D02*
X134337041Y-65560000D01*
X134937041Y-61898000D02*
X134937041Y-65560000D01*
X134697041Y-61730000D02*
X134697041Y-65560000D01*
X131176041Y-60670000D02*
X131176041Y-73330000D01*
X135937041Y-62806000D02*
X135937041Y-71194000D01*
X133017041Y-68440000D02*
X133017041Y-73059000D01*
X133257041Y-61019000D02*
X133257041Y-65560000D01*
X132857041Y-68440000D02*
X132857041Y-73105000D01*
X136137041Y-63043000D02*
X136137041Y-70957000D01*
X132657041Y-68440000D02*
X132657041Y-73156000D01*
X132697041Y-68440000D02*
X132697041Y-73146000D01*
X137017041Y-64496000D02*
X137017041Y-69504000D01*
X137337041Y-65417000D02*
X137337041Y-68583000D01*
X134017041Y-61338000D02*
X134017041Y-65560000D01*
X131856041Y-60706000D02*
X131856041Y-73294000D01*
X135897041Y-62762000D02*
X135897041Y-71238000D01*
X132617041Y-60834000D02*
X132617041Y-65560000D01*
X136617041Y-63725000D02*
X136617041Y-70275000D01*
X132777041Y-68440000D02*
X132777041Y-73126000D01*
X134417041Y-68440000D02*
X134417041Y-72445000D01*
X133737041Y-68440000D02*
X133737041Y-72793000D01*
X134297041Y-68440000D02*
X134297041Y-72514000D01*
X134177041Y-68440000D02*
X134177041Y-72580000D01*
X134457041Y-68440000D02*
X134457041Y-72421000D01*
X132617041Y-68440000D02*
X132617041Y-73166000D01*
X133177041Y-68440000D02*
X133177041Y-73008000D01*
X133537041Y-68440000D02*
X133537041Y-72877000D01*
X136937041Y-64319000D02*
X136937041Y-69681000D01*
X133417041Y-61076000D02*
X133417041Y-65560000D01*
X134017041Y-68440000D02*
X134017041Y-72662000D01*
X133057041Y-60953000D02*
X133057041Y-65560000D01*
X133377041Y-68440000D02*
X133377041Y-72939000D01*
X132457041Y-60799000D02*
X132457041Y-65560000D01*
X131776041Y-60698000D02*
X131776041Y-73302000D01*
X133017041Y-60941000D02*
X133017041Y-65560000D01*
X137097041Y-64688000D02*
X137097041Y-69312000D01*
X132737041Y-68440000D02*
X132737041Y-73137000D01*
X124358959Y-63425000D02*
X125608959Y-63425000D01*
X134537041Y-61628000D02*
X134537041Y-65560000D01*
X124983959Y-62800000D02*
X124983959Y-64050000D01*
X135337041Y-62215000D02*
X135337041Y-71785000D01*
X132297041Y-60769000D02*
X132297041Y-65560000D01*
X133897041Y-61279000D02*
X133897041Y-65560000D01*
X135017041Y-68440000D02*
X135017041Y-72043000D01*
X134617041Y-61678000D02*
X134617041Y-65560000D01*
X133577041Y-68440000D02*
X133577041Y-72861000D01*
X132737041Y-60863000D02*
X132737041Y-65560000D01*
X134257041Y-61464000D02*
X134257041Y-65560000D01*
X133137041Y-60979000D02*
X133137041Y-65560000D01*
X137417041Y-65759000D02*
X137417041Y-68241000D01*
X131937041Y-60715000D02*
X131937041Y-73285000D01*
X132297041Y-68440000D02*
X132297041Y-73231000D01*
X133537041Y-61123000D02*
X133537041Y-65560000D01*
X133337041Y-61047000D02*
X133337041Y-65560000D01*
X133497041Y-61107000D02*
X133497041Y-65560000D01*
X131977041Y-60720000D02*
X131977041Y-73280000D01*
X136577041Y-63661000D02*
X136577041Y-70339000D01*
X137546041Y-67000000D02*
G75*
G03*
X137546041Y-67000000I-6370000J0D01*
G01*
%TO.C,R15*%
X117360436Y-92735000D02*
X117814564Y-92735000D01*
X117360436Y-91265000D02*
X117814564Y-91265000D01*
%TO.C,Q3*%
X85412500Y-86940000D02*
X83737500Y-86940000D01*
X85412500Y-90060000D02*
X84762500Y-90060000D01*
X85412500Y-86940000D02*
X86062500Y-86940000D01*
X85412500Y-90060000D02*
X86062500Y-90060000D01*
%TO.C,R17*%
X118860436Y-70265000D02*
X119314564Y-70265000D01*
X118860436Y-71735000D02*
X119314564Y-71735000D01*
%TO.C,U4*%
X114000000Y-106560000D02*
X115950000Y-106560000D01*
X114000000Y-106560000D02*
X112050000Y-106560000D01*
X114000000Y-101440000D02*
X115950000Y-101440000D01*
X114000000Y-101440000D02*
X110550000Y-101440000D01*
%TO.C,R16*%
X117360436Y-88515000D02*
X117814564Y-88515000D01*
X117360436Y-89985000D02*
X117814564Y-89985000D01*
%TO.C,D4*%
X110087500Y-63250000D02*
X110087500Y-67150000D01*
X112087500Y-63250000D02*
X110087500Y-63250000D01*
X112087500Y-63250000D02*
X112087500Y-67150000D01*
%TO.C,C5*%
X140977041Y-49427000D02*
X140977041Y-53060000D01*
X139377041Y-48561000D02*
X139377041Y-53060000D01*
X141097041Y-55940000D02*
X141097041Y-59482000D01*
X139977041Y-48818000D02*
X139977041Y-53060000D01*
X140297041Y-48986000D02*
X140297041Y-53060000D01*
X143137041Y-52291000D02*
X143137041Y-56709000D01*
X141497041Y-49858000D02*
X141497041Y-59142000D01*
X138977041Y-55940000D02*
X138977041Y-60571000D01*
X141177041Y-49582000D02*
X141177041Y-59418000D01*
X139217041Y-55940000D02*
X139217041Y-60495000D01*
X140537041Y-55940000D02*
X140537041Y-59872000D01*
X143377041Y-53078000D02*
X143377041Y-55922000D01*
X140257041Y-48964000D02*
X140257041Y-53060000D01*
X137416041Y-48174000D02*
X137416041Y-60826000D01*
X139617041Y-55940000D02*
X139617041Y-60345000D01*
X140097041Y-48878000D02*
X140097041Y-53060000D01*
X138057041Y-48231000D02*
X138057041Y-60769000D01*
X141017041Y-49457000D02*
X141017041Y-53060000D01*
X140497041Y-55940000D02*
X140497041Y-59897000D01*
X143097041Y-52188000D02*
X143097041Y-56812000D01*
X139417041Y-48576000D02*
X139417041Y-53060000D01*
X137776041Y-48198000D02*
X137776041Y-60802000D01*
X139897041Y-48779000D02*
X139897041Y-53060000D01*
X142697041Y-51360000D02*
X142697041Y-57640000D01*
X139577041Y-55940000D02*
X139577041Y-60361000D01*
X143177041Y-52400000D02*
X143177041Y-56600000D01*
X138377041Y-55940000D02*
X138377041Y-60716000D01*
X141897041Y-50262000D02*
X141897041Y-58738000D01*
X143417041Y-53259000D02*
X143417041Y-55741000D01*
X140137041Y-55940000D02*
X140137041Y-60101000D01*
X137576041Y-48182000D02*
X137576041Y-60818000D01*
X139537041Y-55940000D02*
X139537041Y-60377000D01*
X138817041Y-48384000D02*
X138817041Y-53060000D01*
X138737041Y-55940000D02*
X138737041Y-60637000D01*
X140177041Y-55940000D02*
X140177041Y-60080000D01*
X140857041Y-55940000D02*
X140857041Y-59660000D01*
X137176041Y-48170000D02*
X137176041Y-60830000D01*
X142657041Y-51292000D02*
X142657041Y-57708000D01*
X138537041Y-48316000D02*
X138537041Y-53060000D01*
X139897041Y-55940000D02*
X139897041Y-60221000D01*
X140777041Y-55940000D02*
X140777041Y-59716000D01*
X141057041Y-49488000D02*
X141057041Y-53060000D01*
X138497041Y-48308000D02*
X138497041Y-53060000D01*
X140817041Y-55940000D02*
X140817041Y-59688000D01*
X143497041Y-53743000D02*
X143497041Y-55257000D01*
X137856041Y-48206000D02*
X137856041Y-60794000D01*
X141657041Y-50011000D02*
X141657041Y-58989000D01*
X138697041Y-48354000D02*
X138697041Y-53060000D01*
X143457041Y-53472000D02*
X143457041Y-55528000D01*
X141097041Y-49518000D02*
X141097041Y-53060000D01*
X137696041Y-48191000D02*
X137696041Y-60809000D01*
X139457041Y-55940000D02*
X139457041Y-60408000D01*
X140017041Y-55940000D02*
X140017041Y-60162000D01*
X140537041Y-49128000D02*
X140537041Y-53060000D01*
X140577041Y-55940000D02*
X140577041Y-59847000D01*
X138857041Y-48395000D02*
X138857041Y-53060000D01*
X138897041Y-48406000D02*
X138897041Y-53060000D01*
X140297041Y-55940000D02*
X140297041Y-60014000D01*
X142777041Y-51504000D02*
X142777041Y-57496000D01*
X142977041Y-51906000D02*
X142977041Y-57094000D01*
X139497041Y-55940000D02*
X139497041Y-60393000D01*
X140657041Y-55940000D02*
X140657041Y-59796000D01*
X141457041Y-49822000D02*
X141457041Y-59178000D01*
X139817041Y-55940000D02*
X139817041Y-60258000D01*
X138337041Y-55940000D02*
X138337041Y-60724000D01*
X141377041Y-49750000D02*
X141377041Y-59250000D01*
X143217041Y-52516000D02*
X143217041Y-56484000D01*
X139617041Y-48655000D02*
X139617041Y-53060000D01*
X142617041Y-51225000D02*
X142617041Y-57775000D01*
X143537041Y-54183000D02*
X143537041Y-54817000D01*
X139137041Y-55940000D02*
X139137041Y-60521000D01*
X137736041Y-48194000D02*
X137736041Y-60806000D01*
X139297041Y-48533000D02*
X139297041Y-53060000D01*
X138937041Y-55940000D02*
X138937041Y-60583000D01*
X140457041Y-49079000D02*
X140457041Y-53060000D01*
X138657041Y-55940000D02*
X138657041Y-60656000D01*
X141777041Y-50133000D02*
X141777041Y-58867000D01*
X140137041Y-48899000D02*
X140137041Y-53060000D01*
X138497041Y-55940000D02*
X138497041Y-60692000D01*
X143257041Y-52639000D02*
X143257041Y-56361000D01*
X139657041Y-55940000D02*
X139657041Y-60328000D01*
X139137041Y-48479000D02*
X139137041Y-53060000D01*
X143337041Y-52917000D02*
X143337041Y-56083000D01*
X140097041Y-55940000D02*
X140097041Y-60122000D01*
X141577041Y-49933000D02*
X141577041Y-59067000D01*
X138017041Y-48225000D02*
X138017041Y-60775000D01*
X139377041Y-55940000D02*
X139377041Y-60439000D01*
X137296041Y-48171000D02*
X137296041Y-60829000D01*
X139737041Y-55940000D02*
X139737041Y-60293000D01*
X143057041Y-52090000D02*
X143057041Y-56910000D01*
X142537041Y-51098000D02*
X142537041Y-57902000D01*
X137937041Y-48215000D02*
X137937041Y-60785000D01*
X140417041Y-55940000D02*
X140417041Y-59945000D01*
X137656041Y-48188000D02*
X137656041Y-60812000D01*
X139177041Y-48492000D02*
X139177041Y-53060000D01*
X139297041Y-55940000D02*
X139297041Y-60467000D01*
X141537041Y-49895000D02*
X141537041Y-59105000D01*
X142937041Y-51819000D02*
X142937041Y-57181000D01*
X143017041Y-51996000D02*
X143017041Y-57004000D01*
X139657041Y-48672000D02*
X139657041Y-53060000D01*
X140857041Y-49340000D02*
X140857041Y-53060000D01*
X138297041Y-55940000D02*
X138297041Y-60731000D01*
X138977041Y-48429000D02*
X138977041Y-53060000D01*
X138817041Y-55940000D02*
X138817041Y-60616000D01*
X140777041Y-49284000D02*
X140777041Y-53060000D01*
X140497041Y-49103000D02*
X140497041Y-53060000D01*
X140937041Y-49398000D02*
X140937041Y-53060000D01*
X139697041Y-55940000D02*
X139697041Y-60311000D01*
X140377041Y-49032000D02*
X140377041Y-53060000D01*
X141057041Y-55940000D02*
X141057041Y-59512000D01*
X140337041Y-49009000D02*
X140337041Y-53060000D01*
X140017041Y-48838000D02*
X140017041Y-53060000D01*
X138337041Y-48276000D02*
X138337041Y-53060000D01*
X139857041Y-48761000D02*
X139857041Y-53060000D01*
X139537041Y-48623000D02*
X139537041Y-53060000D01*
X139977041Y-55940000D02*
X139977041Y-60182000D01*
X140177041Y-48920000D02*
X140177041Y-53060000D01*
X142137041Y-50543000D02*
X142137041Y-58457000D01*
X140217041Y-55940000D02*
X140217041Y-60058000D01*
X138457041Y-48299000D02*
X138457041Y-53060000D01*
X142737041Y-51431000D02*
X142737041Y-57569000D01*
X140697041Y-55940000D02*
X140697041Y-59770000D01*
X143297041Y-52772000D02*
X143297041Y-56228000D01*
X139017041Y-48441000D02*
X139017041Y-53060000D01*
X138137041Y-48242000D02*
X138137041Y-60758000D01*
X130983959Y-50300000D02*
X130983959Y-51550000D01*
X140577041Y-49153000D02*
X140577041Y-53060000D01*
X142497041Y-51036000D02*
X142497041Y-57964000D01*
X139177041Y-55940000D02*
X139177041Y-60508000D01*
X140897041Y-55940000D02*
X140897041Y-59631000D01*
X139217041Y-48505000D02*
X139217041Y-53060000D01*
X138897041Y-55940000D02*
X138897041Y-60594000D01*
X138537041Y-55940000D02*
X138537041Y-60684000D01*
X140737041Y-55940000D02*
X140737041Y-59743000D01*
X138417041Y-55940000D02*
X138417041Y-60709000D01*
X142017041Y-50398000D02*
X142017041Y-58602000D01*
X137216041Y-48170000D02*
X137216041Y-60830000D01*
X139937041Y-55940000D02*
X139937041Y-60202000D01*
X137256041Y-48170000D02*
X137256041Y-60830000D01*
X138657041Y-48344000D02*
X138657041Y-53060000D01*
X139097041Y-55940000D02*
X139097041Y-60534000D01*
X140257041Y-55940000D02*
X140257041Y-60036000D01*
X138577041Y-48325000D02*
X138577041Y-53060000D01*
X140057041Y-48858000D02*
X140057041Y-53060000D01*
X139257041Y-55940000D02*
X139257041Y-60481000D01*
X137816041Y-48202000D02*
X137816041Y-60798000D01*
X141217041Y-49615000D02*
X141217041Y-59385000D01*
X141817041Y-50175000D02*
X141817041Y-58825000D01*
X139097041Y-48466000D02*
X139097041Y-53060000D01*
X139937041Y-48798000D02*
X139937041Y-53060000D01*
X138617041Y-55940000D02*
X138617041Y-60666000D01*
X138857041Y-55940000D02*
X138857041Y-60605000D01*
X140897041Y-49369000D02*
X140897041Y-53060000D01*
X141737041Y-50092000D02*
X141737041Y-58908000D01*
X139817041Y-48742000D02*
X139817041Y-53060000D01*
X138217041Y-48255000D02*
X138217041Y-60745000D01*
X142297041Y-50750000D02*
X142297041Y-58250000D01*
X137616041Y-48185000D02*
X137616041Y-60815000D01*
X139257041Y-48519000D02*
X139257041Y-53060000D01*
X138577041Y-55940000D02*
X138577041Y-60675000D01*
X141417041Y-49786000D02*
X141417041Y-59214000D01*
X141697041Y-50051000D02*
X141697041Y-58949000D01*
X141017041Y-55940000D02*
X141017041Y-59543000D01*
X140617041Y-49178000D02*
X140617041Y-53060000D01*
X139857041Y-55940000D02*
X139857041Y-60239000D01*
X140737041Y-49257000D02*
X140737041Y-53060000D01*
X137456041Y-48176000D02*
X137456041Y-60824000D01*
X137536041Y-48180000D02*
X137536041Y-60820000D01*
X142817041Y-51579000D02*
X142817041Y-57421000D01*
X142857041Y-51656000D02*
X142857041Y-57344000D01*
X137977041Y-48220000D02*
X137977041Y-60780000D01*
X139777041Y-48724000D02*
X139777041Y-53060000D01*
X137376041Y-48173000D02*
X137376041Y-60827000D01*
X138937041Y-48417000D02*
X138937041Y-53060000D01*
X141297041Y-49681000D02*
X141297041Y-59319000D01*
X140217041Y-48942000D02*
X140217041Y-53060000D01*
X140697041Y-49230000D02*
X140697041Y-53060000D01*
X138457041Y-55940000D02*
X138457041Y-60701000D01*
X138417041Y-48291000D02*
X138417041Y-53060000D01*
X140937041Y-55940000D02*
X140937041Y-59602000D01*
X130358959Y-50925000D02*
X131608959Y-50925000D01*
X142577041Y-51161000D02*
X142577041Y-57839000D01*
X139337041Y-55940000D02*
X139337041Y-60453000D01*
X142257041Y-50696000D02*
X142257041Y-58304000D01*
X139057041Y-55940000D02*
X139057041Y-60547000D01*
X141257041Y-49648000D02*
X141257041Y-59352000D01*
X139457041Y-48592000D02*
X139457041Y-53060000D01*
X142097041Y-50493000D02*
X142097041Y-58507000D01*
X142377041Y-50860000D02*
X142377041Y-58140000D01*
X141977041Y-50352000D02*
X141977041Y-58648000D01*
X138697041Y-55940000D02*
X138697041Y-60646000D01*
X139337041Y-48547000D02*
X139337041Y-53060000D01*
X141137041Y-49550000D02*
X141137041Y-59450000D01*
X138377041Y-48284000D02*
X138377041Y-53060000D01*
X142457041Y-50976000D02*
X142457041Y-58024000D01*
X141337041Y-49715000D02*
X141337041Y-59285000D01*
X137496041Y-48178000D02*
X137496041Y-60822000D01*
X137336041Y-48172000D02*
X137336041Y-60828000D01*
X142337041Y-50804000D02*
X142337041Y-58196000D01*
X140377041Y-55940000D02*
X140377041Y-59968000D01*
X142057041Y-50445000D02*
X142057041Y-58555000D01*
X140057041Y-55940000D02*
X140057041Y-60142000D01*
X140657041Y-49204000D02*
X140657041Y-53060000D01*
X140457041Y-55940000D02*
X140457041Y-59921000D01*
X138777041Y-55940000D02*
X138777041Y-60626000D01*
X138257041Y-48262000D02*
X138257041Y-53060000D01*
X141617041Y-49972000D02*
X141617041Y-59028000D01*
X140977041Y-55940000D02*
X140977041Y-59573000D01*
X142217041Y-50644000D02*
X142217041Y-58356000D01*
X138737041Y-48363000D02*
X138737041Y-53060000D01*
X142177041Y-50593000D02*
X142177041Y-58407000D01*
X142417041Y-50917000D02*
X142417041Y-58083000D01*
X139017041Y-55940000D02*
X139017041Y-60559000D01*
X139497041Y-48607000D02*
X139497041Y-53060000D01*
X139577041Y-48639000D02*
X139577041Y-53060000D01*
X142897041Y-51736000D02*
X142897041Y-57264000D01*
X140617041Y-55940000D02*
X140617041Y-59822000D01*
X137897041Y-48210000D02*
X137897041Y-60790000D01*
X138177041Y-48248000D02*
X138177041Y-60752000D01*
X141937041Y-50306000D02*
X141937041Y-58694000D01*
X139697041Y-48689000D02*
X139697041Y-53060000D01*
X139777041Y-55940000D02*
X139777041Y-60276000D01*
X141857041Y-50218000D02*
X141857041Y-58782000D01*
X139737041Y-48707000D02*
X139737041Y-53060000D01*
X138257041Y-55940000D02*
X138257041Y-60738000D01*
X139417041Y-55940000D02*
X139417041Y-60424000D01*
X138297041Y-48269000D02*
X138297041Y-53060000D01*
X138097041Y-48236000D02*
X138097041Y-60764000D01*
X140417041Y-49055000D02*
X140417041Y-53060000D01*
X139057041Y-48453000D02*
X139057041Y-53060000D01*
X140817041Y-49312000D02*
X140817041Y-53060000D01*
X138617041Y-48334000D02*
X138617041Y-53060000D01*
X140337041Y-55940000D02*
X140337041Y-59991000D01*
X138777041Y-48374000D02*
X138777041Y-53060000D01*
X143546041Y-54500000D02*
G75*
G03*
X143546041Y-54500000I-6370000J0D01*
G01*
%TO.C,L2*%
X160820000Y-79270000D02*
X160820000Y-68830000D01*
X148221000Y-68830000D02*
X138180000Y-68830000D01*
X160820000Y-79270000D02*
X150779000Y-79270000D01*
X148221000Y-79270000D02*
X138180000Y-79270000D01*
X160820000Y-68830000D02*
X150779000Y-68830000D01*
X138180000Y-79270000D02*
X138180000Y-68830000D01*
%TO.C,C16*%
X92738748Y-99735000D02*
X93261252Y-99735000D01*
X92738748Y-98265000D02*
X93261252Y-98265000D01*
%TO.C,D3*%
X75790000Y-64710000D02*
X75790000Y-67830000D01*
X75790000Y-67830000D02*
X75790000Y-68230000D01*
X75790000Y-65000000D02*
X75920000Y-65000000D01*
X75790000Y-68230000D02*
X74670000Y-68230000D01*
X75920000Y-65000000D02*
X75920000Y-65000000D01*
X75790000Y-67540000D02*
X75920000Y-67540000D01*
X74670000Y-68230000D02*
X74670000Y-67830000D01*
X75920000Y-67540000D02*
X75790000Y-67540000D01*
X75790000Y-67830000D02*
X71930000Y-67830000D01*
X75790000Y-67540000D02*
X75790000Y-67540000D01*
X74670000Y-67830000D02*
X75790000Y-67830000D01*
X75790000Y-65000000D02*
X75790000Y-65000000D01*
X75790000Y-64710000D02*
X71930000Y-64710000D01*
X75920000Y-67540000D02*
X75920000Y-67540000D01*
X75920000Y-65000000D02*
X75790000Y-65000000D01*
X71930000Y-64710000D02*
G75*
G03*
X71930000Y-67830000I0J-1560000D01*
G01*
%TO.C,C27*%
X121761252Y-113735000D02*
X121238748Y-113735000D01*
X121761252Y-112265000D02*
X121238748Y-112265000D01*
%TO.C,R2*%
X92227064Y-63835000D02*
X91772936Y-63835000D01*
X92227064Y-62365000D02*
X91772936Y-62365000D01*
%TO.C,C26*%
X105235000Y-108673752D02*
X105235000Y-108151248D01*
X103765000Y-108673752D02*
X103765000Y-108151248D01*
%TO.C,R4*%
X117360436Y-85765000D02*
X117814564Y-85765000D01*
X117360436Y-87235000D02*
X117814564Y-87235000D01*
%TO.C,R10*%
X121185436Y-107265000D02*
X121639564Y-107265000D01*
X121185436Y-108735000D02*
X121639564Y-108735000D01*
%TO.C,D6*%
X75615000Y-92290000D02*
X75615000Y-92690000D01*
X75615000Y-89170000D02*
X71755000Y-89170000D01*
X75745000Y-92000000D02*
X75615000Y-92000000D01*
X74495000Y-92290000D02*
X75615000Y-92290000D01*
X75745000Y-89460000D02*
X75745000Y-89460000D01*
X75745000Y-89460000D02*
X75615000Y-89460000D01*
X75615000Y-92000000D02*
X75745000Y-92000000D01*
X75615000Y-92290000D02*
X71755000Y-92290000D01*
X74495000Y-92690000D02*
X74495000Y-92290000D01*
X75615000Y-92000000D02*
X75615000Y-92000000D01*
X75615000Y-92690000D02*
X74495000Y-92690000D01*
X75615000Y-89460000D02*
X75615000Y-89460000D01*
X75615000Y-89460000D02*
X75745000Y-89460000D01*
X75615000Y-89170000D02*
X75615000Y-92290000D01*
X75745000Y-92000000D02*
X75745000Y-92000000D01*
X71755000Y-89170000D02*
G75*
G03*
X71755000Y-92290000I0J-1560000D01*
G01*
%TO.C,R1*%
X96139564Y-62365000D02*
X95685436Y-62365000D01*
X96139564Y-63835000D02*
X95685436Y-63835000D01*
%TO.C,U5*%
X116030000Y-61550000D02*
X116030000Y-62020000D01*
X117530000Y-61550000D02*
X116030000Y-61550000D01*
X116030000Y-68450000D02*
X116030000Y-67980000D01*
X116030000Y-67980000D02*
X114930000Y-67980000D01*
X116030000Y-62020000D02*
X113200000Y-62020000D01*
X117530000Y-68450000D02*
X116030000Y-68450000D01*
%TO.C,Q1*%
X90820000Y-57570000D02*
X90820000Y-60400000D01*
X90550000Y-56070000D02*
X90550000Y-57570000D01*
X90550000Y-57570000D02*
X90820000Y-57570000D01*
X97450000Y-56070000D02*
X97450000Y-57570000D01*
X97450000Y-57570000D02*
X97180000Y-57570000D01*
X97180000Y-57570000D02*
X97180000Y-58670000D01*
%TO.C,R18*%
X108772936Y-71235000D02*
X109227064Y-71235000D01*
X108772936Y-69765000D02*
X109227064Y-69765000D01*
%TO.C,C19*%
X92738748Y-107265000D02*
X93261252Y-107265000D01*
X92738748Y-108735000D02*
X93261252Y-108735000D01*
%TO.C,R26*%
X81272936Y-88235000D02*
X81727064Y-88235000D01*
X81272936Y-86765000D02*
X81727064Y-86765000D01*
%TO.C,D7*%
X75790000Y-77000000D02*
X75790000Y-77000000D01*
X75790000Y-74460000D02*
X75920000Y-74460000D01*
X75790000Y-74170000D02*
X71930000Y-74170000D01*
X75790000Y-74460000D02*
X75790000Y-74460000D01*
X75920000Y-77000000D02*
X75790000Y-77000000D01*
X75790000Y-77690000D02*
X74670000Y-77690000D01*
X75920000Y-77000000D02*
X75920000Y-77000000D01*
X75790000Y-77290000D02*
X71930000Y-77290000D01*
X75920000Y-74460000D02*
X75920000Y-74460000D01*
X75790000Y-77290000D02*
X75790000Y-77690000D01*
X74670000Y-77290000D02*
X75790000Y-77290000D01*
X74670000Y-77690000D02*
X74670000Y-77290000D01*
X75790000Y-77000000D02*
X75920000Y-77000000D01*
X75920000Y-74460000D02*
X75790000Y-74460000D01*
X75790000Y-74170000D02*
X75790000Y-77290000D01*
X71930000Y-74170000D02*
G75*
G03*
X71930000Y-77290000I0J-1560000D01*
G01*
%TO.C,U2*%
X91700000Y-72630000D02*
X90560000Y-72630000D01*
X87840000Y-68140000D02*
X90560000Y-68140000D01*
X90560000Y-68140000D02*
X90560000Y-68370000D01*
X87840000Y-72860000D02*
X87840000Y-71550000D01*
X87840000Y-69450000D02*
X87840000Y-68140000D01*
X90560000Y-72860000D02*
X90560000Y-72630000D01*
X90560000Y-72860000D02*
X87840000Y-72860000D01*
%TO.C,D2*%
X98600000Y-67000000D02*
X94700000Y-67000000D01*
X98600000Y-65000000D02*
X94700000Y-65000000D01*
X98600000Y-67000000D02*
X98600000Y-65000000D01*
%TO.C,R27*%
X81272936Y-90735000D02*
X81727064Y-90735000D01*
X81272936Y-89265000D02*
X81727064Y-89265000D01*
%TO.C,C2*%
X124421000Y-48878000D02*
X124421000Y-53060000D01*
X122781000Y-48299000D02*
X122781000Y-53060000D01*
X127181000Y-51656000D02*
X127181000Y-57344000D01*
X123981000Y-48672000D02*
X123981000Y-53060000D01*
X127101000Y-51504000D02*
X127101000Y-57496000D01*
X127421000Y-52188000D02*
X127421000Y-56812000D01*
X123661000Y-55940000D02*
X123661000Y-60453000D01*
X124341000Y-55940000D02*
X124341000Y-60162000D01*
X124861000Y-55940000D02*
X124861000Y-59872000D01*
X124301000Y-55940000D02*
X124301000Y-60182000D01*
X123701000Y-55940000D02*
X123701000Y-60439000D01*
X122941000Y-48334000D02*
X122941000Y-53060000D01*
X125981000Y-50011000D02*
X125981000Y-58989000D01*
X122421000Y-48236000D02*
X122421000Y-60764000D01*
X126861000Y-51098000D02*
X126861000Y-57902000D01*
X127781000Y-53472000D02*
X127781000Y-55528000D01*
X127061000Y-51431000D02*
X127061000Y-57569000D01*
X125861000Y-49895000D02*
X125861000Y-59105000D01*
X121860000Y-48180000D02*
X121860000Y-60820000D01*
X127581000Y-52639000D02*
X127581000Y-56361000D01*
X125061000Y-49257000D02*
X125061000Y-53060000D01*
X123341000Y-55940000D02*
X123341000Y-60559000D01*
X126581000Y-50696000D02*
X126581000Y-58304000D01*
X125221000Y-49369000D02*
X125221000Y-53060000D01*
X123301000Y-55940000D02*
X123301000Y-60571000D01*
X122501000Y-48248000D02*
X122501000Y-60752000D01*
X125421000Y-49518000D02*
X125421000Y-53060000D01*
X124701000Y-49032000D02*
X124701000Y-53060000D01*
X125101000Y-55940000D02*
X125101000Y-59716000D01*
X123381000Y-55940000D02*
X123381000Y-60547000D01*
X122821000Y-55940000D02*
X122821000Y-60692000D01*
X123141000Y-55940000D02*
X123141000Y-60616000D01*
X125781000Y-49822000D02*
X125781000Y-59178000D01*
X125661000Y-49715000D02*
X125661000Y-59285000D01*
X122581000Y-55940000D02*
X122581000Y-60738000D01*
X123581000Y-55940000D02*
X123581000Y-60481000D01*
X124101000Y-48724000D02*
X124101000Y-53060000D01*
X125021000Y-55940000D02*
X125021000Y-59770000D01*
X124741000Y-55940000D02*
X124741000Y-59945000D01*
X121740000Y-48174000D02*
X121740000Y-60826000D01*
X127381000Y-52090000D02*
X127381000Y-56910000D01*
X123061000Y-55940000D02*
X123061000Y-60637000D01*
X123461000Y-48479000D02*
X123461000Y-53060000D01*
X126541000Y-50644000D02*
X126541000Y-58356000D01*
X122621000Y-48269000D02*
X122621000Y-53060000D01*
X122341000Y-48225000D02*
X122341000Y-60775000D01*
X125301000Y-49427000D02*
X125301000Y-53060000D01*
X122821000Y-48308000D02*
X122821000Y-53060000D01*
X123901000Y-48639000D02*
X123901000Y-53060000D01*
X124541000Y-48942000D02*
X124541000Y-53060000D01*
X124821000Y-55940000D02*
X124821000Y-59897000D01*
X124141000Y-48742000D02*
X124141000Y-53060000D01*
X127141000Y-51579000D02*
X127141000Y-57421000D01*
X123861000Y-48623000D02*
X123861000Y-53060000D01*
X124101000Y-55940000D02*
X124101000Y-60276000D01*
X126501000Y-50593000D02*
X126501000Y-58407000D01*
X124461000Y-55940000D02*
X124461000Y-60101000D01*
X126141000Y-50175000D02*
X126141000Y-58825000D01*
X126301000Y-50352000D02*
X126301000Y-58648000D01*
X122381000Y-48231000D02*
X122381000Y-60769000D01*
X124021000Y-48689000D02*
X124021000Y-53060000D01*
X127221000Y-51736000D02*
X127221000Y-57264000D01*
X124141000Y-55940000D02*
X124141000Y-60258000D01*
X123621000Y-55940000D02*
X123621000Y-60467000D01*
X124821000Y-49103000D02*
X124821000Y-53060000D01*
X126101000Y-50133000D02*
X126101000Y-58867000D01*
X124621000Y-55940000D02*
X124621000Y-60014000D01*
X123101000Y-55940000D02*
X123101000Y-60626000D01*
X122701000Y-48284000D02*
X122701000Y-53060000D01*
X123221000Y-48406000D02*
X123221000Y-53060000D01*
X125261000Y-49398000D02*
X125261000Y-53060000D01*
X123501000Y-48492000D02*
X123501000Y-53060000D01*
X125421000Y-55940000D02*
X125421000Y-59482000D01*
X123541000Y-48505000D02*
X123541000Y-53060000D01*
X123781000Y-48592000D02*
X123781000Y-53060000D01*
X124621000Y-48986000D02*
X124621000Y-53060000D01*
X125341000Y-55940000D02*
X125341000Y-59543000D01*
X125301000Y-55940000D02*
X125301000Y-59573000D01*
X123941000Y-55940000D02*
X123941000Y-60345000D01*
X121780000Y-48176000D02*
X121780000Y-60824000D01*
X123941000Y-48655000D02*
X123941000Y-53060000D01*
X122741000Y-48291000D02*
X122741000Y-53060000D01*
X127461000Y-52291000D02*
X127461000Y-56709000D01*
X123021000Y-48354000D02*
X123021000Y-53060000D01*
X124661000Y-49009000D02*
X124661000Y-53060000D01*
X124701000Y-55940000D02*
X124701000Y-59968000D01*
X122981000Y-55940000D02*
X122981000Y-60656000D01*
X124501000Y-55940000D02*
X124501000Y-60080000D01*
X121620000Y-48171000D02*
X121620000Y-60829000D01*
X123181000Y-48395000D02*
X123181000Y-53060000D01*
X122221000Y-48210000D02*
X122221000Y-60790000D01*
X124421000Y-55940000D02*
X124421000Y-60122000D01*
X121660000Y-48172000D02*
X121660000Y-60828000D01*
X125741000Y-49786000D02*
X125741000Y-59214000D01*
X123981000Y-55940000D02*
X123981000Y-60328000D01*
X121700000Y-48173000D02*
X121700000Y-60827000D01*
X126421000Y-50493000D02*
X126421000Y-58507000D01*
X124021000Y-55940000D02*
X124021000Y-60311000D01*
X127541000Y-52516000D02*
X127541000Y-56484000D01*
X125581000Y-49648000D02*
X125581000Y-59352000D01*
X122541000Y-48255000D02*
X122541000Y-60745000D01*
X122140000Y-48202000D02*
X122140000Y-60798000D01*
X127821000Y-53743000D02*
X127821000Y-55257000D01*
X122661000Y-48276000D02*
X122661000Y-53060000D01*
X124581000Y-48964000D02*
X124581000Y-53060000D01*
X125381000Y-49488000D02*
X125381000Y-53060000D01*
X124901000Y-49153000D02*
X124901000Y-53060000D01*
X122741000Y-55940000D02*
X122741000Y-60709000D01*
X126661000Y-50804000D02*
X126661000Y-58196000D01*
X126461000Y-50543000D02*
X126461000Y-58457000D01*
X121500000Y-48170000D02*
X121500000Y-60830000D01*
X123701000Y-48561000D02*
X123701000Y-53060000D01*
X125541000Y-49615000D02*
X125541000Y-59385000D01*
X123501000Y-55940000D02*
X123501000Y-60508000D01*
X124541000Y-55940000D02*
X124541000Y-60058000D01*
X124501000Y-48920000D02*
X124501000Y-53060000D01*
X122581000Y-48262000D02*
X122581000Y-53060000D01*
X123421000Y-48466000D02*
X123421000Y-53060000D01*
X125061000Y-55940000D02*
X125061000Y-59743000D01*
X122461000Y-48242000D02*
X122461000Y-60758000D01*
X121940000Y-48185000D02*
X121940000Y-60815000D01*
X122301000Y-48220000D02*
X122301000Y-60780000D01*
X122261000Y-48215000D02*
X122261000Y-60785000D01*
X125501000Y-49582000D02*
X125501000Y-59418000D01*
X125621000Y-49681000D02*
X125621000Y-59319000D01*
X126701000Y-50860000D02*
X126701000Y-58140000D01*
X121980000Y-48188000D02*
X121980000Y-60812000D01*
X125941000Y-49972000D02*
X125941000Y-59028000D01*
X122901000Y-48325000D02*
X122901000Y-53060000D01*
X124781000Y-55940000D02*
X124781000Y-59921000D01*
X126261000Y-50306000D02*
X126261000Y-58694000D01*
X124941000Y-55940000D02*
X124941000Y-59822000D01*
X124181000Y-55940000D02*
X124181000Y-60239000D01*
X123381000Y-48453000D02*
X123381000Y-53060000D01*
X122020000Y-48191000D02*
X122020000Y-60809000D01*
X123461000Y-55940000D02*
X123461000Y-60521000D01*
X123261000Y-48417000D02*
X123261000Y-53060000D01*
X124941000Y-49178000D02*
X124941000Y-53060000D01*
X123901000Y-55940000D02*
X123901000Y-60361000D01*
X127501000Y-52400000D02*
X127501000Y-56600000D01*
X123621000Y-48533000D02*
X123621000Y-53060000D01*
X123861000Y-55940000D02*
X123861000Y-60377000D01*
X124381000Y-55940000D02*
X124381000Y-60142000D01*
X125381000Y-55940000D02*
X125381000Y-59512000D01*
X122060000Y-48194000D02*
X122060000Y-60806000D01*
X124741000Y-49055000D02*
X124741000Y-53060000D01*
X123541000Y-55940000D02*
X123541000Y-60495000D01*
X123741000Y-48576000D02*
X123741000Y-53060000D01*
X121580000Y-48170000D02*
X121580000Y-60830000D01*
X124341000Y-48838000D02*
X124341000Y-53060000D01*
X124061000Y-48707000D02*
X124061000Y-53060000D01*
X127661000Y-52917000D02*
X127661000Y-56083000D01*
X126181000Y-50218000D02*
X126181000Y-58782000D01*
X123101000Y-48374000D02*
X123101000Y-53060000D01*
X122180000Y-48206000D02*
X122180000Y-60794000D01*
X125021000Y-49230000D02*
X125021000Y-53060000D01*
X123421000Y-55940000D02*
X123421000Y-60534000D01*
X124661000Y-55940000D02*
X124661000Y-59991000D01*
X123821000Y-48607000D02*
X123821000Y-53060000D01*
X123021000Y-55940000D02*
X123021000Y-60646000D01*
X123221000Y-55940000D02*
X123221000Y-60594000D01*
X127741000Y-53259000D02*
X127741000Y-55741000D01*
X122701000Y-55940000D02*
X122701000Y-60716000D01*
X125261000Y-55940000D02*
X125261000Y-59602000D01*
X123741000Y-55940000D02*
X123741000Y-60424000D01*
X127621000Y-52772000D02*
X127621000Y-56228000D01*
X122781000Y-55940000D02*
X122781000Y-60701000D01*
X123821000Y-55940000D02*
X123821000Y-60393000D01*
X127261000Y-51819000D02*
X127261000Y-57181000D01*
X124061000Y-55940000D02*
X124061000Y-60293000D01*
X125821000Y-49858000D02*
X125821000Y-59142000D01*
X125701000Y-49750000D02*
X125701000Y-59250000D01*
X122901000Y-55940000D02*
X122901000Y-60675000D01*
X127861000Y-54183000D02*
X127861000Y-54817000D01*
X122861000Y-55940000D02*
X122861000Y-60684000D01*
X126901000Y-51161000D02*
X126901000Y-57839000D01*
X126341000Y-50398000D02*
X126341000Y-58602000D01*
X122861000Y-48316000D02*
X122861000Y-53060000D01*
X124261000Y-48798000D02*
X124261000Y-53060000D01*
X124901000Y-55940000D02*
X124901000Y-59847000D01*
X122621000Y-55940000D02*
X122621000Y-60731000D01*
X124301000Y-48818000D02*
X124301000Y-53060000D01*
X127701000Y-53078000D02*
X127701000Y-55922000D01*
X126381000Y-50445000D02*
X126381000Y-58555000D01*
X125141000Y-55940000D02*
X125141000Y-59688000D01*
X114682918Y-50925000D02*
X115932918Y-50925000D01*
X125181000Y-49340000D02*
X125181000Y-53060000D01*
X125141000Y-49312000D02*
X125141000Y-53060000D01*
X123301000Y-48429000D02*
X123301000Y-53060000D01*
X121540000Y-48170000D02*
X121540000Y-60830000D01*
X125341000Y-49457000D02*
X125341000Y-53060000D01*
X123661000Y-48547000D02*
X123661000Y-53060000D01*
X121900000Y-48182000D02*
X121900000Y-60818000D01*
X127341000Y-51996000D02*
X127341000Y-57004000D01*
X125101000Y-49284000D02*
X125101000Y-53060000D01*
X124261000Y-55940000D02*
X124261000Y-60202000D01*
X125221000Y-55940000D02*
X125221000Y-59631000D01*
X126741000Y-50917000D02*
X126741000Y-58083000D01*
X126061000Y-50092000D02*
X126061000Y-58908000D01*
X126941000Y-51225000D02*
X126941000Y-57775000D01*
X126021000Y-50051000D02*
X126021000Y-58949000D01*
X127021000Y-51360000D02*
X127021000Y-57640000D01*
X126781000Y-50976000D02*
X126781000Y-58024000D01*
X122981000Y-48344000D02*
X122981000Y-53060000D01*
X126821000Y-51036000D02*
X126821000Y-57964000D01*
X124861000Y-49128000D02*
X124861000Y-53060000D01*
X124981000Y-49204000D02*
X124981000Y-53060000D01*
X124461000Y-48899000D02*
X124461000Y-53060000D01*
X115307918Y-50300000D02*
X115307918Y-51550000D01*
X124981000Y-55940000D02*
X124981000Y-59796000D01*
X124221000Y-48779000D02*
X124221000Y-53060000D01*
X123141000Y-48384000D02*
X123141000Y-53060000D01*
X123181000Y-55940000D02*
X123181000Y-60605000D01*
X122100000Y-48198000D02*
X122100000Y-60802000D01*
X125461000Y-49550000D02*
X125461000Y-59450000D01*
X121820000Y-48178000D02*
X121820000Y-60822000D01*
X123261000Y-55940000D02*
X123261000Y-60583000D01*
X126981000Y-51292000D02*
X126981000Y-57708000D01*
X122941000Y-55940000D02*
X122941000Y-60666000D01*
X123061000Y-48363000D02*
X123061000Y-53060000D01*
X123581000Y-48519000D02*
X123581000Y-53060000D01*
X124221000Y-55940000D02*
X124221000Y-60221000D01*
X122661000Y-55940000D02*
X122661000Y-60724000D01*
X124181000Y-48761000D02*
X124181000Y-53060000D01*
X127301000Y-51906000D02*
X127301000Y-57094000D01*
X124781000Y-49079000D02*
X124781000Y-53060000D01*
X126621000Y-50750000D02*
X126621000Y-58250000D01*
X123341000Y-48441000D02*
X123341000Y-53060000D01*
X125181000Y-55940000D02*
X125181000Y-59660000D01*
X124581000Y-55940000D02*
X124581000Y-60036000D01*
X126221000Y-50262000D02*
X126221000Y-58738000D01*
X124381000Y-48858000D02*
X124381000Y-53060000D01*
X123781000Y-55940000D02*
X123781000Y-60408000D01*
X125901000Y-49933000D02*
X125901000Y-59067000D01*
X127870000Y-54500000D02*
G75*
G03*
X127870000Y-54500000I-6370000J0D01*
G01*
%TO.C,R13*%
X117272936Y-109765000D02*
X117727064Y-109765000D01*
X117272936Y-111235000D02*
X117727064Y-111235000D01*
%TO.C,Q2*%
X80940000Y-79000000D02*
X80940000Y-80675000D01*
X84060000Y-79000000D02*
X84060000Y-78350000D01*
X84060000Y-79000000D02*
X84060000Y-79650000D01*
X80940000Y-79000000D02*
X80940000Y-78350000D01*
%TO.C,D5*%
X74495000Y-84790000D02*
X75615000Y-84790000D01*
X75615000Y-81670000D02*
X75615000Y-84790000D01*
X75745000Y-84500000D02*
X75745000Y-84500000D01*
X74495000Y-85190000D02*
X74495000Y-84790000D01*
X75615000Y-84790000D02*
X75615000Y-85190000D01*
X75615000Y-84500000D02*
X75745000Y-84500000D01*
X75745000Y-84500000D02*
X75615000Y-84500000D01*
X75615000Y-81670000D02*
X71755000Y-81670000D01*
X75615000Y-84500000D02*
X75615000Y-84500000D01*
X75615000Y-81960000D02*
X75615000Y-81960000D01*
X75615000Y-85190000D02*
X74495000Y-85190000D01*
X75745000Y-81960000D02*
X75745000Y-81960000D01*
X75615000Y-84790000D02*
X71755000Y-84790000D01*
X75615000Y-81960000D02*
X75745000Y-81960000D01*
X75745000Y-81960000D02*
X75615000Y-81960000D01*
X71755000Y-81670000D02*
G75*
G03*
X71755000Y-84790000I0J-1560000D01*
G01*
%TO.C,C8*%
X124961252Y-86340000D02*
X123538748Y-86340000D01*
X124961252Y-88160000D02*
X123538748Y-88160000D01*
%TO.C,C17*%
X92738748Y-101265000D02*
X93261252Y-101265000D01*
X92738748Y-102735000D02*
X93261252Y-102735000D01*
%TO.C,C1*%
X112181000Y-51156000D02*
X112181000Y-56844000D01*
X108941000Y-48155000D02*
X108941000Y-52560000D01*
X111821000Y-50536000D02*
X111821000Y-57464000D01*
X111021000Y-49551000D02*
X111021000Y-58449000D01*
X108581000Y-48019000D02*
X108581000Y-52560000D01*
X110861000Y-49395000D02*
X110861000Y-58605000D01*
X111941000Y-50725000D02*
X111941000Y-57275000D01*
X108301000Y-55440000D02*
X108301000Y-60071000D01*
X108381000Y-47953000D02*
X108381000Y-52560000D01*
X111861000Y-50598000D02*
X111861000Y-57402000D01*
X109741000Y-48555000D02*
X109741000Y-52560000D01*
X107781000Y-55440000D02*
X107781000Y-60201000D01*
X112701000Y-52578000D02*
X112701000Y-55422000D01*
X109061000Y-55440000D02*
X109061000Y-59793000D01*
X112021000Y-50860000D02*
X112021000Y-57140000D01*
X108381000Y-55440000D02*
X108381000Y-60047000D01*
X108621000Y-48033000D02*
X108621000Y-52560000D01*
X107341000Y-47725000D02*
X107341000Y-60275000D01*
X107981000Y-55440000D02*
X107981000Y-60156000D01*
X108901000Y-55440000D02*
X108901000Y-59861000D01*
X109981000Y-55440000D02*
X109981000Y-59296000D01*
X108021000Y-47854000D02*
X108021000Y-52560000D01*
X111221000Y-49762000D02*
X111221000Y-58238000D01*
X107821000Y-55440000D02*
X107821000Y-60192000D01*
X109221000Y-55440000D02*
X109221000Y-59721000D01*
X109941000Y-48678000D02*
X109941000Y-52560000D01*
X109421000Y-48378000D02*
X109421000Y-52560000D01*
X107020000Y-47691000D02*
X107020000Y-60309000D01*
X109061000Y-48207000D02*
X109061000Y-52560000D01*
X108981000Y-48172000D02*
X108981000Y-52560000D01*
X109221000Y-48279000D02*
X109221000Y-52560000D01*
X106900000Y-47682000D02*
X106900000Y-60318000D01*
X108621000Y-55440000D02*
X108621000Y-59967000D01*
X109101000Y-48224000D02*
X109101000Y-52560000D01*
X112261000Y-51319000D02*
X112261000Y-56681000D01*
X111581000Y-50196000D02*
X111581000Y-57804000D01*
X110341000Y-48957000D02*
X110341000Y-52560000D01*
X107821000Y-47808000D02*
X107821000Y-52560000D01*
X109781000Y-48579000D02*
X109781000Y-52560000D01*
X110181000Y-48840000D02*
X110181000Y-52560000D01*
X109661000Y-48509000D02*
X109661000Y-52560000D01*
X108181000Y-47895000D02*
X108181000Y-52560000D01*
X111461000Y-50043000D02*
X111461000Y-57957000D01*
X107621000Y-55440000D02*
X107621000Y-60231000D01*
X109381000Y-55440000D02*
X109381000Y-59642000D01*
X109621000Y-48486000D02*
X109621000Y-52560000D01*
X112461000Y-51791000D02*
X112461000Y-56209000D01*
X111421000Y-49993000D02*
X111421000Y-58007000D01*
X107301000Y-47720000D02*
X107301000Y-60280000D01*
X106780000Y-47676000D02*
X106780000Y-60324000D01*
X108781000Y-48092000D02*
X108781000Y-52560000D01*
X107100000Y-47698000D02*
X107100000Y-60302000D01*
X107261000Y-47715000D02*
X107261000Y-60285000D01*
X107781000Y-47799000D02*
X107781000Y-52560000D01*
X109421000Y-55440000D02*
X109421000Y-59622000D01*
X112381000Y-51590000D02*
X112381000Y-56410000D01*
X107901000Y-47825000D02*
X107901000Y-52560000D01*
X106700000Y-47673000D02*
X106700000Y-60327000D01*
X109781000Y-55440000D02*
X109781000Y-59421000D01*
X109541000Y-48442000D02*
X109541000Y-52560000D01*
X109821000Y-55440000D02*
X109821000Y-59397000D01*
X110301000Y-55440000D02*
X110301000Y-59073000D01*
X109541000Y-55440000D02*
X109541000Y-59558000D01*
X108541000Y-55440000D02*
X108541000Y-59995000D01*
X112861000Y-53683000D02*
X112861000Y-54317000D01*
X110741000Y-49286000D02*
X110741000Y-58714000D01*
X109141000Y-48242000D02*
X109141000Y-52560000D01*
X111541000Y-50144000D02*
X111541000Y-57856000D01*
X108461000Y-47979000D02*
X108461000Y-52560000D01*
X107741000Y-47791000D02*
X107741000Y-52560000D01*
X110461000Y-49050000D02*
X110461000Y-58950000D01*
X109581000Y-48464000D02*
X109581000Y-52560000D01*
X108781000Y-55440000D02*
X108781000Y-59908000D01*
X107901000Y-55440000D02*
X107901000Y-60175000D01*
X109621000Y-55440000D02*
X109621000Y-59514000D01*
X110661000Y-49215000D02*
X110661000Y-58785000D01*
X110101000Y-55440000D02*
X110101000Y-59216000D01*
X108301000Y-47929000D02*
X108301000Y-52560000D01*
X108421000Y-55440000D02*
X108421000Y-60034000D01*
X107701000Y-55440000D02*
X107701000Y-60216000D01*
X109821000Y-48603000D02*
X109821000Y-52560000D01*
X109861000Y-55440000D02*
X109861000Y-59372000D01*
X107501000Y-47748000D02*
X107501000Y-60252000D01*
X111901000Y-50661000D02*
X111901000Y-57339000D01*
X107180000Y-47706000D02*
X107180000Y-60294000D01*
X108501000Y-47992000D02*
X108501000Y-52560000D01*
X108701000Y-55440000D02*
X108701000Y-59939000D01*
X108141000Y-55440000D02*
X108141000Y-60116000D01*
X110941000Y-49472000D02*
X110941000Y-58528000D01*
X112101000Y-51004000D02*
X112101000Y-56996000D01*
X110541000Y-49115000D02*
X110541000Y-58885000D01*
X106620000Y-47671000D02*
X106620000Y-60329000D01*
X111261000Y-49806000D02*
X111261000Y-58194000D01*
X109261000Y-48298000D02*
X109261000Y-52560000D01*
X107701000Y-47784000D02*
X107701000Y-52560000D01*
X112541000Y-52016000D02*
X112541000Y-55984000D01*
X109901000Y-55440000D02*
X109901000Y-59347000D01*
X108141000Y-47884000D02*
X108141000Y-52560000D01*
X110301000Y-48927000D02*
X110301000Y-52560000D01*
X107581000Y-47762000D02*
X107581000Y-52560000D01*
X107661000Y-47776000D02*
X107661000Y-52560000D01*
X106580000Y-47670000D02*
X106580000Y-60330000D01*
X107381000Y-47731000D02*
X107381000Y-60269000D01*
X107621000Y-47769000D02*
X107621000Y-52560000D01*
X109301000Y-48318000D02*
X109301000Y-52560000D01*
X109861000Y-48628000D02*
X109861000Y-52560000D01*
X107981000Y-47844000D02*
X107981000Y-52560000D01*
X107941000Y-55440000D02*
X107941000Y-60166000D01*
X108661000Y-55440000D02*
X108661000Y-59953000D01*
X112781000Y-52972000D02*
X112781000Y-55028000D01*
X111701000Y-50360000D02*
X111701000Y-57640000D01*
X108261000Y-55440000D02*
X108261000Y-60083000D01*
X110421000Y-55440000D02*
X110421000Y-58982000D01*
X111341000Y-49898000D02*
X111341000Y-58102000D01*
X110981000Y-49511000D02*
X110981000Y-58489000D01*
X111061000Y-49592000D02*
X111061000Y-58408000D01*
X99682918Y-50425000D02*
X100932918Y-50425000D01*
X108901000Y-48139000D02*
X108901000Y-52560000D01*
X111661000Y-50304000D02*
X111661000Y-57696000D01*
X107581000Y-55440000D02*
X107581000Y-60238000D01*
X107861000Y-47816000D02*
X107861000Y-52560000D01*
X109701000Y-48532000D02*
X109701000Y-52560000D01*
X109701000Y-55440000D02*
X109701000Y-59468000D01*
X109501000Y-55440000D02*
X109501000Y-59580000D01*
X108261000Y-47917000D02*
X108261000Y-52560000D01*
X107941000Y-47834000D02*
X107941000Y-52560000D01*
X111181000Y-49718000D02*
X111181000Y-58282000D01*
X109301000Y-55440000D02*
X109301000Y-59682000D01*
X110581000Y-49148000D02*
X110581000Y-58852000D01*
X112821000Y-53243000D02*
X112821000Y-54757000D01*
X108541000Y-48005000D02*
X108541000Y-52560000D01*
X112501000Y-51900000D02*
X112501000Y-56100000D01*
X108941000Y-55440000D02*
X108941000Y-59845000D01*
X109501000Y-48420000D02*
X109501000Y-52560000D01*
X112221000Y-51236000D02*
X112221000Y-56764000D01*
X106940000Y-47685000D02*
X106940000Y-60315000D01*
X109661000Y-55440000D02*
X109661000Y-59491000D01*
X111781000Y-50476000D02*
X111781000Y-57524000D01*
X110781000Y-49322000D02*
X110781000Y-58678000D01*
X110021000Y-55440000D02*
X110021000Y-59270000D01*
X109181000Y-55440000D02*
X109181000Y-59739000D01*
X109741000Y-55440000D02*
X109741000Y-59445000D01*
X109101000Y-55440000D02*
X109101000Y-59776000D01*
X110261000Y-48898000D02*
X110261000Y-52560000D01*
X108221000Y-55440000D02*
X108221000Y-60094000D01*
X108101000Y-55440000D02*
X108101000Y-60126000D01*
X107741000Y-55440000D02*
X107741000Y-60209000D01*
X111621000Y-50250000D02*
X111621000Y-57750000D01*
X109941000Y-55440000D02*
X109941000Y-59322000D01*
X108581000Y-55440000D02*
X108581000Y-59981000D01*
X108661000Y-48047000D02*
X108661000Y-52560000D01*
X110061000Y-48757000D02*
X110061000Y-52560000D01*
X111741000Y-50417000D02*
X111741000Y-57583000D01*
X108341000Y-55440000D02*
X108341000Y-60059000D01*
X107861000Y-55440000D02*
X107861000Y-60184000D01*
X110101000Y-48784000D02*
X110101000Y-52560000D01*
X108741000Y-55440000D02*
X108741000Y-59924000D01*
X109181000Y-48261000D02*
X109181000Y-52560000D01*
X106860000Y-47680000D02*
X106860000Y-60320000D01*
X108981000Y-55440000D02*
X108981000Y-59828000D01*
X110381000Y-48988000D02*
X110381000Y-52560000D01*
X110621000Y-49181000D02*
X110621000Y-58819000D01*
X111141000Y-49675000D02*
X111141000Y-58325000D01*
X109021000Y-48189000D02*
X109021000Y-52560000D01*
X108701000Y-48061000D02*
X108701000Y-52560000D01*
X107221000Y-47710000D02*
X107221000Y-60290000D01*
X112621000Y-52272000D02*
X112621000Y-55728000D01*
X108501000Y-55440000D02*
X108501000Y-60008000D01*
X107060000Y-47694000D02*
X107060000Y-60306000D01*
X100307918Y-49800000D02*
X100307918Y-51050000D01*
X106820000Y-47678000D02*
X106820000Y-60322000D01*
X108181000Y-55440000D02*
X108181000Y-60105000D01*
X110701000Y-49250000D02*
X110701000Y-58750000D01*
X110821000Y-49358000D02*
X110821000Y-58642000D01*
X108061000Y-55440000D02*
X108061000Y-60137000D01*
X108101000Y-47874000D02*
X108101000Y-52560000D01*
X111981000Y-50792000D02*
X111981000Y-57208000D01*
X109981000Y-48704000D02*
X109981000Y-52560000D01*
X107421000Y-47736000D02*
X107421000Y-60264000D01*
X106660000Y-47672000D02*
X106660000Y-60328000D01*
X108221000Y-47906000D02*
X108221000Y-52560000D01*
X110901000Y-49433000D02*
X110901000Y-58567000D01*
X110221000Y-55440000D02*
X110221000Y-59131000D01*
X110381000Y-55440000D02*
X110381000Y-59012000D01*
X108741000Y-48076000D02*
X108741000Y-52560000D01*
X108021000Y-55440000D02*
X108021000Y-60146000D01*
X109461000Y-48399000D02*
X109461000Y-52560000D01*
X107140000Y-47702000D02*
X107140000Y-60298000D01*
X111381000Y-49945000D02*
X111381000Y-58055000D01*
X112061000Y-50931000D02*
X112061000Y-57069000D01*
X110341000Y-55440000D02*
X110341000Y-59043000D01*
X108861000Y-48123000D02*
X108861000Y-52560000D01*
X110261000Y-55440000D02*
X110261000Y-59102000D01*
X109341000Y-48338000D02*
X109341000Y-52560000D01*
X110141000Y-55440000D02*
X110141000Y-59188000D01*
X112141000Y-51079000D02*
X112141000Y-56921000D01*
X112301000Y-51406000D02*
X112301000Y-56594000D01*
X108821000Y-55440000D02*
X108821000Y-59893000D01*
X108341000Y-47941000D02*
X108341000Y-52560000D01*
X109141000Y-55440000D02*
X109141000Y-59758000D01*
X110421000Y-49018000D02*
X110421000Y-52560000D01*
X111101000Y-49633000D02*
X111101000Y-58367000D01*
X109381000Y-48358000D02*
X109381000Y-52560000D01*
X106500000Y-47670000D02*
X106500000Y-60330000D01*
X109581000Y-55440000D02*
X109581000Y-59536000D01*
X109021000Y-55440000D02*
X109021000Y-59811000D01*
X108861000Y-55440000D02*
X108861000Y-59877000D01*
X109461000Y-55440000D02*
X109461000Y-59601000D01*
X110181000Y-55440000D02*
X110181000Y-59160000D01*
X109901000Y-48653000D02*
X109901000Y-52560000D01*
X111501000Y-50093000D02*
X111501000Y-57907000D01*
X108421000Y-47966000D02*
X108421000Y-52560000D01*
X106980000Y-47688000D02*
X106980000Y-60312000D01*
X110141000Y-48812000D02*
X110141000Y-52560000D01*
X112581000Y-52139000D02*
X112581000Y-55861000D01*
X108461000Y-55440000D02*
X108461000Y-60021000D01*
X112661000Y-52417000D02*
X112661000Y-55583000D01*
X109341000Y-55440000D02*
X109341000Y-59662000D01*
X110501000Y-49082000D02*
X110501000Y-58918000D01*
X112421000Y-51688000D02*
X112421000Y-56312000D01*
X108061000Y-47863000D02*
X108061000Y-52560000D01*
X107461000Y-47742000D02*
X107461000Y-60258000D01*
X107541000Y-47755000D02*
X107541000Y-60245000D01*
X106540000Y-47670000D02*
X106540000Y-60330000D01*
X112341000Y-51496000D02*
X112341000Y-56504000D01*
X107661000Y-55440000D02*
X107661000Y-60224000D01*
X106740000Y-47674000D02*
X106740000Y-60326000D01*
X109261000Y-55440000D02*
X109261000Y-59702000D01*
X110221000Y-48869000D02*
X110221000Y-52560000D01*
X110021000Y-48730000D02*
X110021000Y-52560000D01*
X108821000Y-48107000D02*
X108821000Y-52560000D01*
X111301000Y-49852000D02*
X111301000Y-58148000D01*
X112741000Y-52759000D02*
X112741000Y-55241000D01*
X110061000Y-55440000D02*
X110061000Y-59243000D01*
X112870000Y-54000000D02*
G75*
G03*
X112870000Y-54000000I-6370000J0D01*
G01*
%TD*%
M02*
