%TF.GenerationSoftware,KiCad,Pcbnew,(6.0.0)*%
%TF.CreationDate,2022-12-17T21:28:13-05:00*%
%TF.ProjectId,TPA3255PBTL,54504133-3235-4355-9042-544c2e6b6963,rev?*%
%TF.SameCoordinates,Original*%
%TF.FileFunction,Paste,Bot*%
%TF.FilePolarity,Positive*%
%FSLAX46Y46*%
G04 Gerber Fmt 4.6, Leading zero omitted, Abs format (unit mm)*
G04 Created by KiCad (PCBNEW (6.0.0)) date 2022-12-17 21:28:13*
%MOMM*%
%LPD*%
G01*
G04 APERTURE LIST*
G04 Aperture macros list*
%AMRoundRect*
0 Rectangle with rounded corners*
0 $1 Rounding radius*
0 $2 $3 $4 $5 $6 $7 $8 $9 X,Y pos of 4 corners*
0 Add a 4 corners polygon primitive as box body*
4,1,4,$2,$3,$4,$5,$6,$7,$8,$9,$2,$3,0*
0 Add four circle primitives for the rounded corners*
1,1,$1+$1,$2,$3*
1,1,$1+$1,$4,$5*
1,1,$1+$1,$6,$7*
1,1,$1+$1,$8,$9*
0 Add four rect primitives between the rounded corners*
20,1,$1+$1,$2,$3,$4,$5,0*
20,1,$1+$1,$4,$5,$6,$7,0*
20,1,$1+$1,$6,$7,$8,$9,0*
20,1,$1+$1,$8,$9,$2,$3,0*%
G04 Aperture macros list end*
%ADD10RoundRect,0.250000X-0.475000X0.250000X-0.475000X-0.250000X0.475000X-0.250000X0.475000X0.250000X0*%
%ADD11RoundRect,0.250000X-0.325000X-0.650000X0.325000X-0.650000X0.325000X0.650000X-0.325000X0.650000X0*%
%ADD12RoundRect,0.250000X0.250000X0.475000X-0.250000X0.475000X-0.250000X-0.475000X0.250000X-0.475000X0*%
%ADD13RoundRect,0.019000X-0.766000X-0.171000X0.766000X-0.171000X0.766000X0.171000X-0.766000X0.171000X0*%
G04 APERTURE END LIST*
D10*
%TO.C,C25*%
X123250000Y-94775000D03*
X123250000Y-96675000D03*
%TD*%
D11*
%TO.C,C6*%
X132275000Y-88500000D03*
X135225000Y-88500000D03*
%TD*%
D12*
%TO.C,C24*%
X123675000Y-77000000D03*
X121775000Y-77000000D03*
%TD*%
%TO.C,C42*%
X117450000Y-84500000D03*
X115550000Y-84500000D03*
%TD*%
D11*
%TO.C,C7*%
X133000000Y-82500000D03*
X135950000Y-82500000D03*
%TD*%
D13*
%TO.C,U1*%
X122060000Y-92540000D03*
X122060000Y-91905000D03*
X122060000Y-91270000D03*
X122060000Y-90635000D03*
X122060000Y-90000000D03*
X122060000Y-89365000D03*
X122060000Y-88730000D03*
X122060000Y-88095000D03*
X122060000Y-87460000D03*
X122060000Y-86825000D03*
X122060000Y-86190000D03*
X122060000Y-85555000D03*
X122060000Y-84920000D03*
X122060000Y-84285000D03*
X122060000Y-83650000D03*
X122060000Y-83015000D03*
X122060000Y-82380000D03*
X122060000Y-81745000D03*
X122060000Y-81110000D03*
X122060000Y-80475000D03*
X122060000Y-79840000D03*
X122060000Y-79205000D03*
X129500000Y-79205000D03*
X129500000Y-79840000D03*
X129500000Y-80475000D03*
X129500000Y-81110000D03*
X129500000Y-81745000D03*
X129500000Y-82380000D03*
X129500000Y-83015000D03*
X129500000Y-83650000D03*
X129500000Y-84285000D03*
X129500000Y-84920000D03*
X129500000Y-85555000D03*
X129500000Y-86190000D03*
X129500000Y-86825000D03*
X129500000Y-87460000D03*
X129500000Y-88095000D03*
X129500000Y-88730000D03*
X129500000Y-89365000D03*
X129500000Y-90000000D03*
X129500000Y-90635000D03*
X129500000Y-91270000D03*
X129500000Y-91905000D03*
X129500000Y-92540000D03*
%TD*%
M02*
