M48
; DRILL file {KiCad (6.0.0)} date Sat Dec 17 21:28:15 2022
; FORMAT={-:-/ absolute / inch / decimal}
; #@! TF.CreationDate,2022-12-17T21:28:15-05:00
; #@! TF.GenerationSoftware,Kicad,Pcbnew,(6.0.0)
; #@! TF.FileFunction,Plated,1,4,PTH
FMAT,2
INCH
; #@! TA.AperFunction,Plated,PTH,ViaDrill
T1C0.0157
; #@! TA.AperFunction,Plated,PTH,ComponentDrill
T2C0.0315
; #@! TA.AperFunction,Plated,PTH,ComponentDrill
T3C0.0354
; #@! TA.AperFunction,Plated,PTH,ComponentDrill
T4C0.0394
; #@! TA.AperFunction,Plated,PTH,ComponentDrill
T5C0.0433
; #@! TA.AperFunction,Plated,PTH,ComponentDrill
T6C0.0472
; #@! TA.AperFunction,Plated,PTH,ComponentDrill
T7C0.0591
%
G90
G05
T1
X2.9232Y-2.8051
X3.1201Y-3.4941
X3.2382Y-2.5492
X3.3169Y-3.3465
X3.3268Y-3.5531
X3.4154Y-1.9291
X3.4154Y-2.8051
X3.5138Y-2.5886
X3.5335Y-2.4016
X3.5335Y-2.9429
X3.7402Y-3.3071
X3.812Y-2.3947
X4.311Y-4.3602
X4.3799Y-2.6673
X4.4193Y-2.4606
X4.4193Y-2.5591
X4.4193Y-3.2776
X4.4291Y-3.6122
X4.4488Y-3.3957
X4.5177Y-3.4154
X4.5276Y-3.4961
X4.5669Y-3.3169
X4.5669Y-3.4154
X4.5866Y-4.252
X4.5965Y-3.1496
X4.5965Y-4.4094
X4.6063Y-3.6713
X4.6063Y-3.9764
X4.6161Y-2.5591
X4.6752Y-3.2677
X4.685Y-3.9469
X4.6949Y-3.5531
X4.7047Y-4.252
X4.7244Y-3.0413
X4.7244Y-3.2776
X4.7244Y-3.4154
X4.7244Y-3.6024
X4.7441Y-2.4409
X4.7441Y-3.1102
X4.7441Y-3.7106
X4.7539Y-3.3648
X4.7736Y-2.9823
X4.8622Y-3.2776
X4.8622Y-3.5433
X4.872Y-3.189
X4.8819Y-2.5492
X4.8819Y-3.4055
X4.8819Y-3.6614
X4.9114Y-3.376
X4.9213Y-3.1004
X4.9687Y-3.3856
X4.9902Y-3.3268
X5.0Y-3.2185
X5.0Y-3.4646
X5.0Y-3.5728
X5.0079Y-3.3898
X5.0197Y-3.5108
X5.0197Y-3.622
X5.0269Y-3.1453
X5.0394Y-3.2284
X5.0394Y-3.2677
X5.0394Y-3.3071
X5.0394Y-3.3661
X5.0394Y-3.4218
X5.0394Y-3.563
X5.044Y-3.1099
X5.0492Y-3.1693
X5.1181Y-3.0807
X5.1407Y-3.3712
X5.1476Y-3.4646
X5.1476Y-3.5925
X5.1508Y-3.2101
X5.1575Y-3.2677
X5.1575Y-3.4218
X5.1673Y-3.3071
X5.1673Y-3.5335
X5.1772Y-3.061
X5.1772Y-3.376
X5.1772Y-3.6417
X5.187Y-3.2087
X5.1969Y-3.248
X5.1969Y-3.4154
X5.3543Y-3.4646
T2
X3.2736Y-2.7049
X3.2736Y-2.8034
X3.4646Y-3.0315
X3.4646Y-3.1299
X4.0157Y-3.0315
X4.0157Y-3.1299
X4.3701Y-3.0315
X4.3701Y-3.1299
T3
X3.0246Y-3.2268
X3.0246Y-3.3268
X3.0246Y-3.522
X3.0246Y-3.622
X3.0315Y-2.5591
X3.0315Y-2.6591
X3.0315Y-2.9315
X3.0315Y-3.0315
T4
X3.8278Y-3.9354
X3.8278Y-4.0354
X3.8278Y-4.1354
X3.8278Y-4.2354
X3.9278Y-3.9354
X3.9278Y-4.0354
X3.9278Y-4.1354
X3.9278Y-4.2354
T5
X3.1496Y-4.0551
T6
X4.0945Y-2.126
X4.2913Y-2.126
X4.685Y-2.1457
X4.8819Y-2.1457
X5.066Y-2.6378
X5.2628Y-2.6378
X5.3022Y-2.1457
X5.4991Y-2.1457
X5.502Y-3.7894
X5.5709Y-2.5394
X6.0925Y-3.7894
X6.1614Y-2.5394
T7
X2.9518Y-3.8573
X2.9518Y-4.253
X3.3474Y-3.8573
X3.3474Y-4.253
X5.8858Y-2.7598
X5.8858Y-3.0709
X5.8858Y-3.25
X5.8858Y-3.561
T4
G00X3.0197Y-2.122
M15
G01X3.0197Y-2.2087
M16
G05
G00X3.1969Y-2.3543
M15
G01X3.1102Y-2.3543
M16
G05
G00X3.2677Y-2.1142
M15
G01X3.2677Y-2.2165
M16
G05
T0
M30
