%TF.GenerationSoftware,KiCad,Pcbnew,(6.0.0)*%
%TF.CreationDate,2022-12-17T21:28:12-05:00*%
%TF.ProjectId,TPA3255PBTL,54504133-3235-4355-9042-544c2e6b6963,rev?*%
%TF.SameCoordinates,Original*%
%TF.FileFunction,Copper,L2,Inr*%
%TF.FilePolarity,Positive*%
%FSLAX46Y46*%
G04 Gerber Fmt 4.6, Leading zero omitted, Abs format (unit mm)*
G04 Created by KiCad (PCBNEW (6.0.0)) date 2022-12-17 21:28:12*
%MOMM*%
%LPD*%
G01*
G04 APERTURE LIST*
%TA.AperFunction,ComponentPad*%
%ADD10R,1.600000X1.600000*%
%TD*%
%TA.AperFunction,ComponentPad*%
%ADD11C,1.600000*%
%TD*%
%TA.AperFunction,ComponentPad*%
%ADD12C,2.400000*%
%TD*%
%TA.AperFunction,ComponentPad*%
%ADD13R,1.700000X1.700000*%
%TD*%
%TA.AperFunction,ComponentPad*%
%ADD14O,1.700000X1.700000*%
%TD*%
%TA.AperFunction,ComponentPad*%
%ADD15R,3.500000X3.500000*%
%TD*%
%TA.AperFunction,ComponentPad*%
%ADD16C,4.000000*%
%TD*%
%TA.AperFunction,ComponentPad*%
%ADD17C,3.000000*%
%TD*%
%TA.AperFunction,ComponentPad*%
%ADD18R,2.000000X4.600000*%
%TD*%
%TA.AperFunction,ComponentPad*%
%ADD19O,2.000000X4.200000*%
%TD*%
%TA.AperFunction,ComponentPad*%
%ADD20O,4.200000X2.000000*%
%TD*%
%TA.AperFunction,ComponentPad*%
%ADD21R,2.400000X2.400000*%
%TD*%
%TA.AperFunction,ComponentPad*%
%ADD22R,1.800000X1.800000*%
%TD*%
%TA.AperFunction,ComponentPad*%
%ADD23C,1.800000*%
%TD*%
%TA.AperFunction,ViaPad*%
%ADD24C,0.800000*%
%TD*%
G04 APERTURE END LIST*
D10*
%TO.N,+15V*%
%TO.C,C9*%
X83150000Y-71205113D03*
D11*
%TO.N,GND*%
X83150000Y-68705113D03*
%TD*%
D10*
%TO.N,+12V*%
%TO.C,C11*%
X111000000Y-79500000D03*
D11*
%TO.N,GND*%
X111000000Y-77000000D03*
%TD*%
D12*
%TO.N,GND*%
%TO.C,C39*%
X139750000Y-96250000D03*
%TO.N,Load2*%
X154750000Y-96250000D03*
%TD*%
D13*
%TO.N,Net-(C16-Pad2)*%
%TO.C,J3*%
X97225000Y-99960000D03*
D14*
%TO.N,Net-(C20-Pad1)*%
X99765000Y-99960000D03*
%TO.N,Net-(C17-Pad2)*%
X97225000Y-102500000D03*
%TO.N,Net-(C20-Pad1)*%
X99765000Y-102500000D03*
%TO.N,Net-(C18-Pad2)*%
X97225000Y-105040000D03*
%TO.N,Net-(C20-Pad1)*%
X99765000Y-105040000D03*
%TO.N,Net-(C19-Pad2)*%
X97225000Y-107580000D03*
%TO.N,Net-(C20-Pad1)*%
X99765000Y-107580000D03*
%TD*%
D12*
%TO.N,Load1*%
%TO.C,C38*%
X156500000Y-64500000D03*
%TO.N,GND*%
X141500000Y-64500000D03*
%TD*%
D15*
%TO.N,Input*%
%TO.C,J2*%
X80000000Y-103000000D03*
D16*
%TO.N,GND*%
X74975000Y-97975000D03*
X85025000Y-97975000D03*
X74975000Y-108025000D03*
X85025000Y-108025000D03*
%TD*%
D17*
%TO.N,OUTB*%
%TO.C,L3*%
X149500000Y-82550000D03*
%TO.N,Load2*%
X149500000Y-90450000D03*
%TD*%
D10*
%TO.N,+3V3*%
%TO.C,C30*%
X88000000Y-77000000D03*
D11*
%TO.N,GND*%
X88000000Y-79500000D03*
%TD*%
D10*
%TO.N,+12V*%
%TO.C,C28*%
X102000000Y-77000000D03*
D11*
%TO.N,GND*%
X102000000Y-79500000D03*
%TD*%
D18*
%TO.N,Power_IN*%
%TO.C,J1*%
X83000000Y-55000000D03*
D19*
%TO.N,GND*%
X76700000Y-55000000D03*
D20*
X80100000Y-59800000D03*
%TD*%
D21*
%TO.N,+48V*%
%TO.C,C4*%
X128676041Y-67000000D03*
D12*
%TO.N,GND*%
X133676041Y-67000000D03*
%TD*%
D21*
%TO.N,+48V*%
%TO.C,C5*%
X134676041Y-54500000D03*
D12*
%TO.N,GND*%
X139676041Y-54500000D03*
%TD*%
D17*
%TO.N,OUTA*%
%TO.C,L2*%
X149500000Y-78000000D03*
%TO.N,Load1*%
X149500000Y-70100000D03*
%TD*%
D22*
%TO.N,Net-(D3-Pad1)*%
%TO.C,D3*%
X77000000Y-65000000D03*
D23*
%TO.N,+48V*%
X77000000Y-67540000D03*
%TD*%
D22*
%TO.N,GND*%
%TO.C,D6*%
X76825000Y-89460000D03*
D23*
%TO.N,Net-(D6-Pad2)*%
X76825000Y-92000000D03*
%TD*%
D22*
%TO.N,Net-(D7-Pad1)*%
%TO.C,D7*%
X77000000Y-74460000D03*
D23*
%TO.N,+12V*%
X77000000Y-77000000D03*
%TD*%
D21*
%TO.N,+48V*%
%TO.C,C2*%
X119000000Y-54500000D03*
D12*
%TO.N,GND*%
X124000000Y-54500000D03*
%TD*%
D22*
%TO.N,GND*%
%TO.C,D5*%
X76825000Y-81960000D03*
D23*
%TO.N,Net-(D5-Pad2)*%
X76825000Y-84500000D03*
%TD*%
D21*
%TO.N,+48V*%
%TO.C,C1*%
X104000000Y-54000000D03*
D12*
%TO.N,GND*%
X109000000Y-54000000D03*
%TD*%
D24*
%TO.N,GND*%
X124000000Y-86500000D03*
X117000000Y-93250000D03*
X111250000Y-67750000D03*
X82250000Y-64750000D03*
X127682063Y-79890557D03*
X89250000Y-65750000D03*
X128000000Y-85500000D03*
X130573145Y-85627847D03*
X74250000Y-71250000D03*
X86750000Y-49000000D03*
X84500000Y-90250000D03*
X127199831Y-86100500D03*
X120500000Y-62000000D03*
X128000000Y-90500000D03*
X128250000Y-80500000D03*
X121250000Y-75750000D03*
X116750000Y-80000000D03*
X126750000Y-84500000D03*
X86750000Y-71250000D03*
X116000000Y-84250000D03*
X124750000Y-85750000D03*
X117250000Y-65000000D03*
X124000000Y-64750000D03*
X127000000Y-90750000D03*
X112250000Y-65000000D03*
X131500000Y-85750000D03*
X120750000Y-85465500D03*
X89750000Y-74750000D03*
X136000000Y-88000000D03*
X130750000Y-91250000D03*
X123500000Y-90000000D03*
X116000000Y-86750000D03*
%TO.N,+48V*%
X89750000Y-61000000D03*
X96825000Y-60825000D03*
X128000000Y-83000000D03*
X112250000Y-62500000D03*
X131000000Y-83000000D03*
X128000000Y-84000000D03*
X126205877Y-85995331D03*
X131250000Y-84000000D03*
X127000000Y-88000000D03*
X132000000Y-82500000D03*
X127500000Y-89174500D03*
X130750000Y-88000000D03*
%TO.N,+12V*%
X109500000Y-110750000D03*
X119500000Y-108000000D03*
X120500000Y-94250000D03*
X120000000Y-77250000D03*
X119000000Y-100250000D03*
X117000000Y-101000000D03*
%TO.N,FiltInA*%
X112500000Y-91750000D03*
%TO.N,FiltInB*%
X115000000Y-88800989D03*
%TO.N,Net-(C27-Pad2)*%
X116500000Y-108000000D03*
X116750000Y-112000000D03*
%TO.N,Net-(R4-Pad2)*%
X120000000Y-83250000D03*
%TO.N,Net-(R14-Pad2)*%
X118750000Y-83000000D03*
%TO.N,Net-(R15-Pad2)*%
X120000000Y-91500000D03*
%TO.N,DVDD*%
X120000000Y-86750000D03*
%TO.N,Net-(R16-Pad2)*%
X119250000Y-90250000D03*
%TO.N,OC_ADJ*%
X113000000Y-86250000D03*
%TO.N,Freq_Adj*%
X114750000Y-86750000D03*
%TO.N,RST_*%
X95000000Y-84000000D03*
%TO.N,Fault*%
X84250000Y-85000000D03*
%TO.N,CLIP_OTW*%
X123750000Y-81000000D03*
X79250000Y-88750000D03*
X112250000Y-83250000D03*
%TO.N,BST_D*%
X130000000Y-78250000D03*
%TO.N,BST_C*%
X128117020Y-78990658D03*
%TO.N,BST_B*%
X127500000Y-92000000D03*
%TO.N,BST_A*%
X131500000Y-92500000D03*
%TO.N,VBG*%
X120500000Y-79000000D03*
%TO.N,GVDD_CD*%
X125000000Y-78750000D03*
%TO.N,GVDD_AB*%
X124000000Y-93000000D03*
%TO.N,OUTB*%
X128000000Y-86914500D03*
X132000000Y-86750000D03*
X127000000Y-81750000D03*
X130829500Y-81535972D03*
X128000000Y-82000497D03*
X131000000Y-86914500D03*
X131750000Y-81500000D03*
%TO.N,OUTA*%
X131250000Y-89750000D03*
X131500000Y-77750000D03*
%TO.N,AVDD*%
X123500000Y-83250000D03*
%TD*%
%TA.AperFunction,Conductor*%
%TO.N,GND*%
G36*
X162934121Y-44528002D02*
G01*
X162980614Y-44581658D01*
X162992000Y-44634000D01*
X162992000Y-115366000D01*
X162971998Y-115434121D01*
X162918342Y-115480614D01*
X162866000Y-115492000D01*
X72634000Y-115492000D01*
X72565879Y-115471998D01*
X72519386Y-115418342D01*
X72508000Y-115366000D01*
X72508000Y-112000000D01*
X115836496Y-112000000D01*
X115856458Y-112189928D01*
X115915473Y-112371556D01*
X116010960Y-112536944D01*
X116138747Y-112678866D01*
X116293248Y-112791118D01*
X116299276Y-112793802D01*
X116299278Y-112793803D01*
X116461681Y-112866109D01*
X116467712Y-112868794D01*
X116561113Y-112888647D01*
X116648056Y-112907128D01*
X116648061Y-112907128D01*
X116654513Y-112908500D01*
X116845487Y-112908500D01*
X116851939Y-112907128D01*
X116851944Y-112907128D01*
X116938887Y-112888647D01*
X117032288Y-112868794D01*
X117038319Y-112866109D01*
X117200722Y-112793803D01*
X117200724Y-112793802D01*
X117206752Y-112791118D01*
X117361253Y-112678866D01*
X117489040Y-112536944D01*
X117584527Y-112371556D01*
X117643542Y-112189928D01*
X117663504Y-112000000D01*
X117643542Y-111810072D01*
X117584527Y-111628444D01*
X117577406Y-111616109D01*
X117534109Y-111541118D01*
X117489040Y-111463056D01*
X117461752Y-111432749D01*
X117365675Y-111326045D01*
X117365674Y-111326044D01*
X117361253Y-111321134D01*
X117206752Y-111208882D01*
X117200724Y-111206198D01*
X117200722Y-111206197D01*
X117038319Y-111133891D01*
X117038318Y-111133891D01*
X117032288Y-111131206D01*
X116938888Y-111111353D01*
X116851944Y-111092872D01*
X116851939Y-111092872D01*
X116845487Y-111091500D01*
X116654513Y-111091500D01*
X116648061Y-111092872D01*
X116648056Y-111092872D01*
X116561112Y-111111353D01*
X116467712Y-111131206D01*
X116461682Y-111133891D01*
X116461681Y-111133891D01*
X116299278Y-111206197D01*
X116299276Y-111206198D01*
X116293248Y-111208882D01*
X116138747Y-111321134D01*
X116134326Y-111326044D01*
X116134325Y-111326045D01*
X116038249Y-111432749D01*
X116010960Y-111463056D01*
X115965891Y-111541118D01*
X115922595Y-111616109D01*
X115915473Y-111628444D01*
X115856458Y-111810072D01*
X115836496Y-112000000D01*
X72508000Y-112000000D01*
X72508000Y-110750000D01*
X108586496Y-110750000D01*
X108606458Y-110939928D01*
X108665473Y-111121556D01*
X108668776Y-111127278D01*
X108668777Y-111127279D01*
X108702686Y-111186010D01*
X108760960Y-111286944D01*
X108765378Y-111291851D01*
X108765379Y-111291852D01*
X108884325Y-111423955D01*
X108888747Y-111428866D01*
X109043248Y-111541118D01*
X109049276Y-111543802D01*
X109049278Y-111543803D01*
X109211681Y-111616109D01*
X109217712Y-111618794D01*
X109292680Y-111634729D01*
X109398056Y-111657128D01*
X109398061Y-111657128D01*
X109404513Y-111658500D01*
X109595487Y-111658500D01*
X109601939Y-111657128D01*
X109601944Y-111657128D01*
X109707320Y-111634729D01*
X109782288Y-111618794D01*
X109788319Y-111616109D01*
X109950722Y-111543803D01*
X109950724Y-111543802D01*
X109956752Y-111541118D01*
X110111253Y-111428866D01*
X110115675Y-111423955D01*
X110234621Y-111291852D01*
X110234622Y-111291851D01*
X110239040Y-111286944D01*
X110297314Y-111186010D01*
X110331223Y-111127279D01*
X110331224Y-111127278D01*
X110334527Y-111121556D01*
X110393542Y-110939928D01*
X110413504Y-110750000D01*
X110393542Y-110560072D01*
X110334527Y-110378444D01*
X110239040Y-110213056D01*
X110111253Y-110071134D01*
X109989034Y-109982336D01*
X109962094Y-109962763D01*
X109962093Y-109962762D01*
X109956752Y-109958882D01*
X109950724Y-109956198D01*
X109950722Y-109956197D01*
X109788319Y-109883891D01*
X109788318Y-109883891D01*
X109782288Y-109881206D01*
X109688887Y-109861353D01*
X109601944Y-109842872D01*
X109601939Y-109842872D01*
X109595487Y-109841500D01*
X109404513Y-109841500D01*
X109398061Y-109842872D01*
X109398056Y-109842872D01*
X109311112Y-109861353D01*
X109217712Y-109881206D01*
X109211682Y-109883891D01*
X109211681Y-109883891D01*
X109049278Y-109956197D01*
X109049276Y-109956198D01*
X109043248Y-109958882D01*
X109037907Y-109962762D01*
X109037906Y-109962763D01*
X109010966Y-109982336D01*
X108888747Y-110071134D01*
X108760960Y-110213056D01*
X108665473Y-110378444D01*
X108606458Y-110560072D01*
X108586496Y-110750000D01*
X72508000Y-110750000D01*
X72508000Y-109970987D01*
X73393721Y-109970987D01*
X73402548Y-109982605D01*
X73625281Y-110144430D01*
X73631961Y-110148670D01*
X73901572Y-110296890D01*
X73908707Y-110300247D01*
X74194770Y-110413508D01*
X74202296Y-110415953D01*
X74500279Y-110492462D01*
X74508050Y-110493945D01*
X74813278Y-110532503D01*
X74821169Y-110533000D01*
X75128831Y-110533000D01*
X75136722Y-110532503D01*
X75441950Y-110493945D01*
X75449721Y-110492462D01*
X75747704Y-110415953D01*
X75755230Y-110413508D01*
X76041293Y-110300247D01*
X76048428Y-110296890D01*
X76318039Y-110148670D01*
X76324719Y-110144430D01*
X76547823Y-109982336D01*
X76556246Y-109971413D01*
X76556017Y-109970987D01*
X83443721Y-109970987D01*
X83452548Y-109982605D01*
X83675281Y-110144430D01*
X83681961Y-110148670D01*
X83951572Y-110296890D01*
X83958707Y-110300247D01*
X84244770Y-110413508D01*
X84252296Y-110415953D01*
X84550279Y-110492462D01*
X84558050Y-110493945D01*
X84863278Y-110532503D01*
X84871169Y-110533000D01*
X85178831Y-110533000D01*
X85186722Y-110532503D01*
X85491950Y-110493945D01*
X85499721Y-110492462D01*
X85797704Y-110415953D01*
X85805230Y-110413508D01*
X86091293Y-110300247D01*
X86098428Y-110296890D01*
X86368039Y-110148670D01*
X86374719Y-110144430D01*
X86597823Y-109982336D01*
X86606246Y-109971413D01*
X86599342Y-109958552D01*
X85037812Y-108397022D01*
X85023868Y-108389408D01*
X85022035Y-108389539D01*
X85015420Y-108393790D01*
X83450334Y-109958876D01*
X83443721Y-109970987D01*
X76556017Y-109970987D01*
X76549342Y-109958552D01*
X74987812Y-108397022D01*
X74973868Y-108389408D01*
X74972035Y-108389539D01*
X74965420Y-108393790D01*
X73400334Y-109958876D01*
X73393721Y-109970987D01*
X72508000Y-109970987D01*
X72508000Y-109236426D01*
X72528002Y-109168305D01*
X72581658Y-109121812D01*
X72651932Y-109111708D01*
X72716512Y-109141202D01*
X72748008Y-109182778D01*
X72771189Y-109232041D01*
X72775001Y-109238974D01*
X72939851Y-109498736D01*
X72944495Y-109505129D01*
X73019497Y-109595790D01*
X73032014Y-109604245D01*
X73042752Y-109598038D01*
X74602978Y-108037812D01*
X74609356Y-108026132D01*
X75339408Y-108026132D01*
X75339539Y-108027965D01*
X75343790Y-108034580D01*
X76906145Y-109596935D01*
X76919407Y-109604177D01*
X76929512Y-109596988D01*
X77005505Y-109505129D01*
X77010149Y-109498736D01*
X77174999Y-109238974D01*
X77178811Y-109232041D01*
X77309801Y-108953672D01*
X77312716Y-108946309D01*
X77407783Y-108653723D01*
X77409754Y-108646046D01*
X77467400Y-108343855D01*
X77468393Y-108335994D01*
X77487710Y-108028958D01*
X82512290Y-108028958D01*
X82531607Y-108335994D01*
X82532600Y-108343855D01*
X82590246Y-108646046D01*
X82592217Y-108653723D01*
X82687284Y-108946309D01*
X82690199Y-108953672D01*
X82821189Y-109232041D01*
X82825001Y-109238974D01*
X82989851Y-109498736D01*
X82994495Y-109505129D01*
X83069497Y-109595790D01*
X83082014Y-109604245D01*
X83092752Y-109598038D01*
X84652978Y-108037812D01*
X84659356Y-108026132D01*
X85389408Y-108026132D01*
X85389539Y-108027965D01*
X85393790Y-108034580D01*
X86956145Y-109596935D01*
X86969407Y-109604177D01*
X86979512Y-109596988D01*
X87055505Y-109505129D01*
X87060149Y-109498736D01*
X87224999Y-109238974D01*
X87228811Y-109232041D01*
X87359801Y-108953672D01*
X87362716Y-108946309D01*
X87457783Y-108653723D01*
X87459754Y-108646046D01*
X87517400Y-108343855D01*
X87518393Y-108335994D01*
X87537710Y-108028958D01*
X87537710Y-108021042D01*
X87518393Y-107714006D01*
X87517400Y-107706145D01*
X87486983Y-107546695D01*
X95862251Y-107546695D01*
X95862548Y-107551848D01*
X95862548Y-107551851D01*
X95868818Y-107660592D01*
X95875110Y-107769715D01*
X95876247Y-107774761D01*
X95876248Y-107774767D01*
X95882790Y-107803794D01*
X95924222Y-107987639D01*
X96008266Y-108194616D01*
X96059019Y-108277438D01*
X96122291Y-108380688D01*
X96124987Y-108385088D01*
X96271250Y-108553938D01*
X96443126Y-108696632D01*
X96636000Y-108809338D01*
X96844692Y-108889030D01*
X96849760Y-108890061D01*
X96849763Y-108890062D01*
X96957017Y-108911883D01*
X97063597Y-108933567D01*
X97068772Y-108933757D01*
X97068774Y-108933757D01*
X97281673Y-108941564D01*
X97281677Y-108941564D01*
X97286837Y-108941753D01*
X97291957Y-108941097D01*
X97291959Y-108941097D01*
X97503288Y-108914025D01*
X97503289Y-108914025D01*
X97508416Y-108913368D01*
X97529215Y-108907128D01*
X97717429Y-108850661D01*
X97717434Y-108850659D01*
X97722384Y-108849174D01*
X97922994Y-108750896D01*
X98104860Y-108621173D01*
X98263096Y-108463489D01*
X98322594Y-108380689D01*
X98393453Y-108282077D01*
X98394776Y-108283028D01*
X98441645Y-108239857D01*
X98511580Y-108227625D01*
X98577026Y-108255144D01*
X98604875Y-108286994D01*
X98664987Y-108385088D01*
X98811250Y-108553938D01*
X98983126Y-108696632D01*
X99176000Y-108809338D01*
X99384692Y-108889030D01*
X99389760Y-108890061D01*
X99389763Y-108890062D01*
X99497017Y-108911883D01*
X99603597Y-108933567D01*
X99608772Y-108933757D01*
X99608774Y-108933757D01*
X99821673Y-108941564D01*
X99821677Y-108941564D01*
X99826837Y-108941753D01*
X99831957Y-108941097D01*
X99831959Y-108941097D01*
X100043288Y-108914025D01*
X100043289Y-108914025D01*
X100048416Y-108913368D01*
X100069215Y-108907128D01*
X100257429Y-108850661D01*
X100257434Y-108850659D01*
X100262384Y-108849174D01*
X100462994Y-108750896D01*
X100644860Y-108621173D01*
X100803096Y-108463489D01*
X100862594Y-108380689D01*
X100930435Y-108286277D01*
X100933453Y-108282077D01*
X100954320Y-108239857D01*
X101030136Y-108086453D01*
X101030137Y-108086451D01*
X101032430Y-108081811D01*
X101057286Y-108000000D01*
X115586496Y-108000000D01*
X115587186Y-108006565D01*
X115595095Y-108081811D01*
X115606458Y-108189928D01*
X115665473Y-108371556D01*
X115668776Y-108377278D01*
X115668777Y-108377279D01*
X115678310Y-108393790D01*
X115760960Y-108536944D01*
X115765378Y-108541851D01*
X115765379Y-108541852D01*
X115833519Y-108617529D01*
X115888747Y-108678866D01*
X116043248Y-108791118D01*
X116049276Y-108793802D01*
X116049278Y-108793803D01*
X116176984Y-108850661D01*
X116217712Y-108868794D01*
X116311113Y-108888647D01*
X116398056Y-108907128D01*
X116398061Y-108907128D01*
X116404513Y-108908500D01*
X116595487Y-108908500D01*
X116601939Y-108907128D01*
X116601944Y-108907128D01*
X116688887Y-108888647D01*
X116782288Y-108868794D01*
X116823016Y-108850661D01*
X116950722Y-108793803D01*
X116950724Y-108793802D01*
X116956752Y-108791118D01*
X117111253Y-108678866D01*
X117166481Y-108617529D01*
X117234621Y-108541852D01*
X117234622Y-108541851D01*
X117239040Y-108536944D01*
X117321690Y-108393790D01*
X117331223Y-108377279D01*
X117331224Y-108377278D01*
X117334527Y-108371556D01*
X117393542Y-108189928D01*
X117404906Y-108081811D01*
X117412814Y-108006565D01*
X117413504Y-108000000D01*
X118586496Y-108000000D01*
X118587186Y-108006565D01*
X118595095Y-108081811D01*
X118606458Y-108189928D01*
X118665473Y-108371556D01*
X118668776Y-108377278D01*
X118668777Y-108377279D01*
X118678310Y-108393790D01*
X118760960Y-108536944D01*
X118765378Y-108541851D01*
X118765379Y-108541852D01*
X118833519Y-108617529D01*
X118888747Y-108678866D01*
X119043248Y-108791118D01*
X119049276Y-108793802D01*
X119049278Y-108793803D01*
X119176984Y-108850661D01*
X119217712Y-108868794D01*
X119311113Y-108888647D01*
X119398056Y-108907128D01*
X119398061Y-108907128D01*
X119404513Y-108908500D01*
X119595487Y-108908500D01*
X119601939Y-108907128D01*
X119601944Y-108907128D01*
X119688887Y-108888647D01*
X119782288Y-108868794D01*
X119823016Y-108850661D01*
X119950722Y-108793803D01*
X119950724Y-108793802D01*
X119956752Y-108791118D01*
X120111253Y-108678866D01*
X120166481Y-108617529D01*
X120234621Y-108541852D01*
X120234622Y-108541851D01*
X120239040Y-108536944D01*
X120321690Y-108393790D01*
X120331223Y-108377279D01*
X120331224Y-108377278D01*
X120334527Y-108371556D01*
X120393542Y-108189928D01*
X120404906Y-108081811D01*
X120412814Y-108006565D01*
X120413504Y-108000000D01*
X120399638Y-107868069D01*
X120394232Y-107816635D01*
X120394232Y-107816633D01*
X120393542Y-107810072D01*
X120334527Y-107628444D01*
X120239040Y-107463056D01*
X120185825Y-107403954D01*
X120115675Y-107326045D01*
X120115674Y-107326044D01*
X120111253Y-107321134D01*
X119956752Y-107208882D01*
X119950724Y-107206198D01*
X119950722Y-107206197D01*
X119788319Y-107133891D01*
X119788318Y-107133891D01*
X119782288Y-107131206D01*
X119688888Y-107111353D01*
X119601944Y-107092872D01*
X119601939Y-107092872D01*
X119595487Y-107091500D01*
X119404513Y-107091500D01*
X119398061Y-107092872D01*
X119398056Y-107092872D01*
X119311112Y-107111353D01*
X119217712Y-107131206D01*
X119211682Y-107133891D01*
X119211681Y-107133891D01*
X119049278Y-107206197D01*
X119049276Y-107206198D01*
X119043248Y-107208882D01*
X118888747Y-107321134D01*
X118884326Y-107326044D01*
X118884325Y-107326045D01*
X118814176Y-107403954D01*
X118760960Y-107463056D01*
X118665473Y-107628444D01*
X118606458Y-107810072D01*
X118605768Y-107816633D01*
X118605768Y-107816635D01*
X118600362Y-107868069D01*
X118586496Y-108000000D01*
X117413504Y-108000000D01*
X117399638Y-107868069D01*
X117394232Y-107816635D01*
X117394232Y-107816633D01*
X117393542Y-107810072D01*
X117334527Y-107628444D01*
X117239040Y-107463056D01*
X117185825Y-107403954D01*
X117115675Y-107326045D01*
X117115674Y-107326044D01*
X117111253Y-107321134D01*
X116956752Y-107208882D01*
X116950724Y-107206198D01*
X116950722Y-107206197D01*
X116788319Y-107133891D01*
X116788318Y-107133891D01*
X116782288Y-107131206D01*
X116688888Y-107111353D01*
X116601944Y-107092872D01*
X116601939Y-107092872D01*
X116595487Y-107091500D01*
X116404513Y-107091500D01*
X116398061Y-107092872D01*
X116398056Y-107092872D01*
X116311112Y-107111353D01*
X116217712Y-107131206D01*
X116211682Y-107133891D01*
X116211681Y-107133891D01*
X116049278Y-107206197D01*
X116049276Y-107206198D01*
X116043248Y-107208882D01*
X115888747Y-107321134D01*
X115884326Y-107326044D01*
X115884325Y-107326045D01*
X115814176Y-107403954D01*
X115760960Y-107463056D01*
X115665473Y-107628444D01*
X115606458Y-107810072D01*
X115605768Y-107816633D01*
X115605768Y-107816635D01*
X115600362Y-107868069D01*
X115586496Y-108000000D01*
X101057286Y-108000000D01*
X101097370Y-107868069D01*
X101126529Y-107646590D01*
X101126819Y-107634729D01*
X101128074Y-107583365D01*
X101128074Y-107583361D01*
X101128156Y-107580000D01*
X101109852Y-107357361D01*
X101055431Y-107140702D01*
X100966354Y-106935840D01*
X100845014Y-106748277D01*
X100694670Y-106583051D01*
X100690619Y-106579852D01*
X100690615Y-106579848D01*
X100523414Y-106447800D01*
X100523410Y-106447798D01*
X100519359Y-106444598D01*
X100478053Y-106421796D01*
X100428084Y-106371364D01*
X100413312Y-106301921D01*
X100438428Y-106235516D01*
X100465780Y-106208909D01*
X100509603Y-106177650D01*
X100644860Y-106081173D01*
X100658417Y-106067664D01*
X100799435Y-105927137D01*
X100803096Y-105923489D01*
X100862594Y-105840689D01*
X100930435Y-105746277D01*
X100933453Y-105742077D01*
X100954320Y-105699857D01*
X101030136Y-105546453D01*
X101030137Y-105546451D01*
X101032430Y-105541811D01*
X101097370Y-105328069D01*
X101126529Y-105106590D01*
X101128156Y-105040000D01*
X101109852Y-104817361D01*
X101055431Y-104600702D01*
X100966354Y-104395840D01*
X100845014Y-104208277D01*
X100694670Y-104043051D01*
X100690619Y-104039852D01*
X100690615Y-104039848D01*
X100523414Y-103907800D01*
X100523410Y-103907798D01*
X100519359Y-103904598D01*
X100478053Y-103881796D01*
X100428084Y-103831364D01*
X100413312Y-103761921D01*
X100438428Y-103695516D01*
X100465780Y-103668909D01*
X100509603Y-103637650D01*
X100644860Y-103541173D01*
X100803096Y-103383489D01*
X100862594Y-103300689D01*
X100930435Y-103206277D01*
X100933453Y-103202077D01*
X100954320Y-103159857D01*
X101030136Y-103006453D01*
X101030137Y-103006451D01*
X101032430Y-103001811D01*
X101097370Y-102788069D01*
X101126529Y-102566590D01*
X101128156Y-102500000D01*
X101109852Y-102277361D01*
X101055431Y-102060702D01*
X100966354Y-101855840D01*
X100921973Y-101787237D01*
X100847822Y-101672617D01*
X100847820Y-101672614D01*
X100845014Y-101668277D01*
X100694670Y-101503051D01*
X100690619Y-101499852D01*
X100690615Y-101499848D01*
X100523414Y-101367800D01*
X100523410Y-101367798D01*
X100519359Y-101364598D01*
X100478053Y-101341796D01*
X100428084Y-101291364D01*
X100413312Y-101221921D01*
X100438428Y-101155516D01*
X100465780Y-101128909D01*
X100509603Y-101097650D01*
X100644860Y-101001173D01*
X100646037Y-101000000D01*
X116086496Y-101000000D01*
X116087186Y-101006565D01*
X116104481Y-101171114D01*
X116106458Y-101189928D01*
X116165473Y-101371556D01*
X116260960Y-101536944D01*
X116388747Y-101678866D01*
X116543248Y-101791118D01*
X116549276Y-101793802D01*
X116549278Y-101793803D01*
X116699285Y-101860590D01*
X116717712Y-101868794D01*
X116811112Y-101888647D01*
X116898056Y-101907128D01*
X116898061Y-101907128D01*
X116904513Y-101908500D01*
X117095487Y-101908500D01*
X117101939Y-101907128D01*
X117101944Y-101907128D01*
X117188888Y-101888647D01*
X117282288Y-101868794D01*
X117300715Y-101860590D01*
X117450722Y-101793803D01*
X117450724Y-101793802D01*
X117456752Y-101791118D01*
X117611253Y-101678866D01*
X117739040Y-101536944D01*
X117834527Y-101371556D01*
X117893542Y-101189928D01*
X117895520Y-101171114D01*
X117912814Y-101006565D01*
X117913504Y-101000000D01*
X117905907Y-100927715D01*
X117894232Y-100816635D01*
X117894232Y-100816633D01*
X117893542Y-100810072D01*
X117834527Y-100628444D01*
X117739040Y-100463056D01*
X117733459Y-100456857D01*
X117615675Y-100326045D01*
X117615674Y-100326044D01*
X117611253Y-100321134D01*
X117513346Y-100250000D01*
X118086496Y-100250000D01*
X118087186Y-100256565D01*
X118094489Y-100326045D01*
X118106458Y-100439928D01*
X118165473Y-100621556D01*
X118168776Y-100627278D01*
X118168777Y-100627279D01*
X118188868Y-100662077D01*
X118260960Y-100786944D01*
X118265378Y-100791851D01*
X118265379Y-100791852D01*
X118384325Y-100923955D01*
X118388747Y-100928866D01*
X118543248Y-101041118D01*
X118549276Y-101043802D01*
X118549278Y-101043803D01*
X118623014Y-101076632D01*
X118717712Y-101118794D01*
X118811112Y-101138647D01*
X118898056Y-101157128D01*
X118898061Y-101157128D01*
X118904513Y-101158500D01*
X119095487Y-101158500D01*
X119101939Y-101157128D01*
X119101944Y-101157128D01*
X119188888Y-101138647D01*
X119282288Y-101118794D01*
X119376986Y-101076632D01*
X119450722Y-101043803D01*
X119450724Y-101043802D01*
X119456752Y-101041118D01*
X119611253Y-100928866D01*
X119615675Y-100923955D01*
X119734621Y-100791852D01*
X119734622Y-100791851D01*
X119739040Y-100786944D01*
X119811132Y-100662077D01*
X119831223Y-100627279D01*
X119831224Y-100627278D01*
X119834527Y-100621556D01*
X119893542Y-100439928D01*
X119905512Y-100326045D01*
X119912814Y-100256565D01*
X119913504Y-100250000D01*
X119901301Y-100133891D01*
X119894232Y-100066635D01*
X119894232Y-100066633D01*
X119893542Y-100060072D01*
X119834527Y-99878444D01*
X119739040Y-99713056D01*
X119611253Y-99571134D01*
X119456752Y-99458882D01*
X119450724Y-99456198D01*
X119450722Y-99456197D01*
X119288319Y-99383891D01*
X119288318Y-99383891D01*
X119282288Y-99381206D01*
X119188888Y-99361353D01*
X119101944Y-99342872D01*
X119101939Y-99342872D01*
X119095487Y-99341500D01*
X118904513Y-99341500D01*
X118898061Y-99342872D01*
X118898056Y-99342872D01*
X118811113Y-99361353D01*
X118717712Y-99381206D01*
X118711682Y-99383891D01*
X118711681Y-99383891D01*
X118549278Y-99456197D01*
X118549276Y-99456198D01*
X118543248Y-99458882D01*
X118388747Y-99571134D01*
X118260960Y-99713056D01*
X118165473Y-99878444D01*
X118106458Y-100060072D01*
X118105768Y-100066633D01*
X118105768Y-100066635D01*
X118098699Y-100133891D01*
X118086496Y-100250000D01*
X117513346Y-100250000D01*
X117456752Y-100208882D01*
X117450724Y-100206198D01*
X117450722Y-100206197D01*
X117288319Y-100133891D01*
X117288318Y-100133891D01*
X117282288Y-100131206D01*
X117188887Y-100111353D01*
X117101944Y-100092872D01*
X117101939Y-100092872D01*
X117095487Y-100091500D01*
X116904513Y-100091500D01*
X116898061Y-100092872D01*
X116898056Y-100092872D01*
X116811113Y-100111353D01*
X116717712Y-100131206D01*
X116711682Y-100133891D01*
X116711681Y-100133891D01*
X116549278Y-100206197D01*
X116549276Y-100206198D01*
X116543248Y-100208882D01*
X116388747Y-100321134D01*
X116384326Y-100326044D01*
X116384325Y-100326045D01*
X116266542Y-100456857D01*
X116260960Y-100463056D01*
X116165473Y-100628444D01*
X116106458Y-100810072D01*
X116105768Y-100816633D01*
X116105768Y-100816635D01*
X116094093Y-100927715D01*
X116086496Y-101000000D01*
X100646037Y-101000000D01*
X100803096Y-100843489D01*
X100822393Y-100816635D01*
X100930435Y-100666277D01*
X100933453Y-100662077D01*
X100950076Y-100628444D01*
X101030136Y-100466453D01*
X101030137Y-100466451D01*
X101032430Y-100461811D01*
X101097370Y-100248069D01*
X101126529Y-100026590D01*
X101128156Y-99960000D01*
X101109852Y-99737361D01*
X101055431Y-99520702D01*
X100966354Y-99315840D01*
X100845014Y-99128277D01*
X100694670Y-98963051D01*
X100690619Y-98959852D01*
X100690615Y-98959848D01*
X100523414Y-98827800D01*
X100523410Y-98827798D01*
X100519359Y-98824598D01*
X100323789Y-98716638D01*
X100318920Y-98714914D01*
X100318916Y-98714912D01*
X100118087Y-98643795D01*
X100118083Y-98643794D01*
X100113212Y-98642069D01*
X100108119Y-98641162D01*
X100108116Y-98641161D01*
X99898373Y-98603800D01*
X99898367Y-98603799D01*
X99893284Y-98602894D01*
X99819452Y-98601992D01*
X99675081Y-98600228D01*
X99675079Y-98600228D01*
X99669911Y-98600165D01*
X99449091Y-98633955D01*
X99236756Y-98703357D01*
X99038607Y-98806507D01*
X99034474Y-98809610D01*
X99034471Y-98809612D01*
X98909195Y-98903672D01*
X98859965Y-98940635D01*
X98803537Y-98999684D01*
X98779283Y-99025064D01*
X98717759Y-99060494D01*
X98646846Y-99057037D01*
X98589060Y-99015791D01*
X98570207Y-98982243D01*
X98528767Y-98871703D01*
X98525615Y-98863295D01*
X98438261Y-98746739D01*
X98321705Y-98659385D01*
X98185316Y-98608255D01*
X98123134Y-98601500D01*
X96326866Y-98601500D01*
X96264684Y-98608255D01*
X96128295Y-98659385D01*
X96011739Y-98746739D01*
X95924385Y-98863295D01*
X95873255Y-98999684D01*
X95866500Y-99061866D01*
X95866500Y-100858134D01*
X95873255Y-100920316D01*
X95924385Y-101056705D01*
X96011739Y-101173261D01*
X96128295Y-101260615D01*
X96136704Y-101263767D01*
X96136705Y-101263768D01*
X96245451Y-101304535D01*
X96302216Y-101347176D01*
X96326916Y-101413738D01*
X96311709Y-101483087D01*
X96292316Y-101509568D01*
X96165629Y-101642138D01*
X96039743Y-101826680D01*
X95945688Y-102029305D01*
X95885989Y-102244570D01*
X95862251Y-102466695D01*
X95862548Y-102471848D01*
X95862548Y-102471851D01*
X95868011Y-102566590D01*
X95875110Y-102689715D01*
X95876247Y-102694761D01*
X95876248Y-102694767D01*
X95896119Y-102782939D01*
X95924222Y-102907639D01*
X96008266Y-103114616D01*
X96059019Y-103197438D01*
X96122291Y-103300688D01*
X96124987Y-103305088D01*
X96271250Y-103473938D01*
X96443126Y-103616632D01*
X96513595Y-103657811D01*
X96516445Y-103659476D01*
X96565169Y-103711114D01*
X96578240Y-103780897D01*
X96551509Y-103846669D01*
X96511055Y-103880027D01*
X96498607Y-103886507D01*
X96494474Y-103889610D01*
X96494471Y-103889612D01*
X96470247Y-103907800D01*
X96319965Y-104020635D01*
X96165629Y-104182138D01*
X96039743Y-104366680D01*
X95945688Y-104569305D01*
X95885989Y-104784570D01*
X95862251Y-105006695D01*
X95862548Y-105011848D01*
X95862548Y-105011851D01*
X95867981Y-105106081D01*
X95875110Y-105229715D01*
X95876247Y-105234761D01*
X95876248Y-105234767D01*
X95881597Y-105258500D01*
X95924222Y-105447639D01*
X96008266Y-105654616D01*
X96059019Y-105737438D01*
X96122291Y-105840688D01*
X96124987Y-105845088D01*
X96271250Y-106013938D01*
X96443126Y-106156632D01*
X96513595Y-106197811D01*
X96516445Y-106199476D01*
X96565169Y-106251114D01*
X96578240Y-106320897D01*
X96551509Y-106386669D01*
X96511055Y-106420027D01*
X96498607Y-106426507D01*
X96494474Y-106429610D01*
X96494471Y-106429612D01*
X96332446Y-106551264D01*
X96319965Y-106560635D01*
X96165629Y-106722138D01*
X96039743Y-106906680D01*
X96024478Y-106939566D01*
X95951712Y-107096328D01*
X95945688Y-107109305D01*
X95885989Y-107324570D01*
X95862251Y-107546695D01*
X87486983Y-107546695D01*
X87459754Y-107403954D01*
X87457783Y-107396277D01*
X87362716Y-107103691D01*
X87359801Y-107096328D01*
X87228811Y-106817959D01*
X87224999Y-106811026D01*
X87060149Y-106551264D01*
X87055505Y-106544871D01*
X86980503Y-106454210D01*
X86967986Y-106445755D01*
X86957248Y-106451962D01*
X85397022Y-108012188D01*
X85389408Y-108026132D01*
X84659356Y-108026132D01*
X84660592Y-108023868D01*
X84660461Y-108022035D01*
X84656210Y-108015420D01*
X83093855Y-106453065D01*
X83080593Y-106445823D01*
X83070488Y-106453012D01*
X82994495Y-106544871D01*
X82989851Y-106551264D01*
X82825001Y-106811026D01*
X82821189Y-106817959D01*
X82690199Y-107096328D01*
X82687284Y-107103691D01*
X82592217Y-107396277D01*
X82590246Y-107403954D01*
X82532600Y-107706145D01*
X82531607Y-107714006D01*
X82512290Y-108021042D01*
X82512290Y-108028958D01*
X77487710Y-108028958D01*
X77487710Y-108021042D01*
X77468393Y-107714006D01*
X77467400Y-107706145D01*
X77409754Y-107403954D01*
X77407783Y-107396277D01*
X77312716Y-107103691D01*
X77309801Y-107096328D01*
X77178811Y-106817959D01*
X77174999Y-106811026D01*
X77010149Y-106551264D01*
X77005505Y-106544871D01*
X76930503Y-106454210D01*
X76917986Y-106445755D01*
X76907248Y-106451962D01*
X75347022Y-108012188D01*
X75339408Y-108026132D01*
X74609356Y-108026132D01*
X74610592Y-108023868D01*
X74610461Y-108022035D01*
X74606210Y-108015420D01*
X73043855Y-106453065D01*
X73030593Y-106445823D01*
X73020488Y-106453012D01*
X72944495Y-106544871D01*
X72939851Y-106551264D01*
X72775001Y-106811026D01*
X72771189Y-106817959D01*
X72748008Y-106867222D01*
X72700905Y-106920343D01*
X72632560Y-106939566D01*
X72564673Y-106918787D01*
X72518796Y-106864603D01*
X72508000Y-106813574D01*
X72508000Y-106078587D01*
X73393754Y-106078587D01*
X73400658Y-106091448D01*
X74962188Y-107652978D01*
X74976132Y-107660592D01*
X74977965Y-107660461D01*
X74984580Y-107656210D01*
X76549666Y-106091124D01*
X76556279Y-106079013D01*
X76555955Y-106078587D01*
X83443754Y-106078587D01*
X83450658Y-106091448D01*
X85012188Y-107652978D01*
X85026132Y-107660592D01*
X85027965Y-107660461D01*
X85034580Y-107656210D01*
X86599666Y-106091124D01*
X86606279Y-106079013D01*
X86597452Y-106067395D01*
X86374719Y-105905570D01*
X86368039Y-105901330D01*
X86098428Y-105753110D01*
X86091293Y-105749753D01*
X85805230Y-105636492D01*
X85797704Y-105634047D01*
X85499721Y-105557538D01*
X85491950Y-105556055D01*
X85186722Y-105517497D01*
X85178831Y-105517000D01*
X84871169Y-105517000D01*
X84863278Y-105517497D01*
X84558050Y-105556055D01*
X84550279Y-105557538D01*
X84252296Y-105634047D01*
X84244770Y-105636492D01*
X83958707Y-105749753D01*
X83951572Y-105753110D01*
X83681961Y-105901330D01*
X83675281Y-105905570D01*
X83452177Y-106067664D01*
X83443754Y-106078587D01*
X76555955Y-106078587D01*
X76547452Y-106067395D01*
X76324719Y-105905570D01*
X76318039Y-105901330D01*
X76048428Y-105753110D01*
X76041293Y-105749753D01*
X75755230Y-105636492D01*
X75747704Y-105634047D01*
X75449721Y-105557538D01*
X75441950Y-105556055D01*
X75136722Y-105517497D01*
X75128831Y-105517000D01*
X74821169Y-105517000D01*
X74813278Y-105517497D01*
X74508050Y-105556055D01*
X74500279Y-105557538D01*
X74202296Y-105634047D01*
X74194770Y-105636492D01*
X73908707Y-105749753D01*
X73901572Y-105753110D01*
X73631961Y-105901330D01*
X73625281Y-105905570D01*
X73402177Y-106067664D01*
X73393754Y-106078587D01*
X72508000Y-106078587D01*
X72508000Y-104798134D01*
X77741500Y-104798134D01*
X77748255Y-104860316D01*
X77799385Y-104996705D01*
X77886739Y-105113261D01*
X78003295Y-105200615D01*
X78139684Y-105251745D01*
X78201866Y-105258500D01*
X81798134Y-105258500D01*
X81860316Y-105251745D01*
X81996705Y-105200615D01*
X82113261Y-105113261D01*
X82200615Y-104996705D01*
X82251745Y-104860316D01*
X82258500Y-104798134D01*
X82258500Y-101201866D01*
X82251745Y-101139684D01*
X82200615Y-101003295D01*
X82113261Y-100886739D01*
X81996705Y-100799385D01*
X81860316Y-100748255D01*
X81798134Y-100741500D01*
X78201866Y-100741500D01*
X78139684Y-100748255D01*
X78003295Y-100799385D01*
X77886739Y-100886739D01*
X77799385Y-101003295D01*
X77748255Y-101139684D01*
X77741500Y-101201866D01*
X77741500Y-104798134D01*
X72508000Y-104798134D01*
X72508000Y-99920987D01*
X73393721Y-99920987D01*
X73402548Y-99932605D01*
X73625281Y-100094430D01*
X73631961Y-100098670D01*
X73901572Y-100246890D01*
X73908707Y-100250247D01*
X74194770Y-100363508D01*
X74202296Y-100365953D01*
X74500279Y-100442462D01*
X74508050Y-100443945D01*
X74813278Y-100482503D01*
X74821169Y-100483000D01*
X75128831Y-100483000D01*
X75136722Y-100482503D01*
X75441950Y-100443945D01*
X75449721Y-100442462D01*
X75747704Y-100365953D01*
X75755230Y-100363508D01*
X76041293Y-100250247D01*
X76048428Y-100246890D01*
X76318039Y-100098670D01*
X76324719Y-100094430D01*
X76547823Y-99932336D01*
X76556246Y-99921413D01*
X76556017Y-99920987D01*
X83443721Y-99920987D01*
X83452548Y-99932605D01*
X83675281Y-100094430D01*
X83681961Y-100098670D01*
X83951572Y-100246890D01*
X83958707Y-100250247D01*
X84244770Y-100363508D01*
X84252296Y-100365953D01*
X84550279Y-100442462D01*
X84558050Y-100443945D01*
X84863278Y-100482503D01*
X84871169Y-100483000D01*
X85178831Y-100483000D01*
X85186722Y-100482503D01*
X85491950Y-100443945D01*
X85499721Y-100442462D01*
X85797704Y-100365953D01*
X85805230Y-100363508D01*
X86091293Y-100250247D01*
X86098428Y-100246890D01*
X86368039Y-100098670D01*
X86374719Y-100094430D01*
X86597823Y-99932336D01*
X86606246Y-99921413D01*
X86599342Y-99908552D01*
X85037812Y-98347022D01*
X85023868Y-98339408D01*
X85022035Y-98339539D01*
X85015420Y-98343790D01*
X83450334Y-99908876D01*
X83443721Y-99920987D01*
X76556017Y-99920987D01*
X76549342Y-99908552D01*
X74987812Y-98347022D01*
X74973868Y-98339408D01*
X74972035Y-98339539D01*
X74965420Y-98343790D01*
X73400334Y-99908876D01*
X73393721Y-99920987D01*
X72508000Y-99920987D01*
X72508000Y-99186426D01*
X72528002Y-99118305D01*
X72581658Y-99071812D01*
X72651932Y-99061708D01*
X72716512Y-99091202D01*
X72748008Y-99132778D01*
X72771189Y-99182041D01*
X72775001Y-99188974D01*
X72939851Y-99448736D01*
X72944495Y-99455129D01*
X73019497Y-99545790D01*
X73032014Y-99554245D01*
X73042752Y-99548038D01*
X74602978Y-97987812D01*
X74609356Y-97976132D01*
X75339408Y-97976132D01*
X75339539Y-97977965D01*
X75343790Y-97984580D01*
X76906145Y-99546935D01*
X76919407Y-99554177D01*
X76929512Y-99546988D01*
X77005505Y-99455129D01*
X77010149Y-99448736D01*
X77174999Y-99188974D01*
X77178811Y-99182041D01*
X77309801Y-98903672D01*
X77312716Y-98896309D01*
X77407783Y-98603723D01*
X77409754Y-98596046D01*
X77467400Y-98293855D01*
X77468393Y-98285994D01*
X77487710Y-97978958D01*
X82512290Y-97978958D01*
X82531607Y-98285994D01*
X82532600Y-98293855D01*
X82590246Y-98596046D01*
X82592217Y-98603723D01*
X82687284Y-98896309D01*
X82690199Y-98903672D01*
X82821189Y-99182041D01*
X82825001Y-99188974D01*
X82989851Y-99448736D01*
X82994495Y-99455129D01*
X83069497Y-99545790D01*
X83082014Y-99554245D01*
X83092752Y-99548038D01*
X84652978Y-97987812D01*
X84659356Y-97976132D01*
X85389408Y-97976132D01*
X85389539Y-97977965D01*
X85393790Y-97984580D01*
X86956145Y-99546935D01*
X86969407Y-99554177D01*
X86979512Y-99546988D01*
X87055505Y-99455129D01*
X87060149Y-99448736D01*
X87224999Y-99188974D01*
X87228811Y-99182041D01*
X87359801Y-98903672D01*
X87362716Y-98896309D01*
X87457783Y-98603723D01*
X87459754Y-98596046D01*
X87517400Y-98293855D01*
X87518393Y-98285994D01*
X87537710Y-97978958D01*
X87537710Y-97971042D01*
X87518393Y-97664006D01*
X87517400Y-97656145D01*
X87511146Y-97623359D01*
X138741386Y-97623359D01*
X138750099Y-97634879D01*
X138838586Y-97699760D01*
X138846505Y-97704708D01*
X139062877Y-97818547D01*
X139071451Y-97822275D01*
X139302282Y-97902885D01*
X139311291Y-97905299D01*
X139551518Y-97950908D01*
X139560775Y-97951962D01*
X139805107Y-97961563D01*
X139814420Y-97961237D01*
X140057478Y-97934618D01*
X140066655Y-97932917D01*
X140303107Y-97870665D01*
X140311926Y-97867628D01*
X140536584Y-97771107D01*
X140544856Y-97766800D01*
X140752777Y-97638135D01*
X140754620Y-97636796D01*
X140762038Y-97625541D01*
X140755974Y-97615184D01*
X139762812Y-96622022D01*
X139748868Y-96614408D01*
X139747035Y-96614539D01*
X139740420Y-96618790D01*
X138748044Y-97611166D01*
X138741386Y-97623359D01*
X87511146Y-97623359D01*
X87459754Y-97353954D01*
X87457783Y-97346277D01*
X87362716Y-97053691D01*
X87359801Y-97046328D01*
X87228811Y-96767959D01*
X87224999Y-96761026D01*
X87060149Y-96501264D01*
X87055505Y-96494871D01*
X86980503Y-96404210D01*
X86967986Y-96395755D01*
X86957248Y-96401962D01*
X85397022Y-97962188D01*
X85389408Y-97976132D01*
X84659356Y-97976132D01*
X84660592Y-97973868D01*
X84660461Y-97972035D01*
X84656210Y-97965420D01*
X83093855Y-96403065D01*
X83080593Y-96395823D01*
X83070488Y-96403012D01*
X82994495Y-96494871D01*
X82989851Y-96501264D01*
X82825001Y-96761026D01*
X82821189Y-96767959D01*
X82690199Y-97046328D01*
X82687284Y-97053691D01*
X82592217Y-97346277D01*
X82590246Y-97353954D01*
X82532600Y-97656145D01*
X82531607Y-97664006D01*
X82512290Y-97971042D01*
X82512290Y-97978958D01*
X77487710Y-97978958D01*
X77487710Y-97971042D01*
X77468393Y-97664006D01*
X77467400Y-97656145D01*
X77409754Y-97353954D01*
X77407783Y-97346277D01*
X77312716Y-97053691D01*
X77309801Y-97046328D01*
X77178811Y-96767959D01*
X77174999Y-96761026D01*
X77010149Y-96501264D01*
X77005505Y-96494871D01*
X76930503Y-96404210D01*
X76917986Y-96395755D01*
X76907248Y-96401962D01*
X75347022Y-97962188D01*
X75339408Y-97976132D01*
X74609356Y-97976132D01*
X74610592Y-97973868D01*
X74610461Y-97972035D01*
X74606210Y-97965420D01*
X73043855Y-96403065D01*
X73030593Y-96395823D01*
X73020488Y-96403012D01*
X72944495Y-96494871D01*
X72939851Y-96501264D01*
X72775001Y-96761026D01*
X72771189Y-96767959D01*
X72748008Y-96817222D01*
X72700905Y-96870343D01*
X72632560Y-96889566D01*
X72564673Y-96868787D01*
X72518796Y-96814603D01*
X72508000Y-96763574D01*
X72508000Y-96028587D01*
X73393754Y-96028587D01*
X73400658Y-96041448D01*
X74962188Y-97602978D01*
X74976132Y-97610592D01*
X74977965Y-97610461D01*
X74984580Y-97606210D01*
X76549666Y-96041124D01*
X76556279Y-96029013D01*
X76555955Y-96028587D01*
X83443754Y-96028587D01*
X83450658Y-96041448D01*
X85012188Y-97602978D01*
X85026132Y-97610592D01*
X85027965Y-97610461D01*
X85034580Y-97606210D01*
X86430955Y-96209835D01*
X138038022Y-96209835D01*
X138049754Y-96454064D01*
X138050891Y-96463324D01*
X138098593Y-96703143D01*
X138101082Y-96712118D01*
X138183708Y-96942250D01*
X138187505Y-96950778D01*
X138303234Y-97166160D01*
X138308245Y-97174027D01*
X138365173Y-97250263D01*
X138376431Y-97258712D01*
X138388850Y-97251940D01*
X139377978Y-96262812D01*
X139384356Y-96251132D01*
X140114408Y-96251132D01*
X140114539Y-96252965D01*
X140118790Y-96259580D01*
X141113732Y-97254522D01*
X141126112Y-97261282D01*
X141134453Y-97255038D01*
X141252700Y-97071202D01*
X141257147Y-97063011D01*
X141357572Y-96840076D01*
X141360767Y-96831298D01*
X141427135Y-96595973D01*
X141428993Y-96586844D01*
X141460044Y-96342770D01*
X141460525Y-96336483D01*
X141462706Y-96253160D01*
X141462555Y-96246851D01*
X141459456Y-96205151D01*
X153037296Y-96205151D01*
X153037520Y-96209817D01*
X153037520Y-96209822D01*
X153040066Y-96262812D01*
X153049480Y-96458798D01*
X153099021Y-96707857D01*
X153100600Y-96712255D01*
X153100602Y-96712262D01*
X153145022Y-96835980D01*
X153184831Y-96946858D01*
X153187048Y-96950984D01*
X153302666Y-97166160D01*
X153305025Y-97170551D01*
X153307820Y-97174294D01*
X153307822Y-97174297D01*
X153454171Y-97370282D01*
X153454176Y-97370288D01*
X153456963Y-97374020D01*
X153460272Y-97377300D01*
X153460277Y-97377306D01*
X153558859Y-97475031D01*
X153637307Y-97552797D01*
X153641069Y-97555555D01*
X153641072Y-97555558D01*
X153716129Y-97610592D01*
X153842094Y-97702953D01*
X153846229Y-97705129D01*
X153846233Y-97705131D01*
X153963447Y-97766800D01*
X154066827Y-97821191D01*
X154199803Y-97867628D01*
X154300764Y-97902885D01*
X154306568Y-97904912D01*
X154556050Y-97952278D01*
X154676532Y-97957011D01*
X154805125Y-97962064D01*
X154805130Y-97962064D01*
X154809793Y-97962247D01*
X154900821Y-97952278D01*
X155057569Y-97935112D01*
X155057575Y-97935111D01*
X155062222Y-97934602D01*
X155171680Y-97905784D01*
X155303273Y-97871138D01*
X155307793Y-97869948D01*
X155427433Y-97818547D01*
X155536807Y-97771557D01*
X155536810Y-97771555D01*
X155541110Y-97769708D01*
X155545090Y-97767245D01*
X155545094Y-97767243D01*
X155753064Y-97638547D01*
X155753066Y-97638545D01*
X155757047Y-97636082D01*
X155787312Y-97610461D01*
X155947289Y-97475031D01*
X155947291Y-97475029D01*
X155950862Y-97472006D01*
X156118295Y-97281084D01*
X156132686Y-97258712D01*
X156253141Y-97071442D01*
X156255669Y-97067512D01*
X156359967Y-96835980D01*
X156361288Y-96831298D01*
X156379151Y-96767959D01*
X156428896Y-96591575D01*
X156452878Y-96403065D01*
X156460545Y-96342798D01*
X156460545Y-96342792D01*
X156460943Y-96339667D01*
X156461027Y-96336483D01*
X156462264Y-96289233D01*
X156463291Y-96250000D01*
X156446006Y-96017395D01*
X156444818Y-96001411D01*
X156444817Y-96001407D01*
X156444472Y-95996759D01*
X156433449Y-95948042D01*
X156389459Y-95753639D01*
X156388428Y-95749082D01*
X156371816Y-95706365D01*
X156298084Y-95516762D01*
X156298083Y-95516760D01*
X156296391Y-95512409D01*
X156293607Y-95507538D01*
X156172702Y-95295997D01*
X156172700Y-95295995D01*
X156170383Y-95291940D01*
X156013171Y-95092517D01*
X155839204Y-94928866D01*
X155831610Y-94921722D01*
X155831608Y-94921720D01*
X155828209Y-94918523D01*
X155779443Y-94884693D01*
X155623393Y-94776437D01*
X155623390Y-94776435D01*
X155619561Y-94773779D01*
X155615384Y-94771719D01*
X155615377Y-94771715D01*
X155395996Y-94663528D01*
X155395992Y-94663527D01*
X155391810Y-94661464D01*
X155149960Y-94584047D01*
X155145355Y-94583297D01*
X154903935Y-94543980D01*
X154903934Y-94543980D01*
X154899323Y-94543229D01*
X154772365Y-94541567D01*
X154650083Y-94539966D01*
X154650080Y-94539966D01*
X154645406Y-94539905D01*
X154393787Y-94574149D01*
X154389301Y-94575457D01*
X154389299Y-94575457D01*
X154362401Y-94583297D01*
X154149993Y-94645208D01*
X154145740Y-94647168D01*
X154145739Y-94647169D01*
X154117818Y-94660041D01*
X153919380Y-94751522D01*
X153915471Y-94754085D01*
X153710928Y-94888189D01*
X153710923Y-94888193D01*
X153707015Y-94890755D01*
X153664315Y-94928866D01*
X153542896Y-95037237D01*
X153517562Y-95059848D01*
X153355183Y-95255087D01*
X153223447Y-95472182D01*
X153221638Y-95476496D01*
X153221637Y-95476498D01*
X153128019Y-95699753D01*
X153125246Y-95706365D01*
X153124095Y-95710897D01*
X153124094Y-95710900D01*
X153093017Y-95833267D01*
X153062738Y-95952490D01*
X153037296Y-96205151D01*
X141459456Y-96205151D01*
X141444321Y-96001486D01*
X141442944Y-95992280D01*
X141388979Y-95753786D01*
X141386255Y-95744875D01*
X141297633Y-95516983D01*
X141293619Y-95508567D01*
X141172284Y-95296276D01*
X141167074Y-95288553D01*
X141135787Y-95248865D01*
X141123863Y-95240395D01*
X141112328Y-95246882D01*
X140122022Y-96237188D01*
X140114408Y-96251132D01*
X139384356Y-96251132D01*
X139385592Y-96248868D01*
X139385461Y-96247035D01*
X139381210Y-96240420D01*
X138386828Y-95246038D01*
X138373520Y-95238771D01*
X138363481Y-95245893D01*
X138358581Y-95251784D01*
X138353168Y-95259373D01*
X138226322Y-95468409D01*
X138222084Y-95476726D01*
X138127529Y-95702214D01*
X138124572Y-95711052D01*
X138064384Y-95948042D01*
X138062763Y-95957232D01*
X138038267Y-96200510D01*
X138038022Y-96209835D01*
X86430955Y-96209835D01*
X86599666Y-96041124D01*
X86606279Y-96029013D01*
X86597452Y-96017395D01*
X86374719Y-95855570D01*
X86368039Y-95851330D01*
X86098428Y-95703110D01*
X86091293Y-95699753D01*
X85805230Y-95586492D01*
X85797704Y-95584047D01*
X85499721Y-95507538D01*
X85491950Y-95506055D01*
X85186722Y-95467497D01*
X85178831Y-95467000D01*
X84871169Y-95467000D01*
X84863278Y-95467497D01*
X84558050Y-95506055D01*
X84550279Y-95507538D01*
X84252296Y-95584047D01*
X84244770Y-95586492D01*
X83958707Y-95699753D01*
X83951572Y-95703110D01*
X83681961Y-95851330D01*
X83675281Y-95855570D01*
X83452177Y-96017664D01*
X83443754Y-96028587D01*
X76555955Y-96028587D01*
X76547452Y-96017395D01*
X76324719Y-95855570D01*
X76318039Y-95851330D01*
X76048428Y-95703110D01*
X76041293Y-95699753D01*
X75755230Y-95586492D01*
X75747704Y-95584047D01*
X75449721Y-95507538D01*
X75441950Y-95506055D01*
X75136722Y-95467497D01*
X75128831Y-95467000D01*
X74821169Y-95467000D01*
X74813278Y-95467497D01*
X74508050Y-95506055D01*
X74500279Y-95507538D01*
X74202296Y-95584047D01*
X74194770Y-95586492D01*
X73908707Y-95699753D01*
X73901572Y-95703110D01*
X73631961Y-95851330D01*
X73625281Y-95855570D01*
X73402177Y-96017664D01*
X73393754Y-96028587D01*
X72508000Y-96028587D01*
X72508000Y-94250000D01*
X119586496Y-94250000D01*
X119606458Y-94439928D01*
X119665473Y-94621556D01*
X119668776Y-94627278D01*
X119668777Y-94627279D01*
X119680261Y-94647169D01*
X119760960Y-94786944D01*
X119765378Y-94791851D01*
X119765379Y-94791852D01*
X119884325Y-94923955D01*
X119888747Y-94928866D01*
X120043248Y-95041118D01*
X120049276Y-95043802D01*
X120049278Y-95043803D01*
X120166931Y-95096185D01*
X120217712Y-95118794D01*
X120311112Y-95138647D01*
X120398056Y-95157128D01*
X120398061Y-95157128D01*
X120404513Y-95158500D01*
X120595487Y-95158500D01*
X120601939Y-95157128D01*
X120601944Y-95157128D01*
X120688888Y-95138647D01*
X120782288Y-95118794D01*
X120833069Y-95096185D01*
X120950722Y-95043803D01*
X120950724Y-95043802D01*
X120956752Y-95041118D01*
X121111253Y-94928866D01*
X121115675Y-94923955D01*
X121159829Y-94874917D01*
X138739330Y-94874917D01*
X138743903Y-94884693D01*
X139737188Y-95877978D01*
X139751132Y-95885592D01*
X139752965Y-95885461D01*
X139759580Y-95881210D01*
X140752488Y-94888302D01*
X140758872Y-94876612D01*
X140749460Y-94864502D01*
X140623144Y-94776873D01*
X140615116Y-94772145D01*
X140395810Y-94663995D01*
X140387177Y-94660507D01*
X140154288Y-94585958D01*
X140145238Y-94583785D01*
X139903891Y-94544480D01*
X139894602Y-94543668D01*
X139650114Y-94540467D01*
X139640803Y-94541037D01*
X139398522Y-94574010D01*
X139389403Y-94575948D01*
X139154668Y-94644367D01*
X139145915Y-94647639D01*
X138923869Y-94750004D01*
X138915714Y-94754524D01*
X138748468Y-94864175D01*
X138739330Y-94874917D01*
X121159829Y-94874917D01*
X121234621Y-94791852D01*
X121234622Y-94791851D01*
X121239040Y-94786944D01*
X121319739Y-94647169D01*
X121331223Y-94627279D01*
X121331224Y-94627278D01*
X121334527Y-94621556D01*
X121393542Y-94439928D01*
X121413504Y-94250000D01*
X121393542Y-94060072D01*
X121334527Y-93878444D01*
X121327406Y-93866109D01*
X121284109Y-93791118D01*
X121239040Y-93713056D01*
X121211752Y-93682749D01*
X121115675Y-93576045D01*
X121115674Y-93576044D01*
X121111253Y-93571134D01*
X120956752Y-93458882D01*
X120950724Y-93456198D01*
X120950722Y-93456197D01*
X120788319Y-93383891D01*
X120788318Y-93383891D01*
X120782288Y-93381206D01*
X120660712Y-93355364D01*
X120601944Y-93342872D01*
X120601939Y-93342872D01*
X120595487Y-93341500D01*
X120404513Y-93341500D01*
X120398061Y-93342872D01*
X120398056Y-93342872D01*
X120339288Y-93355364D01*
X120217712Y-93381206D01*
X120211682Y-93383891D01*
X120211681Y-93383891D01*
X120049278Y-93456197D01*
X120049276Y-93456198D01*
X120043248Y-93458882D01*
X119888747Y-93571134D01*
X119884326Y-93576044D01*
X119884325Y-93576045D01*
X119788249Y-93682749D01*
X119760960Y-93713056D01*
X119715891Y-93791118D01*
X119672595Y-93866109D01*
X119665473Y-93878444D01*
X119606458Y-94060072D01*
X119586496Y-94250000D01*
X72508000Y-94250000D01*
X72508000Y-91965469D01*
X75412095Y-91965469D01*
X75412392Y-91970622D01*
X75412392Y-91970625D01*
X75421492Y-92128444D01*
X75425427Y-92196697D01*
X75426564Y-92201743D01*
X75426565Y-92201749D01*
X75449562Y-92303794D01*
X75476346Y-92422642D01*
X75478288Y-92427424D01*
X75478289Y-92427428D01*
X75561540Y-92632450D01*
X75563484Y-92637237D01*
X75684501Y-92834719D01*
X75836147Y-93009784D01*
X76014349Y-93157730D01*
X76214322Y-93274584D01*
X76430694Y-93357209D01*
X76435760Y-93358240D01*
X76435761Y-93358240D01*
X76470320Y-93365271D01*
X76657656Y-93403385D01*
X76788324Y-93408176D01*
X76883949Y-93411683D01*
X76883953Y-93411683D01*
X76889113Y-93411872D01*
X76894233Y-93411216D01*
X76894235Y-93411216D01*
X76967270Y-93401860D01*
X77118847Y-93382442D01*
X77123795Y-93380957D01*
X77123802Y-93380956D01*
X77335747Y-93317369D01*
X77340690Y-93315886D01*
X77345324Y-93313616D01*
X77544049Y-93216262D01*
X77544052Y-93216260D01*
X77548684Y-93213991D01*
X77737243Y-93079494D01*
X77817015Y-93000000D01*
X123086496Y-93000000D01*
X123087186Y-93006565D01*
X123102727Y-93154425D01*
X123106458Y-93189928D01*
X123165473Y-93371556D01*
X123168776Y-93377278D01*
X123168777Y-93377279D01*
X123202686Y-93436010D01*
X123260960Y-93536944D01*
X123265378Y-93541851D01*
X123265379Y-93541852D01*
X123384325Y-93673955D01*
X123388747Y-93678866D01*
X123543248Y-93791118D01*
X123549276Y-93793802D01*
X123549278Y-93793803D01*
X123711681Y-93866109D01*
X123717712Y-93868794D01*
X123792680Y-93884729D01*
X123898056Y-93907128D01*
X123898061Y-93907128D01*
X123904513Y-93908500D01*
X124095487Y-93908500D01*
X124101939Y-93907128D01*
X124101944Y-93907128D01*
X124207320Y-93884729D01*
X124282288Y-93868794D01*
X124288319Y-93866109D01*
X124450722Y-93793803D01*
X124450724Y-93793802D01*
X124456752Y-93791118D01*
X124611253Y-93678866D01*
X124615675Y-93673955D01*
X124734621Y-93541852D01*
X124734622Y-93541851D01*
X124739040Y-93536944D01*
X124797314Y-93436010D01*
X124831223Y-93377279D01*
X124831224Y-93377278D01*
X124834527Y-93371556D01*
X124893542Y-93189928D01*
X124897274Y-93154425D01*
X124912814Y-93006565D01*
X124913504Y-93000000D01*
X124896543Y-92838622D01*
X124894232Y-92816635D01*
X124894232Y-92816633D01*
X124893542Y-92810072D01*
X124834527Y-92628444D01*
X124827406Y-92616109D01*
X124784109Y-92541118D01*
X124739040Y-92463056D01*
X124711752Y-92432749D01*
X124615675Y-92326045D01*
X124615674Y-92326044D01*
X124611253Y-92321134D01*
X124456752Y-92208882D01*
X124450724Y-92206198D01*
X124450722Y-92206197D01*
X124288319Y-92133891D01*
X124288318Y-92133891D01*
X124282288Y-92131206D01*
X124188888Y-92111353D01*
X124101944Y-92092872D01*
X124101939Y-92092872D01*
X124095487Y-92091500D01*
X123904513Y-92091500D01*
X123898061Y-92092872D01*
X123898056Y-92092872D01*
X123811112Y-92111353D01*
X123717712Y-92131206D01*
X123711682Y-92133891D01*
X123711681Y-92133891D01*
X123549278Y-92206197D01*
X123549276Y-92206198D01*
X123543248Y-92208882D01*
X123388747Y-92321134D01*
X123384326Y-92326044D01*
X123384325Y-92326045D01*
X123288249Y-92432749D01*
X123260960Y-92463056D01*
X123215891Y-92541118D01*
X123172595Y-92616109D01*
X123165473Y-92628444D01*
X123106458Y-92810072D01*
X123105768Y-92816633D01*
X123105768Y-92816635D01*
X123103457Y-92838622D01*
X123086496Y-93000000D01*
X77817015Y-93000000D01*
X77901303Y-92916005D01*
X78036458Y-92727917D01*
X78052131Y-92696206D01*
X78136784Y-92524922D01*
X78136785Y-92524920D01*
X78139078Y-92520280D01*
X78206408Y-92298671D01*
X78236640Y-92069041D01*
X78236722Y-92065691D01*
X78238245Y-92003365D01*
X78238245Y-92003361D01*
X78238327Y-92000000D01*
X78230095Y-91899867D01*
X78219773Y-91774318D01*
X78219772Y-91774312D01*
X78219349Y-91769167D01*
X78214535Y-91750000D01*
X111586496Y-91750000D01*
X111587186Y-91756565D01*
X111594489Y-91826045D01*
X111606458Y-91939928D01*
X111665473Y-92121556D01*
X111668776Y-92127278D01*
X111668777Y-92127279D01*
X111673078Y-92134729D01*
X111760960Y-92286944D01*
X111765378Y-92291851D01*
X111765379Y-92291852D01*
X111807066Y-92338150D01*
X111888747Y-92428866D01*
X112043248Y-92541118D01*
X112049276Y-92543802D01*
X112049278Y-92543803D01*
X112211681Y-92616109D01*
X112217712Y-92618794D01*
X112292680Y-92634729D01*
X112398056Y-92657128D01*
X112398061Y-92657128D01*
X112404513Y-92658500D01*
X112595487Y-92658500D01*
X112601939Y-92657128D01*
X112601944Y-92657128D01*
X112707320Y-92634729D01*
X112782288Y-92618794D01*
X112788319Y-92616109D01*
X112950722Y-92543803D01*
X112950724Y-92543802D01*
X112956752Y-92541118D01*
X113111253Y-92428866D01*
X113192934Y-92338150D01*
X113234621Y-92291852D01*
X113234622Y-92291851D01*
X113239040Y-92286944D01*
X113326922Y-92134729D01*
X113331223Y-92127279D01*
X113331224Y-92127278D01*
X113334527Y-92121556D01*
X113393542Y-91939928D01*
X113405512Y-91826045D01*
X113412814Y-91756565D01*
X113413504Y-91750000D01*
X113407190Y-91689928D01*
X113394232Y-91566635D01*
X113394232Y-91566633D01*
X113393542Y-91560072D01*
X113334527Y-91378444D01*
X113239040Y-91213056D01*
X113194305Y-91163372D01*
X113115675Y-91076045D01*
X113115674Y-91076044D01*
X113111253Y-91071134D01*
X112970367Y-90968774D01*
X112962094Y-90962763D01*
X112962093Y-90962762D01*
X112956752Y-90958882D01*
X112950724Y-90956198D01*
X112950722Y-90956197D01*
X112788319Y-90883891D01*
X112788318Y-90883891D01*
X112782288Y-90881206D01*
X112688887Y-90861353D01*
X112601944Y-90842872D01*
X112601939Y-90842872D01*
X112595487Y-90841500D01*
X112404513Y-90841500D01*
X112398061Y-90842872D01*
X112398056Y-90842872D01*
X112311112Y-90861353D01*
X112217712Y-90881206D01*
X112211682Y-90883891D01*
X112211681Y-90883891D01*
X112049278Y-90956197D01*
X112049276Y-90956198D01*
X112043248Y-90958882D01*
X112037907Y-90962762D01*
X112037906Y-90962763D01*
X112029633Y-90968774D01*
X111888747Y-91071134D01*
X111884326Y-91076044D01*
X111884325Y-91076045D01*
X111805696Y-91163372D01*
X111760960Y-91213056D01*
X111665473Y-91378444D01*
X111606458Y-91560072D01*
X111605768Y-91566633D01*
X111605768Y-91566635D01*
X111592810Y-91689928D01*
X111586496Y-91750000D01*
X78214535Y-91750000D01*
X78184002Y-91628444D01*
X78164184Y-91549544D01*
X78164183Y-91549540D01*
X78162925Y-91544533D01*
X78156051Y-91528723D01*
X78072630Y-91336868D01*
X78072628Y-91336865D01*
X78070570Y-91332131D01*
X77944764Y-91137665D01*
X77937639Y-91129834D01*
X77888694Y-91076045D01*
X77854486Y-91038450D01*
X77823434Y-90974605D01*
X77831829Y-90904106D01*
X77877005Y-90849338D01*
X77903449Y-90835669D01*
X77963054Y-90813324D01*
X77978649Y-90804786D01*
X78080724Y-90728285D01*
X78093285Y-90715724D01*
X78169786Y-90613649D01*
X78178324Y-90598054D01*
X78223478Y-90477606D01*
X78227105Y-90462351D01*
X78232631Y-90411486D01*
X78233000Y-90404672D01*
X78233000Y-90250000D01*
X118336496Y-90250000D01*
X118337186Y-90256565D01*
X118355751Y-90433198D01*
X118356458Y-90439928D01*
X118415473Y-90621556D01*
X118418776Y-90627278D01*
X118418777Y-90627279D01*
X118436803Y-90658500D01*
X118510960Y-90786944D01*
X118515378Y-90791851D01*
X118515379Y-90791852D01*
X118594598Y-90879834D01*
X118638747Y-90928866D01*
X118737843Y-91000864D01*
X118774765Y-91027689D01*
X118793248Y-91041118D01*
X118799276Y-91043802D01*
X118799278Y-91043803D01*
X118949227Y-91110564D01*
X118967712Y-91118794D01*
X118974167Y-91120166D01*
X118974176Y-91120169D01*
X119018752Y-91129644D01*
X119081225Y-91163372D01*
X119115546Y-91225522D01*
X119112386Y-91291829D01*
X119109114Y-91301899D01*
X119106458Y-91310072D01*
X119105768Y-91316633D01*
X119105768Y-91316635D01*
X119099873Y-91372721D01*
X119086496Y-91500000D01*
X119087186Y-91506565D01*
X119093500Y-91566635D01*
X119106458Y-91689928D01*
X119165473Y-91871556D01*
X119260960Y-92036944D01*
X119265378Y-92041851D01*
X119265379Y-92041852D01*
X119331486Y-92115271D01*
X119388747Y-92178866D01*
X119543248Y-92291118D01*
X119549276Y-92293802D01*
X119549278Y-92293803D01*
X119648884Y-92338150D01*
X119717712Y-92368794D01*
X119811113Y-92388647D01*
X119898056Y-92407128D01*
X119898061Y-92407128D01*
X119904513Y-92408500D01*
X120095487Y-92408500D01*
X120101939Y-92407128D01*
X120101944Y-92407128D01*
X120188887Y-92388647D01*
X120282288Y-92368794D01*
X120351116Y-92338150D01*
X120450722Y-92293803D01*
X120450724Y-92293802D01*
X120456752Y-92291118D01*
X120611253Y-92178866D01*
X120668514Y-92115271D01*
X120734621Y-92041852D01*
X120734622Y-92041851D01*
X120739040Y-92036944D01*
X120760370Y-92000000D01*
X126586496Y-92000000D01*
X126587186Y-92006565D01*
X126598591Y-92115073D01*
X126606458Y-92189928D01*
X126665473Y-92371556D01*
X126668776Y-92377278D01*
X126668777Y-92377279D01*
X126686803Y-92408500D01*
X126760960Y-92536944D01*
X126888747Y-92678866D01*
X127043248Y-92791118D01*
X127049276Y-92793802D01*
X127049278Y-92793803D01*
X127149944Y-92838622D01*
X127217712Y-92868794D01*
X127311112Y-92888647D01*
X127398056Y-92907128D01*
X127398061Y-92907128D01*
X127404513Y-92908500D01*
X127595487Y-92908500D01*
X127601939Y-92907128D01*
X127601944Y-92907128D01*
X127688887Y-92888647D01*
X127782288Y-92868794D01*
X127850056Y-92838622D01*
X127950722Y-92793803D01*
X127950724Y-92793802D01*
X127956752Y-92791118D01*
X128111253Y-92678866D01*
X128239040Y-92536944D01*
X128260370Y-92500000D01*
X130586496Y-92500000D01*
X130587186Y-92506565D01*
X130603011Y-92657128D01*
X130606458Y-92689928D01*
X130665473Y-92871556D01*
X130668776Y-92877278D01*
X130668777Y-92877279D01*
X130691136Y-92916005D01*
X130760960Y-93036944D01*
X130765378Y-93041851D01*
X130765379Y-93041852D01*
X130866740Y-93154425D01*
X130888747Y-93178866D01*
X130940218Y-93216262D01*
X131023028Y-93276427D01*
X131043248Y-93291118D01*
X131049276Y-93293802D01*
X131049278Y-93293803D01*
X131194007Y-93358240D01*
X131217712Y-93368794D01*
X131311113Y-93388647D01*
X131398056Y-93407128D01*
X131398061Y-93407128D01*
X131404513Y-93408500D01*
X131595487Y-93408500D01*
X131601939Y-93407128D01*
X131601944Y-93407128D01*
X131688888Y-93388647D01*
X131782288Y-93368794D01*
X131805993Y-93358240D01*
X131950722Y-93293803D01*
X131950724Y-93293802D01*
X131956752Y-93291118D01*
X131976973Y-93276427D01*
X132059782Y-93216262D01*
X132111253Y-93178866D01*
X132133260Y-93154425D01*
X132234621Y-93041852D01*
X132234622Y-93041851D01*
X132239040Y-93036944D01*
X132308864Y-92916005D01*
X132331223Y-92877279D01*
X132331224Y-92877278D01*
X132334527Y-92871556D01*
X132393542Y-92689928D01*
X132396990Y-92657128D01*
X132412814Y-92506565D01*
X132413504Y-92500000D01*
X132409621Y-92463056D01*
X132394232Y-92316635D01*
X132394232Y-92316633D01*
X132393542Y-92310072D01*
X132334527Y-92128444D01*
X132313990Y-92092872D01*
X132262312Y-92003365D01*
X132239040Y-91963056D01*
X132226155Y-91948745D01*
X132115675Y-91826045D01*
X132115674Y-91826044D01*
X132111253Y-91821134D01*
X131992933Y-91735169D01*
X131962094Y-91712763D01*
X131962093Y-91712762D01*
X131956752Y-91708882D01*
X131950724Y-91706198D01*
X131950722Y-91706197D01*
X131788319Y-91633891D01*
X131788318Y-91633891D01*
X131782288Y-91631206D01*
X131688887Y-91611353D01*
X131601944Y-91592872D01*
X131601939Y-91592872D01*
X131595487Y-91591500D01*
X131404513Y-91591500D01*
X131398061Y-91592872D01*
X131398056Y-91592872D01*
X131311113Y-91611353D01*
X131217712Y-91631206D01*
X131211682Y-91633891D01*
X131211681Y-91633891D01*
X131049278Y-91706197D01*
X131049276Y-91706198D01*
X131043248Y-91708882D01*
X131037907Y-91712762D01*
X131037906Y-91712763D01*
X131007067Y-91735169D01*
X130888747Y-91821134D01*
X130884326Y-91826044D01*
X130884325Y-91826045D01*
X130773846Y-91948745D01*
X130760960Y-91963056D01*
X130737688Y-92003365D01*
X130686011Y-92092872D01*
X130665473Y-92128444D01*
X130606458Y-92310072D01*
X130605768Y-92316633D01*
X130605768Y-92316635D01*
X130590379Y-92463056D01*
X130586496Y-92500000D01*
X128260370Y-92500000D01*
X128313197Y-92408500D01*
X128331223Y-92377279D01*
X128331224Y-92377278D01*
X128334527Y-92371556D01*
X128393542Y-92189928D01*
X128401410Y-92115073D01*
X128412814Y-92006565D01*
X128413504Y-92000000D01*
X128407190Y-91939928D01*
X128394232Y-91816635D01*
X128394232Y-91816633D01*
X128393542Y-91810072D01*
X128334527Y-91628444D01*
X128313990Y-91592872D01*
X128286081Y-91544533D01*
X128239040Y-91463056D01*
X128111253Y-91321134D01*
X128012157Y-91249136D01*
X127962094Y-91212763D01*
X127962093Y-91212762D01*
X127956752Y-91208882D01*
X127950724Y-91206198D01*
X127950722Y-91206197D01*
X127788319Y-91133891D01*
X127788318Y-91133891D01*
X127782288Y-91131206D01*
X127685176Y-91110564D01*
X127601944Y-91092872D01*
X127601939Y-91092872D01*
X127595487Y-91091500D01*
X127404513Y-91091500D01*
X127398061Y-91092872D01*
X127398056Y-91092872D01*
X127314824Y-91110564D01*
X127217712Y-91131206D01*
X127211682Y-91133891D01*
X127211681Y-91133891D01*
X127049278Y-91206197D01*
X127049276Y-91206198D01*
X127043248Y-91208882D01*
X127037907Y-91212762D01*
X127037906Y-91212763D01*
X126987843Y-91249136D01*
X126888747Y-91321134D01*
X126760960Y-91463056D01*
X126713919Y-91544533D01*
X126686011Y-91592872D01*
X126665473Y-91628444D01*
X126606458Y-91810072D01*
X126605768Y-91816633D01*
X126605768Y-91816635D01*
X126592810Y-91939928D01*
X126586496Y-92000000D01*
X120760370Y-92000000D01*
X120834527Y-91871556D01*
X120893542Y-91689928D01*
X120906501Y-91566635D01*
X120912814Y-91506565D01*
X120913504Y-91500000D01*
X120900127Y-91372721D01*
X120894232Y-91316635D01*
X120894232Y-91316633D01*
X120893542Y-91310072D01*
X120834527Y-91128444D01*
X120829750Y-91120169D01*
X120782569Y-91038451D01*
X120739040Y-90963056D01*
X120722664Y-90944868D01*
X120615675Y-90826045D01*
X120615674Y-90826044D01*
X120611253Y-90821134D01*
X120456752Y-90708882D01*
X120450724Y-90706198D01*
X120450722Y-90706197D01*
X120288319Y-90633891D01*
X120288318Y-90633891D01*
X120282288Y-90631206D01*
X120275833Y-90629834D01*
X120275824Y-90629831D01*
X120231248Y-90620356D01*
X120168775Y-90586628D01*
X120134454Y-90524478D01*
X120137614Y-90458171D01*
X120141503Y-90446204D01*
X120141503Y-90446202D01*
X120143542Y-90439928D01*
X120144250Y-90433198D01*
X120162814Y-90256565D01*
X120163504Y-90250000D01*
X120143542Y-90060072D01*
X120084527Y-89878444D01*
X119989040Y-89713056D01*
X119936322Y-89654506D01*
X119865675Y-89576045D01*
X119865674Y-89576044D01*
X119861253Y-89571134D01*
X119735619Y-89479855D01*
X119712094Y-89462763D01*
X119712093Y-89462762D01*
X119706752Y-89458882D01*
X119700724Y-89456198D01*
X119700722Y-89456197D01*
X119538319Y-89383891D01*
X119538318Y-89383891D01*
X119532288Y-89381206D01*
X119422478Y-89357865D01*
X119351944Y-89342872D01*
X119351939Y-89342872D01*
X119345487Y-89341500D01*
X119154513Y-89341500D01*
X119148061Y-89342872D01*
X119148056Y-89342872D01*
X119077522Y-89357865D01*
X118967712Y-89381206D01*
X118961682Y-89383891D01*
X118961681Y-89383891D01*
X118799278Y-89456197D01*
X118799276Y-89456198D01*
X118793248Y-89458882D01*
X118787907Y-89462762D01*
X118787906Y-89462763D01*
X118764381Y-89479855D01*
X118638747Y-89571134D01*
X118634326Y-89576044D01*
X118634325Y-89576045D01*
X118563679Y-89654506D01*
X118510960Y-89713056D01*
X118415473Y-89878444D01*
X118356458Y-90060072D01*
X118336496Y-90250000D01*
X78233000Y-90250000D01*
X78233000Y-89732115D01*
X78228525Y-89716876D01*
X78227135Y-89715671D01*
X78219452Y-89714000D01*
X75435116Y-89714000D01*
X75419877Y-89718475D01*
X75418672Y-89719865D01*
X75417001Y-89727548D01*
X75417001Y-90404669D01*
X75417371Y-90411490D01*
X75422895Y-90462352D01*
X75426521Y-90477604D01*
X75471676Y-90598054D01*
X75480214Y-90613649D01*
X75556715Y-90715724D01*
X75569276Y-90728285D01*
X75671351Y-90804786D01*
X75686946Y-90813324D01*
X75746540Y-90835665D01*
X75803304Y-90878307D01*
X75828004Y-90944868D01*
X75812796Y-91014217D01*
X75793404Y-91040698D01*
X75726639Y-91110564D01*
X75723725Y-91114836D01*
X75723724Y-91114837D01*
X75656724Y-91213056D01*
X75596119Y-91301899D01*
X75498602Y-91511981D01*
X75436707Y-91735169D01*
X75412095Y-91965469D01*
X72508000Y-91965469D01*
X72508000Y-89187885D01*
X75417000Y-89187885D01*
X75421475Y-89203124D01*
X75422865Y-89204329D01*
X75430548Y-89206000D01*
X76552885Y-89206000D01*
X76568124Y-89201525D01*
X76569329Y-89200135D01*
X76571000Y-89192452D01*
X76571000Y-89187885D01*
X77079000Y-89187885D01*
X77083475Y-89203124D01*
X77084865Y-89204329D01*
X77092548Y-89206000D01*
X78214884Y-89206000D01*
X78230123Y-89201525D01*
X78252388Y-89175830D01*
X78253730Y-89176993D01*
X78258874Y-89167569D01*
X78321183Y-89133537D01*
X78391999Y-89138593D01*
X78448840Y-89181133D01*
X78457098Y-89193653D01*
X78510960Y-89286944D01*
X78515378Y-89291851D01*
X78515379Y-89291852D01*
X78588194Y-89372721D01*
X78638747Y-89428866D01*
X78793248Y-89541118D01*
X78799276Y-89543802D01*
X78799278Y-89543803D01*
X78913802Y-89594792D01*
X78967712Y-89618794D01*
X79061113Y-89638647D01*
X79148056Y-89657128D01*
X79148061Y-89657128D01*
X79154513Y-89658500D01*
X79345487Y-89658500D01*
X79351939Y-89657128D01*
X79351944Y-89657128D01*
X79438887Y-89638647D01*
X79532288Y-89618794D01*
X79586198Y-89594792D01*
X79700722Y-89543803D01*
X79700724Y-89543802D01*
X79706752Y-89541118D01*
X79861253Y-89428866D01*
X79911806Y-89372721D01*
X79984621Y-89291852D01*
X79984622Y-89291851D01*
X79989040Y-89286944D01*
X80084527Y-89121556D01*
X80143542Y-88939928D01*
X80149859Y-88879831D01*
X80158145Y-88800989D01*
X114086496Y-88800989D01*
X114087186Y-88807554D01*
X114105568Y-88982445D01*
X114106458Y-88990917D01*
X114165473Y-89172545D01*
X114168776Y-89178267D01*
X114168777Y-89178268D01*
X114184788Y-89206000D01*
X114260960Y-89337933D01*
X114265378Y-89342840D01*
X114265379Y-89342841D01*
X114367445Y-89456197D01*
X114388747Y-89479855D01*
X114487741Y-89551779D01*
X114521141Y-89576045D01*
X114543248Y-89592107D01*
X114549276Y-89594791D01*
X114549278Y-89594792D01*
X114711681Y-89667098D01*
X114717712Y-89669783D01*
X114811113Y-89689636D01*
X114898056Y-89708117D01*
X114898061Y-89708117D01*
X114904513Y-89709489D01*
X115095487Y-89709489D01*
X115101939Y-89708117D01*
X115101944Y-89708117D01*
X115188887Y-89689636D01*
X115282288Y-89669783D01*
X115288319Y-89667098D01*
X115450722Y-89594792D01*
X115450724Y-89594791D01*
X115456752Y-89592107D01*
X115478860Y-89576045D01*
X115512259Y-89551779D01*
X115611253Y-89479855D01*
X115632555Y-89456197D01*
X115734621Y-89342841D01*
X115734622Y-89342840D01*
X115739040Y-89337933D01*
X115815212Y-89206000D01*
X115831223Y-89178268D01*
X115831224Y-89178267D01*
X115834527Y-89172545D01*
X115893542Y-88990917D01*
X115894433Y-88982445D01*
X115912814Y-88807554D01*
X115913504Y-88800989D01*
X115898266Y-88656004D01*
X115894232Y-88617624D01*
X115894232Y-88617622D01*
X115893542Y-88611061D01*
X115834527Y-88429433D01*
X115830892Y-88423136D01*
X115742341Y-88269763D01*
X115739040Y-88264045D01*
X115693130Y-88213056D01*
X115615675Y-88127034D01*
X115615674Y-88127033D01*
X115611253Y-88122123D01*
X115456752Y-88009871D01*
X115450724Y-88007187D01*
X115450722Y-88007186D01*
X115288319Y-87934880D01*
X115288318Y-87934880D01*
X115282288Y-87932195D01*
X115167270Y-87907747D01*
X115101944Y-87893861D01*
X115101939Y-87893861D01*
X115095487Y-87892489D01*
X114943467Y-87892489D01*
X114887627Y-87876093D01*
X114842031Y-87905396D01*
X114832729Y-87907747D01*
X114717712Y-87932195D01*
X114711682Y-87934880D01*
X114711681Y-87934880D01*
X114549278Y-88007186D01*
X114549276Y-88007187D01*
X114543248Y-88009871D01*
X114388747Y-88122123D01*
X114384326Y-88127033D01*
X114384325Y-88127034D01*
X114306871Y-88213056D01*
X114260960Y-88264045D01*
X114257659Y-88269763D01*
X114169109Y-88423136D01*
X114165473Y-88429433D01*
X114106458Y-88611061D01*
X114105768Y-88617622D01*
X114105768Y-88617624D01*
X114101734Y-88656004D01*
X114086496Y-88800989D01*
X80158145Y-88800989D01*
X80162814Y-88756565D01*
X80163504Y-88750000D01*
X80156028Y-88678866D01*
X80144232Y-88566635D01*
X80144232Y-88566633D01*
X80143542Y-88560072D01*
X80084527Y-88378444D01*
X79989040Y-88213056D01*
X79981135Y-88204276D01*
X79865675Y-88076045D01*
X79865674Y-88076044D01*
X79861253Y-88071134D01*
X79706752Y-87958882D01*
X79700724Y-87956198D01*
X79700722Y-87956197D01*
X79538319Y-87883891D01*
X79538318Y-87883891D01*
X79532288Y-87881206D01*
X79438888Y-87861353D01*
X79351944Y-87842872D01*
X79351939Y-87842872D01*
X79345487Y-87841500D01*
X79154513Y-87841500D01*
X79148061Y-87842872D01*
X79148056Y-87842872D01*
X79061112Y-87861353D01*
X78967712Y-87881206D01*
X78961682Y-87883891D01*
X78961681Y-87883891D01*
X78799278Y-87956197D01*
X78799276Y-87956198D01*
X78793248Y-87958882D01*
X78638747Y-88071134D01*
X78634326Y-88076044D01*
X78634325Y-88076045D01*
X78518866Y-88204276D01*
X78510960Y-88213056D01*
X78480061Y-88266574D01*
X78417956Y-88374143D01*
X78366573Y-88423136D01*
X78296860Y-88436572D01*
X78230949Y-88410186D01*
X78190855Y-88355372D01*
X78178325Y-88321948D01*
X78169786Y-88306351D01*
X78093285Y-88204276D01*
X78080724Y-88191715D01*
X77978649Y-88115214D01*
X77963054Y-88106676D01*
X77842606Y-88061522D01*
X77827351Y-88057895D01*
X77776486Y-88052369D01*
X77769672Y-88052000D01*
X77097115Y-88052000D01*
X77081876Y-88056475D01*
X77080671Y-88057865D01*
X77079000Y-88065548D01*
X77079000Y-89187885D01*
X76571000Y-89187885D01*
X76571000Y-88070116D01*
X76566525Y-88054877D01*
X76565135Y-88053672D01*
X76557452Y-88052001D01*
X75880331Y-88052001D01*
X75873510Y-88052371D01*
X75822648Y-88057895D01*
X75807396Y-88061521D01*
X75686946Y-88106676D01*
X75671351Y-88115214D01*
X75569276Y-88191715D01*
X75556715Y-88204276D01*
X75480214Y-88306351D01*
X75471676Y-88321946D01*
X75426522Y-88442394D01*
X75422895Y-88457649D01*
X75417369Y-88508514D01*
X75417000Y-88515328D01*
X75417000Y-89187885D01*
X72508000Y-89187885D01*
X72508000Y-86250000D01*
X112086496Y-86250000D01*
X112087186Y-86256565D01*
X112099903Y-86377556D01*
X112106458Y-86439928D01*
X112165473Y-86621556D01*
X112260960Y-86786944D01*
X112265378Y-86791851D01*
X112265379Y-86791852D01*
X112364970Y-86902459D01*
X112388747Y-86928866D01*
X112543248Y-87041118D01*
X112549276Y-87043802D01*
X112549278Y-87043803D01*
X112670704Y-87097865D01*
X112717712Y-87118794D01*
X112811112Y-87138647D01*
X112898056Y-87157128D01*
X112898061Y-87157128D01*
X112904513Y-87158500D01*
X113095487Y-87158500D01*
X113101939Y-87157128D01*
X113101944Y-87157128D01*
X113188888Y-87138647D01*
X113282288Y-87118794D01*
X113329296Y-87097865D01*
X113450722Y-87043803D01*
X113450724Y-87043802D01*
X113456752Y-87041118D01*
X113611253Y-86928866D01*
X113642830Y-86893796D01*
X113703273Y-86856558D01*
X113774257Y-86857909D01*
X113833242Y-86897423D01*
X113854248Y-86940646D01*
X113856458Y-86939928D01*
X113915473Y-87121556D01*
X113918776Y-87127278D01*
X113918777Y-87127279D01*
X113936803Y-87158500D01*
X114010960Y-87286944D01*
X114015378Y-87291851D01*
X114015379Y-87291852D01*
X114062408Y-87344083D01*
X114138747Y-87428866D01*
X114293248Y-87541118D01*
X114299276Y-87543802D01*
X114299278Y-87543803D01*
X114461681Y-87616109D01*
X114467712Y-87618794D01*
X114542680Y-87634729D01*
X114648056Y-87657128D01*
X114648061Y-87657128D01*
X114654513Y-87658500D01*
X114806533Y-87658500D01*
X114862373Y-87674896D01*
X114907969Y-87645593D01*
X114917270Y-87643242D01*
X114924155Y-87641778D01*
X115032288Y-87618794D01*
X115038319Y-87616109D01*
X115200722Y-87543803D01*
X115200724Y-87543802D01*
X115206752Y-87541118D01*
X115361253Y-87428866D01*
X115437592Y-87344083D01*
X115484621Y-87291852D01*
X115484622Y-87291851D01*
X115489040Y-87286944D01*
X115563197Y-87158500D01*
X115581223Y-87127279D01*
X115581224Y-87127278D01*
X115584527Y-87121556D01*
X115643542Y-86939928D01*
X115648010Y-86897423D01*
X115662814Y-86756565D01*
X115663504Y-86750000D01*
X119086496Y-86750000D01*
X119087186Y-86756565D01*
X119101991Y-86897423D01*
X119106458Y-86939928D01*
X119165473Y-87121556D01*
X119168776Y-87127278D01*
X119168777Y-87127279D01*
X119186803Y-87158500D01*
X119260960Y-87286944D01*
X119265378Y-87291851D01*
X119265379Y-87291852D01*
X119312408Y-87344083D01*
X119388747Y-87428866D01*
X119543248Y-87541118D01*
X119549276Y-87543802D01*
X119549278Y-87543803D01*
X119711681Y-87616109D01*
X119717712Y-87618794D01*
X119792680Y-87634729D01*
X119898056Y-87657128D01*
X119898061Y-87657128D01*
X119904513Y-87658500D01*
X120095487Y-87658500D01*
X120101939Y-87657128D01*
X120101944Y-87657128D01*
X120207320Y-87634729D01*
X120282288Y-87618794D01*
X120288319Y-87616109D01*
X120450722Y-87543803D01*
X120450724Y-87543802D01*
X120456752Y-87541118D01*
X120611253Y-87428866D01*
X120687592Y-87344083D01*
X120734621Y-87291852D01*
X120734622Y-87291851D01*
X120739040Y-87286944D01*
X120813197Y-87158500D01*
X120831223Y-87127279D01*
X120831224Y-87127278D01*
X120834527Y-87121556D01*
X120893542Y-86939928D01*
X120898010Y-86897423D01*
X120912814Y-86756565D01*
X120913504Y-86750000D01*
X120893542Y-86560072D01*
X120834527Y-86378444D01*
X120825928Y-86363549D01*
X120764160Y-86256565D01*
X120739040Y-86213056D01*
X120730042Y-86203062D01*
X120615675Y-86076045D01*
X120615674Y-86076044D01*
X120611253Y-86071134D01*
X120506920Y-85995331D01*
X125292373Y-85995331D01*
X125293063Y-86001896D01*
X125305832Y-86123382D01*
X125312335Y-86185259D01*
X125371350Y-86366887D01*
X125466837Y-86532275D01*
X125471255Y-86537182D01*
X125471256Y-86537183D01*
X125497775Y-86566635D01*
X125594624Y-86674197D01*
X125749125Y-86786449D01*
X125755153Y-86789133D01*
X125755155Y-86789134D01*
X125917558Y-86861440D01*
X125923589Y-86864125D01*
X126016990Y-86883978D01*
X126103933Y-86902459D01*
X126103938Y-86902459D01*
X126110390Y-86903831D01*
X126301364Y-86903831D01*
X126307816Y-86902459D01*
X126307821Y-86902459D01*
X126394764Y-86883978D01*
X126488165Y-86864125D01*
X126494196Y-86861440D01*
X126656599Y-86789134D01*
X126656601Y-86789133D01*
X126662629Y-86786449D01*
X126817130Y-86674197D01*
X126898774Y-86583522D01*
X126959220Y-86546282D01*
X127030203Y-86547634D01*
X127089188Y-86587147D01*
X127117446Y-86652278D01*
X127112243Y-86706767D01*
X127106458Y-86724572D01*
X127105768Y-86731133D01*
X127105768Y-86731135D01*
X127099672Y-86789134D01*
X127086496Y-86914500D01*
X127087186Y-86921065D01*
X127090472Y-86952329D01*
X127077700Y-87022168D01*
X127029198Y-87074014D01*
X126965162Y-87091500D01*
X126904513Y-87091500D01*
X126898061Y-87092872D01*
X126898056Y-87092872D01*
X126814175Y-87110702D01*
X126717712Y-87131206D01*
X126711682Y-87133891D01*
X126711681Y-87133891D01*
X126549278Y-87206197D01*
X126549276Y-87206198D01*
X126543248Y-87208882D01*
X126388747Y-87321134D01*
X126384326Y-87326044D01*
X126384325Y-87326045D01*
X126288249Y-87432749D01*
X126260960Y-87463056D01*
X126215891Y-87541118D01*
X126172595Y-87616109D01*
X126165473Y-87628444D01*
X126106458Y-87810072D01*
X126105768Y-87816633D01*
X126105768Y-87816635D01*
X126093340Y-87934880D01*
X126086496Y-88000000D01*
X126087186Y-88006565D01*
X126094489Y-88076045D01*
X126106458Y-88189928D01*
X126165473Y-88371556D01*
X126168776Y-88377278D01*
X126168777Y-88377279D01*
X126170629Y-88380487D01*
X126260960Y-88536944D01*
X126265378Y-88541851D01*
X126265379Y-88541852D01*
X126347132Y-88632648D01*
X126388747Y-88678866D01*
X126543248Y-88791118D01*
X126549279Y-88793803D01*
X126549286Y-88793807D01*
X126549748Y-88794013D01*
X126549972Y-88794203D01*
X126555001Y-88797107D01*
X126554470Y-88798027D01*
X126603841Y-88839997D01*
X126624485Y-88907926D01*
X126618324Y-88948052D01*
X126606458Y-88984572D01*
X126605768Y-88991133D01*
X126605768Y-88991135D01*
X126597768Y-89067251D01*
X126586496Y-89174500D01*
X126587186Y-89181065D01*
X126590033Y-89208148D01*
X126606458Y-89364428D01*
X126665473Y-89546056D01*
X126668776Y-89551778D01*
X126668777Y-89551779D01*
X126673565Y-89560072D01*
X126760960Y-89711444D01*
X126888747Y-89853366D01*
X127043248Y-89965618D01*
X127049276Y-89968302D01*
X127049278Y-89968303D01*
X127211681Y-90040609D01*
X127217712Y-90043294D01*
X127296646Y-90060072D01*
X127398056Y-90081628D01*
X127398061Y-90081628D01*
X127404513Y-90083000D01*
X127595487Y-90083000D01*
X127601939Y-90081628D01*
X127601944Y-90081628D01*
X127703354Y-90060072D01*
X127782288Y-90043294D01*
X127788319Y-90040609D01*
X127950722Y-89968303D01*
X127950724Y-89968302D01*
X127956752Y-89965618D01*
X128111253Y-89853366D01*
X128239040Y-89711444D01*
X128326435Y-89560072D01*
X128331223Y-89551779D01*
X128331224Y-89551778D01*
X128334527Y-89546056D01*
X128393542Y-89364428D01*
X128409968Y-89208148D01*
X128412814Y-89181065D01*
X128413504Y-89174500D01*
X128402232Y-89067251D01*
X128394232Y-88991135D01*
X128394232Y-88991133D01*
X128393542Y-88984572D01*
X128334527Y-88802944D01*
X128329481Y-88794203D01*
X128260055Y-88673955D01*
X128239040Y-88637556D01*
X128167002Y-88557549D01*
X128115675Y-88500545D01*
X128115674Y-88500544D01*
X128111253Y-88495634D01*
X127956752Y-88383382D01*
X127950719Y-88380696D01*
X127950714Y-88380693D01*
X127950252Y-88380487D01*
X127950028Y-88380297D01*
X127944999Y-88377393D01*
X127945530Y-88376473D01*
X127896159Y-88334503D01*
X127875515Y-88266574D01*
X127881676Y-88226448D01*
X127891502Y-88196206D01*
X127893542Y-88189928D01*
X127905512Y-88076045D01*
X127912814Y-88006565D01*
X127913504Y-88000000D01*
X129836496Y-88000000D01*
X129837186Y-88006565D01*
X129844489Y-88076045D01*
X129856458Y-88189928D01*
X129915473Y-88371556D01*
X129918776Y-88377278D01*
X129918777Y-88377279D01*
X129920629Y-88380487D01*
X130010960Y-88536944D01*
X130015378Y-88541851D01*
X130015379Y-88541852D01*
X130097132Y-88632648D01*
X130138747Y-88678866D01*
X130293248Y-88791118D01*
X130299276Y-88793802D01*
X130299278Y-88793803D01*
X130406408Y-88841500D01*
X130467712Y-88868794D01*
X130474167Y-88870166D01*
X130474176Y-88870169D01*
X130550724Y-88886440D01*
X130613197Y-88920168D01*
X130647518Y-88982318D01*
X130642790Y-89053157D01*
X130618162Y-89093996D01*
X130521343Y-89201525D01*
X130510960Y-89213056D01*
X130507659Y-89218774D01*
X130419941Y-89370706D01*
X130415473Y-89378444D01*
X130356458Y-89560072D01*
X130355768Y-89566633D01*
X130355768Y-89566635D01*
X130339977Y-89716876D01*
X130336496Y-89750000D01*
X130337186Y-89756565D01*
X130353167Y-89908612D01*
X130356458Y-89939928D01*
X130415473Y-90121556D01*
X130418776Y-90127278D01*
X130418777Y-90127279D01*
X130449825Y-90181055D01*
X130510960Y-90286944D01*
X130515378Y-90291851D01*
X130515379Y-90291852D01*
X130634325Y-90423955D01*
X130638747Y-90428866D01*
X130793248Y-90541118D01*
X130799276Y-90543802D01*
X130799278Y-90543803D01*
X130921129Y-90598054D01*
X130967712Y-90618794D01*
X131061113Y-90638647D01*
X131148056Y-90657128D01*
X131148061Y-90657128D01*
X131154513Y-90658500D01*
X131345487Y-90658500D01*
X131351939Y-90657128D01*
X131351944Y-90657128D01*
X131438887Y-90638647D01*
X131532288Y-90618794D01*
X131578871Y-90598054D01*
X131700722Y-90543803D01*
X131700724Y-90543802D01*
X131706752Y-90541118D01*
X131861181Y-90428918D01*
X147486917Y-90428918D01*
X147502682Y-90702320D01*
X147503507Y-90706525D01*
X147503508Y-90706533D01*
X147519284Y-90786944D01*
X147555405Y-90971053D01*
X147556792Y-90975103D01*
X147556793Y-90975108D01*
X147642723Y-91226088D01*
X147644112Y-91230144D01*
X147767160Y-91474799D01*
X147769586Y-91478328D01*
X147769589Y-91478334D01*
X147877077Y-91634729D01*
X147922274Y-91700490D01*
X147925161Y-91703663D01*
X147925162Y-91703664D01*
X147949305Y-91730197D01*
X148106582Y-91903043D01*
X148316675Y-92078707D01*
X148320316Y-92080991D01*
X148545024Y-92221951D01*
X148545028Y-92221953D01*
X148548664Y-92224234D01*
X148616544Y-92254883D01*
X148794345Y-92335164D01*
X148794349Y-92335166D01*
X148798257Y-92336930D01*
X148802377Y-92338150D01*
X148802376Y-92338150D01*
X149056723Y-92413491D01*
X149056727Y-92413492D01*
X149060836Y-92414709D01*
X149065070Y-92415357D01*
X149065075Y-92415358D01*
X149327298Y-92455483D01*
X149327300Y-92455483D01*
X149331540Y-92456132D01*
X149470912Y-92458322D01*
X149601071Y-92460367D01*
X149601077Y-92460367D01*
X149605362Y-92460434D01*
X149877235Y-92427534D01*
X150142127Y-92358041D01*
X150146087Y-92356401D01*
X150146092Y-92356399D01*
X150273518Y-92303617D01*
X150395136Y-92253241D01*
X150631582Y-92115073D01*
X150847089Y-91946094D01*
X150853065Y-91939928D01*
X150978904Y-91810072D01*
X151037669Y-91749431D01*
X151040202Y-91745983D01*
X151040206Y-91745978D01*
X151197257Y-91532178D01*
X151199795Y-91528723D01*
X151330468Y-91288054D01*
X151390326Y-91129644D01*
X151425751Y-91035895D01*
X151425752Y-91035891D01*
X151427269Y-91031877D01*
X151470871Y-90841500D01*
X151487449Y-90769117D01*
X151487450Y-90769113D01*
X151488407Y-90764933D01*
X151493232Y-90710876D01*
X151512531Y-90494627D01*
X151512531Y-90494625D01*
X151512751Y-90492161D01*
X151513193Y-90450000D01*
X151512934Y-90446204D01*
X151494859Y-90181055D01*
X151494858Y-90181049D01*
X151494567Y-90176778D01*
X151439032Y-89908612D01*
X151347617Y-89650465D01*
X151291179Y-89541118D01*
X151223978Y-89410919D01*
X151223978Y-89410918D01*
X151222013Y-89407112D01*
X151212040Y-89392921D01*
X151089647Y-89218774D01*
X151064545Y-89183057D01*
X150994466Y-89107643D01*
X150881046Y-88985588D01*
X150881043Y-88985585D01*
X150878125Y-88982445D01*
X150874810Y-88979731D01*
X150874806Y-88979728D01*
X150705924Y-88841500D01*
X150666205Y-88808990D01*
X150432704Y-88665901D01*
X150428768Y-88664173D01*
X150185873Y-88557549D01*
X150185869Y-88557548D01*
X150181945Y-88555825D01*
X149918566Y-88480800D01*
X149914324Y-88480196D01*
X149914318Y-88480195D01*
X149713834Y-88451662D01*
X149647443Y-88442213D01*
X149503589Y-88441460D01*
X149377877Y-88440802D01*
X149377871Y-88440802D01*
X149373591Y-88440780D01*
X149369347Y-88441339D01*
X149369343Y-88441339D01*
X149250302Y-88457011D01*
X149102078Y-88476525D01*
X149097938Y-88477658D01*
X149097936Y-88477658D01*
X149046421Y-88491751D01*
X148837928Y-88548788D01*
X148833980Y-88550472D01*
X148589982Y-88654546D01*
X148589978Y-88654548D01*
X148586030Y-88656232D01*
X148541723Y-88682749D01*
X148354725Y-88794664D01*
X148354721Y-88794667D01*
X148351043Y-88796868D01*
X148137318Y-88968094D01*
X147948808Y-89166742D01*
X147789002Y-89389136D01*
X147660857Y-89631161D01*
X147659385Y-89635184D01*
X147659383Y-89635188D01*
X147614965Y-89756565D01*
X147566743Y-89888337D01*
X147508404Y-90155907D01*
X147486917Y-90428918D01*
X131861181Y-90428918D01*
X131861253Y-90428866D01*
X131865675Y-90423955D01*
X131984621Y-90291852D01*
X131984622Y-90291851D01*
X131989040Y-90286944D01*
X132050175Y-90181055D01*
X132081223Y-90127279D01*
X132081224Y-90127278D01*
X132084527Y-90121556D01*
X132143542Y-89939928D01*
X132146834Y-89908612D01*
X132162814Y-89756565D01*
X132163504Y-89750000D01*
X132160023Y-89716876D01*
X132144232Y-89566635D01*
X132144232Y-89566633D01*
X132143542Y-89560072D01*
X132084527Y-89378444D01*
X132080060Y-89370706D01*
X131992341Y-89218774D01*
X131989040Y-89213056D01*
X131978658Y-89201525D01*
X131865675Y-89076045D01*
X131865674Y-89076044D01*
X131861253Y-89071134D01*
X131706752Y-88958882D01*
X131700724Y-88956198D01*
X131700722Y-88956197D01*
X131538319Y-88883891D01*
X131538318Y-88883891D01*
X131532288Y-88881206D01*
X131525833Y-88879834D01*
X131525824Y-88879831D01*
X131449276Y-88863560D01*
X131386803Y-88829832D01*
X131352482Y-88767682D01*
X131357210Y-88696843D01*
X131381838Y-88656004D01*
X131484621Y-88541852D01*
X131484622Y-88541851D01*
X131489040Y-88536944D01*
X131579371Y-88380487D01*
X131581223Y-88377279D01*
X131581224Y-88377278D01*
X131584527Y-88371556D01*
X131643542Y-88189928D01*
X131655512Y-88076045D01*
X131662814Y-88006565D01*
X131663504Y-88000000D01*
X131656660Y-87934880D01*
X131644232Y-87816635D01*
X131644232Y-87816633D01*
X131643542Y-87810072D01*
X131638718Y-87795225D01*
X131636690Y-87724260D01*
X131673352Y-87663462D01*
X131737063Y-87632136D01*
X131784748Y-87633043D01*
X131898056Y-87657128D01*
X131898061Y-87657128D01*
X131904513Y-87658500D01*
X132095487Y-87658500D01*
X132101939Y-87657128D01*
X132101944Y-87657128D01*
X132207320Y-87634729D01*
X132282288Y-87618794D01*
X132288319Y-87616109D01*
X132450722Y-87543803D01*
X132450724Y-87543802D01*
X132456752Y-87541118D01*
X132611253Y-87428866D01*
X132687592Y-87344083D01*
X132734621Y-87291852D01*
X132734622Y-87291851D01*
X132739040Y-87286944D01*
X132813197Y-87158500D01*
X132831223Y-87127279D01*
X132831224Y-87127278D01*
X132834527Y-87121556D01*
X132893542Y-86939928D01*
X132898010Y-86897423D01*
X132912814Y-86756565D01*
X132913504Y-86750000D01*
X132893542Y-86560072D01*
X132834527Y-86378444D01*
X132825928Y-86363549D01*
X132764160Y-86256565D01*
X132739040Y-86213056D01*
X132730042Y-86203062D01*
X132615675Y-86076045D01*
X132615674Y-86076044D01*
X132611253Y-86071134D01*
X132456752Y-85958882D01*
X132450724Y-85956198D01*
X132450722Y-85956197D01*
X132288319Y-85883891D01*
X132288318Y-85883891D01*
X132282288Y-85881206D01*
X132160712Y-85855364D01*
X132101944Y-85842872D01*
X132101939Y-85842872D01*
X132095487Y-85841500D01*
X131904513Y-85841500D01*
X131898061Y-85842872D01*
X131898056Y-85842872D01*
X131839288Y-85855364D01*
X131717712Y-85881206D01*
X131711682Y-85883891D01*
X131711681Y-85883891D01*
X131549278Y-85956197D01*
X131549276Y-85956198D01*
X131543248Y-85958882D01*
X131537907Y-85962762D01*
X131537906Y-85962763D01*
X131428850Y-86041997D01*
X131361982Y-86065856D01*
X131303543Y-86055169D01*
X131282288Y-86045706D01*
X131240660Y-86036858D01*
X131101944Y-86007372D01*
X131101939Y-86007372D01*
X131095487Y-86006000D01*
X130904513Y-86006000D01*
X130898061Y-86007372D01*
X130898056Y-86007372D01*
X130811113Y-86025853D01*
X130717712Y-86045706D01*
X130711682Y-86048391D01*
X130711681Y-86048391D01*
X130549278Y-86120697D01*
X130549276Y-86120698D01*
X130543248Y-86123382D01*
X130388747Y-86235634D01*
X130260960Y-86377556D01*
X130165473Y-86542944D01*
X130106458Y-86724572D01*
X130105768Y-86731133D01*
X130105768Y-86731135D01*
X130099672Y-86789134D01*
X130086496Y-86914500D01*
X130106458Y-87104428D01*
X130144282Y-87220838D01*
X130146310Y-87291803D01*
X130118087Y-87344079D01*
X130010960Y-87463056D01*
X129965891Y-87541118D01*
X129922595Y-87616109D01*
X129915473Y-87628444D01*
X129856458Y-87810072D01*
X129855768Y-87816633D01*
X129855768Y-87816635D01*
X129843340Y-87934880D01*
X129836496Y-88000000D01*
X127913504Y-88000000D01*
X127909528Y-87962171D01*
X127922300Y-87892332D01*
X127970802Y-87840486D01*
X128034838Y-87823000D01*
X128095487Y-87823000D01*
X128101939Y-87821628D01*
X128101944Y-87821628D01*
X128188887Y-87803147D01*
X128282288Y-87783294D01*
X128288319Y-87780609D01*
X128450722Y-87708303D01*
X128450724Y-87708302D01*
X128456752Y-87705618D01*
X128611253Y-87593366D01*
X128739040Y-87451444D01*
X128834527Y-87286056D01*
X128893542Y-87104428D01*
X128913504Y-86914500D01*
X128900328Y-86789134D01*
X128894232Y-86731135D01*
X128894232Y-86731133D01*
X128893542Y-86724572D01*
X128834527Y-86542944D01*
X128739040Y-86377556D01*
X128611253Y-86235634D01*
X128456752Y-86123382D01*
X128450724Y-86120698D01*
X128450722Y-86120697D01*
X128288319Y-86048391D01*
X128288318Y-86048391D01*
X128282288Y-86045706D01*
X128188887Y-86025853D01*
X128101944Y-86007372D01*
X128101939Y-86007372D01*
X128095487Y-86006000D01*
X127904513Y-86006000D01*
X127898061Y-86007372D01*
X127898056Y-86007372D01*
X127811113Y-86025853D01*
X127717712Y-86045706D01*
X127711682Y-86048391D01*
X127711681Y-86048391D01*
X127549278Y-86120697D01*
X127549276Y-86120698D01*
X127543248Y-86123382D01*
X127388747Y-86235634D01*
X127384326Y-86240544D01*
X127384325Y-86240545D01*
X127307103Y-86326309D01*
X127246657Y-86363549D01*
X127175674Y-86362197D01*
X127116689Y-86322684D01*
X127088431Y-86257553D01*
X127093634Y-86203062D01*
X127097380Y-86191533D01*
X127099419Y-86185259D01*
X127105923Y-86123382D01*
X127118691Y-86001896D01*
X127119381Y-85995331D01*
X127109609Y-85902355D01*
X127100109Y-85811966D01*
X127100109Y-85811964D01*
X127099419Y-85805403D01*
X127040404Y-85623775D01*
X126944917Y-85458387D01*
X126817130Y-85316465D01*
X126662629Y-85204213D01*
X126656601Y-85201529D01*
X126656599Y-85201528D01*
X126494196Y-85129222D01*
X126494195Y-85129222D01*
X126488165Y-85126537D01*
X126394765Y-85106684D01*
X126307821Y-85088203D01*
X126307816Y-85088203D01*
X126301364Y-85086831D01*
X126110390Y-85086831D01*
X126103938Y-85088203D01*
X126103933Y-85088203D01*
X126016989Y-85106684D01*
X125923589Y-85126537D01*
X125917559Y-85129222D01*
X125917558Y-85129222D01*
X125755155Y-85201528D01*
X125755153Y-85201529D01*
X125749125Y-85204213D01*
X125594624Y-85316465D01*
X125466837Y-85458387D01*
X125371350Y-85623775D01*
X125312335Y-85805403D01*
X125311645Y-85811964D01*
X125311645Y-85811966D01*
X125302145Y-85902355D01*
X125292373Y-85995331D01*
X120506920Y-85995331D01*
X120456752Y-85958882D01*
X120450724Y-85956198D01*
X120450722Y-85956197D01*
X120288319Y-85883891D01*
X120288318Y-85883891D01*
X120282288Y-85881206D01*
X120160712Y-85855364D01*
X120101944Y-85842872D01*
X120101939Y-85842872D01*
X120095487Y-85841500D01*
X119904513Y-85841500D01*
X119898061Y-85842872D01*
X119898056Y-85842872D01*
X119839288Y-85855364D01*
X119717712Y-85881206D01*
X119711682Y-85883891D01*
X119711681Y-85883891D01*
X119549278Y-85956197D01*
X119549276Y-85956198D01*
X119543248Y-85958882D01*
X119388747Y-86071134D01*
X119384326Y-86076044D01*
X119384325Y-86076045D01*
X119269959Y-86203062D01*
X119260960Y-86213056D01*
X119235840Y-86256565D01*
X119174073Y-86363549D01*
X119165473Y-86378444D01*
X119106458Y-86560072D01*
X119086496Y-86750000D01*
X115663504Y-86750000D01*
X115643542Y-86560072D01*
X115584527Y-86378444D01*
X115575928Y-86363549D01*
X115514160Y-86256565D01*
X115489040Y-86213056D01*
X115480042Y-86203062D01*
X115365675Y-86076045D01*
X115365674Y-86076044D01*
X115361253Y-86071134D01*
X115206752Y-85958882D01*
X115200724Y-85956198D01*
X115200722Y-85956197D01*
X115038319Y-85883891D01*
X115038318Y-85883891D01*
X115032288Y-85881206D01*
X114910712Y-85855364D01*
X114851944Y-85842872D01*
X114851939Y-85842872D01*
X114845487Y-85841500D01*
X114654513Y-85841500D01*
X114648061Y-85842872D01*
X114648056Y-85842872D01*
X114589288Y-85855364D01*
X114467712Y-85881206D01*
X114461682Y-85883891D01*
X114461681Y-85883891D01*
X114299278Y-85956197D01*
X114299276Y-85956198D01*
X114293248Y-85958882D01*
X114138747Y-86071134D01*
X114107170Y-86106204D01*
X114046727Y-86143442D01*
X113975743Y-86142091D01*
X113916758Y-86102577D01*
X113895752Y-86059354D01*
X113893542Y-86060072D01*
X113859791Y-85956197D01*
X113834527Y-85878444D01*
X113827406Y-85866109D01*
X113784109Y-85791118D01*
X113739040Y-85713056D01*
X113711752Y-85682749D01*
X113615675Y-85576045D01*
X113615674Y-85576044D01*
X113611253Y-85571134D01*
X113456752Y-85458882D01*
X113450724Y-85456198D01*
X113450722Y-85456197D01*
X113288319Y-85383891D01*
X113288318Y-85383891D01*
X113282288Y-85381206D01*
X113188887Y-85361353D01*
X113101944Y-85342872D01*
X113101939Y-85342872D01*
X113095487Y-85341500D01*
X112904513Y-85341500D01*
X112898061Y-85342872D01*
X112898056Y-85342872D01*
X112811113Y-85361353D01*
X112717712Y-85381206D01*
X112711682Y-85383891D01*
X112711681Y-85383891D01*
X112549278Y-85456197D01*
X112549276Y-85456198D01*
X112543248Y-85458882D01*
X112388747Y-85571134D01*
X112384326Y-85576044D01*
X112384325Y-85576045D01*
X112288249Y-85682749D01*
X112260960Y-85713056D01*
X112215891Y-85791118D01*
X112172595Y-85866109D01*
X112165473Y-85878444D01*
X112106458Y-86060072D01*
X112105768Y-86066633D01*
X112105768Y-86066635D01*
X112093990Y-86178696D01*
X112086496Y-86250000D01*
X72508000Y-86250000D01*
X72508000Y-84465469D01*
X75412095Y-84465469D01*
X75412392Y-84470622D01*
X75412392Y-84470625D01*
X75418067Y-84569041D01*
X75425427Y-84696697D01*
X75426564Y-84701743D01*
X75426565Y-84701749D01*
X75449562Y-84803794D01*
X75476346Y-84922642D01*
X75478288Y-84927424D01*
X75478289Y-84927428D01*
X75543016Y-85086831D01*
X75563484Y-85137237D01*
X75684501Y-85334719D01*
X75836147Y-85509784D01*
X76014349Y-85657730D01*
X76214322Y-85774584D01*
X76430694Y-85857209D01*
X76435760Y-85858240D01*
X76435761Y-85858240D01*
X76474439Y-85866109D01*
X76657656Y-85903385D01*
X76788324Y-85908176D01*
X76883949Y-85911683D01*
X76883953Y-85911683D01*
X76889113Y-85911872D01*
X76894233Y-85911216D01*
X76894235Y-85911216D01*
X76967270Y-85901860D01*
X77118847Y-85882442D01*
X77123795Y-85880957D01*
X77123802Y-85880956D01*
X77335747Y-85817369D01*
X77340690Y-85815886D01*
X77374904Y-85799125D01*
X77544049Y-85716262D01*
X77544052Y-85716260D01*
X77548684Y-85713991D01*
X77737243Y-85579494D01*
X77901303Y-85416005D01*
X78036458Y-85227917D01*
X78052131Y-85196206D01*
X78136784Y-85024922D01*
X78136785Y-85024920D01*
X78139078Y-85020280D01*
X78145240Y-85000000D01*
X83336496Y-85000000D01*
X83337186Y-85006565D01*
X83350078Y-85129222D01*
X83356458Y-85189928D01*
X83415473Y-85371556D01*
X83418776Y-85377278D01*
X83418777Y-85377279D01*
X83441136Y-85416005D01*
X83510960Y-85536944D01*
X83515378Y-85541851D01*
X83515379Y-85541852D01*
X83583990Y-85618052D01*
X83638747Y-85678866D01*
X83737843Y-85750864D01*
X83773028Y-85776427D01*
X83793248Y-85791118D01*
X83799276Y-85793802D01*
X83799278Y-85793803D01*
X83944007Y-85858240D01*
X83967712Y-85868794D01*
X84042680Y-85884729D01*
X84148056Y-85907128D01*
X84148061Y-85907128D01*
X84154513Y-85908500D01*
X84345487Y-85908500D01*
X84351939Y-85907128D01*
X84351944Y-85907128D01*
X84457320Y-85884729D01*
X84532288Y-85868794D01*
X84555993Y-85858240D01*
X84700722Y-85793803D01*
X84700724Y-85793802D01*
X84706752Y-85791118D01*
X84726973Y-85776427D01*
X84762157Y-85750864D01*
X84861253Y-85678866D01*
X84916010Y-85618052D01*
X84984621Y-85541852D01*
X84984622Y-85541851D01*
X84989040Y-85536944D01*
X85058864Y-85416005D01*
X85081223Y-85377279D01*
X85081224Y-85377278D01*
X85084527Y-85371556D01*
X85143542Y-85189928D01*
X85149923Y-85129222D01*
X85162814Y-85006565D01*
X85163504Y-85000000D01*
X85162814Y-84993435D01*
X85144232Y-84816635D01*
X85144232Y-84816633D01*
X85143542Y-84810072D01*
X85084527Y-84628444D01*
X84989040Y-84463056D01*
X84984525Y-84458041D01*
X84865675Y-84326045D01*
X84865674Y-84326044D01*
X84861253Y-84321134D01*
X84742933Y-84235169D01*
X84712094Y-84212763D01*
X84712093Y-84212762D01*
X84706752Y-84208882D01*
X84700724Y-84206198D01*
X84700722Y-84206197D01*
X84538319Y-84133891D01*
X84538318Y-84133891D01*
X84532288Y-84131206D01*
X84438888Y-84111353D01*
X84351944Y-84092872D01*
X84351939Y-84092872D01*
X84345487Y-84091500D01*
X84154513Y-84091500D01*
X84148061Y-84092872D01*
X84148056Y-84092872D01*
X84061112Y-84111353D01*
X83967712Y-84131206D01*
X83961682Y-84133891D01*
X83961681Y-84133891D01*
X83799278Y-84206197D01*
X83799276Y-84206198D01*
X83793248Y-84208882D01*
X83787907Y-84212762D01*
X83787906Y-84212763D01*
X83757067Y-84235169D01*
X83638747Y-84321134D01*
X83634326Y-84326044D01*
X83634325Y-84326045D01*
X83515476Y-84458041D01*
X83510960Y-84463056D01*
X83415473Y-84628444D01*
X83356458Y-84810072D01*
X83355768Y-84816633D01*
X83355768Y-84816635D01*
X83337186Y-84993435D01*
X83336496Y-85000000D01*
X78145240Y-85000000D01*
X78206408Y-84798671D01*
X78236640Y-84569041D01*
X78236954Y-84556199D01*
X78238245Y-84503365D01*
X78238245Y-84503361D01*
X78238327Y-84500000D01*
X78232032Y-84423434D01*
X78219773Y-84274318D01*
X78219772Y-84274312D01*
X78219349Y-84269167D01*
X78162925Y-84044533D01*
X78159753Y-84037237D01*
X78143562Y-84000000D01*
X94086496Y-84000000D01*
X94087186Y-84006565D01*
X94105519Y-84180991D01*
X94106458Y-84189928D01*
X94165473Y-84371556D01*
X94260960Y-84536944D01*
X94265378Y-84541851D01*
X94265379Y-84541852D01*
X94278237Y-84556132D01*
X94388747Y-84678866D01*
X94543248Y-84791118D01*
X94549276Y-84793802D01*
X94549278Y-84793803D01*
X94600560Y-84816635D01*
X94717712Y-84868794D01*
X94811112Y-84888647D01*
X94898056Y-84907128D01*
X94898061Y-84907128D01*
X94904513Y-84908500D01*
X95095487Y-84908500D01*
X95101939Y-84907128D01*
X95101944Y-84907128D01*
X95188888Y-84888647D01*
X95282288Y-84868794D01*
X95399440Y-84816635D01*
X95450722Y-84793803D01*
X95450724Y-84793802D01*
X95456752Y-84791118D01*
X95611253Y-84678866D01*
X95721763Y-84556132D01*
X95734621Y-84541852D01*
X95734622Y-84541851D01*
X95739040Y-84536944D01*
X95834527Y-84371556D01*
X95893542Y-84189928D01*
X95894482Y-84180991D01*
X95912814Y-84006565D01*
X95913504Y-84000000D01*
X95905512Y-83923960D01*
X95894232Y-83816635D01*
X95894232Y-83816633D01*
X95893542Y-83810072D01*
X95834527Y-83628444D01*
X95822047Y-83606827D01*
X95784533Y-83541852D01*
X95739040Y-83463056D01*
X95722664Y-83444868D01*
X95615675Y-83326045D01*
X95615674Y-83326044D01*
X95611253Y-83321134D01*
X95513346Y-83250000D01*
X111336496Y-83250000D01*
X111337186Y-83256565D01*
X111350584Y-83384036D01*
X111356458Y-83439928D01*
X111415473Y-83621556D01*
X111418776Y-83627278D01*
X111418777Y-83627279D01*
X111445726Y-83673955D01*
X111510960Y-83786944D01*
X111515378Y-83791851D01*
X111515379Y-83791852D01*
X111555912Y-83836868D01*
X111638747Y-83928866D01*
X111727618Y-83993435D01*
X111753145Y-84011981D01*
X111793248Y-84041118D01*
X111799276Y-84043802D01*
X111799278Y-84043803D01*
X111812173Y-84049544D01*
X111967712Y-84118794D01*
X112061112Y-84138647D01*
X112148056Y-84157128D01*
X112148061Y-84157128D01*
X112154513Y-84158500D01*
X112345487Y-84158500D01*
X112351939Y-84157128D01*
X112351944Y-84157128D01*
X112438888Y-84138647D01*
X112532288Y-84118794D01*
X112687827Y-84049544D01*
X112700722Y-84043803D01*
X112700724Y-84043802D01*
X112706752Y-84041118D01*
X112746856Y-84011981D01*
X112772382Y-83993435D01*
X112861253Y-83928866D01*
X112944088Y-83836868D01*
X112984621Y-83791852D01*
X112984622Y-83791851D01*
X112989040Y-83786944D01*
X113054274Y-83673955D01*
X113081223Y-83627279D01*
X113081224Y-83627278D01*
X113084527Y-83621556D01*
X113143542Y-83439928D01*
X113149417Y-83384036D01*
X113162814Y-83256565D01*
X113163504Y-83250000D01*
X113161222Y-83228285D01*
X113144232Y-83066635D01*
X113144232Y-83066633D01*
X113143542Y-83060072D01*
X113124023Y-83000000D01*
X117836496Y-83000000D01*
X117837186Y-83006565D01*
X117849650Y-83125150D01*
X117856458Y-83189928D01*
X117915473Y-83371556D01*
X118010960Y-83536944D01*
X118015378Y-83541851D01*
X118015379Y-83541852D01*
X118098204Y-83633838D01*
X118138747Y-83678866D01*
X118293248Y-83791118D01*
X118299276Y-83793802D01*
X118299278Y-83793803D01*
X118431135Y-83852509D01*
X118467712Y-83868794D01*
X118561113Y-83888647D01*
X118648056Y-83907128D01*
X118648061Y-83907128D01*
X118654513Y-83908500D01*
X118845487Y-83908500D01*
X118851939Y-83907128D01*
X118851944Y-83907128D01*
X118938887Y-83888647D01*
X119032288Y-83868794D01*
X119164502Y-83809929D01*
X119234868Y-83800495D01*
X119299165Y-83830601D01*
X119309373Y-83840712D01*
X119388747Y-83928866D01*
X119477618Y-83993435D01*
X119503145Y-84011981D01*
X119543248Y-84041118D01*
X119549276Y-84043802D01*
X119549278Y-84043803D01*
X119562173Y-84049544D01*
X119717712Y-84118794D01*
X119811112Y-84138647D01*
X119898056Y-84157128D01*
X119898061Y-84157128D01*
X119904513Y-84158500D01*
X120095487Y-84158500D01*
X120101939Y-84157128D01*
X120101944Y-84157128D01*
X120188888Y-84138647D01*
X120282288Y-84118794D01*
X120437827Y-84049544D01*
X120450722Y-84043803D01*
X120450724Y-84043802D01*
X120456752Y-84041118D01*
X120496856Y-84011981D01*
X120522382Y-83993435D01*
X120611253Y-83928866D01*
X120694088Y-83836868D01*
X120734621Y-83791852D01*
X120734622Y-83791851D01*
X120739040Y-83786944D01*
X120804274Y-83673955D01*
X120831223Y-83627279D01*
X120831224Y-83627278D01*
X120834527Y-83621556D01*
X120893542Y-83439928D01*
X120899417Y-83384036D01*
X120912814Y-83256565D01*
X120913504Y-83250000D01*
X122586496Y-83250000D01*
X122587186Y-83256565D01*
X122600584Y-83384036D01*
X122606458Y-83439928D01*
X122665473Y-83621556D01*
X122668776Y-83627278D01*
X122668777Y-83627279D01*
X122695726Y-83673955D01*
X122760960Y-83786944D01*
X122765378Y-83791851D01*
X122765379Y-83791852D01*
X122805912Y-83836868D01*
X122888747Y-83928866D01*
X122977618Y-83993435D01*
X123003145Y-84011981D01*
X123043248Y-84041118D01*
X123049276Y-84043802D01*
X123049278Y-84043803D01*
X123062173Y-84049544D01*
X123217712Y-84118794D01*
X123311112Y-84138647D01*
X123398056Y-84157128D01*
X123398061Y-84157128D01*
X123404513Y-84158500D01*
X123595487Y-84158500D01*
X123601939Y-84157128D01*
X123601944Y-84157128D01*
X123688888Y-84138647D01*
X123782288Y-84118794D01*
X123937827Y-84049544D01*
X123950722Y-84043803D01*
X123950724Y-84043802D01*
X123956752Y-84041118D01*
X123996856Y-84011981D01*
X124022382Y-83993435D01*
X124111253Y-83928866D01*
X124194088Y-83836868D01*
X124234621Y-83791852D01*
X124234622Y-83791851D01*
X124239040Y-83786944D01*
X124304274Y-83673955D01*
X124331223Y-83627279D01*
X124331224Y-83627278D01*
X124334527Y-83621556D01*
X124393542Y-83439928D01*
X124399417Y-83384036D01*
X124412814Y-83256565D01*
X124413504Y-83250000D01*
X124411222Y-83228285D01*
X124394232Y-83066635D01*
X124394232Y-83066633D01*
X124393542Y-83060072D01*
X124334527Y-82878444D01*
X124326727Y-82864933D01*
X124288101Y-82798032D01*
X124239040Y-82713056D01*
X124218216Y-82689928D01*
X124115675Y-82576045D01*
X124115674Y-82576044D01*
X124111253Y-82571134D01*
X123956752Y-82458882D01*
X123950724Y-82456198D01*
X123950722Y-82456197D01*
X123788319Y-82383891D01*
X123788318Y-82383891D01*
X123782288Y-82381206D01*
X123688888Y-82361353D01*
X123601944Y-82342872D01*
X123601939Y-82342872D01*
X123595487Y-82341500D01*
X123404513Y-82341500D01*
X123398061Y-82342872D01*
X123398056Y-82342872D01*
X123311112Y-82361353D01*
X123217712Y-82381206D01*
X123211682Y-82383891D01*
X123211681Y-82383891D01*
X123049278Y-82456197D01*
X123049276Y-82456198D01*
X123043248Y-82458882D01*
X122888747Y-82571134D01*
X122884326Y-82576044D01*
X122884325Y-82576045D01*
X122781785Y-82689928D01*
X122760960Y-82713056D01*
X122711899Y-82798032D01*
X122673274Y-82864933D01*
X122665473Y-82878444D01*
X122606458Y-83060072D01*
X122605768Y-83066633D01*
X122605768Y-83066635D01*
X122588778Y-83228285D01*
X122586496Y-83250000D01*
X120913504Y-83250000D01*
X120911222Y-83228285D01*
X120894232Y-83066635D01*
X120894232Y-83066633D01*
X120893542Y-83060072D01*
X120834527Y-82878444D01*
X120826727Y-82864933D01*
X120788101Y-82798032D01*
X120739040Y-82713056D01*
X120718216Y-82689928D01*
X120615675Y-82576045D01*
X120615674Y-82576044D01*
X120611253Y-82571134D01*
X120456752Y-82458882D01*
X120450724Y-82456198D01*
X120450722Y-82456197D01*
X120288319Y-82383891D01*
X120288318Y-82383891D01*
X120282288Y-82381206D01*
X120188888Y-82361353D01*
X120101944Y-82342872D01*
X120101939Y-82342872D01*
X120095487Y-82341500D01*
X119904513Y-82341500D01*
X119898061Y-82342872D01*
X119898056Y-82342872D01*
X119811112Y-82361353D01*
X119717712Y-82381206D01*
X119585498Y-82440071D01*
X119515132Y-82449505D01*
X119450835Y-82419399D01*
X119440627Y-82409288D01*
X119361253Y-82321134D01*
X119238729Y-82232115D01*
X119212094Y-82212763D01*
X119212093Y-82212762D01*
X119206752Y-82208882D01*
X119200724Y-82206198D01*
X119200722Y-82206197D01*
X119038319Y-82133891D01*
X119038318Y-82133891D01*
X119032288Y-82131206D01*
X118938888Y-82111353D01*
X118851944Y-82092872D01*
X118851939Y-82092872D01*
X118845487Y-82091500D01*
X118654513Y-82091500D01*
X118648061Y-82092872D01*
X118648056Y-82092872D01*
X118561112Y-82111353D01*
X118467712Y-82131206D01*
X118461682Y-82133891D01*
X118461681Y-82133891D01*
X118299278Y-82206197D01*
X118299276Y-82206198D01*
X118293248Y-82208882D01*
X118287907Y-82212762D01*
X118287906Y-82212763D01*
X118261271Y-82232115D01*
X118138747Y-82321134D01*
X118134326Y-82326044D01*
X118134325Y-82326045D01*
X118038249Y-82432749D01*
X118010960Y-82463056D01*
X117965891Y-82541118D01*
X117922595Y-82616109D01*
X117915473Y-82628444D01*
X117856458Y-82810072D01*
X117855768Y-82816633D01*
X117855768Y-82816635D01*
X117846515Y-82904672D01*
X117836496Y-83000000D01*
X113124023Y-83000000D01*
X113084527Y-82878444D01*
X113076727Y-82864933D01*
X113038101Y-82798032D01*
X112989040Y-82713056D01*
X112968216Y-82689928D01*
X112865675Y-82576045D01*
X112865674Y-82576044D01*
X112861253Y-82571134D01*
X112706752Y-82458882D01*
X112700724Y-82456198D01*
X112700722Y-82456197D01*
X112538319Y-82383891D01*
X112538318Y-82383891D01*
X112532288Y-82381206D01*
X112438888Y-82361353D01*
X112351944Y-82342872D01*
X112351939Y-82342872D01*
X112345487Y-82341500D01*
X112154513Y-82341500D01*
X112148061Y-82342872D01*
X112148056Y-82342872D01*
X112061112Y-82361353D01*
X111967712Y-82381206D01*
X111961682Y-82383891D01*
X111961681Y-82383891D01*
X111799278Y-82456197D01*
X111799276Y-82456198D01*
X111793248Y-82458882D01*
X111638747Y-82571134D01*
X111634326Y-82576044D01*
X111634325Y-82576045D01*
X111531785Y-82689928D01*
X111510960Y-82713056D01*
X111461899Y-82798032D01*
X111423274Y-82864933D01*
X111415473Y-82878444D01*
X111356458Y-83060072D01*
X111355768Y-83066633D01*
X111355768Y-83066635D01*
X111338778Y-83228285D01*
X111336496Y-83250000D01*
X95513346Y-83250000D01*
X95456752Y-83208882D01*
X95450724Y-83206198D01*
X95450722Y-83206197D01*
X95288319Y-83133891D01*
X95288318Y-83133891D01*
X95282288Y-83131206D01*
X95188888Y-83111353D01*
X95101944Y-83092872D01*
X95101939Y-83092872D01*
X95095487Y-83091500D01*
X94904513Y-83091500D01*
X94898061Y-83092872D01*
X94898056Y-83092872D01*
X94811112Y-83111353D01*
X94717712Y-83131206D01*
X94711682Y-83133891D01*
X94711681Y-83133891D01*
X94549278Y-83206197D01*
X94549276Y-83206198D01*
X94543248Y-83208882D01*
X94388747Y-83321134D01*
X94384326Y-83326044D01*
X94384325Y-83326045D01*
X94277337Y-83444868D01*
X94260960Y-83463056D01*
X94215467Y-83541852D01*
X94177954Y-83606827D01*
X94165473Y-83628444D01*
X94106458Y-83810072D01*
X94105768Y-83816633D01*
X94105768Y-83816635D01*
X94094488Y-83923960D01*
X94086496Y-84000000D01*
X78143562Y-84000000D01*
X78072630Y-83836868D01*
X78072628Y-83836865D01*
X78070570Y-83832131D01*
X77944764Y-83637665D01*
X77939772Y-83632178D01*
X77887560Y-83574799D01*
X77854486Y-83538450D01*
X77823434Y-83474605D01*
X77831829Y-83404106D01*
X77877005Y-83349338D01*
X77903449Y-83335669D01*
X77963054Y-83313324D01*
X77978649Y-83304786D01*
X78080724Y-83228285D01*
X78093285Y-83215724D01*
X78169786Y-83113649D01*
X78178324Y-83098054D01*
X78223478Y-82977606D01*
X78227105Y-82962351D01*
X78232631Y-82911486D01*
X78233000Y-82904672D01*
X78233000Y-82232115D01*
X78228525Y-82216876D01*
X78227135Y-82215671D01*
X78219452Y-82214000D01*
X75435116Y-82214000D01*
X75419877Y-82218475D01*
X75418672Y-82219865D01*
X75417001Y-82227548D01*
X75417001Y-82904669D01*
X75417371Y-82911490D01*
X75422895Y-82962352D01*
X75426521Y-82977604D01*
X75471676Y-83098054D01*
X75480214Y-83113649D01*
X75556715Y-83215724D01*
X75569276Y-83228285D01*
X75671351Y-83304786D01*
X75686946Y-83313324D01*
X75746540Y-83335665D01*
X75803304Y-83378307D01*
X75828004Y-83444868D01*
X75812796Y-83514217D01*
X75793404Y-83540698D01*
X75772092Y-83563000D01*
X75726639Y-83610564D01*
X75723725Y-83614836D01*
X75723724Y-83614837D01*
X75680046Y-83678866D01*
X75596119Y-83801899D01*
X75498602Y-84011981D01*
X75436707Y-84235169D01*
X75412095Y-84465469D01*
X72508000Y-84465469D01*
X72508000Y-81687885D01*
X75417000Y-81687885D01*
X75421475Y-81703124D01*
X75422865Y-81704329D01*
X75430548Y-81706000D01*
X76552885Y-81706000D01*
X76568124Y-81701525D01*
X76569329Y-81700135D01*
X76571000Y-81692452D01*
X76571000Y-81687885D01*
X77079000Y-81687885D01*
X77083475Y-81703124D01*
X77084865Y-81704329D01*
X77092548Y-81706000D01*
X78214884Y-81706000D01*
X78230123Y-81701525D01*
X78231328Y-81700135D01*
X78232999Y-81692452D01*
X78232999Y-81015331D01*
X78232629Y-81008510D01*
X78231705Y-81000000D01*
X122836496Y-81000000D01*
X122837186Y-81006565D01*
X122853777Y-81164416D01*
X122856458Y-81189928D01*
X122915473Y-81371556D01*
X123010960Y-81536944D01*
X123015378Y-81541851D01*
X123015379Y-81541852D01*
X123037694Y-81566635D01*
X123138747Y-81678866D01*
X123293248Y-81791118D01*
X123299276Y-81793802D01*
X123299278Y-81793803D01*
X123360665Y-81821134D01*
X123467712Y-81868794D01*
X123561113Y-81888647D01*
X123648056Y-81907128D01*
X123648061Y-81907128D01*
X123654513Y-81908500D01*
X123845487Y-81908500D01*
X123851939Y-81907128D01*
X123851944Y-81907128D01*
X123938887Y-81888647D01*
X124032288Y-81868794D01*
X124139335Y-81821134D01*
X124200722Y-81793803D01*
X124200724Y-81793802D01*
X124206752Y-81791118D01*
X124263346Y-81750000D01*
X126086496Y-81750000D01*
X126087186Y-81756565D01*
X126103053Y-81907528D01*
X126106458Y-81939928D01*
X126165473Y-82121556D01*
X126168776Y-82127278D01*
X126168777Y-82127279D01*
X126173078Y-82134729D01*
X126260960Y-82286944D01*
X126265378Y-82291851D01*
X126265379Y-82291852D01*
X126300151Y-82330470D01*
X126388747Y-82428866D01*
X126543248Y-82541118D01*
X126549276Y-82543802D01*
X126549278Y-82543803D01*
X126711681Y-82616109D01*
X126717712Y-82618794D01*
X126792680Y-82634729D01*
X126898056Y-82657128D01*
X126898061Y-82657128D01*
X126904513Y-82658500D01*
X126983784Y-82658500D01*
X127051905Y-82678502D01*
X127098398Y-82732158D01*
X127108502Y-82802432D01*
X127107971Y-82805416D01*
X127106458Y-82810072D01*
X127086496Y-83000000D01*
X127087186Y-83006565D01*
X127099650Y-83125150D01*
X127106458Y-83189928D01*
X127165473Y-83371556D01*
X127168776Y-83377278D01*
X127168777Y-83377279D01*
X127203257Y-83437000D01*
X127219995Y-83505995D01*
X127203257Y-83563000D01*
X127177954Y-83606827D01*
X127165473Y-83628444D01*
X127106458Y-83810072D01*
X127105768Y-83816633D01*
X127105768Y-83816635D01*
X127094488Y-83923960D01*
X127086496Y-84000000D01*
X127087186Y-84006565D01*
X127105519Y-84180991D01*
X127106458Y-84189928D01*
X127165473Y-84371556D01*
X127260960Y-84536944D01*
X127265378Y-84541851D01*
X127265379Y-84541852D01*
X127278237Y-84556132D01*
X127388747Y-84678866D01*
X127543248Y-84791118D01*
X127549276Y-84793802D01*
X127549278Y-84793803D01*
X127600560Y-84816635D01*
X127717712Y-84868794D01*
X127811112Y-84888647D01*
X127898056Y-84907128D01*
X127898061Y-84907128D01*
X127904513Y-84908500D01*
X128095487Y-84908500D01*
X128101939Y-84907128D01*
X128101944Y-84907128D01*
X128188888Y-84888647D01*
X128282288Y-84868794D01*
X128399440Y-84816635D01*
X128450722Y-84793803D01*
X128450724Y-84793802D01*
X128456752Y-84791118D01*
X128611253Y-84678866D01*
X128721763Y-84556132D01*
X128734621Y-84541852D01*
X128734622Y-84541851D01*
X128739040Y-84536944D01*
X128834527Y-84371556D01*
X128893542Y-84189928D01*
X128894482Y-84180991D01*
X128912814Y-84006565D01*
X128913504Y-84000000D01*
X128905512Y-83923960D01*
X128894232Y-83816635D01*
X128894232Y-83816633D01*
X128893542Y-83810072D01*
X128834527Y-83628444D01*
X128822047Y-83606827D01*
X128796743Y-83563000D01*
X128780005Y-83494005D01*
X128796743Y-83437000D01*
X128831223Y-83377279D01*
X128831224Y-83377278D01*
X128834527Y-83371556D01*
X128893542Y-83189928D01*
X128900351Y-83125150D01*
X128912814Y-83006565D01*
X128913504Y-83000000D01*
X128903485Y-82904672D01*
X128894232Y-82816635D01*
X128894232Y-82816633D01*
X128893542Y-82810072D01*
X128834527Y-82628444D01*
X128796885Y-82563247D01*
X128780148Y-82494255D01*
X128796886Y-82437249D01*
X128831223Y-82377776D01*
X128831224Y-82377775D01*
X128834527Y-82372053D01*
X128893542Y-82190425D01*
X128900057Y-82128444D01*
X128912814Y-82007062D01*
X128913504Y-82000497D01*
X128899447Y-81866754D01*
X128894232Y-81817132D01*
X128894232Y-81817130D01*
X128893542Y-81810569D01*
X128834527Y-81628941D01*
X128780851Y-81535972D01*
X129915996Y-81535972D01*
X129916686Y-81542537D01*
X129932443Y-81692452D01*
X129935958Y-81725900D01*
X129994973Y-81907528D01*
X130090460Y-82072916D01*
X130094878Y-82077823D01*
X130094879Y-82077824D01*
X130212884Y-82208882D01*
X130218247Y-82214838D01*
X130235741Y-82227548D01*
X130265966Y-82249508D01*
X130309320Y-82305730D01*
X130315395Y-82376467D01*
X130285543Y-82435753D01*
X130273161Y-82449505D01*
X130260960Y-82463056D01*
X130257659Y-82468774D01*
X130257656Y-82468778D01*
X130171044Y-82618794D01*
X130165473Y-82628444D01*
X130106458Y-82810072D01*
X130105768Y-82816633D01*
X130105768Y-82816635D01*
X130096515Y-82904672D01*
X130086496Y-83000000D01*
X130087186Y-83006565D01*
X130099650Y-83125150D01*
X130106458Y-83189928D01*
X130165473Y-83371556D01*
X130260960Y-83536944D01*
X130346709Y-83632178D01*
X130347671Y-83633246D01*
X130378388Y-83697254D01*
X130373867Y-83756492D01*
X130356458Y-83810072D01*
X130355768Y-83816633D01*
X130355768Y-83816635D01*
X130344488Y-83923960D01*
X130336496Y-84000000D01*
X130337186Y-84006565D01*
X130355519Y-84180991D01*
X130356458Y-84189928D01*
X130415473Y-84371556D01*
X130510960Y-84536944D01*
X130515378Y-84541851D01*
X130515379Y-84541852D01*
X130528237Y-84556132D01*
X130638747Y-84678866D01*
X130793248Y-84791118D01*
X130799276Y-84793802D01*
X130799278Y-84793803D01*
X130850560Y-84816635D01*
X130967712Y-84868794D01*
X131061112Y-84888647D01*
X131148056Y-84907128D01*
X131148061Y-84907128D01*
X131154513Y-84908500D01*
X131345487Y-84908500D01*
X131351939Y-84907128D01*
X131351944Y-84907128D01*
X131438888Y-84888647D01*
X131532288Y-84868794D01*
X131649440Y-84816635D01*
X131700722Y-84793803D01*
X131700724Y-84793802D01*
X131706752Y-84791118D01*
X131861253Y-84678866D01*
X131971763Y-84556132D01*
X131984621Y-84541852D01*
X131984622Y-84541851D01*
X131989040Y-84536944D01*
X132084527Y-84371556D01*
X132143542Y-84189928D01*
X132144482Y-84180991D01*
X132162814Y-84006565D01*
X132163504Y-84000000D01*
X132155512Y-83923960D01*
X132144232Y-83816635D01*
X132144232Y-83816633D01*
X132143542Y-83810072D01*
X132084527Y-83628444D01*
X132059332Y-83584805D01*
X132042595Y-83515810D01*
X132065816Y-83448718D01*
X132121623Y-83404831D01*
X132142255Y-83398559D01*
X132282288Y-83368794D01*
X132290201Y-83365271D01*
X132450722Y-83293803D01*
X132450724Y-83293802D01*
X132456752Y-83291118D01*
X132611253Y-83178866D01*
X132669975Y-83113649D01*
X132734621Y-83041852D01*
X132734622Y-83041851D01*
X132739040Y-83036944D01*
X132811473Y-82911486D01*
X132831223Y-82877279D01*
X132831224Y-82877278D01*
X132834527Y-82871556D01*
X132893542Y-82689928D01*
X132896990Y-82657128D01*
X132910465Y-82528918D01*
X147486917Y-82528918D01*
X147502682Y-82802320D01*
X147503507Y-82806525D01*
X147503508Y-82806533D01*
X147524099Y-82911486D01*
X147555405Y-83071053D01*
X147556792Y-83075103D01*
X147556793Y-83075108D01*
X147642723Y-83326088D01*
X147644112Y-83330144D01*
X147697855Y-83437000D01*
X147736691Y-83514217D01*
X147767160Y-83574799D01*
X147769586Y-83578328D01*
X147769589Y-83578334D01*
X147851321Y-83697254D01*
X147922274Y-83800490D01*
X147925161Y-83803663D01*
X147925162Y-83803664D01*
X148042620Y-83932749D01*
X148106582Y-84003043D01*
X148109877Y-84005798D01*
X148109878Y-84005799D01*
X148152119Y-84041118D01*
X148316675Y-84178707D01*
X148320316Y-84180991D01*
X148545024Y-84321951D01*
X148545028Y-84321953D01*
X148548664Y-84324234D01*
X148616544Y-84354883D01*
X148794345Y-84435164D01*
X148794349Y-84435166D01*
X148798257Y-84436930D01*
X148802377Y-84438150D01*
X148802376Y-84438150D01*
X149056723Y-84513491D01*
X149056727Y-84513492D01*
X149060836Y-84514709D01*
X149065070Y-84515357D01*
X149065075Y-84515358D01*
X149327298Y-84555483D01*
X149327300Y-84555483D01*
X149331540Y-84556132D01*
X149470912Y-84558322D01*
X149601071Y-84560367D01*
X149601077Y-84560367D01*
X149605362Y-84560434D01*
X149877235Y-84527534D01*
X150142127Y-84458041D01*
X150146087Y-84456401D01*
X150146092Y-84456399D01*
X150337103Y-84377279D01*
X150395136Y-84353241D01*
X150547587Y-84264156D01*
X150627879Y-84217237D01*
X150627880Y-84217236D01*
X150631582Y-84215073D01*
X150847089Y-84046094D01*
X150853192Y-84039797D01*
X151034686Y-83852509D01*
X151037669Y-83849431D01*
X151040202Y-83845983D01*
X151040206Y-83845978D01*
X151196038Y-83633838D01*
X151199795Y-83628723D01*
X151203054Y-83622721D01*
X151328418Y-83391830D01*
X151328419Y-83391828D01*
X151330468Y-83388054D01*
X151402961Y-83196206D01*
X151425751Y-83135895D01*
X151425752Y-83135891D01*
X151427269Y-83131877D01*
X151466095Y-82962352D01*
X151487449Y-82869117D01*
X151487450Y-82869113D01*
X151488407Y-82864933D01*
X151492718Y-82816635D01*
X151512531Y-82594627D01*
X151512531Y-82594625D01*
X151512751Y-82592161D01*
X151513193Y-82550000D01*
X151512771Y-82543803D01*
X151494859Y-82281055D01*
X151494858Y-82281049D01*
X151494567Y-82276778D01*
X151439032Y-82008612D01*
X151347617Y-81750465D01*
X151239944Y-81541852D01*
X151223978Y-81510919D01*
X151223978Y-81510918D01*
X151222013Y-81507112D01*
X151212040Y-81492921D01*
X151108813Y-81346044D01*
X151064545Y-81283057D01*
X150971906Y-81183365D01*
X150881046Y-81085588D01*
X150881043Y-81085585D01*
X150878125Y-81082445D01*
X150874810Y-81079731D01*
X150874806Y-81079728D01*
X150726264Y-80958148D01*
X150666205Y-80908990D01*
X150432704Y-80765901D01*
X150428768Y-80764173D01*
X150185873Y-80657549D01*
X150185869Y-80657548D01*
X150181945Y-80655825D01*
X149918566Y-80580800D01*
X149914324Y-80580196D01*
X149914318Y-80580195D01*
X149679005Y-80546705D01*
X149647443Y-80542213D01*
X149503589Y-80541460D01*
X149377877Y-80540802D01*
X149377871Y-80540802D01*
X149373591Y-80540780D01*
X149369347Y-80541339D01*
X149369343Y-80541339D01*
X149254374Y-80556475D01*
X149102078Y-80576525D01*
X149097938Y-80577658D01*
X149097936Y-80577658D01*
X149067216Y-80586062D01*
X148837928Y-80648788D01*
X148833980Y-80650472D01*
X148589982Y-80754546D01*
X148589978Y-80754548D01*
X148586030Y-80756232D01*
X148491984Y-80812517D01*
X148354725Y-80894664D01*
X148354721Y-80894667D01*
X148351043Y-80896868D01*
X148137318Y-81068094D01*
X148051343Y-81158693D01*
X147999561Y-81213260D01*
X147948808Y-81266742D01*
X147789002Y-81489136D01*
X147660857Y-81731161D01*
X147659385Y-81735184D01*
X147659383Y-81735188D01*
X147573902Y-81968774D01*
X147566743Y-81988337D01*
X147508404Y-82255907D01*
X147486917Y-82528918D01*
X132910465Y-82528918D01*
X132912814Y-82506565D01*
X132913504Y-82500000D01*
X132912228Y-82487861D01*
X132894232Y-82316635D01*
X132894232Y-82316633D01*
X132893542Y-82310072D01*
X132834527Y-82128444D01*
X132813990Y-82092872D01*
X132763010Y-82004574D01*
X132739040Y-81963056D01*
X132652329Y-81866753D01*
X132621612Y-81802746D01*
X132626133Y-81743508D01*
X132639774Y-81701525D01*
X132643542Y-81689928D01*
X132650554Y-81623218D01*
X132662814Y-81506565D01*
X132663504Y-81500000D01*
X132659673Y-81463553D01*
X132644232Y-81316635D01*
X132644232Y-81316633D01*
X132643542Y-81310072D01*
X132584527Y-81128444D01*
X132554272Y-81076040D01*
X132513110Y-81004746D01*
X132489040Y-80963056D01*
X132361253Y-80821134D01*
X132243025Y-80735236D01*
X132212094Y-80712763D01*
X132212093Y-80712762D01*
X132206752Y-80708882D01*
X132200724Y-80706198D01*
X132200722Y-80706197D01*
X132038319Y-80633891D01*
X132038318Y-80633891D01*
X132032288Y-80631206D01*
X131938887Y-80611353D01*
X131851944Y-80592872D01*
X131851939Y-80592872D01*
X131845487Y-80591500D01*
X131654513Y-80591500D01*
X131648061Y-80592872D01*
X131648056Y-80592872D01*
X131561113Y-80611353D01*
X131467712Y-80631206D01*
X131461685Y-80633889D01*
X131461677Y-80633892D01*
X131300600Y-80705608D01*
X131230233Y-80715042D01*
X131198104Y-80705608D01*
X131117824Y-80669865D01*
X131117821Y-80669864D01*
X131111788Y-80667178D01*
X131033193Y-80650472D01*
X130931444Y-80628844D01*
X130931439Y-80628844D01*
X130924987Y-80627472D01*
X130734013Y-80627472D01*
X130727561Y-80628844D01*
X130727556Y-80628844D01*
X130640613Y-80647325D01*
X130547212Y-80667178D01*
X130541182Y-80669863D01*
X130541181Y-80669863D01*
X130378778Y-80742169D01*
X130378776Y-80742170D01*
X130372748Y-80744854D01*
X130367407Y-80748734D01*
X130367406Y-80748735D01*
X130354050Y-80758439D01*
X130218247Y-80857106D01*
X130213826Y-80862016D01*
X130213825Y-80862017D01*
X130126608Y-80958882D01*
X130090460Y-80999028D01*
X129994973Y-81164416D01*
X129935958Y-81346044D01*
X129935268Y-81352605D01*
X129935268Y-81352607D01*
X129931892Y-81384729D01*
X129915996Y-81535972D01*
X128780851Y-81535972D01*
X128739040Y-81463553D01*
X128611253Y-81321631D01*
X128456752Y-81209379D01*
X128450724Y-81206695D01*
X128450722Y-81206694D01*
X128288319Y-81134388D01*
X128288318Y-81134388D01*
X128282288Y-81131703D01*
X128188887Y-81111850D01*
X128101944Y-81093369D01*
X128101939Y-81093369D01*
X128095487Y-81091997D01*
X127904513Y-81091997D01*
X127898061Y-81093369D01*
X127898056Y-81093369D01*
X127745286Y-81125842D01*
X127674495Y-81120440D01*
X127625455Y-81086907D01*
X127611253Y-81071134D01*
X127456752Y-80958882D01*
X127450724Y-80956198D01*
X127450722Y-80956197D01*
X127288319Y-80883891D01*
X127288318Y-80883891D01*
X127282288Y-80881206D01*
X127188887Y-80861353D01*
X127101944Y-80842872D01*
X127101939Y-80842872D01*
X127095487Y-80841500D01*
X126904513Y-80841500D01*
X126898061Y-80842872D01*
X126898056Y-80842872D01*
X126811113Y-80861353D01*
X126717712Y-80881206D01*
X126711682Y-80883891D01*
X126711681Y-80883891D01*
X126549278Y-80956197D01*
X126549276Y-80956198D01*
X126543248Y-80958882D01*
X126388747Y-81071134D01*
X126384326Y-81076044D01*
X126384325Y-81076045D01*
X126281785Y-81189928D01*
X126260960Y-81213056D01*
X126165473Y-81378444D01*
X126106458Y-81560072D01*
X126105768Y-81566633D01*
X126105768Y-81566635D01*
X126089719Y-81719337D01*
X126086496Y-81750000D01*
X124263346Y-81750000D01*
X124361253Y-81678866D01*
X124462306Y-81566635D01*
X124484621Y-81541852D01*
X124484622Y-81541851D01*
X124489040Y-81536944D01*
X124584527Y-81371556D01*
X124643542Y-81189928D01*
X124646224Y-81164416D01*
X124662814Y-81006565D01*
X124663504Y-81000000D01*
X124653703Y-80906751D01*
X124644232Y-80816635D01*
X124644232Y-80816633D01*
X124643542Y-80810072D01*
X124584527Y-80628444D01*
X124563990Y-80592872D01*
X124540605Y-80552369D01*
X124489040Y-80463056D01*
X124361253Y-80321134D01*
X124215279Y-80215077D01*
X124212094Y-80212763D01*
X124212093Y-80212762D01*
X124206752Y-80208882D01*
X124200724Y-80206198D01*
X124200722Y-80206197D01*
X124038319Y-80133891D01*
X124038318Y-80133891D01*
X124032288Y-80131206D01*
X123938888Y-80111353D01*
X123851944Y-80092872D01*
X123851939Y-80092872D01*
X123845487Y-80091500D01*
X123654513Y-80091500D01*
X123648061Y-80092872D01*
X123648056Y-80092872D01*
X123561112Y-80111353D01*
X123467712Y-80131206D01*
X123461682Y-80133891D01*
X123461681Y-80133891D01*
X123299278Y-80206197D01*
X123299276Y-80206198D01*
X123293248Y-80208882D01*
X123287907Y-80212762D01*
X123287906Y-80212763D01*
X123284721Y-80215077D01*
X123138747Y-80321134D01*
X123010960Y-80463056D01*
X122959395Y-80552369D01*
X122936011Y-80592872D01*
X122915473Y-80628444D01*
X122856458Y-80810072D01*
X122855768Y-80816633D01*
X122855768Y-80816635D01*
X122846297Y-80906751D01*
X122836496Y-81000000D01*
X78231705Y-81000000D01*
X78227105Y-80957648D01*
X78223479Y-80942396D01*
X78178324Y-80821946D01*
X78169786Y-80806351D01*
X78093285Y-80704276D01*
X78080724Y-80691715D01*
X77978649Y-80615214D01*
X77963054Y-80606676D01*
X77908066Y-80586062D01*
X87278493Y-80586062D01*
X87287789Y-80598077D01*
X87338994Y-80633931D01*
X87348489Y-80639414D01*
X87545947Y-80731490D01*
X87556239Y-80735236D01*
X87766688Y-80791625D01*
X87777481Y-80793528D01*
X87994525Y-80812517D01*
X88005475Y-80812517D01*
X88222519Y-80793528D01*
X88233312Y-80791625D01*
X88443761Y-80735236D01*
X88454053Y-80731490D01*
X88651511Y-80639414D01*
X88661006Y-80633931D01*
X88713048Y-80597491D01*
X88721424Y-80587012D01*
X88720925Y-80586062D01*
X101278493Y-80586062D01*
X101287789Y-80598077D01*
X101338994Y-80633931D01*
X101348489Y-80639414D01*
X101545947Y-80731490D01*
X101556239Y-80735236D01*
X101766688Y-80791625D01*
X101777481Y-80793528D01*
X101994525Y-80812517D01*
X102005475Y-80812517D01*
X102222519Y-80793528D01*
X102233312Y-80791625D01*
X102443761Y-80735236D01*
X102454053Y-80731490D01*
X102651511Y-80639414D01*
X102661006Y-80633931D01*
X102713048Y-80597491D01*
X102721424Y-80587012D01*
X102714356Y-80573566D01*
X102488924Y-80348134D01*
X109691500Y-80348134D01*
X109698255Y-80410316D01*
X109749385Y-80546705D01*
X109836739Y-80663261D01*
X109953295Y-80750615D01*
X110089684Y-80801745D01*
X110151866Y-80808500D01*
X111848134Y-80808500D01*
X111910316Y-80801745D01*
X112046705Y-80750615D01*
X112163261Y-80663261D01*
X112250615Y-80546705D01*
X112301745Y-80410316D01*
X112308500Y-80348134D01*
X112308500Y-78651866D01*
X112301745Y-78589684D01*
X112250615Y-78453295D01*
X112163261Y-78336739D01*
X112046705Y-78249385D01*
X111910316Y-78198255D01*
X111866748Y-78193522D01*
X111851514Y-78191867D01*
X111851511Y-78191867D01*
X111848134Y-78191500D01*
X111844815Y-78191500D01*
X111777890Y-78167847D01*
X111742196Y-78121844D01*
X111740266Y-78122859D01*
X111734558Y-78112000D01*
X111734368Y-78111755D01*
X111734347Y-78111597D01*
X111714356Y-78073566D01*
X111012812Y-77372022D01*
X110998868Y-77364408D01*
X110997035Y-77364539D01*
X110990420Y-77368790D01*
X110284923Y-78074287D01*
X110262129Y-78116029D01*
X110259953Y-78126029D01*
X110209747Y-78176227D01*
X110156186Y-78191451D01*
X110155281Y-78191500D01*
X110151866Y-78191500D01*
X110148470Y-78191869D01*
X110148468Y-78191869D01*
X110136121Y-78193210D01*
X110089684Y-78198255D01*
X109953295Y-78249385D01*
X109836739Y-78336739D01*
X109749385Y-78453295D01*
X109698255Y-78589684D01*
X109691500Y-78651866D01*
X109691500Y-80348134D01*
X102488924Y-80348134D01*
X102012812Y-79872022D01*
X101998868Y-79864408D01*
X101997035Y-79864539D01*
X101990420Y-79868790D01*
X101284923Y-80574287D01*
X101278493Y-80586062D01*
X88720925Y-80586062D01*
X88714356Y-80573566D01*
X88012812Y-79872022D01*
X87998868Y-79864408D01*
X87997035Y-79864539D01*
X87990420Y-79868790D01*
X87284923Y-80574287D01*
X87278493Y-80586062D01*
X77908066Y-80586062D01*
X77842606Y-80561522D01*
X77827351Y-80557895D01*
X77776486Y-80552369D01*
X77769672Y-80552000D01*
X77097115Y-80552000D01*
X77081876Y-80556475D01*
X77080671Y-80557865D01*
X77079000Y-80565548D01*
X77079000Y-81687885D01*
X76571000Y-81687885D01*
X76571000Y-80570116D01*
X76566525Y-80554877D01*
X76565135Y-80553672D01*
X76557452Y-80552001D01*
X75880331Y-80552001D01*
X75873510Y-80552371D01*
X75822648Y-80557895D01*
X75807396Y-80561521D01*
X75686946Y-80606676D01*
X75671351Y-80615214D01*
X75569276Y-80691715D01*
X75556715Y-80704276D01*
X75480214Y-80806351D01*
X75471676Y-80821946D01*
X75426522Y-80942394D01*
X75422895Y-80957649D01*
X75417369Y-81008514D01*
X75417000Y-81015328D01*
X75417000Y-81687885D01*
X72508000Y-81687885D01*
X72508000Y-79505475D01*
X86687483Y-79505475D01*
X86706472Y-79722519D01*
X86708375Y-79733312D01*
X86764764Y-79943761D01*
X86768510Y-79954053D01*
X86860586Y-80151511D01*
X86866069Y-80161006D01*
X86902509Y-80213048D01*
X86912988Y-80221424D01*
X86926434Y-80214356D01*
X87627978Y-79512812D01*
X87634356Y-79501132D01*
X88364408Y-79501132D01*
X88364539Y-79502965D01*
X88368790Y-79509580D01*
X89074287Y-80215077D01*
X89086062Y-80221507D01*
X89098077Y-80212211D01*
X89133931Y-80161006D01*
X89139414Y-80151511D01*
X89231490Y-79954053D01*
X89235236Y-79943761D01*
X89291625Y-79733312D01*
X89293528Y-79722519D01*
X89312517Y-79505475D01*
X100687483Y-79505475D01*
X100706472Y-79722519D01*
X100708375Y-79733312D01*
X100764764Y-79943761D01*
X100768510Y-79954053D01*
X100860586Y-80151511D01*
X100866069Y-80161006D01*
X100902509Y-80213048D01*
X100912988Y-80221424D01*
X100926434Y-80214356D01*
X101627978Y-79512812D01*
X101634356Y-79501132D01*
X102364408Y-79501132D01*
X102364539Y-79502965D01*
X102368790Y-79509580D01*
X103074287Y-80215077D01*
X103086062Y-80221507D01*
X103098077Y-80212211D01*
X103133931Y-80161006D01*
X103139414Y-80151511D01*
X103231490Y-79954053D01*
X103235236Y-79943761D01*
X103291625Y-79733312D01*
X103293528Y-79722519D01*
X103312517Y-79505475D01*
X103312517Y-79494525D01*
X103293528Y-79277481D01*
X103291625Y-79266688D01*
X103235236Y-79056239D01*
X103231490Y-79045947D01*
X103139414Y-78848489D01*
X103133931Y-78838994D01*
X103097491Y-78786952D01*
X103087012Y-78778576D01*
X103073566Y-78785644D01*
X102372022Y-79487188D01*
X102364408Y-79501132D01*
X101634356Y-79501132D01*
X101635592Y-79498868D01*
X101635461Y-79497035D01*
X101631210Y-79490420D01*
X100925713Y-78784923D01*
X100913938Y-78778493D01*
X100901923Y-78787789D01*
X100866069Y-78838994D01*
X100860586Y-78848489D01*
X100768510Y-79045947D01*
X100764764Y-79056239D01*
X100708375Y-79266688D01*
X100706472Y-79277481D01*
X100687483Y-79494525D01*
X100687483Y-79505475D01*
X89312517Y-79505475D01*
X89312517Y-79494525D01*
X89293528Y-79277481D01*
X89291625Y-79266688D01*
X89235236Y-79056239D01*
X89231490Y-79045947D01*
X89139414Y-78848489D01*
X89133931Y-78838994D01*
X89097491Y-78786952D01*
X89087012Y-78778576D01*
X89073566Y-78785644D01*
X88372022Y-79487188D01*
X88364408Y-79501132D01*
X87634356Y-79501132D01*
X87635592Y-79498868D01*
X87635461Y-79497035D01*
X87631210Y-79490420D01*
X86925713Y-78784923D01*
X86913938Y-78778493D01*
X86901923Y-78787789D01*
X86866069Y-78838994D01*
X86860586Y-78848489D01*
X86768510Y-79045947D01*
X86764764Y-79056239D01*
X86708375Y-79266688D01*
X86706472Y-79277481D01*
X86687483Y-79494525D01*
X86687483Y-79505475D01*
X72508000Y-79505475D01*
X72508000Y-76965469D01*
X75587095Y-76965469D01*
X75587392Y-76970622D01*
X75587392Y-76970625D01*
X75599313Y-77177371D01*
X75600427Y-77196697D01*
X75601564Y-77201743D01*
X75601565Y-77201749D01*
X75633060Y-77341500D01*
X75651346Y-77422642D01*
X75653288Y-77427424D01*
X75653289Y-77427428D01*
X75734440Y-77627279D01*
X75738484Y-77637237D01*
X75859501Y-77834719D01*
X76011147Y-78009784D01*
X76189349Y-78157730D01*
X76389322Y-78274584D01*
X76394147Y-78276426D01*
X76394148Y-78276427D01*
X76421689Y-78286944D01*
X76605694Y-78357209D01*
X76610760Y-78358240D01*
X76610761Y-78358240D01*
X76663846Y-78369040D01*
X76832656Y-78403385D01*
X76963324Y-78408176D01*
X77058949Y-78411683D01*
X77058953Y-78411683D01*
X77064113Y-78411872D01*
X77069233Y-78411216D01*
X77069235Y-78411216D01*
X77142270Y-78401860D01*
X77293847Y-78382442D01*
X77298795Y-78380957D01*
X77298802Y-78380956D01*
X77510747Y-78317369D01*
X77515690Y-78315886D01*
X77531973Y-78307909D01*
X77719049Y-78216262D01*
X77719052Y-78216260D01*
X77723684Y-78213991D01*
X77912243Y-78079494D01*
X78076303Y-77916005D01*
X78083490Y-77906004D01*
X78125073Y-77848134D01*
X86691500Y-77848134D01*
X86698255Y-77910316D01*
X86749385Y-78046705D01*
X86836739Y-78163261D01*
X86953295Y-78250615D01*
X87089684Y-78301745D01*
X87133252Y-78306478D01*
X87148486Y-78308133D01*
X87148489Y-78308133D01*
X87151866Y-78308500D01*
X87155185Y-78308500D01*
X87222110Y-78332153D01*
X87257804Y-78378156D01*
X87259734Y-78377141D01*
X87265442Y-78388000D01*
X87265632Y-78388245D01*
X87265653Y-78388403D01*
X87285644Y-78426434D01*
X87987188Y-79127978D01*
X88001132Y-79135592D01*
X88002965Y-79135461D01*
X88009580Y-79131210D01*
X88715077Y-78425713D01*
X88737871Y-78383971D01*
X88740047Y-78373971D01*
X88790253Y-78323773D01*
X88843814Y-78308549D01*
X88844719Y-78308500D01*
X88848134Y-78308500D01*
X88851530Y-78308131D01*
X88851532Y-78308131D01*
X88863879Y-78306790D01*
X88910316Y-78301745D01*
X89046705Y-78250615D01*
X89163261Y-78163261D01*
X89250615Y-78046705D01*
X89301745Y-77910316D01*
X89308500Y-77848134D01*
X100691500Y-77848134D01*
X100698255Y-77910316D01*
X100749385Y-78046705D01*
X100836739Y-78163261D01*
X100953295Y-78250615D01*
X101089684Y-78301745D01*
X101133252Y-78306478D01*
X101148486Y-78308133D01*
X101148489Y-78308133D01*
X101151866Y-78308500D01*
X101155185Y-78308500D01*
X101222110Y-78332153D01*
X101257804Y-78378156D01*
X101259734Y-78377141D01*
X101265442Y-78388000D01*
X101265632Y-78388245D01*
X101265653Y-78388403D01*
X101285644Y-78426434D01*
X101987188Y-79127978D01*
X102001132Y-79135592D01*
X102002965Y-79135461D01*
X102009580Y-79131210D01*
X102715077Y-78425713D01*
X102737871Y-78383971D01*
X102740047Y-78373971D01*
X102790253Y-78323773D01*
X102843814Y-78308549D01*
X102844719Y-78308500D01*
X102848134Y-78308500D01*
X102851530Y-78308131D01*
X102851532Y-78308131D01*
X102863879Y-78306790D01*
X102910316Y-78301745D01*
X103046705Y-78250615D01*
X103163261Y-78163261D01*
X103250615Y-78046705D01*
X103301745Y-77910316D01*
X103308500Y-77848134D01*
X103308500Y-77005475D01*
X109687483Y-77005475D01*
X109706472Y-77222519D01*
X109708375Y-77233312D01*
X109764764Y-77443761D01*
X109768510Y-77454053D01*
X109860586Y-77651511D01*
X109866069Y-77661006D01*
X109902509Y-77713048D01*
X109912988Y-77721424D01*
X109926434Y-77714356D01*
X110627978Y-77012812D01*
X110634356Y-77001132D01*
X111364408Y-77001132D01*
X111364539Y-77002965D01*
X111368790Y-77009580D01*
X112074287Y-77715077D01*
X112086062Y-77721507D01*
X112098077Y-77712211D01*
X112133931Y-77661006D01*
X112139414Y-77651511D01*
X112231490Y-77454053D01*
X112235236Y-77443761D01*
X112287154Y-77250000D01*
X119086496Y-77250000D01*
X119087186Y-77256565D01*
X119098521Y-77364408D01*
X119106458Y-77439928D01*
X119165473Y-77621556D01*
X119168776Y-77627278D01*
X119168777Y-77627279D01*
X119202686Y-77686010D01*
X119260960Y-77786944D01*
X119265378Y-77791851D01*
X119265379Y-77791852D01*
X119384325Y-77923955D01*
X119388747Y-77928866D01*
X119543248Y-78041118D01*
X119549276Y-78043802D01*
X119549278Y-78043803D01*
X119711681Y-78116109D01*
X119717712Y-78118794D01*
X119724167Y-78120166D01*
X119724176Y-78120169D01*
X119800724Y-78136440D01*
X119863197Y-78170168D01*
X119897518Y-78232318D01*
X119892790Y-78303157D01*
X119868162Y-78343996D01*
X119769372Y-78453714D01*
X119760960Y-78463056D01*
X119716464Y-78540126D01*
X119670867Y-78619102D01*
X119665473Y-78628444D01*
X119606458Y-78810072D01*
X119605768Y-78816633D01*
X119605768Y-78816635D01*
X119592810Y-78939928D01*
X119586496Y-79000000D01*
X119587186Y-79006565D01*
X119603011Y-79157128D01*
X119606458Y-79189928D01*
X119665473Y-79371556D01*
X119760960Y-79536944D01*
X119765378Y-79541851D01*
X119765379Y-79541852D01*
X119876328Y-79665073D01*
X119888747Y-79678866D01*
X120043248Y-79791118D01*
X120049276Y-79793802D01*
X120049278Y-79793803D01*
X120208155Y-79864539D01*
X120217712Y-79868794D01*
X120303035Y-79886930D01*
X120398056Y-79907128D01*
X120398061Y-79907128D01*
X120404513Y-79908500D01*
X120595487Y-79908500D01*
X120601939Y-79907128D01*
X120601944Y-79907128D01*
X120696965Y-79886930D01*
X120782288Y-79868794D01*
X120791845Y-79864539D01*
X120950722Y-79793803D01*
X120950724Y-79793802D01*
X120956752Y-79791118D01*
X121111253Y-79678866D01*
X121123672Y-79665073D01*
X121234621Y-79541852D01*
X121234622Y-79541851D01*
X121239040Y-79536944D01*
X121334527Y-79371556D01*
X121393542Y-79189928D01*
X121396990Y-79157128D01*
X121412814Y-79006565D01*
X121413504Y-79000000D01*
X121407190Y-78939928D01*
X121394232Y-78816635D01*
X121394232Y-78816633D01*
X121393542Y-78810072D01*
X121374023Y-78750000D01*
X124086496Y-78750000D01*
X124087186Y-78756565D01*
X124095850Y-78838994D01*
X124106458Y-78939928D01*
X124165473Y-79121556D01*
X124168776Y-79127278D01*
X124168777Y-79127279D01*
X124186803Y-79158500D01*
X124260960Y-79286944D01*
X124388747Y-79428866D01*
X124543248Y-79541118D01*
X124549276Y-79543802D01*
X124549278Y-79543803D01*
X124711681Y-79616109D01*
X124717712Y-79618794D01*
X124811113Y-79638647D01*
X124898056Y-79657128D01*
X124898061Y-79657128D01*
X124904513Y-79658500D01*
X125095487Y-79658500D01*
X125101939Y-79657128D01*
X125101944Y-79657128D01*
X125188887Y-79638647D01*
X125282288Y-79618794D01*
X125288319Y-79616109D01*
X125450722Y-79543803D01*
X125450724Y-79543802D01*
X125456752Y-79541118D01*
X125611253Y-79428866D01*
X125739040Y-79286944D01*
X125813197Y-79158500D01*
X125831223Y-79127279D01*
X125831224Y-79127278D01*
X125834527Y-79121556D01*
X125877059Y-78990658D01*
X127203516Y-78990658D01*
X127223478Y-79180586D01*
X127282493Y-79362214D01*
X127285796Y-79367936D01*
X127285797Y-79367937D01*
X127291191Y-79377279D01*
X127377980Y-79527602D01*
X127382398Y-79532509D01*
X127382399Y-79532510D01*
X127495841Y-79658500D01*
X127505767Y-79669524D01*
X127660268Y-79781776D01*
X127666296Y-79784460D01*
X127666298Y-79784461D01*
X127708479Y-79803241D01*
X127834732Y-79859452D01*
X127928133Y-79879305D01*
X128015076Y-79897786D01*
X128015081Y-79897786D01*
X128021533Y-79899158D01*
X128212507Y-79899158D01*
X128218959Y-79897786D01*
X128218964Y-79897786D01*
X128305907Y-79879305D01*
X128399308Y-79859452D01*
X128525561Y-79803241D01*
X128567742Y-79784461D01*
X128567744Y-79784460D01*
X128573772Y-79781776D01*
X128728273Y-79669524D01*
X128738199Y-79658500D01*
X128851641Y-79532510D01*
X128851642Y-79532509D01*
X128856060Y-79527602D01*
X128942849Y-79377279D01*
X128948243Y-79367937D01*
X128948244Y-79367936D01*
X128951547Y-79362214D01*
X129010562Y-79180586D01*
X129030524Y-78990658D01*
X129024438Y-78932749D01*
X129015024Y-78843183D01*
X129027796Y-78773345D01*
X129076298Y-78721498D01*
X129145131Y-78704104D01*
X129212441Y-78726685D01*
X129249452Y-78767012D01*
X129260960Y-78786944D01*
X129265378Y-78791851D01*
X129265379Y-78791852D01*
X129311598Y-78843183D01*
X129388747Y-78928866D01*
X129543248Y-79041118D01*
X129549276Y-79043802D01*
X129549278Y-79043803D01*
X129709799Y-79115271D01*
X129717712Y-79118794D01*
X129796124Y-79135461D01*
X129898056Y-79157128D01*
X129898061Y-79157128D01*
X129904513Y-79158500D01*
X130095487Y-79158500D01*
X130101939Y-79157128D01*
X130101944Y-79157128D01*
X130203876Y-79135461D01*
X130282288Y-79118794D01*
X130290201Y-79115271D01*
X130450722Y-79043803D01*
X130450724Y-79043802D01*
X130456752Y-79041118D01*
X130611253Y-78928866D01*
X130688402Y-78843183D01*
X130734621Y-78791852D01*
X130734622Y-78791851D01*
X130739040Y-78786944D01*
X130813197Y-78658500D01*
X130831223Y-78627279D01*
X130831224Y-78627278D01*
X130834527Y-78621556D01*
X130841944Y-78598730D01*
X130882018Y-78540126D01*
X130947415Y-78512490D01*
X131017371Y-78524598D01*
X131035841Y-78535736D01*
X131043248Y-78541118D01*
X131049276Y-78543802D01*
X131049278Y-78543803D01*
X131209810Y-78615276D01*
X131217712Y-78618794D01*
X131292680Y-78634729D01*
X131398056Y-78657128D01*
X131398061Y-78657128D01*
X131404513Y-78658500D01*
X131595487Y-78658500D01*
X131601939Y-78657128D01*
X131601944Y-78657128D01*
X131707320Y-78634729D01*
X131782288Y-78618794D01*
X131790190Y-78615276D01*
X131950722Y-78543803D01*
X131950724Y-78543802D01*
X131956752Y-78541118D01*
X131964159Y-78535737D01*
X132012157Y-78500864D01*
X132111253Y-78428866D01*
X132115675Y-78423955D01*
X132234621Y-78291852D01*
X132234622Y-78291851D01*
X132239040Y-78286944D01*
X132325934Y-78136440D01*
X132331223Y-78127279D01*
X132331224Y-78127278D01*
X132334527Y-78121556D01*
X132380873Y-77978918D01*
X147486917Y-77978918D01*
X147502682Y-78252320D01*
X147503507Y-78256525D01*
X147503508Y-78256533D01*
X147532320Y-78403385D01*
X147555405Y-78521053D01*
X147556792Y-78525103D01*
X147556793Y-78525108D01*
X147641784Y-78773345D01*
X147644112Y-78780144D01*
X147659164Y-78810072D01*
X147751386Y-78993435D01*
X147767160Y-79024799D01*
X147769586Y-79028328D01*
X147769589Y-79028334D01*
X147884965Y-79196206D01*
X147922274Y-79250490D01*
X147925161Y-79253663D01*
X147925162Y-79253664D01*
X148023934Y-79362214D01*
X148106582Y-79453043D01*
X148316675Y-79628707D01*
X148320316Y-79630991D01*
X148545024Y-79771951D01*
X148545028Y-79771953D01*
X148548664Y-79774234D01*
X148616544Y-79804883D01*
X148794345Y-79885164D01*
X148794349Y-79885166D01*
X148798257Y-79886930D01*
X148839538Y-79899158D01*
X149056723Y-79963491D01*
X149056727Y-79963492D01*
X149060836Y-79964709D01*
X149065070Y-79965357D01*
X149065075Y-79965358D01*
X149327298Y-80005483D01*
X149327300Y-80005483D01*
X149331540Y-80006132D01*
X149470912Y-80008322D01*
X149601071Y-80010367D01*
X149601077Y-80010367D01*
X149605362Y-80010434D01*
X149877235Y-79977534D01*
X150142127Y-79908041D01*
X150146087Y-79906401D01*
X150146092Y-79906399D01*
X150268632Y-79855641D01*
X150395136Y-79803241D01*
X150607978Y-79678866D01*
X150627879Y-79667237D01*
X150627880Y-79667236D01*
X150631582Y-79665073D01*
X150847089Y-79496094D01*
X150852588Y-79490420D01*
X150971282Y-79367937D01*
X151037669Y-79299431D01*
X151040202Y-79295983D01*
X151040206Y-79295978D01*
X151197257Y-79082178D01*
X151199795Y-79078723D01*
X151227154Y-79028334D01*
X151328418Y-78841830D01*
X151328419Y-78841828D01*
X151330468Y-78838054D01*
X151399531Y-78655283D01*
X151425751Y-78585895D01*
X151425752Y-78585891D01*
X151427269Y-78581877D01*
X151453508Y-78467313D01*
X151487449Y-78319117D01*
X151487450Y-78319113D01*
X151488407Y-78314933D01*
X151488982Y-78308500D01*
X151512531Y-78044627D01*
X151512531Y-78044625D01*
X151512751Y-78042161D01*
X151513193Y-78000000D01*
X151511465Y-77974648D01*
X151494859Y-77731055D01*
X151494858Y-77731049D01*
X151494567Y-77726778D01*
X151493476Y-77721507D01*
X151450778Y-77515329D01*
X151439032Y-77458612D01*
X151347617Y-77200465D01*
X151283399Y-77076045D01*
X151223978Y-76960919D01*
X151223978Y-76960918D01*
X151222013Y-76957112D01*
X151212040Y-76942921D01*
X151140760Y-76841500D01*
X151064545Y-76733057D01*
X150900236Y-76556239D01*
X150881046Y-76535588D01*
X150881043Y-76535585D01*
X150878125Y-76532445D01*
X150874810Y-76529731D01*
X150874806Y-76529728D01*
X150696628Y-76383891D01*
X150666205Y-76358990D01*
X150432704Y-76215901D01*
X150428768Y-76214173D01*
X150185873Y-76107549D01*
X150185869Y-76107548D01*
X150181945Y-76105825D01*
X149918566Y-76030800D01*
X149914324Y-76030196D01*
X149914318Y-76030195D01*
X149713834Y-76001662D01*
X149647443Y-75992213D01*
X149503589Y-75991460D01*
X149377877Y-75990802D01*
X149377871Y-75990802D01*
X149373591Y-75990780D01*
X149369347Y-75991339D01*
X149369343Y-75991339D01*
X149250302Y-76007011D01*
X149102078Y-76026525D01*
X149097938Y-76027658D01*
X149097936Y-76027658D01*
X149048833Y-76041091D01*
X148837928Y-76098788D01*
X148833980Y-76100472D01*
X148589982Y-76204546D01*
X148589978Y-76204548D01*
X148586030Y-76206232D01*
X148566125Y-76218145D01*
X148354725Y-76344664D01*
X148354721Y-76344667D01*
X148351043Y-76346868D01*
X148137318Y-76518094D01*
X147948808Y-76716742D01*
X147789002Y-76939136D01*
X147660857Y-77181161D01*
X147659385Y-77185184D01*
X147659383Y-77185188D01*
X147568214Y-77434317D01*
X147566743Y-77438337D01*
X147508404Y-77705907D01*
X147486917Y-77978918D01*
X132380873Y-77978918D01*
X132393542Y-77939928D01*
X132396057Y-77916005D01*
X132412814Y-77756565D01*
X132413504Y-77750000D01*
X132410222Y-77718774D01*
X132394232Y-77566635D01*
X132394232Y-77566633D01*
X132393542Y-77560072D01*
X132334527Y-77378444D01*
X132313990Y-77342872D01*
X132297314Y-77313990D01*
X132239040Y-77213056D01*
X132224274Y-77196656D01*
X132115675Y-77076045D01*
X132115674Y-77076044D01*
X132111253Y-77071134D01*
X131956752Y-76958882D01*
X131950724Y-76956198D01*
X131950722Y-76956197D01*
X131788319Y-76883891D01*
X131788318Y-76883891D01*
X131782288Y-76881206D01*
X131688887Y-76861353D01*
X131601944Y-76842872D01*
X131601939Y-76842872D01*
X131595487Y-76841500D01*
X131404513Y-76841500D01*
X131398061Y-76842872D01*
X131398056Y-76842872D01*
X131311113Y-76861353D01*
X131217712Y-76881206D01*
X131211682Y-76883891D01*
X131211681Y-76883891D01*
X131049278Y-76956197D01*
X131049276Y-76956198D01*
X131043248Y-76958882D01*
X130888747Y-77071134D01*
X130884326Y-77076044D01*
X130884325Y-77076045D01*
X130775727Y-77196656D01*
X130760960Y-77213056D01*
X130702686Y-77313990D01*
X130686011Y-77342872D01*
X130665473Y-77378444D01*
X130663431Y-77384729D01*
X130658057Y-77401269D01*
X130617982Y-77459874D01*
X130552585Y-77487510D01*
X130482629Y-77475402D01*
X130464158Y-77464263D01*
X130456752Y-77458882D01*
X130450724Y-77456198D01*
X130450722Y-77456197D01*
X130288319Y-77383891D01*
X130288318Y-77383891D01*
X130282288Y-77381206D01*
X130188887Y-77361353D01*
X130101944Y-77342872D01*
X130101939Y-77342872D01*
X130095487Y-77341500D01*
X129904513Y-77341500D01*
X129898061Y-77342872D01*
X129898056Y-77342872D01*
X129811113Y-77361353D01*
X129717712Y-77381206D01*
X129711682Y-77383891D01*
X129711681Y-77383891D01*
X129549278Y-77456197D01*
X129549276Y-77456198D01*
X129543248Y-77458882D01*
X129537907Y-77462762D01*
X129537906Y-77462763D01*
X129520510Y-77475402D01*
X129388747Y-77571134D01*
X129260960Y-77713056D01*
X129235840Y-77756565D01*
X129182973Y-77848134D01*
X129165473Y-77878444D01*
X129106458Y-78060072D01*
X129105768Y-78066633D01*
X129105768Y-78066635D01*
X129091799Y-78199540D01*
X129086496Y-78250000D01*
X129087186Y-78256565D01*
X129101996Y-78397475D01*
X129089224Y-78467313D01*
X129040722Y-78519160D01*
X128971889Y-78536554D01*
X128904579Y-78513973D01*
X128867568Y-78473646D01*
X128856060Y-78453714D01*
X128849213Y-78446109D01*
X128732695Y-78316703D01*
X128732694Y-78316702D01*
X128728273Y-78311792D01*
X128573772Y-78199540D01*
X128567744Y-78196856D01*
X128567742Y-78196855D01*
X128405339Y-78124549D01*
X128405338Y-78124549D01*
X128399308Y-78121864D01*
X128305907Y-78102011D01*
X128218964Y-78083530D01*
X128218959Y-78083530D01*
X128212507Y-78082158D01*
X128021533Y-78082158D01*
X128015081Y-78083530D01*
X128015076Y-78083530D01*
X127928133Y-78102011D01*
X127834732Y-78121864D01*
X127828702Y-78124549D01*
X127828701Y-78124549D01*
X127666298Y-78196855D01*
X127666296Y-78196856D01*
X127660268Y-78199540D01*
X127505767Y-78311792D01*
X127501346Y-78316702D01*
X127501345Y-78316703D01*
X127384828Y-78446109D01*
X127377980Y-78453714D01*
X127341531Y-78516846D01*
X127299478Y-78589684D01*
X127282493Y-78619102D01*
X127223478Y-78800730D01*
X127222788Y-78807291D01*
X127222788Y-78807293D01*
X127209602Y-78932749D01*
X127203516Y-78990658D01*
X125877059Y-78990658D01*
X125893542Y-78939928D01*
X125904151Y-78838994D01*
X125912814Y-78756565D01*
X125913504Y-78750000D01*
X125893542Y-78560072D01*
X125834527Y-78378444D01*
X125739040Y-78213056D01*
X125719962Y-78191867D01*
X125615675Y-78076045D01*
X125615674Y-78076044D01*
X125611253Y-78071134D01*
X125456752Y-77958882D01*
X125450724Y-77956198D01*
X125450722Y-77956197D01*
X125288319Y-77883891D01*
X125288318Y-77883891D01*
X125282288Y-77881206D01*
X125188887Y-77861353D01*
X125101944Y-77842872D01*
X125101939Y-77842872D01*
X125095487Y-77841500D01*
X124904513Y-77841500D01*
X124898061Y-77842872D01*
X124898056Y-77842872D01*
X124811113Y-77861353D01*
X124717712Y-77881206D01*
X124711682Y-77883891D01*
X124711681Y-77883891D01*
X124549278Y-77956197D01*
X124549276Y-77956198D01*
X124543248Y-77958882D01*
X124388747Y-78071134D01*
X124384326Y-78076044D01*
X124384325Y-78076045D01*
X124280039Y-78191867D01*
X124260960Y-78213056D01*
X124165473Y-78378444D01*
X124106458Y-78560072D01*
X124086496Y-78750000D01*
X121374023Y-78750000D01*
X121334527Y-78628444D01*
X121329134Y-78619102D01*
X121283536Y-78540126D01*
X121239040Y-78463056D01*
X121230629Y-78453714D01*
X121115675Y-78326045D01*
X121115674Y-78326044D01*
X121111253Y-78321134D01*
X120956752Y-78208882D01*
X120950724Y-78206198D01*
X120950722Y-78206197D01*
X120788319Y-78133891D01*
X120788318Y-78133891D01*
X120782288Y-78131206D01*
X120775833Y-78129834D01*
X120775824Y-78129831D01*
X120699276Y-78113560D01*
X120636803Y-78079832D01*
X120602482Y-78017682D01*
X120607210Y-77946843D01*
X120631838Y-77906004D01*
X120734621Y-77791852D01*
X120734622Y-77791851D01*
X120739040Y-77786944D01*
X120797314Y-77686010D01*
X120831223Y-77627279D01*
X120831224Y-77627278D01*
X120834527Y-77621556D01*
X120893542Y-77439928D01*
X120901480Y-77364408D01*
X120912814Y-77256565D01*
X120913504Y-77250000D01*
X120906269Y-77181161D01*
X120894232Y-77066635D01*
X120894232Y-77066633D01*
X120893542Y-77060072D01*
X120834527Y-76878444D01*
X120813990Y-76842872D01*
X120771436Y-76769167D01*
X120739040Y-76713056D01*
X120611253Y-76571134D01*
X120456752Y-76458882D01*
X120450724Y-76456198D01*
X120450722Y-76456197D01*
X120288319Y-76383891D01*
X120288318Y-76383891D01*
X120282288Y-76381206D01*
X120167237Y-76356751D01*
X120101944Y-76342872D01*
X120101939Y-76342872D01*
X120095487Y-76341500D01*
X119904513Y-76341500D01*
X119898061Y-76342872D01*
X119898056Y-76342872D01*
X119832763Y-76356751D01*
X119717712Y-76381206D01*
X119711682Y-76383891D01*
X119711681Y-76383891D01*
X119549278Y-76456197D01*
X119549276Y-76456198D01*
X119543248Y-76458882D01*
X119388747Y-76571134D01*
X119260960Y-76713056D01*
X119228564Y-76769167D01*
X119186011Y-76842872D01*
X119165473Y-76878444D01*
X119106458Y-77060072D01*
X119105768Y-77066633D01*
X119105768Y-77066635D01*
X119093731Y-77181161D01*
X119086496Y-77250000D01*
X112287154Y-77250000D01*
X112291625Y-77233312D01*
X112293528Y-77222519D01*
X112312517Y-77005475D01*
X112312517Y-76994525D01*
X112293528Y-76777481D01*
X112291625Y-76766688D01*
X112235236Y-76556239D01*
X112231490Y-76545947D01*
X112139414Y-76348489D01*
X112133931Y-76338994D01*
X112097491Y-76286952D01*
X112087012Y-76278576D01*
X112073566Y-76285644D01*
X111372022Y-76987188D01*
X111364408Y-77001132D01*
X110634356Y-77001132D01*
X110635592Y-76998868D01*
X110635461Y-76997035D01*
X110631210Y-76990420D01*
X109925713Y-76284923D01*
X109913938Y-76278493D01*
X109901923Y-76287789D01*
X109866069Y-76338994D01*
X109860586Y-76348489D01*
X109768510Y-76545947D01*
X109764764Y-76556239D01*
X109708375Y-76766688D01*
X109706472Y-76777481D01*
X109687483Y-76994525D01*
X109687483Y-77005475D01*
X103308500Y-77005475D01*
X103308500Y-76151866D01*
X103301745Y-76089684D01*
X103250615Y-75953295D01*
X103220407Y-75912988D01*
X110278576Y-75912988D01*
X110285644Y-75926434D01*
X110987188Y-76627978D01*
X111001132Y-76635592D01*
X111002965Y-76635461D01*
X111009580Y-76631210D01*
X111715077Y-75925713D01*
X111721507Y-75913938D01*
X111712211Y-75901923D01*
X111661006Y-75866069D01*
X111651511Y-75860586D01*
X111454053Y-75768510D01*
X111443761Y-75764764D01*
X111233312Y-75708375D01*
X111222519Y-75706472D01*
X111005475Y-75687483D01*
X110994525Y-75687483D01*
X110777481Y-75706472D01*
X110766688Y-75708375D01*
X110556239Y-75764764D01*
X110545947Y-75768510D01*
X110348489Y-75860586D01*
X110338994Y-75866069D01*
X110286952Y-75902509D01*
X110278576Y-75912988D01*
X103220407Y-75912988D01*
X103163261Y-75836739D01*
X103046705Y-75749385D01*
X102910316Y-75698255D01*
X102848134Y-75691500D01*
X101151866Y-75691500D01*
X101089684Y-75698255D01*
X100953295Y-75749385D01*
X100836739Y-75836739D01*
X100749385Y-75953295D01*
X100698255Y-76089684D01*
X100691500Y-76151866D01*
X100691500Y-77848134D01*
X89308500Y-77848134D01*
X89308500Y-76151866D01*
X89301745Y-76089684D01*
X89250615Y-75953295D01*
X89163261Y-75836739D01*
X89046705Y-75749385D01*
X88910316Y-75698255D01*
X88848134Y-75691500D01*
X87151866Y-75691500D01*
X87089684Y-75698255D01*
X86953295Y-75749385D01*
X86836739Y-75836739D01*
X86749385Y-75953295D01*
X86698255Y-76089684D01*
X86691500Y-76151866D01*
X86691500Y-77848134D01*
X78125073Y-77848134D01*
X78211458Y-77727917D01*
X78219221Y-77712211D01*
X78311784Y-77524922D01*
X78311785Y-77524920D01*
X78314078Y-77520280D01*
X78381408Y-77298671D01*
X78411640Y-77069041D01*
X78413327Y-77000000D01*
X78395033Y-76777481D01*
X78394773Y-76774318D01*
X78394772Y-76774312D01*
X78394349Y-76769167D01*
X78360797Y-76635592D01*
X78339184Y-76549544D01*
X78339183Y-76549540D01*
X78337925Y-76544533D01*
X78326429Y-76518094D01*
X78247630Y-76336868D01*
X78247628Y-76336865D01*
X78245570Y-76332131D01*
X78119764Y-76137665D01*
X78076105Y-76089684D01*
X78029848Y-76038848D01*
X77998796Y-75975002D01*
X78007192Y-75904504D01*
X78052369Y-75849736D01*
X78078812Y-75836067D01*
X78138297Y-75813767D01*
X78146705Y-75810615D01*
X78263261Y-75723261D01*
X78350615Y-75606705D01*
X78401745Y-75470316D01*
X78408500Y-75408134D01*
X78408500Y-73511866D01*
X78401745Y-73449684D01*
X78350615Y-73313295D01*
X78263261Y-73196739D01*
X78146705Y-73109385D01*
X78010316Y-73058255D01*
X77948134Y-73051500D01*
X76051866Y-73051500D01*
X75989684Y-73058255D01*
X75853295Y-73109385D01*
X75736739Y-73196739D01*
X75649385Y-73313295D01*
X75598255Y-73449684D01*
X75591500Y-73511866D01*
X75591500Y-75408134D01*
X75598255Y-75470316D01*
X75649385Y-75606705D01*
X75736739Y-75723261D01*
X75853295Y-75810615D01*
X75861704Y-75813767D01*
X75861705Y-75813768D01*
X75921164Y-75836058D01*
X75977929Y-75878699D01*
X76002629Y-75945261D01*
X75987422Y-76014609D01*
X75968029Y-76041091D01*
X75907291Y-76104650D01*
X75901639Y-76110564D01*
X75898725Y-76114836D01*
X75898724Y-76114837D01*
X75883152Y-76137665D01*
X75771119Y-76301899D01*
X75673602Y-76511981D01*
X75611707Y-76735169D01*
X75587095Y-76965469D01*
X72508000Y-76965469D01*
X72508000Y-72053247D01*
X81841500Y-72053247D01*
X81848255Y-72115429D01*
X81899385Y-72251818D01*
X81986739Y-72368374D01*
X82103295Y-72455728D01*
X82239684Y-72506858D01*
X82301866Y-72513613D01*
X83998134Y-72513613D01*
X84060316Y-72506858D01*
X84196705Y-72455728D01*
X84313261Y-72368374D01*
X84400615Y-72251818D01*
X84451745Y-72115429D01*
X84458500Y-72053247D01*
X84458500Y-70356979D01*
X84451745Y-70294797D01*
X84400615Y-70158408D01*
X84341040Y-70078918D01*
X147486917Y-70078918D01*
X147502682Y-70352320D01*
X147503507Y-70356525D01*
X147503508Y-70356533D01*
X147503596Y-70356979D01*
X147555405Y-70621053D01*
X147556792Y-70625103D01*
X147556793Y-70625108D01*
X147577605Y-70685895D01*
X147644112Y-70880144D01*
X147767160Y-71124799D01*
X147769586Y-71128328D01*
X147769589Y-71128334D01*
X147919843Y-71346953D01*
X147922274Y-71350490D01*
X148106582Y-71553043D01*
X148316675Y-71728707D01*
X148320316Y-71730991D01*
X148545024Y-71871951D01*
X148545028Y-71871953D01*
X148548664Y-71874234D01*
X148616544Y-71904883D01*
X148794345Y-71985164D01*
X148794349Y-71985166D01*
X148798257Y-71986930D01*
X148802377Y-71988150D01*
X148802376Y-71988150D01*
X149056723Y-72063491D01*
X149056727Y-72063492D01*
X149060836Y-72064709D01*
X149065070Y-72065357D01*
X149065075Y-72065358D01*
X149327298Y-72105483D01*
X149327300Y-72105483D01*
X149331540Y-72106132D01*
X149470912Y-72108322D01*
X149601071Y-72110367D01*
X149601077Y-72110367D01*
X149605362Y-72110434D01*
X149877235Y-72077534D01*
X150142127Y-72008041D01*
X150146087Y-72006401D01*
X150146092Y-72006399D01*
X150268632Y-71955641D01*
X150395136Y-71903241D01*
X150631582Y-71765073D01*
X150847089Y-71596094D01*
X150888809Y-71553043D01*
X151034686Y-71402509D01*
X151037669Y-71399431D01*
X151040202Y-71395983D01*
X151040206Y-71395978D01*
X151197257Y-71182178D01*
X151199795Y-71178723D01*
X151227154Y-71128334D01*
X151328418Y-70941830D01*
X151328419Y-70941828D01*
X151330468Y-70938054D01*
X151427269Y-70681877D01*
X151488407Y-70414933D01*
X151493275Y-70360396D01*
X151512531Y-70144627D01*
X151512531Y-70144625D01*
X151512751Y-70142161D01*
X151513193Y-70100000D01*
X151511465Y-70074648D01*
X151494859Y-69831055D01*
X151494858Y-69831049D01*
X151494567Y-69826778D01*
X151492566Y-69817113D01*
X151439901Y-69562809D01*
X151439032Y-69558612D01*
X151347617Y-69300465D01*
X151232348Y-69077135D01*
X151223978Y-69060919D01*
X151223978Y-69060918D01*
X151222013Y-69057112D01*
X151212040Y-69042921D01*
X151110356Y-68898240D01*
X151064545Y-68833057D01*
X150991072Y-68753991D01*
X150881046Y-68635588D01*
X150881043Y-68635585D01*
X150878125Y-68632445D01*
X150874810Y-68629731D01*
X150874806Y-68629728D01*
X150669523Y-68461706D01*
X150666205Y-68458990D01*
X150432704Y-68315901D01*
X150428768Y-68314173D01*
X150185873Y-68207549D01*
X150185869Y-68207548D01*
X150181945Y-68205825D01*
X149918566Y-68130800D01*
X149914324Y-68130196D01*
X149914318Y-68130195D01*
X149713834Y-68101662D01*
X149647443Y-68092213D01*
X149503589Y-68091460D01*
X149377877Y-68090802D01*
X149377871Y-68090802D01*
X149373591Y-68090780D01*
X149369347Y-68091339D01*
X149369343Y-68091339D01*
X149250302Y-68107011D01*
X149102078Y-68126525D01*
X149097938Y-68127658D01*
X149097936Y-68127658D01*
X149025008Y-68147609D01*
X148837928Y-68198788D01*
X148833980Y-68200472D01*
X148589982Y-68304546D01*
X148589978Y-68304548D01*
X148586030Y-68306232D01*
X148473868Y-68373359D01*
X148354725Y-68444664D01*
X148354721Y-68444667D01*
X148351043Y-68446868D01*
X148137318Y-68618094D01*
X148048929Y-68711237D01*
X147953330Y-68811977D01*
X147948808Y-68816742D01*
X147789002Y-69039136D01*
X147660857Y-69281161D01*
X147659385Y-69285184D01*
X147659383Y-69285188D01*
X147610243Y-69419469D01*
X147566743Y-69538337D01*
X147508404Y-69805907D01*
X147486917Y-70078918D01*
X84341040Y-70078918D01*
X84313261Y-70041852D01*
X84196705Y-69954498D01*
X84060316Y-69903368D01*
X84016748Y-69898635D01*
X84001514Y-69896980D01*
X84001511Y-69896980D01*
X83998134Y-69896613D01*
X83994815Y-69896613D01*
X83927890Y-69872960D01*
X83892196Y-69826957D01*
X83890266Y-69827972D01*
X83884558Y-69817113D01*
X83884368Y-69816868D01*
X83884347Y-69816710D01*
X83864356Y-69778679D01*
X83162812Y-69077135D01*
X83148868Y-69069521D01*
X83147035Y-69069652D01*
X83140420Y-69073903D01*
X82434923Y-69779400D01*
X82412129Y-69821142D01*
X82409953Y-69831142D01*
X82359747Y-69881340D01*
X82306186Y-69896564D01*
X82305281Y-69896613D01*
X82301866Y-69896613D01*
X82298470Y-69896982D01*
X82298468Y-69896982D01*
X82286121Y-69898323D01*
X82239684Y-69903368D01*
X82103295Y-69954498D01*
X81986739Y-70041852D01*
X81899385Y-70158408D01*
X81848255Y-70294797D01*
X81841500Y-70356979D01*
X81841500Y-72053247D01*
X72508000Y-72053247D01*
X72508000Y-67505469D01*
X75587095Y-67505469D01*
X75587392Y-67510622D01*
X75587392Y-67510625D01*
X75592951Y-67607036D01*
X75600427Y-67736697D01*
X75601564Y-67741743D01*
X75601565Y-67741749D01*
X75633741Y-67884523D01*
X75651346Y-67962642D01*
X75653288Y-67967424D01*
X75653289Y-67967428D01*
X75717892Y-68126525D01*
X75738484Y-68177237D01*
X75859501Y-68374719D01*
X76011147Y-68549784D01*
X76107440Y-68629728D01*
X76173556Y-68684618D01*
X76189349Y-68697730D01*
X76389322Y-68814584D01*
X76605694Y-68897209D01*
X76610760Y-68898240D01*
X76610761Y-68898240D01*
X76663846Y-68909040D01*
X76832656Y-68943385D01*
X76963324Y-68948176D01*
X77058949Y-68951683D01*
X77058953Y-68951683D01*
X77064113Y-68951872D01*
X77069233Y-68951216D01*
X77069235Y-68951216D01*
X77142270Y-68941860D01*
X77293847Y-68922442D01*
X77298795Y-68920957D01*
X77298802Y-68920956D01*
X77510747Y-68857369D01*
X77515690Y-68855886D01*
X77520324Y-68853616D01*
X77719049Y-68756262D01*
X77719052Y-68756260D01*
X77723684Y-68753991D01*
X77784533Y-68710588D01*
X81837483Y-68710588D01*
X81856472Y-68927632D01*
X81858375Y-68938425D01*
X81914764Y-69148874D01*
X81918510Y-69159166D01*
X82010586Y-69356624D01*
X82016069Y-69366119D01*
X82052509Y-69418161D01*
X82062988Y-69426537D01*
X82076434Y-69419469D01*
X82777978Y-68717925D01*
X82784356Y-68706245D01*
X83514408Y-68706245D01*
X83514539Y-68708078D01*
X83518790Y-68714693D01*
X84224287Y-69420190D01*
X84236062Y-69426620D01*
X84248077Y-69417324D01*
X84283931Y-69366119D01*
X84289414Y-69356624D01*
X84381490Y-69159166D01*
X84385236Y-69148874D01*
X84441625Y-68938425D01*
X84443528Y-68927632D01*
X84462517Y-68710588D01*
X84462517Y-68699638D01*
X84443528Y-68482594D01*
X84441625Y-68471801D01*
X84385236Y-68261352D01*
X84381490Y-68251060D01*
X84380126Y-68248134D01*
X126967541Y-68248134D01*
X126974296Y-68310316D01*
X127025426Y-68446705D01*
X127112780Y-68563261D01*
X127229336Y-68650615D01*
X127365725Y-68701745D01*
X127427907Y-68708500D01*
X129924175Y-68708500D01*
X129986357Y-68701745D01*
X130122746Y-68650615D01*
X130239302Y-68563261D01*
X130326656Y-68446705D01*
X130354152Y-68373359D01*
X132667427Y-68373359D01*
X132676140Y-68384879D01*
X132764627Y-68449760D01*
X132772546Y-68454708D01*
X132988918Y-68568547D01*
X132997492Y-68572275D01*
X133228323Y-68652885D01*
X133237332Y-68655299D01*
X133477559Y-68700908D01*
X133486816Y-68701962D01*
X133731148Y-68711563D01*
X133740461Y-68711237D01*
X133983519Y-68684618D01*
X133992696Y-68682917D01*
X134229148Y-68620665D01*
X134237967Y-68617628D01*
X134462625Y-68521107D01*
X134470897Y-68516800D01*
X134678818Y-68388135D01*
X134680661Y-68386796D01*
X134688079Y-68375541D01*
X134682015Y-68365184D01*
X133688853Y-67372022D01*
X133674909Y-67364408D01*
X133673076Y-67364539D01*
X133666461Y-67368790D01*
X132674085Y-68361166D01*
X132667427Y-68373359D01*
X130354152Y-68373359D01*
X130377786Y-68310316D01*
X130384541Y-68248134D01*
X130384541Y-66959835D01*
X131964063Y-66959835D01*
X131975795Y-67204064D01*
X131976932Y-67213324D01*
X132024634Y-67453143D01*
X132027123Y-67462118D01*
X132109749Y-67692250D01*
X132113546Y-67700778D01*
X132229275Y-67916160D01*
X132234286Y-67924027D01*
X132291214Y-68000263D01*
X132302472Y-68008712D01*
X132314891Y-68001940D01*
X133304019Y-67012812D01*
X133310397Y-67001132D01*
X134040449Y-67001132D01*
X134040580Y-67002965D01*
X134044831Y-67009580D01*
X135039773Y-68004522D01*
X135052153Y-68011282D01*
X135060494Y-68005038D01*
X135178741Y-67821202D01*
X135183188Y-67813011D01*
X135283613Y-67590076D01*
X135286808Y-67581298D01*
X135353176Y-67345973D01*
X135355034Y-67336844D01*
X135386085Y-67092770D01*
X135386566Y-67086483D01*
X135388747Y-67003160D01*
X135388596Y-66996851D01*
X135370362Y-66751486D01*
X135368985Y-66742280D01*
X135315020Y-66503786D01*
X135312296Y-66494875D01*
X135223674Y-66266983D01*
X135219660Y-66258567D01*
X135098325Y-66046276D01*
X135093115Y-66038553D01*
X135061828Y-65998865D01*
X135049904Y-65990395D01*
X135038369Y-65996882D01*
X134048063Y-66987188D01*
X134040449Y-67001132D01*
X133310397Y-67001132D01*
X133311633Y-66998868D01*
X133311502Y-66997035D01*
X133307251Y-66990420D01*
X132312869Y-65996038D01*
X132299561Y-65988771D01*
X132289522Y-65995893D01*
X132284622Y-66001784D01*
X132279209Y-66009373D01*
X132152363Y-66218409D01*
X132148125Y-66226726D01*
X132053570Y-66452214D01*
X132050613Y-66461052D01*
X131990425Y-66698042D01*
X131988804Y-66707232D01*
X131964308Y-66950510D01*
X131964063Y-66959835D01*
X130384541Y-66959835D01*
X130384541Y-65751866D01*
X130377786Y-65689684D01*
X130353506Y-65624917D01*
X132665371Y-65624917D01*
X132669944Y-65634693D01*
X133663229Y-66627978D01*
X133677173Y-66635592D01*
X133679006Y-66635461D01*
X133685621Y-66631210D01*
X134443472Y-65873359D01*
X140491386Y-65873359D01*
X140500099Y-65884879D01*
X140588586Y-65949760D01*
X140596505Y-65954708D01*
X140812877Y-66068547D01*
X140821451Y-66072275D01*
X141052282Y-66152885D01*
X141061291Y-66155299D01*
X141301518Y-66200908D01*
X141310775Y-66201962D01*
X141555107Y-66211563D01*
X141564420Y-66211237D01*
X141807478Y-66184618D01*
X141816655Y-66182917D01*
X142053107Y-66120665D01*
X142061926Y-66117628D01*
X142286584Y-66021107D01*
X142294856Y-66016800D01*
X142502777Y-65888135D01*
X142504620Y-65886796D01*
X142512038Y-65875541D01*
X142505974Y-65865184D01*
X141512812Y-64872022D01*
X141498868Y-64864408D01*
X141497035Y-64864539D01*
X141490420Y-64868790D01*
X140498044Y-65861166D01*
X140491386Y-65873359D01*
X134443472Y-65873359D01*
X134678529Y-65638302D01*
X134684913Y-65626612D01*
X134675501Y-65614502D01*
X134549185Y-65526873D01*
X134541157Y-65522145D01*
X134321851Y-65413995D01*
X134313218Y-65410507D01*
X134080329Y-65335958D01*
X134071279Y-65333785D01*
X133829932Y-65294480D01*
X133820643Y-65293668D01*
X133576155Y-65290467D01*
X133566844Y-65291037D01*
X133324563Y-65324010D01*
X133315444Y-65325948D01*
X133080709Y-65394367D01*
X133071956Y-65397639D01*
X132849910Y-65500004D01*
X132841755Y-65504524D01*
X132674509Y-65614175D01*
X132665371Y-65624917D01*
X130353506Y-65624917D01*
X130326656Y-65553295D01*
X130239302Y-65436739D01*
X130122746Y-65349385D01*
X129986357Y-65298255D01*
X129924175Y-65291500D01*
X127427907Y-65291500D01*
X127365725Y-65298255D01*
X127229336Y-65349385D01*
X127112780Y-65436739D01*
X127025426Y-65553295D01*
X126974296Y-65689684D01*
X126967541Y-65751866D01*
X126967541Y-68248134D01*
X84380126Y-68248134D01*
X84289414Y-68053602D01*
X84283931Y-68044107D01*
X84247491Y-67992065D01*
X84237012Y-67983689D01*
X84223566Y-67990757D01*
X83522022Y-68692301D01*
X83514408Y-68706245D01*
X82784356Y-68706245D01*
X82785592Y-68703981D01*
X82785461Y-68702148D01*
X82781210Y-68695533D01*
X82075713Y-67990036D01*
X82063938Y-67983606D01*
X82051923Y-67992902D01*
X82016069Y-68044107D01*
X82010586Y-68053602D01*
X81918510Y-68251060D01*
X81914764Y-68261352D01*
X81858375Y-68471801D01*
X81856472Y-68482594D01*
X81837483Y-68699638D01*
X81837483Y-68710588D01*
X77784533Y-68710588D01*
X77912243Y-68619494D01*
X78076303Y-68456005D01*
X78080791Y-68449760D01*
X78101588Y-68420817D01*
X78211458Y-68267917D01*
X78219557Y-68251531D01*
X78311784Y-68064922D01*
X78311785Y-68064920D01*
X78314078Y-68060280D01*
X78381408Y-67838671D01*
X78410447Y-67618101D01*
X82428576Y-67618101D01*
X82435644Y-67631547D01*
X83137188Y-68333091D01*
X83151132Y-68340705D01*
X83152965Y-68340574D01*
X83159580Y-68336323D01*
X83865077Y-67630826D01*
X83871507Y-67619051D01*
X83862211Y-67607036D01*
X83811006Y-67571182D01*
X83801511Y-67565699D01*
X83604053Y-67473623D01*
X83593761Y-67469877D01*
X83383312Y-67413488D01*
X83372519Y-67411585D01*
X83155475Y-67392596D01*
X83144525Y-67392596D01*
X82927481Y-67411585D01*
X82916688Y-67413488D01*
X82706239Y-67469877D01*
X82695947Y-67473623D01*
X82498489Y-67565699D01*
X82488994Y-67571182D01*
X82436952Y-67607622D01*
X82428576Y-67618101D01*
X78410447Y-67618101D01*
X78411640Y-67609041D01*
X78411722Y-67605691D01*
X78413245Y-67543365D01*
X78413245Y-67543361D01*
X78413327Y-67540000D01*
X78402926Y-67413488D01*
X78394773Y-67314318D01*
X78394772Y-67314312D01*
X78394349Y-67309167D01*
X78337925Y-67084533D01*
X78335866Y-67079797D01*
X78247630Y-66876868D01*
X78247628Y-66876865D01*
X78245570Y-66872131D01*
X78119764Y-66677665D01*
X78081481Y-66635592D01*
X78029848Y-66578848D01*
X77998796Y-66515002D01*
X78007192Y-66444504D01*
X78052369Y-66389736D01*
X78078812Y-66376067D01*
X78138297Y-66353767D01*
X78146705Y-66350615D01*
X78263261Y-66263261D01*
X78350615Y-66146705D01*
X78401745Y-66010316D01*
X78407815Y-65954440D01*
X78408131Y-65951531D01*
X78408500Y-65948134D01*
X78408500Y-64459835D01*
X139788022Y-64459835D01*
X139799754Y-64704064D01*
X139800891Y-64713324D01*
X139848593Y-64953143D01*
X139851082Y-64962118D01*
X139933708Y-65192250D01*
X139937505Y-65200778D01*
X140053234Y-65416160D01*
X140058245Y-65424027D01*
X140115173Y-65500263D01*
X140126431Y-65508712D01*
X140138850Y-65501940D01*
X141127978Y-64512812D01*
X141134356Y-64501132D01*
X141864408Y-64501132D01*
X141864539Y-64502965D01*
X141868790Y-64509580D01*
X142863732Y-65504522D01*
X142876112Y-65511282D01*
X142884453Y-65505038D01*
X143002700Y-65321202D01*
X143007147Y-65313011D01*
X143107572Y-65090076D01*
X143110767Y-65081298D01*
X143177135Y-64845973D01*
X143178993Y-64836844D01*
X143210044Y-64592770D01*
X143210525Y-64586483D01*
X143212706Y-64503160D01*
X143212555Y-64496851D01*
X143209456Y-64455151D01*
X154787296Y-64455151D01*
X154787520Y-64459817D01*
X154787520Y-64459822D01*
X154790066Y-64512812D01*
X154799480Y-64708798D01*
X154849021Y-64957857D01*
X154850600Y-64962255D01*
X154850602Y-64962262D01*
X154895022Y-65085980D01*
X154934831Y-65196858D01*
X154937048Y-65200984D01*
X155052666Y-65416160D01*
X155055025Y-65420551D01*
X155057820Y-65424294D01*
X155057822Y-65424297D01*
X155204171Y-65620282D01*
X155204176Y-65620288D01*
X155206963Y-65624020D01*
X155210272Y-65627300D01*
X155210277Y-65627306D01*
X155383990Y-65799509D01*
X155387307Y-65802797D01*
X155391069Y-65805555D01*
X155391072Y-65805558D01*
X155585522Y-65948134D01*
X155592094Y-65952953D01*
X155596229Y-65955129D01*
X155596233Y-65955131D01*
X155701123Y-66010316D01*
X155816827Y-66071191D01*
X155949803Y-66117628D01*
X156050764Y-66152885D01*
X156056568Y-66154912D01*
X156306050Y-66202278D01*
X156426532Y-66207011D01*
X156555125Y-66212064D01*
X156555130Y-66212064D01*
X156559793Y-66212247D01*
X156650821Y-66202278D01*
X156807569Y-66185112D01*
X156807575Y-66185111D01*
X156812222Y-66184602D01*
X156921680Y-66155784D01*
X157053273Y-66121138D01*
X157057793Y-66119948D01*
X157247247Y-66038553D01*
X157286807Y-66021557D01*
X157286810Y-66021555D01*
X157291110Y-66019708D01*
X157295090Y-66017245D01*
X157295094Y-66017243D01*
X157503064Y-65888547D01*
X157503066Y-65888545D01*
X157507047Y-65886082D01*
X157605428Y-65802797D01*
X157697289Y-65725031D01*
X157697291Y-65725029D01*
X157700862Y-65722006D01*
X157868295Y-65531084D01*
X157882686Y-65508712D01*
X158003141Y-65321442D01*
X158005669Y-65317512D01*
X158109967Y-65085980D01*
X158111288Y-65081298D01*
X158144859Y-64962262D01*
X158178896Y-64841575D01*
X158210943Y-64589667D01*
X158211027Y-64586483D01*
X158212264Y-64539233D01*
X158213291Y-64500000D01*
X158209612Y-64450497D01*
X158194818Y-64251411D01*
X158194817Y-64251407D01*
X158194472Y-64246759D01*
X158183449Y-64198042D01*
X158139459Y-64003639D01*
X158138428Y-63999082D01*
X158046391Y-63762409D01*
X158035823Y-63743919D01*
X157922702Y-63545997D01*
X157922700Y-63545995D01*
X157920383Y-63541940D01*
X157763171Y-63342517D01*
X157589204Y-63178866D01*
X157581610Y-63171722D01*
X157581608Y-63171720D01*
X157578209Y-63168523D01*
X157529443Y-63134693D01*
X157373393Y-63026437D01*
X157373390Y-63026435D01*
X157369561Y-63023779D01*
X157365384Y-63021719D01*
X157365377Y-63021715D01*
X157145996Y-62913528D01*
X157145992Y-62913527D01*
X157141810Y-62911464D01*
X156899960Y-62834047D01*
X156895355Y-62833297D01*
X156653935Y-62793980D01*
X156653934Y-62793980D01*
X156649323Y-62793229D01*
X156522365Y-62791567D01*
X156400083Y-62789966D01*
X156400080Y-62789966D01*
X156395406Y-62789905D01*
X156143787Y-62824149D01*
X156139301Y-62825457D01*
X156139299Y-62825457D01*
X156112401Y-62833297D01*
X155899993Y-62895208D01*
X155895740Y-62897168D01*
X155895739Y-62897169D01*
X155867818Y-62910041D01*
X155669380Y-63001522D01*
X155665471Y-63004085D01*
X155460928Y-63138189D01*
X155460923Y-63138193D01*
X155457015Y-63140755D01*
X155414315Y-63178866D01*
X155292896Y-63287237D01*
X155267562Y-63309848D01*
X155105183Y-63505087D01*
X154973447Y-63722182D01*
X154971638Y-63726496D01*
X154971637Y-63726498D01*
X154918467Y-63853295D01*
X154875246Y-63956365D01*
X154874095Y-63960897D01*
X154874094Y-63960900D01*
X154851854Y-64048469D01*
X154812738Y-64202490D01*
X154787296Y-64455151D01*
X143209456Y-64455151D01*
X143194321Y-64251486D01*
X143192944Y-64242280D01*
X143138979Y-64003786D01*
X143136255Y-63994875D01*
X143047633Y-63766983D01*
X143043619Y-63758567D01*
X142922284Y-63546276D01*
X142917074Y-63538553D01*
X142885787Y-63498865D01*
X142873863Y-63490395D01*
X142862328Y-63496882D01*
X141872022Y-64487188D01*
X141864408Y-64501132D01*
X141134356Y-64501132D01*
X141135592Y-64498868D01*
X141135461Y-64497035D01*
X141131210Y-64490420D01*
X140136828Y-63496038D01*
X140123520Y-63488771D01*
X140113481Y-63495893D01*
X140108581Y-63501784D01*
X140103168Y-63509373D01*
X139976322Y-63718409D01*
X139972084Y-63726726D01*
X139877529Y-63952214D01*
X139874572Y-63961052D01*
X139814384Y-64198042D01*
X139812763Y-64207232D01*
X139788267Y-64450510D01*
X139788022Y-64459835D01*
X78408500Y-64459835D01*
X78408500Y-64051866D01*
X78401745Y-63989684D01*
X78350615Y-63853295D01*
X78263261Y-63736739D01*
X78146705Y-63649385D01*
X78010316Y-63598255D01*
X77948134Y-63591500D01*
X76051866Y-63591500D01*
X75989684Y-63598255D01*
X75853295Y-63649385D01*
X75736739Y-63736739D01*
X75649385Y-63853295D01*
X75598255Y-63989684D01*
X75591500Y-64051866D01*
X75591500Y-65948134D01*
X75591869Y-65951531D01*
X75592185Y-65954440D01*
X75598255Y-66010316D01*
X75649385Y-66146705D01*
X75736739Y-66263261D01*
X75853295Y-66350615D01*
X75861704Y-66353767D01*
X75861705Y-66353768D01*
X75921164Y-66376058D01*
X75977929Y-66418699D01*
X76002629Y-66485261D01*
X75987422Y-66554609D01*
X75968029Y-66581091D01*
X75915947Y-66635592D01*
X75901639Y-66650564D01*
X75898725Y-66654836D01*
X75898724Y-66654837D01*
X75883152Y-66677665D01*
X75771119Y-66841899D01*
X75673602Y-67051981D01*
X75611707Y-67275169D01*
X75587095Y-67505469D01*
X72508000Y-67505469D01*
X72508000Y-62500000D01*
X111336496Y-62500000D01*
X111356458Y-62689928D01*
X111415473Y-62871556D01*
X111418776Y-62877278D01*
X111418777Y-62877279D01*
X111430261Y-62897169D01*
X111510960Y-63036944D01*
X111515378Y-63041851D01*
X111515379Y-63041852D01*
X111634325Y-63173955D01*
X111638747Y-63178866D01*
X111793248Y-63291118D01*
X111799276Y-63293802D01*
X111799278Y-63293803D01*
X111916931Y-63346185D01*
X111967712Y-63368794D01*
X112061113Y-63388647D01*
X112148056Y-63407128D01*
X112148061Y-63407128D01*
X112154513Y-63408500D01*
X112345487Y-63408500D01*
X112351939Y-63407128D01*
X112351944Y-63407128D01*
X112438887Y-63388647D01*
X112532288Y-63368794D01*
X112583069Y-63346185D01*
X112700722Y-63293803D01*
X112700724Y-63293802D01*
X112706752Y-63291118D01*
X112861253Y-63178866D01*
X112865675Y-63173955D01*
X112909829Y-63124917D01*
X140489330Y-63124917D01*
X140493903Y-63134693D01*
X141487188Y-64127978D01*
X141501132Y-64135592D01*
X141502965Y-64135461D01*
X141509580Y-64131210D01*
X142502488Y-63138302D01*
X142508872Y-63126612D01*
X142499460Y-63114502D01*
X142373144Y-63026873D01*
X142365116Y-63022145D01*
X142145810Y-62913995D01*
X142137177Y-62910507D01*
X141904288Y-62835958D01*
X141895238Y-62833785D01*
X141653891Y-62794480D01*
X141644602Y-62793668D01*
X141400114Y-62790467D01*
X141390803Y-62791037D01*
X141148522Y-62824010D01*
X141139403Y-62825948D01*
X140904668Y-62894367D01*
X140895915Y-62897639D01*
X140673869Y-63000004D01*
X140665714Y-63004524D01*
X140498468Y-63114175D01*
X140489330Y-63124917D01*
X112909829Y-63124917D01*
X112984621Y-63041852D01*
X112984622Y-63041851D01*
X112989040Y-63036944D01*
X113069739Y-62897169D01*
X113081223Y-62877279D01*
X113081224Y-62877278D01*
X113084527Y-62871556D01*
X113143542Y-62689928D01*
X113163504Y-62500000D01*
X113143542Y-62310072D01*
X113084527Y-62128444D01*
X112989040Y-61963056D01*
X112861253Y-61821134D01*
X112706752Y-61708882D01*
X112700724Y-61706198D01*
X112700722Y-61706197D01*
X112538319Y-61633891D01*
X112538318Y-61633891D01*
X112532288Y-61631206D01*
X112438888Y-61611353D01*
X112351944Y-61592872D01*
X112351939Y-61592872D01*
X112345487Y-61591500D01*
X112154513Y-61591500D01*
X112148061Y-61592872D01*
X112148056Y-61592872D01*
X112061112Y-61611353D01*
X111967712Y-61631206D01*
X111961682Y-61633891D01*
X111961681Y-61633891D01*
X111799278Y-61706197D01*
X111799276Y-61706198D01*
X111793248Y-61708882D01*
X111638747Y-61821134D01*
X111510960Y-61963056D01*
X111415473Y-62128444D01*
X111356458Y-62310072D01*
X111336496Y-62500000D01*
X72508000Y-62500000D01*
X72508000Y-60071114D01*
X77513275Y-60071114D01*
X77515325Y-60088830D01*
X77517285Y-60098727D01*
X77580604Y-60322494D01*
X77584116Y-60331938D01*
X77682399Y-60542705D01*
X77687378Y-60551471D01*
X77818087Y-60743802D01*
X77824419Y-60751677D01*
X77984186Y-60920626D01*
X77991695Y-60927387D01*
X78176426Y-61068625D01*
X78184905Y-61074089D01*
X78389847Y-61183978D01*
X78399099Y-61188020D01*
X78618971Y-61263727D01*
X78628743Y-61266236D01*
X78858971Y-61306004D01*
X78866843Y-61306859D01*
X78890551Y-61307936D01*
X78893384Y-61308000D01*
X79827885Y-61308000D01*
X79843124Y-61303525D01*
X79844329Y-61302135D01*
X79846000Y-61294452D01*
X79846000Y-61289885D01*
X80354000Y-61289885D01*
X80358475Y-61305124D01*
X80359865Y-61306329D01*
X80367548Y-61308000D01*
X81258456Y-61308000D01*
X81263488Y-61307798D01*
X81436843Y-61293850D01*
X81446796Y-61292238D01*
X81672633Y-61236767D01*
X81682203Y-61233584D01*
X81896265Y-61142720D01*
X81905207Y-61138045D01*
X82101987Y-61014126D01*
X82110060Y-61008086D01*
X82119232Y-61000000D01*
X88836496Y-61000000D01*
X88856458Y-61189928D01*
X88915473Y-61371556D01*
X89010960Y-61536944D01*
X89015378Y-61541851D01*
X89015379Y-61541852D01*
X89084666Y-61618803D01*
X89138747Y-61678866D01*
X89293248Y-61791118D01*
X89299276Y-61793802D01*
X89299278Y-61793803D01*
X89461681Y-61866109D01*
X89467712Y-61868794D01*
X89561112Y-61888647D01*
X89648056Y-61907128D01*
X89648061Y-61907128D01*
X89654513Y-61908500D01*
X89845487Y-61908500D01*
X89851939Y-61907128D01*
X89851944Y-61907128D01*
X89938888Y-61888647D01*
X90032288Y-61868794D01*
X90038319Y-61866109D01*
X90200722Y-61793803D01*
X90200724Y-61793802D01*
X90206752Y-61791118D01*
X90361253Y-61678866D01*
X90415334Y-61618803D01*
X90484621Y-61541852D01*
X90484622Y-61541851D01*
X90489040Y-61536944D01*
X90584527Y-61371556D01*
X90643542Y-61189928D01*
X90663504Y-61000000D01*
X90645111Y-60825000D01*
X95911496Y-60825000D01*
X95912186Y-60831565D01*
X95921547Y-60920626D01*
X95931458Y-61014928D01*
X95990473Y-61196556D01*
X96085960Y-61361944D01*
X96090378Y-61366851D01*
X96090379Y-61366852D01*
X96099768Y-61377279D01*
X96213747Y-61503866D01*
X96368248Y-61616118D01*
X96374276Y-61618802D01*
X96374278Y-61618803D01*
X96509183Y-61678866D01*
X96542712Y-61693794D01*
X96631954Y-61712763D01*
X96723056Y-61732128D01*
X96723061Y-61732128D01*
X96729513Y-61733500D01*
X96920487Y-61733500D01*
X96926939Y-61732128D01*
X96926944Y-61732128D01*
X97018046Y-61712763D01*
X97107288Y-61693794D01*
X97140817Y-61678866D01*
X97275722Y-61618803D01*
X97275724Y-61618802D01*
X97281752Y-61616118D01*
X97436253Y-61503866D01*
X97550232Y-61377279D01*
X97559621Y-61366852D01*
X97559622Y-61366851D01*
X97564040Y-61361944D01*
X97659527Y-61196556D01*
X97718542Y-61014928D01*
X97728454Y-60920626D01*
X97737814Y-60831565D01*
X97738504Y-60825000D01*
X97718542Y-60635072D01*
X97659527Y-60453444D01*
X97564040Y-60288056D01*
X97513464Y-60231885D01*
X97440675Y-60151045D01*
X97440674Y-60151044D01*
X97436253Y-60146134D01*
X97314500Y-60057675D01*
X97287094Y-60037763D01*
X97287093Y-60037762D01*
X97281752Y-60033882D01*
X97275724Y-60031198D01*
X97275722Y-60031197D01*
X97113319Y-59958891D01*
X97113318Y-59958891D01*
X97107288Y-59956206D01*
X97013888Y-59936353D01*
X96926944Y-59917872D01*
X96926939Y-59917872D01*
X96920487Y-59916500D01*
X96729513Y-59916500D01*
X96723061Y-59917872D01*
X96723056Y-59917872D01*
X96636112Y-59936353D01*
X96542712Y-59956206D01*
X96536682Y-59958891D01*
X96536681Y-59958891D01*
X96374278Y-60031197D01*
X96374276Y-60031198D01*
X96368248Y-60033882D01*
X96362907Y-60037762D01*
X96362906Y-60037763D01*
X96335500Y-60057675D01*
X96213747Y-60146134D01*
X96209326Y-60151044D01*
X96209325Y-60151045D01*
X96136537Y-60231885D01*
X96085960Y-60288056D01*
X95990473Y-60453444D01*
X95931458Y-60635072D01*
X95911496Y-60825000D01*
X90645111Y-60825000D01*
X90643542Y-60810072D01*
X90584527Y-60628444D01*
X90489040Y-60463056D01*
X90484561Y-60458081D01*
X90365675Y-60326045D01*
X90365674Y-60326044D01*
X90361253Y-60321134D01*
X90206752Y-60208882D01*
X90200724Y-60206198D01*
X90200722Y-60206197D01*
X90038319Y-60133891D01*
X90038318Y-60133891D01*
X90032288Y-60131206D01*
X89938888Y-60111353D01*
X89851944Y-60092872D01*
X89851939Y-60092872D01*
X89845487Y-60091500D01*
X89654513Y-60091500D01*
X89648061Y-60092872D01*
X89648056Y-60092872D01*
X89561112Y-60111353D01*
X89467712Y-60131206D01*
X89461682Y-60133891D01*
X89461681Y-60133891D01*
X89299278Y-60206197D01*
X89299276Y-60206198D01*
X89293248Y-60208882D01*
X89138747Y-60321134D01*
X89134326Y-60326044D01*
X89134325Y-60326045D01*
X89015440Y-60458081D01*
X89010960Y-60463056D01*
X88915473Y-60628444D01*
X88856458Y-60810072D01*
X88836496Y-61000000D01*
X82119232Y-61000000D01*
X82284500Y-60854297D01*
X82291504Y-60847044D01*
X82439110Y-60667346D01*
X82444866Y-60659064D01*
X82561841Y-60458081D01*
X82566203Y-60448976D01*
X82649537Y-60231885D01*
X82652388Y-60222196D01*
X82683821Y-60071736D01*
X82682698Y-60057675D01*
X82672590Y-60054000D01*
X80372115Y-60054000D01*
X80356876Y-60058475D01*
X80355671Y-60059865D01*
X80354000Y-60067548D01*
X80354000Y-61289885D01*
X79846000Y-61289885D01*
X79846000Y-60072115D01*
X79841525Y-60056876D01*
X79840135Y-60055671D01*
X79832452Y-60054000D01*
X77529410Y-60054000D01*
X77515324Y-60058136D01*
X77513275Y-60071114D01*
X72508000Y-60071114D01*
X72508000Y-59528264D01*
X77516179Y-59528264D01*
X77517302Y-59542325D01*
X77527410Y-59546000D01*
X79827885Y-59546000D01*
X79843124Y-59541525D01*
X79844329Y-59540135D01*
X79846000Y-59532452D01*
X79846000Y-59527885D01*
X80354000Y-59527885D01*
X80358475Y-59543124D01*
X80359865Y-59544329D01*
X80367548Y-59546000D01*
X82670590Y-59546000D01*
X82684676Y-59541864D01*
X82686725Y-59528886D01*
X82684675Y-59511170D01*
X82682715Y-59501273D01*
X82619396Y-59277506D01*
X82615884Y-59268062D01*
X82517601Y-59057295D01*
X82512622Y-59048529D01*
X82381913Y-58856198D01*
X82375581Y-58848323D01*
X82215814Y-58679374D01*
X82208305Y-58672613D01*
X82023574Y-58531375D01*
X82015095Y-58525911D01*
X81810153Y-58416022D01*
X81800901Y-58411980D01*
X81581029Y-58336273D01*
X81571257Y-58333764D01*
X81341029Y-58293996D01*
X81333157Y-58293141D01*
X81309449Y-58292064D01*
X81306616Y-58292000D01*
X80372115Y-58292000D01*
X80356876Y-58296475D01*
X80355671Y-58297865D01*
X80354000Y-58305548D01*
X80354000Y-59527885D01*
X79846000Y-59527885D01*
X79846000Y-58310115D01*
X79841525Y-58294876D01*
X79840135Y-58293671D01*
X79832452Y-58292000D01*
X78941544Y-58292000D01*
X78936512Y-58292202D01*
X78763157Y-58306150D01*
X78753204Y-58307762D01*
X78527367Y-58363233D01*
X78517797Y-58366416D01*
X78303735Y-58457280D01*
X78294793Y-58461955D01*
X78098013Y-58585874D01*
X78089940Y-58591914D01*
X77915500Y-58745703D01*
X77908496Y-58752956D01*
X77760890Y-58932654D01*
X77755134Y-58940936D01*
X77638159Y-59141919D01*
X77633797Y-59151024D01*
X77550463Y-59368115D01*
X77547612Y-59377804D01*
X77516179Y-59528264D01*
X72508000Y-59528264D01*
X72508000Y-56158456D01*
X75192000Y-56158456D01*
X75192202Y-56163488D01*
X75206150Y-56336843D01*
X75207762Y-56346796D01*
X75263233Y-56572633D01*
X75266416Y-56582203D01*
X75357280Y-56796265D01*
X75361955Y-56805207D01*
X75485874Y-57001987D01*
X75491914Y-57010060D01*
X75645703Y-57184500D01*
X75652956Y-57191504D01*
X75832654Y-57339110D01*
X75840936Y-57344866D01*
X76041919Y-57461841D01*
X76051024Y-57466203D01*
X76268115Y-57549537D01*
X76277804Y-57552388D01*
X76428264Y-57583821D01*
X76442325Y-57582698D01*
X76446000Y-57572590D01*
X76446000Y-57570590D01*
X76954000Y-57570590D01*
X76958136Y-57584676D01*
X76971114Y-57586725D01*
X76988830Y-57584675D01*
X76998727Y-57582715D01*
X77222494Y-57519396D01*
X77231938Y-57515884D01*
X77442705Y-57417601D01*
X77451471Y-57412622D01*
X77546361Y-57348134D01*
X81491500Y-57348134D01*
X81498255Y-57410316D01*
X81549385Y-57546705D01*
X81636739Y-57663261D01*
X81753295Y-57750615D01*
X81889684Y-57801745D01*
X81951866Y-57808500D01*
X84048134Y-57808500D01*
X84110316Y-57801745D01*
X84246705Y-57750615D01*
X84363261Y-57663261D01*
X84450615Y-57546705D01*
X84501745Y-57410316D01*
X84508500Y-57348134D01*
X84508500Y-55748134D01*
X117291500Y-55748134D01*
X117298255Y-55810316D01*
X117349385Y-55946705D01*
X117436739Y-56063261D01*
X117553295Y-56150615D01*
X117689684Y-56201745D01*
X117751866Y-56208500D01*
X120248134Y-56208500D01*
X120310316Y-56201745D01*
X120446705Y-56150615D01*
X120563261Y-56063261D01*
X120650615Y-55946705D01*
X120678111Y-55873359D01*
X122991386Y-55873359D01*
X123000099Y-55884879D01*
X123088586Y-55949760D01*
X123096505Y-55954708D01*
X123312877Y-56068547D01*
X123321451Y-56072275D01*
X123552282Y-56152885D01*
X123561291Y-56155299D01*
X123801518Y-56200908D01*
X123810775Y-56201962D01*
X124055107Y-56211563D01*
X124064420Y-56211237D01*
X124307478Y-56184618D01*
X124316655Y-56182917D01*
X124553107Y-56120665D01*
X124561926Y-56117628D01*
X124786584Y-56021107D01*
X124794856Y-56016800D01*
X125002777Y-55888135D01*
X125004620Y-55886796D01*
X125012038Y-55875541D01*
X125005974Y-55865184D01*
X124888924Y-55748134D01*
X132967541Y-55748134D01*
X132974296Y-55810316D01*
X133025426Y-55946705D01*
X133112780Y-56063261D01*
X133229336Y-56150615D01*
X133365725Y-56201745D01*
X133427907Y-56208500D01*
X135924175Y-56208500D01*
X135986357Y-56201745D01*
X136122746Y-56150615D01*
X136239302Y-56063261D01*
X136326656Y-55946705D01*
X136354152Y-55873359D01*
X138667427Y-55873359D01*
X138676140Y-55884879D01*
X138764627Y-55949760D01*
X138772546Y-55954708D01*
X138988918Y-56068547D01*
X138997492Y-56072275D01*
X139228323Y-56152885D01*
X139237332Y-56155299D01*
X139477559Y-56200908D01*
X139486816Y-56201962D01*
X139731148Y-56211563D01*
X139740461Y-56211237D01*
X139983519Y-56184618D01*
X139992696Y-56182917D01*
X140229148Y-56120665D01*
X140237967Y-56117628D01*
X140462625Y-56021107D01*
X140470897Y-56016800D01*
X140678818Y-55888135D01*
X140680661Y-55886796D01*
X140688079Y-55875541D01*
X140682015Y-55865184D01*
X139688853Y-54872022D01*
X139674909Y-54864408D01*
X139673076Y-54864539D01*
X139666461Y-54868790D01*
X138674085Y-55861166D01*
X138667427Y-55873359D01*
X136354152Y-55873359D01*
X136377786Y-55810316D01*
X136384541Y-55748134D01*
X136384541Y-54459835D01*
X137964063Y-54459835D01*
X137975795Y-54704064D01*
X137976932Y-54713324D01*
X138024634Y-54953143D01*
X138027123Y-54962118D01*
X138109749Y-55192250D01*
X138113546Y-55200778D01*
X138229275Y-55416160D01*
X138234286Y-55424027D01*
X138291214Y-55500263D01*
X138302472Y-55508712D01*
X138314891Y-55501940D01*
X139304019Y-54512812D01*
X139310397Y-54501132D01*
X140040449Y-54501132D01*
X140040580Y-54502965D01*
X140044831Y-54509580D01*
X141039773Y-55504522D01*
X141052153Y-55511282D01*
X141060494Y-55505038D01*
X141178741Y-55321202D01*
X141183188Y-55313011D01*
X141283613Y-55090076D01*
X141286808Y-55081298D01*
X141353176Y-54845973D01*
X141355034Y-54836844D01*
X141386085Y-54592770D01*
X141386566Y-54586483D01*
X141388747Y-54503160D01*
X141388596Y-54496851D01*
X141370362Y-54251486D01*
X141368985Y-54242280D01*
X141315020Y-54003786D01*
X141312296Y-53994875D01*
X141223674Y-53766983D01*
X141219660Y-53758567D01*
X141098325Y-53546276D01*
X141093115Y-53538553D01*
X141061828Y-53498865D01*
X141049904Y-53490395D01*
X141038369Y-53496882D01*
X140048063Y-54487188D01*
X140040449Y-54501132D01*
X139310397Y-54501132D01*
X139311633Y-54498868D01*
X139311502Y-54497035D01*
X139307251Y-54490420D01*
X138312869Y-53496038D01*
X138299561Y-53488771D01*
X138289522Y-53495893D01*
X138284622Y-53501784D01*
X138279209Y-53509373D01*
X138152363Y-53718409D01*
X138148125Y-53726726D01*
X138053570Y-53952214D01*
X138050613Y-53961052D01*
X137990425Y-54198042D01*
X137988804Y-54207232D01*
X137964308Y-54450510D01*
X137964063Y-54459835D01*
X136384541Y-54459835D01*
X136384541Y-53251866D01*
X136377786Y-53189684D01*
X136353506Y-53124917D01*
X138665371Y-53124917D01*
X138669944Y-53134693D01*
X139663229Y-54127978D01*
X139677173Y-54135592D01*
X139679006Y-54135461D01*
X139685621Y-54131210D01*
X140678529Y-53138302D01*
X140684913Y-53126612D01*
X140675501Y-53114502D01*
X140549185Y-53026873D01*
X140541157Y-53022145D01*
X140321851Y-52913995D01*
X140313218Y-52910507D01*
X140080329Y-52835958D01*
X140071279Y-52833785D01*
X139829932Y-52794480D01*
X139820643Y-52793668D01*
X139576155Y-52790467D01*
X139566844Y-52791037D01*
X139324563Y-52824010D01*
X139315444Y-52825948D01*
X139080709Y-52894367D01*
X139071956Y-52897639D01*
X138849910Y-53000004D01*
X138841755Y-53004524D01*
X138674509Y-53114175D01*
X138665371Y-53124917D01*
X136353506Y-53124917D01*
X136326656Y-53053295D01*
X136239302Y-52936739D01*
X136122746Y-52849385D01*
X135986357Y-52798255D01*
X135924175Y-52791500D01*
X133427907Y-52791500D01*
X133365725Y-52798255D01*
X133229336Y-52849385D01*
X133112780Y-52936739D01*
X133025426Y-53053295D01*
X132974296Y-53189684D01*
X132967541Y-53251866D01*
X132967541Y-55748134D01*
X124888924Y-55748134D01*
X124012812Y-54872022D01*
X123998868Y-54864408D01*
X123997035Y-54864539D01*
X123990420Y-54868790D01*
X122998044Y-55861166D01*
X122991386Y-55873359D01*
X120678111Y-55873359D01*
X120701745Y-55810316D01*
X120708500Y-55748134D01*
X120708500Y-54459835D01*
X122288022Y-54459835D01*
X122299754Y-54704064D01*
X122300891Y-54713324D01*
X122348593Y-54953143D01*
X122351082Y-54962118D01*
X122433708Y-55192250D01*
X122437505Y-55200778D01*
X122553234Y-55416160D01*
X122558245Y-55424027D01*
X122615173Y-55500263D01*
X122626431Y-55508712D01*
X122638850Y-55501940D01*
X123627978Y-54512812D01*
X123634356Y-54501132D01*
X124364408Y-54501132D01*
X124364539Y-54502965D01*
X124368790Y-54509580D01*
X125363732Y-55504522D01*
X125376112Y-55511282D01*
X125384453Y-55505038D01*
X125502700Y-55321202D01*
X125507147Y-55313011D01*
X125607572Y-55090076D01*
X125610767Y-55081298D01*
X125677135Y-54845973D01*
X125678993Y-54836844D01*
X125710044Y-54592770D01*
X125710525Y-54586483D01*
X125712706Y-54503160D01*
X125712555Y-54496851D01*
X125694321Y-54251486D01*
X125692944Y-54242280D01*
X125638979Y-54003786D01*
X125636255Y-53994875D01*
X125547633Y-53766983D01*
X125543619Y-53758567D01*
X125422284Y-53546276D01*
X125417074Y-53538553D01*
X125385787Y-53498865D01*
X125373863Y-53490395D01*
X125362328Y-53496882D01*
X124372022Y-54487188D01*
X124364408Y-54501132D01*
X123634356Y-54501132D01*
X123635592Y-54498868D01*
X123635461Y-54497035D01*
X123631210Y-54490420D01*
X122636828Y-53496038D01*
X122623520Y-53488771D01*
X122613481Y-53495893D01*
X122608581Y-53501784D01*
X122603168Y-53509373D01*
X122476322Y-53718409D01*
X122472084Y-53726726D01*
X122377529Y-53952214D01*
X122374572Y-53961052D01*
X122314384Y-54198042D01*
X122312763Y-54207232D01*
X122288267Y-54450510D01*
X122288022Y-54459835D01*
X120708500Y-54459835D01*
X120708500Y-53251866D01*
X120701745Y-53189684D01*
X120677465Y-53124917D01*
X122989330Y-53124917D01*
X122993903Y-53134693D01*
X123987188Y-54127978D01*
X124001132Y-54135592D01*
X124002965Y-54135461D01*
X124009580Y-54131210D01*
X125002488Y-53138302D01*
X125008872Y-53126612D01*
X124999460Y-53114502D01*
X124873144Y-53026873D01*
X124865116Y-53022145D01*
X124645810Y-52913995D01*
X124637177Y-52910507D01*
X124404288Y-52835958D01*
X124395238Y-52833785D01*
X124153891Y-52794480D01*
X124144602Y-52793668D01*
X123900114Y-52790467D01*
X123890803Y-52791037D01*
X123648522Y-52824010D01*
X123639403Y-52825948D01*
X123404668Y-52894367D01*
X123395915Y-52897639D01*
X123173869Y-53000004D01*
X123165714Y-53004524D01*
X122998468Y-53114175D01*
X122989330Y-53124917D01*
X120677465Y-53124917D01*
X120650615Y-53053295D01*
X120563261Y-52936739D01*
X120446705Y-52849385D01*
X120310316Y-52798255D01*
X120248134Y-52791500D01*
X117751866Y-52791500D01*
X117689684Y-52798255D01*
X117553295Y-52849385D01*
X117436739Y-52936739D01*
X117349385Y-53053295D01*
X117298255Y-53189684D01*
X117291500Y-53251866D01*
X117291500Y-55748134D01*
X84508500Y-55748134D01*
X84508500Y-55248134D01*
X102291500Y-55248134D01*
X102298255Y-55310316D01*
X102349385Y-55446705D01*
X102436739Y-55563261D01*
X102553295Y-55650615D01*
X102689684Y-55701745D01*
X102751866Y-55708500D01*
X105248134Y-55708500D01*
X105310316Y-55701745D01*
X105446705Y-55650615D01*
X105563261Y-55563261D01*
X105650615Y-55446705D01*
X105678111Y-55373359D01*
X107991386Y-55373359D01*
X108000099Y-55384879D01*
X108088586Y-55449760D01*
X108096505Y-55454708D01*
X108312877Y-55568547D01*
X108321451Y-55572275D01*
X108552282Y-55652885D01*
X108561291Y-55655299D01*
X108801518Y-55700908D01*
X108810775Y-55701962D01*
X109055107Y-55711563D01*
X109064420Y-55711237D01*
X109307478Y-55684618D01*
X109316655Y-55682917D01*
X109553107Y-55620665D01*
X109561926Y-55617628D01*
X109786584Y-55521107D01*
X109794856Y-55516800D01*
X110002777Y-55388135D01*
X110004620Y-55386796D01*
X110012038Y-55375541D01*
X110005974Y-55365184D01*
X109012812Y-54372022D01*
X108998868Y-54364408D01*
X108997035Y-54364539D01*
X108990420Y-54368790D01*
X107998044Y-55361166D01*
X107991386Y-55373359D01*
X105678111Y-55373359D01*
X105701745Y-55310316D01*
X105708500Y-55248134D01*
X105708500Y-53959835D01*
X107288022Y-53959835D01*
X107299754Y-54204064D01*
X107300891Y-54213324D01*
X107348593Y-54453143D01*
X107351082Y-54462118D01*
X107433708Y-54692250D01*
X107437505Y-54700778D01*
X107553234Y-54916160D01*
X107558245Y-54924027D01*
X107615173Y-55000263D01*
X107626431Y-55008712D01*
X107638850Y-55001940D01*
X108627978Y-54012812D01*
X108634356Y-54001132D01*
X109364408Y-54001132D01*
X109364539Y-54002965D01*
X109368790Y-54009580D01*
X110363732Y-55004522D01*
X110376112Y-55011282D01*
X110384453Y-55005038D01*
X110502700Y-54821202D01*
X110507147Y-54813011D01*
X110607572Y-54590076D01*
X110610767Y-54581298D01*
X110677135Y-54345973D01*
X110678993Y-54336844D01*
X110710044Y-54092770D01*
X110710525Y-54086483D01*
X110712706Y-54003160D01*
X110712555Y-53996851D01*
X110694321Y-53751486D01*
X110692944Y-53742280D01*
X110638979Y-53503786D01*
X110636255Y-53494875D01*
X110547633Y-53266983D01*
X110543619Y-53258567D01*
X110422284Y-53046276D01*
X110417074Y-53038553D01*
X110385787Y-52998865D01*
X110373863Y-52990395D01*
X110362328Y-52996882D01*
X109372022Y-53987188D01*
X109364408Y-54001132D01*
X108634356Y-54001132D01*
X108635592Y-53998868D01*
X108635461Y-53997035D01*
X108631210Y-53990420D01*
X107636828Y-52996038D01*
X107623520Y-52988771D01*
X107613481Y-52995893D01*
X107608581Y-53001784D01*
X107603168Y-53009373D01*
X107476322Y-53218409D01*
X107472084Y-53226726D01*
X107377529Y-53452214D01*
X107374572Y-53461052D01*
X107314384Y-53698042D01*
X107312763Y-53707232D01*
X107288267Y-53950510D01*
X107288022Y-53959835D01*
X105708500Y-53959835D01*
X105708500Y-52751866D01*
X105701745Y-52689684D01*
X105677465Y-52624917D01*
X107989330Y-52624917D01*
X107993903Y-52634693D01*
X108987188Y-53627978D01*
X109001132Y-53635592D01*
X109002965Y-53635461D01*
X109009580Y-53631210D01*
X110002488Y-52638302D01*
X110008872Y-52626612D01*
X109999460Y-52614502D01*
X109873144Y-52526873D01*
X109865116Y-52522145D01*
X109645810Y-52413995D01*
X109637177Y-52410507D01*
X109404288Y-52335958D01*
X109395238Y-52333785D01*
X109153891Y-52294480D01*
X109144602Y-52293668D01*
X108900114Y-52290467D01*
X108890803Y-52291037D01*
X108648522Y-52324010D01*
X108639403Y-52325948D01*
X108404668Y-52394367D01*
X108395915Y-52397639D01*
X108173869Y-52500004D01*
X108165714Y-52504524D01*
X107998468Y-52614175D01*
X107989330Y-52624917D01*
X105677465Y-52624917D01*
X105650615Y-52553295D01*
X105563261Y-52436739D01*
X105446705Y-52349385D01*
X105310316Y-52298255D01*
X105248134Y-52291500D01*
X102751866Y-52291500D01*
X102689684Y-52298255D01*
X102553295Y-52349385D01*
X102436739Y-52436739D01*
X102349385Y-52553295D01*
X102298255Y-52689684D01*
X102291500Y-52751866D01*
X102291500Y-55248134D01*
X84508500Y-55248134D01*
X84508500Y-52651866D01*
X84501745Y-52589684D01*
X84450615Y-52453295D01*
X84363261Y-52336739D01*
X84246705Y-52249385D01*
X84110316Y-52198255D01*
X84048134Y-52191500D01*
X81951866Y-52191500D01*
X81889684Y-52198255D01*
X81753295Y-52249385D01*
X81636739Y-52336739D01*
X81549385Y-52453295D01*
X81498255Y-52589684D01*
X81491500Y-52651866D01*
X81491500Y-57348134D01*
X77546361Y-57348134D01*
X77643802Y-57281913D01*
X77651677Y-57275581D01*
X77820626Y-57115814D01*
X77827387Y-57108305D01*
X77968625Y-56923574D01*
X77974089Y-56915095D01*
X78083978Y-56710153D01*
X78088020Y-56700901D01*
X78163727Y-56481029D01*
X78166236Y-56471257D01*
X78206004Y-56241029D01*
X78206859Y-56233157D01*
X78207936Y-56209449D01*
X78208000Y-56206616D01*
X78208000Y-55272115D01*
X78203525Y-55256876D01*
X78202135Y-55255671D01*
X78194452Y-55254000D01*
X76972115Y-55254000D01*
X76956876Y-55258475D01*
X76955671Y-55259865D01*
X76954000Y-55267548D01*
X76954000Y-57570590D01*
X76446000Y-57570590D01*
X76446000Y-55272115D01*
X76441525Y-55256876D01*
X76440135Y-55255671D01*
X76432452Y-55254000D01*
X75210115Y-55254000D01*
X75194876Y-55258475D01*
X75193671Y-55259865D01*
X75192000Y-55267548D01*
X75192000Y-56158456D01*
X72508000Y-56158456D01*
X72508000Y-54727885D01*
X75192000Y-54727885D01*
X75196475Y-54743124D01*
X75197865Y-54744329D01*
X75205548Y-54746000D01*
X76427885Y-54746000D01*
X76443124Y-54741525D01*
X76444329Y-54740135D01*
X76446000Y-54732452D01*
X76446000Y-54727885D01*
X76954000Y-54727885D01*
X76958475Y-54743124D01*
X76959865Y-54744329D01*
X76967548Y-54746000D01*
X78189885Y-54746000D01*
X78205124Y-54741525D01*
X78206329Y-54740135D01*
X78208000Y-54732452D01*
X78208000Y-53841544D01*
X78207798Y-53836512D01*
X78193850Y-53663157D01*
X78192238Y-53653204D01*
X78136767Y-53427367D01*
X78133584Y-53417797D01*
X78042720Y-53203735D01*
X78038045Y-53194793D01*
X77914126Y-52998013D01*
X77908086Y-52989940D01*
X77754297Y-52815500D01*
X77747044Y-52808496D01*
X77567346Y-52660890D01*
X77559064Y-52655134D01*
X77358081Y-52538159D01*
X77348976Y-52533797D01*
X77131885Y-52450463D01*
X77122196Y-52447612D01*
X76971736Y-52416179D01*
X76957675Y-52417302D01*
X76954000Y-52427410D01*
X76954000Y-54727885D01*
X76446000Y-54727885D01*
X76446000Y-52429410D01*
X76441864Y-52415324D01*
X76428886Y-52413275D01*
X76411170Y-52415325D01*
X76401273Y-52417285D01*
X76177506Y-52480604D01*
X76168062Y-52484116D01*
X75957295Y-52582399D01*
X75948529Y-52587378D01*
X75756198Y-52718087D01*
X75748323Y-52724419D01*
X75579374Y-52884186D01*
X75572613Y-52891695D01*
X75431375Y-53076426D01*
X75425911Y-53084905D01*
X75316022Y-53289847D01*
X75311980Y-53299099D01*
X75236273Y-53518971D01*
X75233764Y-53528743D01*
X75193996Y-53758971D01*
X75193141Y-53766843D01*
X75192064Y-53790551D01*
X75192000Y-53793384D01*
X75192000Y-54727885D01*
X72508000Y-54727885D01*
X72508000Y-44634000D01*
X72528002Y-44565879D01*
X72581658Y-44519386D01*
X72634000Y-44508000D01*
X162866000Y-44508000D01*
X162934121Y-44528002D01*
G37*
%TD.AperFunction*%
%TD*%
M02*
