%TF.GenerationSoftware,KiCad,Pcbnew,(6.0.0)*%
%TF.CreationDate,2022-12-17T21:28:13-05:00*%
%TF.ProjectId,TPA3255PBTL,54504133-3235-4355-9042-544c2e6b6963,rev?*%
%TF.SameCoordinates,Original*%
%TF.FileFunction,Legend,Bot*%
%TF.FilePolarity,Positive*%
%FSLAX46Y46*%
G04 Gerber Fmt 4.6, Leading zero omitted, Abs format (unit mm)*
G04 Created by KiCad (PCBNEW (6.0.0)) date 2022-12-17 21:28:13*
%MOMM*%
%LPD*%
G01*
G04 APERTURE LIST*
%ADD10C,0.150000*%
%ADD11C,0.120000*%
%ADD12C,0.127000*%
%ADD13C,0.200000*%
G04 APERTURE END LIST*
D10*
%TO.C,C25*%
X121927142Y-95082142D02*
X121974761Y-95034523D01*
X122022380Y-94891666D01*
X122022380Y-94796428D01*
X121974761Y-94653571D01*
X121879523Y-94558333D01*
X121784285Y-94510714D01*
X121593809Y-94463095D01*
X121450952Y-94463095D01*
X121260476Y-94510714D01*
X121165238Y-94558333D01*
X121070000Y-94653571D01*
X121022380Y-94796428D01*
X121022380Y-94891666D01*
X121070000Y-95034523D01*
X121117619Y-95082142D01*
X121117619Y-95463095D02*
X121070000Y-95510714D01*
X121022380Y-95605952D01*
X121022380Y-95844047D01*
X121070000Y-95939285D01*
X121117619Y-95986904D01*
X121212857Y-96034523D01*
X121308095Y-96034523D01*
X121450952Y-95986904D01*
X122022380Y-95415476D01*
X122022380Y-96034523D01*
X121022380Y-96939285D02*
X121022380Y-96463095D01*
X121498571Y-96415476D01*
X121450952Y-96463095D01*
X121403333Y-96558333D01*
X121403333Y-96796428D01*
X121450952Y-96891666D01*
X121498571Y-96939285D01*
X121593809Y-96986904D01*
X121831904Y-96986904D01*
X121927142Y-96939285D01*
X121974761Y-96891666D01*
X122022380Y-96796428D01*
X122022380Y-96558333D01*
X121974761Y-96463095D01*
X121927142Y-96415476D01*
%TO.C,C6*%
X133916666Y-90707142D02*
X133964285Y-90754761D01*
X134107142Y-90802380D01*
X134202380Y-90802380D01*
X134345238Y-90754761D01*
X134440476Y-90659523D01*
X134488095Y-90564285D01*
X134535714Y-90373809D01*
X134535714Y-90230952D01*
X134488095Y-90040476D01*
X134440476Y-89945238D01*
X134345238Y-89850000D01*
X134202380Y-89802380D01*
X134107142Y-89802380D01*
X133964285Y-89850000D01*
X133916666Y-89897619D01*
X133059523Y-89802380D02*
X133250000Y-89802380D01*
X133345238Y-89850000D01*
X133392857Y-89897619D01*
X133488095Y-90040476D01*
X133535714Y-90230952D01*
X133535714Y-90611904D01*
X133488095Y-90707142D01*
X133440476Y-90754761D01*
X133345238Y-90802380D01*
X133154761Y-90802380D01*
X133059523Y-90754761D01*
X133011904Y-90707142D01*
X132964285Y-90611904D01*
X132964285Y-90373809D01*
X133011904Y-90278571D01*
X133059523Y-90230952D01*
X133154761Y-90183333D01*
X133345238Y-90183333D01*
X133440476Y-90230952D01*
X133488095Y-90278571D01*
X133535714Y-90373809D01*
%TO.C,C24*%
X123367857Y-75677142D02*
X123415476Y-75724761D01*
X123558333Y-75772380D01*
X123653571Y-75772380D01*
X123796428Y-75724761D01*
X123891666Y-75629523D01*
X123939285Y-75534285D01*
X123986904Y-75343809D01*
X123986904Y-75200952D01*
X123939285Y-75010476D01*
X123891666Y-74915238D01*
X123796428Y-74820000D01*
X123653571Y-74772380D01*
X123558333Y-74772380D01*
X123415476Y-74820000D01*
X123367857Y-74867619D01*
X122986904Y-74867619D02*
X122939285Y-74820000D01*
X122844047Y-74772380D01*
X122605952Y-74772380D01*
X122510714Y-74820000D01*
X122463095Y-74867619D01*
X122415476Y-74962857D01*
X122415476Y-75058095D01*
X122463095Y-75200952D01*
X123034523Y-75772380D01*
X122415476Y-75772380D01*
X121558333Y-75105714D02*
X121558333Y-75772380D01*
X121796428Y-74724761D02*
X122034523Y-75439047D01*
X121415476Y-75439047D01*
%TO.C,C42*%
X117142857Y-83177142D02*
X117190476Y-83224761D01*
X117333333Y-83272380D01*
X117428571Y-83272380D01*
X117571428Y-83224761D01*
X117666666Y-83129523D01*
X117714285Y-83034285D01*
X117761904Y-82843809D01*
X117761904Y-82700952D01*
X117714285Y-82510476D01*
X117666666Y-82415238D01*
X117571428Y-82320000D01*
X117428571Y-82272380D01*
X117333333Y-82272380D01*
X117190476Y-82320000D01*
X117142857Y-82367619D01*
X116285714Y-82605714D02*
X116285714Y-83272380D01*
X116523809Y-82224761D02*
X116761904Y-82939047D01*
X116142857Y-82939047D01*
X115809523Y-82367619D02*
X115761904Y-82320000D01*
X115666666Y-82272380D01*
X115428571Y-82272380D01*
X115333333Y-82320000D01*
X115285714Y-82367619D01*
X115238095Y-82462857D01*
X115238095Y-82558095D01*
X115285714Y-82700952D01*
X115857142Y-83272380D01*
X115238095Y-83272380D01*
%TO.C,C7*%
X134641666Y-84707142D02*
X134689285Y-84754761D01*
X134832142Y-84802380D01*
X134927380Y-84802380D01*
X135070238Y-84754761D01*
X135165476Y-84659523D01*
X135213095Y-84564285D01*
X135260714Y-84373809D01*
X135260714Y-84230952D01*
X135213095Y-84040476D01*
X135165476Y-83945238D01*
X135070238Y-83850000D01*
X134927380Y-83802380D01*
X134832142Y-83802380D01*
X134689285Y-83850000D01*
X134641666Y-83897619D01*
X134308333Y-83802380D02*
X133641666Y-83802380D01*
X134070238Y-84802380D01*
%TO.C,U1*%
X126761904Y-93459880D02*
X126761904Y-94269404D01*
X126714285Y-94364642D01*
X126666666Y-94412261D01*
X126571428Y-94459880D01*
X126380952Y-94459880D01*
X126285714Y-94412261D01*
X126238095Y-94364642D01*
X126190476Y-94269404D01*
X126190476Y-93459880D01*
X125190476Y-94459880D02*
X125761904Y-94459880D01*
X125476190Y-94459880D02*
X125476190Y-93459880D01*
X125571428Y-93602738D01*
X125666666Y-93697976D01*
X125761904Y-93745595D01*
D11*
%TO.C,C25*%
X123985000Y-95463748D02*
X123985000Y-95986252D01*
X122515000Y-95463748D02*
X122515000Y-95986252D01*
%TO.C,C6*%
X133038748Y-89410000D02*
X134461252Y-89410000D01*
X133038748Y-87590000D02*
X134461252Y-87590000D01*
%TO.C,C24*%
X122986252Y-77735000D02*
X122463748Y-77735000D01*
X122986252Y-76265000D02*
X122463748Y-76265000D01*
%TO.C,C42*%
X116761252Y-83765000D02*
X116238748Y-83765000D01*
X116761252Y-85235000D02*
X116238748Y-85235000D01*
%TO.C,C7*%
X133763748Y-83410000D02*
X135186252Y-83410000D01*
X133763748Y-81590000D02*
X135186252Y-81590000D01*
D12*
%TO.C,U1*%
X122730000Y-93050000D02*
X128830000Y-93050000D01*
X122730000Y-78695000D02*
X128830000Y-78695000D01*
D13*
X120590000Y-92920000D02*
G75*
G03*
X120590000Y-92920000I-100000J0D01*
G01*
%TD*%
M02*
