%TF.GenerationSoftware,KiCad,Pcbnew,(6.0.0)*%
%TF.CreationDate,2022-12-17T21:28:13-05:00*%
%TF.ProjectId,TPA3255PBTL,54504133-3235-4355-9042-544c2e6b6963,rev?*%
%TF.SameCoordinates,Original*%
%TF.FileFunction,Soldermask,Bot*%
%TF.FilePolarity,Negative*%
%FSLAX46Y46*%
G04 Gerber Fmt 4.6, Leading zero omitted, Abs format (unit mm)*
G04 Created by KiCad (PCBNEW (6.0.0)) date 2022-12-17 21:28:13*
%MOMM*%
%LPD*%
G01*
G04 APERTURE LIST*
G04 Aperture macros list*
%AMRoundRect*
0 Rectangle with rounded corners*
0 $1 Rounding radius*
0 $2 $3 $4 $5 $6 $7 $8 $9 X,Y pos of 4 corners*
0 Add a 4 corners polygon primitive as box body*
4,1,4,$2,$3,$4,$5,$6,$7,$8,$9,$2,$3,0*
0 Add four circle primitives for the rounded corners*
1,1,$1+$1,$2,$3*
1,1,$1+$1,$4,$5*
1,1,$1+$1,$6,$7*
1,1,$1+$1,$8,$9*
0 Add four rect primitives between the rounded corners*
20,1,$1+$1,$2,$3,$4,$5,0*
20,1,$1+$1,$4,$5,$6,$7,0*
20,1,$1+$1,$6,$7,$8,$9,0*
20,1,$1+$1,$8,$9,$2,$3,0*%
G04 Aperture macros list end*
%ADD10R,1.600000X1.600000*%
%ADD11C,1.600000*%
%ADD12C,2.400000*%
%ADD13R,1.700000X1.700000*%
%ADD14O,1.700000X1.700000*%
%ADD15R,3.500000X3.500000*%
%ADD16C,4.000000*%
%ADD17C,3.000000*%
%ADD18R,2.000000X4.600000*%
%ADD19O,2.000000X4.200000*%
%ADD20O,4.200000X2.000000*%
%ADD21R,2.400000X2.400000*%
%ADD22R,1.800000X1.800000*%
%ADD23C,1.800000*%
%ADD24RoundRect,0.250000X-0.475000X0.250000X-0.475000X-0.250000X0.475000X-0.250000X0.475000X0.250000X0*%
%ADD25RoundRect,0.250000X-0.325000X-0.650000X0.325000X-0.650000X0.325000X0.650000X-0.325000X0.650000X0*%
%ADD26RoundRect,0.250000X0.250000X0.475000X-0.250000X0.475000X-0.250000X-0.475000X0.250000X-0.475000X0*%
%ADD27RoundRect,0.019000X-0.766000X-0.171000X0.766000X-0.171000X0.766000X0.171000X-0.766000X0.171000X0*%
G04 APERTURE END LIST*
D10*
%TO.C,C9*%
X83150000Y-71205113D03*
D11*
X83150000Y-68705113D03*
%TD*%
D10*
%TO.C,C11*%
X111000000Y-79500000D03*
D11*
X111000000Y-77000000D03*
%TD*%
D12*
%TO.C,C39*%
X139750000Y-96250000D03*
X154750000Y-96250000D03*
%TD*%
D13*
%TO.C,J3*%
X97225000Y-99960000D03*
D14*
X99765000Y-99960000D03*
X97225000Y-102500000D03*
X99765000Y-102500000D03*
X97225000Y-105040000D03*
X99765000Y-105040000D03*
X97225000Y-107580000D03*
X99765000Y-107580000D03*
%TD*%
D12*
%TO.C,C38*%
X156500000Y-64500000D03*
X141500000Y-64500000D03*
%TD*%
D15*
%TO.C,J2*%
X80000000Y-103000000D03*
D16*
X74975000Y-97975000D03*
X85025000Y-97975000D03*
X74975000Y-108025000D03*
X85025000Y-108025000D03*
%TD*%
D17*
%TO.C,L3*%
X149500000Y-82550000D03*
X149500000Y-90450000D03*
%TD*%
D10*
%TO.C,C30*%
X88000000Y-77000000D03*
D11*
X88000000Y-79500000D03*
%TD*%
D10*
%TO.C,C28*%
X102000000Y-77000000D03*
D11*
X102000000Y-79500000D03*
%TD*%
D18*
%TO.C,J1*%
X83000000Y-55000000D03*
D19*
X76700000Y-55000000D03*
D20*
X80100000Y-59800000D03*
%TD*%
D21*
%TO.C,C4*%
X128676041Y-67000000D03*
D12*
X133676041Y-67000000D03*
%TD*%
D21*
%TO.C,C5*%
X134676041Y-54500000D03*
D12*
X139676041Y-54500000D03*
%TD*%
D17*
%TO.C,L2*%
X149500000Y-78000000D03*
X149500000Y-70100000D03*
%TD*%
D22*
%TO.C,D3*%
X77000000Y-65000000D03*
D23*
X77000000Y-67540000D03*
%TD*%
D22*
%TO.C,D6*%
X76825000Y-89460000D03*
D23*
X76825000Y-92000000D03*
%TD*%
D22*
%TO.C,D7*%
X77000000Y-74460000D03*
D23*
X77000000Y-77000000D03*
%TD*%
D21*
%TO.C,C2*%
X119000000Y-54500000D03*
D12*
X124000000Y-54500000D03*
%TD*%
D22*
%TO.C,D5*%
X76825000Y-81960000D03*
D23*
X76825000Y-84500000D03*
%TD*%
D21*
%TO.C,C1*%
X104000000Y-54000000D03*
D12*
X109000000Y-54000000D03*
%TD*%
D24*
%TO.C,C25*%
X123250000Y-94775000D03*
X123250000Y-96675000D03*
%TD*%
D25*
%TO.C,C6*%
X132275000Y-88500000D03*
X135225000Y-88500000D03*
%TD*%
D26*
%TO.C,C24*%
X123675000Y-77000000D03*
X121775000Y-77000000D03*
%TD*%
%TO.C,C42*%
X117450000Y-84500000D03*
X115550000Y-84500000D03*
%TD*%
D25*
%TO.C,C7*%
X133000000Y-82500000D03*
X135950000Y-82500000D03*
%TD*%
D27*
%TO.C,U1*%
X122060000Y-92540000D03*
X122060000Y-91905000D03*
X122060000Y-91270000D03*
X122060000Y-90635000D03*
X122060000Y-90000000D03*
X122060000Y-89365000D03*
X122060000Y-88730000D03*
X122060000Y-88095000D03*
X122060000Y-87460000D03*
X122060000Y-86825000D03*
X122060000Y-86190000D03*
X122060000Y-85555000D03*
X122060000Y-84920000D03*
X122060000Y-84285000D03*
X122060000Y-83650000D03*
X122060000Y-83015000D03*
X122060000Y-82380000D03*
X122060000Y-81745000D03*
X122060000Y-81110000D03*
X122060000Y-80475000D03*
X122060000Y-79840000D03*
X122060000Y-79205000D03*
X129500000Y-79205000D03*
X129500000Y-79840000D03*
X129500000Y-80475000D03*
X129500000Y-81110000D03*
X129500000Y-81745000D03*
X129500000Y-82380000D03*
X129500000Y-83015000D03*
X129500000Y-83650000D03*
X129500000Y-84285000D03*
X129500000Y-84920000D03*
X129500000Y-85555000D03*
X129500000Y-86190000D03*
X129500000Y-86825000D03*
X129500000Y-87460000D03*
X129500000Y-88095000D03*
X129500000Y-88730000D03*
X129500000Y-89365000D03*
X129500000Y-90000000D03*
X129500000Y-90635000D03*
X129500000Y-91270000D03*
X129500000Y-91905000D03*
X129500000Y-92540000D03*
%TD*%
M02*
